<svg xmlns="http://www.w3.org/2000/svg" viewBox="0 0 36 36" id="AppStore">
  <path fill="#efefef" d="M34.904 20.355c-3.782-5.791-3.38-11.727-5.203-14.518-1.823-2.791-7.256-7.603-20.093.782s-9.572 17.5-7.566 20.569c9.388 14.372 39.561 3.423 32.862-6.833z" class="colorefefef svgShape"></path>
  <path fill="#f83b3b" d="M29.25 10.175c-.827 0-1.5-.673-1.5-1.5s.673-1.5 1.5-1.5 1.5.673 1.5 1.5-.673 1.5-1.5 1.5zm0-2a.5.5 0 1 0 0 1 .5.5 0 0 0 0-1zM7.722 6.713l1.415-1.415.707.707L8.429 7.42zM3.656 10.779l1.415-1.415.707.707-1.415 1.415zM3.656 5.829l.707-.708 1.415 1.414-.707.708z" class="colora4afc1 svgShape"></path>
  <circle cx="18" cy="18" r="11.25" fill="#df2f2f" class="color2fdf84 svgShape"></circle>
  <path fill="#b80000" d="M9 18c0-5.833 4.44-10.629 10.125-11.193-.37-.037-.745-.057-1.125-.057-6.213 0-11.25 5.037-11.25 11.25S11.787 29.25 18 29.25c.38 0 .755-.02 1.125-.057C13.44 28.629 9 23.833 9 18z" class="color00b871 svgShape"></path>
  <path d="M18 30c-6.617 0-12-5.383-12-12S11.383 6 18 6s12 5.383 12 12-5.383 12-12 12zm0-22.5C12.21 7.5 7.5 12.21 7.5 18S12.21 28.5 18 28.5 28.5 23.79 28.5 18 23.79 7.5 18 7.5z" fill="#000000" class="color000000 svgShape"></path>
  <path d="m18.542 16.25 1.276-.787 4.57 7.4-1.276.788zM17.361 14.357l-1.988-3.222 1.274-.791 1.992 3.228zM11.612 22.863l.62-1.002 1.276.79-.62 1.002z" fill="#000000" class="color000000 svgShape"></path>
  <path d="m13.467 19.855 5.89-9.508 1.275.79-5.89 9.508z" fill="#000000" class="color000000 svgShape"></path>
  <path d="M10.75 19.503h8.8v1.5h-8.8zM21.89 19.503h3.36v1.5h-3.36z" fill="#000000" class="color000000 svgShape"></path>
</svg>