<svg xmlns="http://www.w3.org/2000/svg" viewBox="0 0 100 100" id="Journal">
  <path fill="#f83b3b" d="M74,98.91H18a10,10,0,0,1-10-10V10A10,10,0,0,1,18,0H74A10,10,0,0,1,84,10v4a2,2,0,0,1-4,0V10a6,6,0,0,0-6-6H18a6,6,0,0,0-6,6V88.91a6,6,0,0,0,6,6H74a6,6,0,0,0,6-6V54a2,2,0,0,1,4,0V88.91A10,10,0,0,1,74,98.91Z" class="color091531 svgShape"></path>
  <path fill="#f83b3b" d="M26,84a2,2,0,0,1-1.42-.59,2,2,0,0,1-.48-2l8-24a2,2,0,0,1,.48-.78C72,16.79,72.73,16.4,73.1,16.21a2,2,0,0,1,2.31.38l16,16a2,2,0,0,1,0,2.82l-40,40a2,2,0,0,1-.78.49l-24,8A2,2,0,0,1,26,84Zm9.75-24.92L29.16,78.84l19.76-6.59L87.17,34,73.94,20.77C68.74,25.82,49.23,45.45,35.75,59.08Z" class="color091531 svgShape"></path>
  <path fill="#f83b3b" d="M42 68a2 2 0 01-1.41-.59l-8-8a2 2 0 012.82-2.82l8 8A2 2 0 0142 68zM78 48a2 2 0 01-1.41-.59L60.5 31.33a2 2 0 012.83-2.83L79.41 44.59A2 2 0 0178 48zM58 20H26a2 2 0 010-4H58a2 2 0 010 4zM46 32H26a2 2 0 010-4H46a2 2 0 010 4zM34 44H26a2 2 0 010-4h8a2 2 0 010 4z" class="color091531 svgShape"></path>
</svg>