<svg
  xmlns="http://www.w3.org/2000/svg"
  viewBox="0 0 100 100"
  width="48"
  height="48"
  id="Journal"
>
  <!-- Main Body -->
  <path
    fill="#f83b3b"
    d="M74 98.91H18a10 10 0 01-10-10V10A10 10 0 0118 0H74a10 10 0 0110 10v4a2 2 0 01-4 0V10a6 6 0 00-6-6H18a6 6 0 00-6 6V88.91a6 6 0 006 6H74a6 6 0 006-6V54a2 2 0 014 0V88.91a10 10 0 01-10 10z"
  />
  
  <!-- Blade Section -->
  <path
    fill="#ff6060"
    d="M26 84a2 2 0 01-1.42-.59 2 2 0 01-.48-2l8-24a2 2 0 01.48-.78L73.1 16.21a2 2 0 012.31.38l16 16a2 2 0 010 2.82l-40 40a2 2 0 01-.78.49l-24 8A2 2 0 0126 84zm9.75-24.92L29.16 78.84l19.76-6.59L87.17 34 73.94 20.77C68.74 25.82 49.23 45.45 35.75 59.08z"
  />
  
  <!-- Smaller Design Elements -->
  <path
    fill="#ffefef"
    d="M42 68a2 2 0 01-1.41-.59l-8-8a2 2 0 012.82-2.82l8 8A2 2 0 0142 68zM78 48a2 2 0 01-1.41-.59L60.5 31.33a2 2 0 012.83-2.83L79.41 44.59A2 2 0 0178 48zM58 20H26a2 2 0 010-4H58a2 2 0 010 4zM46 32H26a2 2 0 010-4H46a2 2 0 010 4zM34 44H26a2 2 0 010-4h8a2 2 0 010 4z"
  />
  
  <!-- Accent Fill -->
  <polygon
    fill="#f32f2f"
    points="26 82 50 74 34 58 26 82"
  />
  <polygon
    fill="#ff6060"
    points="78 46 50 74 26 82 30 86 54 78 82 50 82 42 78 46"
  />
</svg>
