<svg width="178" height="173" viewBox="0 0 178 173" fill="none" xmlns="http://www.w3.org/2000/svg">
<path d="M88.932 172.849C138.048 172.849 177.864 169.105 177.864 164.488C177.864 159.87 138.048 156.127 88.932 156.127C39.8162 156.127 0 159.87 0 164.488C0 169.105 39.8162 172.849 88.932 172.849Z" fill="#E1ECF8"/>
<path d="M44.589 154.531L47.286 154.501C47.275 155.757 51.7411 156.875 53.6631 158.135C54.2301 158.507 55.286 159.236 54.606 159.895C54.201 160.288 53.3301 160.422 52.7541 160.407C50.3751 160.347 47.958 160.392 45.77 159.609C44.891 159.295 43.952 158.837 43.718 158.062C43.408 157.039 44.612 156.297 44.589 154.531Z" fill="#1B227A"/>
<path d="M14.6416 156.458L17.2806 156.428C17.2696 157.684 21.6326 158.802 23.5116 160.062C24.0656 160.434 25.0976 161.164 24.4326 161.822C24.0366 162.215 23.1856 162.349 22.6216 162.334C20.2966 162.274 17.9336 162.319 15.7946 161.536C14.9356 161.222 14.0176 160.764 13.7886 159.989C13.4876 158.966 14.6636 158.224 14.6416 156.458Z" fill="#1B227A"/>
<path d="M47.023 73.1757C50.503 90.8737 50.503 98.9927 50.924 112.033C51.436 127.872 49.059 142.558 48.125 155.54C48.125 155.54 46.123 156.511 44.339 155.586C42.636 147.651 37.601 132.858 39.344 122.337C39.657 120.447 39.914 118.547 39.937 116.631C39.991 112.14 27.223 90.6867 29.776 70.1847" fill="#3E89CC"/>
<path d="M35.3427 67.1557C36.5167 78.7407 30.9987 106.549 28.8337 117.287C26.0087 131.297 18.7457 155.245 18.2567 157.464C17.3247 158.089 14.5277 157.417 14.5277 157.417C14.3657 146.754 11.6247 131.599 15.3977 121.457C16.0757 119.635 16.8197 117.81 17.0447 115.904C17.2587 114.094 10.9217 93.6927 12.0257 85.0337C12.6097 80.4587 14.2397 74.9377 18.2417 69.9367" fill="#3E89CC"/>
<path d="M34.3756 85.3627C34.0486 87.2257 33.7526 89.0917 33.4846 90.9647C33.2866 92.3477 32.5826 94.5457 32.9296 95.9187C32.9746 96.0967 33.2326 96.1297 33.3226 95.9697C34.0166 94.7327 33.9066 92.4347 34.0766 91.0447C34.3066 89.1667 34.5046 87.2877 34.6756 85.4037C34.6906 85.2337 34.4056 85.1937 34.3756 85.3627Z" fill="#1979BF"/>
<path d="M20.9718 25.1377C22.9388 23.0807 25.1568 22.0307 25.1568 22.0307C27.3468 21.7207 33.7308 22.9227 35.9208 22.6127C36.4428 22.5387 43.2118 25.9417 45.0398 27.1527C46.9928 28.4467 46.8128 31.2597 47.0768 33.3847C47.3868 35.8837 47.6188 38.3927 47.7998 40.9047C48.1278 45.4557 45.6858 49.6807 44.9908 54.0887C44.6538 56.2257 44.8578 58.6177 44.7498 60.8127C44.6148 63.5557 44.5748 66.3097 44.7958 69.0497C44.9278 70.6867 45.1518 72.3167 45.4918 73.9227C45.6718 74.7747 45.8678 75.7317 45.3928 76.4627C45.0828 76.9397 44.5448 77.2137 44.0168 77.4247C35.1888 80.9407 25.6578 76.6447 16.5938 77.3857C15.8268 77.4487 15.0268 77.5427 14.3078 77.2657C13.5888 76.9887 13.0008 76.1937 13.2478 75.4647C13.5108 74.6907 14.5108 74.4117 14.8948 73.6897C15.1888 73.1367 15.0538 72.4637 14.9098 71.8537C13.5858 66.2647 12.5318 60.6187 11.3008 54.9987C8.0058 39.9557 12.1538 35.3907 12.2128 33.0257C12.2678 30.8407 13.7208 29.9407 15.2388 28.4177" fill="#F4B5C7"/>
<path d="M27.0474 13.5317C26.4694 16.6657 26.1314 18.7307 25.7884 21.8997C25.6894 22.8247 27.9034 24.6877 28.5544 24.9347C31.0324 25.8707 34.2714 25.7297 35.8644 23.2857C36.5034 22.3057 35.9014 21.1907 35.6434 20.1077C35.2774 18.5777 34.9224 17.0457 34.5534 15.5167" fill="#F4B5C7"/>
<path d="M36.0059 10.1277C37.0439 11.6517 37.6359 13.4757 37.6879 15.3197C38.5269 14.5427 39.4059 14.1497 39.8049 12.9657C40.1089 12.0627 40.0729 10.7417 39.8839 9.80771C40.0719 9.92171 40.4079 10.3107 40.4109 10.9167C40.9999 9.14872 40.5709 7.47371 39.8249 5.76571C39.5469 5.12771 39.0009 4.39472 38.4599 3.95572C37.9199 3.51772 37.1239 3.32869 36.5159 3.66769" fill="#FE7D90"/>
<path d="M38.9917 13.6307C38.7917 11.7767 39.0437 9.8967 38.7007 8.0477C38.2857 5.8097 37.0757 4.0127 34.8517 3.3107C32.4717 2.5597 29.6717 3.0297 27.6177 4.4267C24.2957 6.6847 23.9118 11.5537 25.9988 14.9857C28.0858 18.4177 29.4677 19.6727 30.5707 20.1027C32.5437 20.8707 37.5397 20.2817 38.3287 19.1667C39.0567 18.1387 39.0987 14.6217 38.9917 13.6307Z" fill="#F9C4D1"/>
<path d="M27.9011 8.19273C27.7601 9.21173 27.8242 10.2587 28.0892 11.2527C28.2332 11.7927 28.4342 12.3177 28.5622 12.8617C28.5982 13.0127 28.5972 13.2217 28.4492 13.2677C28.3832 13.2887 28.3112 13.2637 28.2522 13.2287C27.9252 13.0297 27.8371 12.4917 27.4571 12.4427C27.2311 12.4137 27.0232 12.5997 26.9462 12.8137C26.8692 13.0277 26.8911 13.2637 26.9091 13.4897C26.9731 14.2667 26.9872 15.0477 26.9532 15.8267C26.9472 15.9537 26.9301 16.1007 26.8231 16.1707C26.6991 16.2517 26.5362 16.1807 26.4082 16.1057C24.3642 14.9157 22.6912 12.8007 22.7052 10.4357C22.7092 9.80971 22.8301 9.18671 23.0211 8.59071C23.3421 7.59471 23.8652 6.6637 24.5482 5.8707C25.0062 5.3397 25.7362 4.83772 26.3582 5.16172" fill="#FE7D90"/>
<path d="M37.4295 1.39168C36.8865 0.862682 36.1895 0.640701 35.4785 0.441701C34.8245 0.258701 34.2675 0.00969821 33.5715 0.00169821C31.3535 -0.0213018 29.0745 0.180692 27.0735 1.13869C26.3855 1.46769 25.7365 1.88371 25.0235 2.15371C24.3095 2.42371 23.4965 2.5377 22.7905 2.2477C22.7635 2.6407 23.0635 2.99569 23.4205 3.16069C23.7775 3.32469 24.1835 3.33768 24.5765 3.34868C23.7785 3.96768 22.5675 3.98269 21.7535 3.38469C21.3505 3.92569 21.3335 4.65469 21.3685 5.32769C21.3885 5.69969 21.4215 6.08269 21.5905 6.41469C21.8125 6.85169 22.2365 7.1427 22.6435 7.4157C23.1705 7.7687 23.7025 8.1237 24.2905 8.3637C25.2395 8.7497 26.3065 8.8137 27.3085 8.6007C28.2365 8.4037 29.1245 8.06568 30.0565 7.88268C31.1265 7.67368 32.2175 7.59269 33.3055 7.57369C34.4125 7.55469 35.5565 7.8297 36.6485 7.5367C37.8645 7.2097 38.1585 5.8827 38.2935 4.7957C38.4365 3.6437 38.5335 2.12268 37.4295 1.39168Z" fill="#FE7D90"/>
<path d="M37.3533 10.1257C37.0633 9.8167 36.7023 9.8007 36.5223 10.5517C36.4083 11.0247 36.5003 11.9007 37.1393 11.9047C38.1163 11.9107 37.8273 10.6297 37.3533 10.1257Z" fill="#8E5169"/>
<path d="M37.485 10.5207C37.356 10.3837 37.197 10.3767 37.117 10.7097C37.067 10.9197 37.107 11.3077 37.39 11.3097C37.823 11.3127 37.695 10.7447 37.485 10.5207Z" fill="white"/>
<path d="M31.5099 11.0777C31.1879 10.7537 30.7859 10.7397 30.5769 11.5377C30.4449 12.0397 30.5389 12.9667 31.2529 12.9647C32.3449 12.9617 32.0349 11.6067 31.5099 11.0777Z" fill="#8E5169"/>
<path d="M31.653 11.4957C31.51 11.3517 31.332 11.3457 31.239 11.6997C31.181 11.9227 31.222 12.3327 31.539 12.3327C32.024 12.3307 31.886 11.7297 31.653 11.4957Z" fill="white"/>
<path d="M29.2862 9.37372C29.6462 9.34372 30.0012 9.3467 30.3582 9.4097C30.6402 9.4597 30.9002 9.5677 31.1882 9.5607C31.4002 9.5547 31.4402 9.30369 31.2892 9.18969C30.7652 8.79469 29.8412 8.9007 29.2372 9.0057C29.0292 9.0417 29.0752 9.39172 29.2862 9.37372Z" fill="#8E5169"/>
<path d="M37.6204 7.80569C36.8384 7.52669 36.0844 8.19272 36.0124 8.95572C35.9994 9.08972 36.1754 9.18172 36.2824 9.11072C36.7274 8.81872 36.9674 8.2257 37.5634 8.2197C37.8114 8.2167 37.8404 7.88369 37.6204 7.80569Z" fill="#8E5169"/>
<path d="M35.5248 12.4007C35.5248 12.4007 35.7098 12.5837 35.9358 12.8847C36.0418 13.0477 36.1778 13.1937 36.3008 13.4297C36.4078 13.6547 36.5348 13.9107 36.4618 14.2867C36.4208 14.4797 36.2288 14.6567 36.0618 14.7037C35.8988 14.7587 35.8038 14.7567 35.6728 14.7787C35.4318 14.8117 35.2028 14.7957 35.0118 14.7877C34.6258 14.7547 34.3828 14.6557 34.3828 14.6557C34.3828 14.6557 34.6358 14.5937 34.9918 14.5067C35.1708 14.4717 35.3728 14.4037 35.5878 14.3467C35.6868 14.3157 35.7898 14.2837 35.8938 14.2507C35.9558 14.2197 35.9678 14.2077 35.9808 14.1547C36.0198 14.0387 35.9618 13.7987 35.8978 13.6017C35.8218 13.3867 35.7498 13.1857 35.6888 13.0137C35.5688 12.6577 35.5248 12.4007 35.5248 12.4007Z" fill="#E588A7"/>
<path d="M27.794 12.4657C27.584 12.2727 27.368 12.0757 27.107 11.9607C26.846 11.8447 26.527 11.8217 26.284 11.9717C26.087 12.0937 25.969 12.3097 25.881 12.5247C25.618 13.1657 25.556 13.9027 25.789 14.5557C26.022 15.2087 26.572 15.7587 27.247 15.9147C27.922 16.0707 28.698 15.7837 29.047 15.1847" fill="#F9C4D1"/>
<path d="M26.0912 19.5007C28.0642 21.1477 31.4072 24.1827 33.8752 24.9007C32.5362 25.5137 31.5413 27.6927 31.4853 28.9707C29.1083 27.5707 26.6042 24.3797 25.1562 22.0307" fill="white"/>
<path d="M34.3273 26.3597C34.8493 35.4547 35.4043 44.5477 35.8343 53.6477C36.0403 57.9957 36.2063 62.3457 36.2743 66.6987C36.3293 70.2677 36.8873 74.9787 34.9763 78.1587C34.8783 78.3227 35.1173 78.4487 35.2263 78.3047C37.0493 75.8847 36.7693 72.0487 36.7513 69.1887C36.7223 64.5727 36.5403 59.9557 36.3213 55.3457C35.8613 45.6737 35.1083 36.0187 34.4383 26.3597C34.4313 26.2907 34.3233 26.2897 34.3273 26.3597Z" fill="#005D8F"/>
<path d="M33.4061 28.9677C34.1151 28.9677 34.1161 27.8657 33.4061 27.8657C32.6971 27.8667 32.6961 28.9677 33.4061 28.9677Z" fill="#005D8F"/>
<path d="M33.8296 37.9197C34.5386 37.9197 34.5396 36.8177 33.8296 36.8177C33.1216 36.8187 33.1196 37.9197 33.8296 37.9197Z" fill="#005D8F"/>
<path d="M34.2538 46.8717C34.9628 46.8717 34.9638 45.7697 34.2538 45.7697C33.5448 45.7697 33.5438 46.8717 34.2538 46.8717Z" fill="#005D8F"/>
<path d="M34.678 55.8237C35.387 55.8237 35.388 54.7217 34.678 54.7217C33.969 54.7217 33.967 55.8237 34.678 55.8237Z" fill="#005D8F"/>
<path d="M35.1005 64.7747C35.8095 64.7747 35.8105 63.6727 35.1005 63.6727C34.3915 63.6737 34.3905 64.7747 35.1005 64.7747Z" fill="#005D8F"/>
<path d="M35.1005 73.7267C35.8095 73.7267 35.8105 72.6247 35.1005 72.6247C34.3915 72.6247 34.3905 73.7267 35.1005 73.7267Z" fill="#005D8F"/>
<path d="M32.7559 16.3617C32.9449 17.5997 34.6019 17.9187 35.4549 17.7567C36.0369 17.6457 37.1789 16.9337 37.1789 15.8757L32.7559 16.3617Z" fill="#E588A7"/>
<path d="M39.1123 37.3687C41.0123 37.4237 43.0793 37.2257 44.9523 36.9037C44.9353 37.2097 44.9823 37.5197 45.0873 37.8077C43.0993 37.9987 41.1073 38.1467 39.1123 38.2527" fill="#005D8F"/>
<path d="M36.2393 22.4167C41.1563 23.9357 47.5433 25.0807 50.8683 29.4237C53.1133 32.3567 53.2193 35.9577 53.0893 39.4937C52.9203 44.0997 52.2493 48.7937 51.4233 53.3197C50.8723 56.3387 50.2573 60.9587 47.6723 63.0197C46.1253 64.2527 38.7333 62.1777 36.4653 61.8027C31.7903 61.0307 27.0773 60.2487 22.6533 58.5527C22.9723 57.4397 23.2913 56.3257 23.6103 55.2127C25.3893 54.6827 27.2743 54.6647 29.1313 54.6507C33.4573 54.6187 39.4553 54.6767 43.7403 55.2717C44.4873 50.9887 45.9763 39.2807 46.3993 36.2987" fill="#F4B5C7"/>
<path d="M36.8483 55.1227C38.4543 54.9537 39.4213 53.1847 40.9463 52.6527C41.6793 52.3967 42.4783 52.4497 43.2533 52.5057C43.4093 52.5167 43.5833 52.5367 43.6853 52.6567C43.7873 52.7767 44.2213 52.8927 44.2063 53.0497C44.1603 53.5447 43.9843 54.0527 43.9373 54.5467C43.9133 54.7997 43.8853 55.0647 43.7403 55.2727C43.5693 55.5177 42.9583 55.6817 42.7163 55.8567C42.3393 56.1297 42.0983 56.5467 41.7843 56.8907C41.0913 57.6477 40.0553 58.0207 39.0313 58.0937C38.0083 58.1667 36.9853 57.9687 35.9863 57.7367" fill="#F9C4D1"/>
<path d="M19.6216 33.9267C20.7976 41.9647 22.0466 47.2837 21.6376 55.4077C27.4576 53.8147 38.0236 54.6367 38.0236 54.6367C38.0236 54.6367 39.1426 55.4077 39.0286 58.4847C39.0676 58.6747 20.7076 64.7857 17.2206 65.0577C16.4576 65.1167 15.6576 65.0537 14.9886 64.6557C14.0296 64.0857 13.5176 62.3197 13.1216 61.3707C12.1826 59.1207 11.4186 56.7937 10.7026 54.4647C8.79457 48.2607 6.1846 40.8477 7.1326 34.2827C8.4186 25.3727 17.8166 23.6817 25.1566 22.0297" fill="#F4B5C7"/>
<path d="M19.9419 36.8797C21.2439 42.9697 21.7579 49.1997 22.1319 55.4057C22.1419 55.5777 22.2819 55.6747 22.4469 55.6457C27.5499 54.7527 32.8589 54.8557 38.0239 54.8527C38.3009 54.8527 38.3009 54.4227 38.0239 54.4227C36.2099 54.4237 34.3969 54.4587 32.5829 54.5137C29.6449 54.6027 26.4939 55.1387 23.5759 54.9747C23.5069 54.9707 22.6569 55.1457 22.6109 55.1027C22.4359 54.9377 22.5239 53.6977 22.5079 53.4507C22.3989 51.8007 22.2709 50.1517 22.1119 48.5047C21.7319 44.5657 21.1569 40.6517 20.1909 36.8107C20.1499 36.6497 19.9069 36.7187 19.9419 36.8797Z" fill="#005D8F"/>
<path d="M12.3112 58.4257C13.0342 60.4727 13.5162 64.1177 15.5612 65.3617C17.1482 66.3267 19.3632 65.8047 21.0242 65.3677C27.0982 63.7687 33.6812 61.8207 39.1192 58.6407C39.2902 58.5407 39.1772 58.2417 38.9812 58.3127C36.2022 59.3077 33.5532 60.6347 30.7872 61.6727C28.3692 62.5797 25.8942 63.2887 23.4492 64.1107C21.6232 64.7247 19.6762 65.4627 17.7212 65.4227C14.3652 65.3537 13.5182 60.9727 12.3972 58.3897C12.3752 58.3407 12.2932 58.3757 12.3112 58.4257Z" fill="#005D8F"/>
<path d="M35.798 20.6637C35.634 22.0197 34.785 23.8807 33.876 24.9007C35.625 24.9447 36.57 27.3867 36.376 27.6467C36.376 27.6467 37.249 24.6117 36.696 21.8367" fill="white"/>
<path d="M38.2763 54.9957C38.6423 55.6737 38.7463 56.4137 38.7393 57.1757C38.7353 57.6597 38.6063 58.2027 38.7113 58.6747C38.7383 58.7957 38.9263 58.8227 38.9823 58.7097C39.2343 58.2077 39.1453 57.4797 39.0713 56.9437C38.9723 56.2277 38.7753 55.5447 38.3643 54.9437C38.3283 54.8917 38.2453 54.9377 38.2763 54.9957Z" fill="#005D8F"/>
<path d="M46.2621 36.2997C45.4791 42.9577 44.0931 49.5987 43.5971 56.2837C43.5831 56.4797 43.9051 56.5257 43.9421 56.3307C45.2001 49.7457 45.8091 42.9617 46.5351 36.2997C46.5541 36.1247 46.2821 36.1267 46.2621 36.2997Z" fill="#005D8F"/>
<path d="M33.8005 61.0757C38.1545 62.1777 42.6255 64.0797 47.1935 63.0987C47.4675 63.0397 47.3475 62.6397 47.0795 62.6847C42.5595 63.4297 38.2235 61.7697 33.8645 60.8427C33.7135 60.8097 33.6485 61.0377 33.8005 61.0757Z" fill="#005D8F"/>
<path d="M29.519 54.5077C28.921 54.1847 28.323 53.8627 27.725 53.5397C27.101 53.2027 26.456 52.8597 25.751 52.7837C25.189 52.7227 24.621 52.8377 24.082 53.0107C23.348 53.2457 22.649 53.5897 22.015 54.0277C21.614 54.3047 21.203 54.6967 21.233 55.1827C21.261 55.6377 21.691 55.9857 22.139 56.0747C22.586 56.1627 23.046 56.0517 23.488 55.9387C23.93 55.8257 24.388 55.7097 24.837 55.7887C25.026 55.8217 25.208 55.8897 25.397 55.9247C25.678 55.9777 25.967 55.9597 26.251 55.9207C27.338 55.7717 28.518 54.9547 29.519 54.5077Z" fill="#F9C4D1"/>
<path d="M109.348 41.4467C109.049 40.9787 108.75 40.5107 108.451 40.0427C108.235 39.7047 108.017 39.3637 107.724 39.0897C107.444 38.8267 107.106 38.6357 106.772 38.4467C106.219 38.1337 105.667 37.8217 105.114 37.5087C104.968 37.4257 104.796 37.3407 104.64 37.4027C104.342 37.5197 104.452 37.9847 104.688 38.2007C104.924 38.4167 105.256 38.5907 105.301 38.9067C104.356 38.6397 103.381 38.4767 102.401 38.4217C102.087 38.4037 101.764 38.3987 101.469 38.5057C101.174 38.6127 100.908 38.8557 100.861 39.1657C100.78 39.6947 101.321 40.1027 101.823 40.2877C102.899 40.6847 104.077 40.6677 105.209 40.8537C106.341 41.0397 107.536 41.5147 108.075 42.5277" fill="#F9C4D1"/>
<path d="M147.404 32.9717C136.631 33.7617 129.614 41.0607 124.165 46.6197C123.807 46.9847 123.43 47.3637 122.945 47.5267C122.209 47.7747 121.412 47.4737 120.694 47.1757C117.397 45.8107 108.605 40.3487 108.605 40.3487L107.263 41.6147C107.263 41.6147 114.826 51.5567 120.58 55.9807C124.962 59.3497 139.748 47.2317 144.68 43.9257" fill="#3E89CC"/>
<path d="M140.159 125.58C140.777 134.786 142.566 153.763 141.825 155.423C141.35 156.488 140.279 157.121 139.371 157.852C138.388 158.644 137.577 159.649 137.01 160.777C139.779 160.286 141.533 159.656 144.232 158.866C144.842 158.688 145.288 158.512 145.754 158.08C146.22 157.648 146.287 157.504 145.771 156.448C145.176 155.229 144.797 155.631 144.837 154.275C145.003 148.538 147.115 140.154 147.209 134.416C147.268 130.842 145.86 127.158 147.037 123.782" fill="#F9C4D1"/>
<path d="M140.347 157.053C139.271 157.814 138.153 158.514 136.998 159.148C136.688 159.318 136.366 159.491 136.144 159.767C135.922 160.043 135.826 160.454 136.014 160.754C136.2 161.051 136.588 161.143 136.937 161.173C137.2 161.195 137.465 161.197 137.729 161.178C138.143 161.148 138.553 161.068 138.96 160.988C140.294 160.726 141.627 160.464 142.961 160.202C144.015 159.995 145.092 159.779 146.015 159.23C146.137 159.157 146.26 159.075 146.335 158.955C146.409 158.837 146.431 158.693 146.437 158.554C146.457 158.111 146.253 156.733 145.875 156.449C145.73 156.468 145.425 156.772 145.311 156.864C144.993 157.122 144.584 157.233 144.188 157.338C143.45 157.533 142.701 157.73 141.937 157.721C141.678 157.718 141.416 157.69 141.172 157.602C140.972 157.53 140.787 157.418 140.631 157.274" fill="#FE7D90"/>
<path d="M158.373 125.58C158.991 134.786 160.78 153.763 160.04 155.423C159.565 156.488 158.494 157.121 157.586 157.852C156.603 158.644 155.792 159.649 155.225 160.777C157.994 160.286 159.748 159.656 162.447 158.866C163.057 158.688 163.503 158.512 163.969 158.08C164.435 157.648 164.502 157.504 163.986 156.448C163.391 155.229 163.012 155.631 163.051 154.275C163.217 148.538 165.329 140.154 165.423 134.416C165.482 130.842 164.074 127.158 165.252 123.782" fill="#F9C4D1"/>
<path d="M158.56 157.053C157.484 157.814 156.366 158.514 155.211 159.148C154.901 159.318 154.579 159.491 154.357 159.767C154.135 160.043 154.039 160.454 154.227 160.754C154.413 161.051 154.801 161.143 155.15 161.173C155.413 161.195 155.679 161.197 155.942 161.178C156.357 161.148 156.766 161.068 157.173 160.988C158.507 160.726 159.84 160.464 161.174 160.202C162.228 159.995 163.305 159.779 164.228 159.23C164.35 159.157 164.473 159.075 164.548 158.955C164.622 158.837 164.644 158.693 164.65 158.554C164.67 158.111 164.467 156.733 164.088 156.449C163.943 156.468 163.638 156.772 163.524 156.864C163.206 157.122 162.797 157.233 162.401 157.338C161.663 157.533 160.914 157.73 160.15 157.721C159.891 157.718 159.629 157.69 159.385 157.602C159.185 157.53 159 157.418 158.844 157.274" fill="#FE7D90"/>
<path d="M135.983 68.7567C134.229 75.4927 135.184 82.5337 135.099 89.4947C134.944 102.087 136.825 121.087 136.584 127.263C139.956 130.284 161.777 129.255 168.664 126.724C168.945 115.658 170.411 88.0337 170.244 84.9257C169.847 77.5107 167.174 73.5417 164.079 66.7917C163.922 66.4487 163.735 66.0797 163.391 65.9227C163.047 65.7657 162.531 65.9917 162.568 66.3677" fill="#F4B5C7"/>
<path d="M166.968 52.5137C166.096 47.9087 165.752 42.9517 163.315 38.8117C160.568 34.1447 155.048 31.8257 149.682 32.6417H148.5C145.707 33.3247 143.208 35.1027 141.676 37.4967C140.189 39.8207 137.677 43.6697 137.236 46.3807C135.74 55.5757 134.81 64.1597 134.754 82.1007C144.707 85.6427 159.737 84.6877 169.901 81.7787C170.948 74.5857 168.313 59.6137 166.968 52.5137Z" fill="#3E89CC"/>
<path d="M148.829 29.5537C148.837 30.5597 147.807 32.8297 147.058 33.5017C147.551 34.6177 148.905 35.8547 148.905 35.8547C148.905 35.8547 153.42 34.8337 154.757 33.0797C154.111 31.4517 153.497 26.1627 153.777 25.3207" fill="#F4B5C7"/>
<path d="M142.649 18.7377C142.284 20.3637 143.405 21.9097 143.827 23.5217C144.117 24.6297 144.075 25.7957 144.221 26.9317C144.368 28.0677 144.759 29.2567 145.675 29.9437C146.455 30.5287 147.494 30.6537 148.465 30.5727C150.732 30.3817 152.886 29.1217 154.164 27.2387C155.442 25.3557 155.817 22.8887 155.158 20.7117C154.92 19.9257 154.557 19.1817 154.123 18.4857C153.008 16.6947 151.307 15.1527 149.236 14.7507C147.165 14.3487 144.758 15.3697 144.037 17.3527" fill="#F9C4D1"/>
<path d="M146.442 13.6547C146.277 13.5007 146.053 13.5787 145.869 13.6857C144.767 14.3267 143.969 15.8537 143.883 17.4887C143.855 18.0287 143.912 18.6177 144.184 19.0097C144.351 19.2517 144.581 19.3917 144.81 19.5067C147.702 20.9637 151.125 19.3257 153.91 21.1307C153.893 19.5497 153.419 18.0157 152.703 16.7757C151.986 15.5357 151.038 14.5737 150.021 13.8237C149.182 13.2047 148.157 12.7227 147.3 13.2907" fill="#1B227A"/>
<path d="M151.816 19.1677C152.509 19.5507 153.02 20.2477 153.177 21.0237C153.335 21.8027 153.173 22.6967 153.655 23.3287C153.692 23.3777 153.736 23.4257 153.794 23.4427C154.049 23.5167 154.117 23.0037 154.382 22.9807C154.742 23.3057 154.835 23.8347 154.82 24.3197C154.805 24.8047 154.705 25.2907 154.769 25.7717C154.779 25.8437 154.793 25.9177 154.839 25.9737C154.934 26.0897 155.114 26.0767 155.259 26.0387C156.149 25.8027 156.803 25.0447 157.268 24.2497C158.435 22.2537 158.742 19.7987 158.221 17.5457C158.067 16.8817 157.839 16.2207 157.428 15.6767C157.017 15.1327 156.402 14.7147 155.722 14.6617C155.586 13.7937 155.366 12.8747 154.716 12.2827C154.291 11.8957 153.73 11.6967 153.177 11.5407C150.457 10.7757 146.321 11.1047 144.839 13.9407C144.6 14.3977 144.453 14.9157 144.529 15.4227C144.688 16.4877 145.736 17.1847 146.719 17.6777C148.061 18.3497 149.469 18.8977 150.917 19.3117" fill="#1B227A"/>
<path d="M154.313 13.4187C155.204 12.5017 156.364 11.8507 157.61 11.5687C159.165 11.2157 160.936 11.4927 162.08 12.6037C163.151 13.6437 163.519 15.2197 164.463 16.3767C166.06 18.3347 168.923 18.7087 170.88 20.3067C171.453 20.7747 171.964 21.3967 172.033 22.1327C172.119 23.0477 171.509 23.9037 171.511 24.8227C171.516 26.4797 173.448 27.6617 173.432 29.3187C173.418 30.7547 171.947 31.7317 170.566 32.1277C168.495 32.7217 166.179 32.5947 164.295 31.5507C162.411 30.5067 161.036 28.4907 160.989 26.3377C160.968 25.3997 161.187 24.4617 161.083 23.5297C160.896 21.8497 159.692 20.4037 159.557 18.7187C159.496 17.9527 159.64 17.1007 159.181 16.4847C158.978 16.2117 158.68 16.0267 158.39 15.8477C157.508 15.3057 156.345 14.7667 155.513 15.3827" fill="#1B227A"/>
<path d="M144.725 14.8227C143.474 14.3427 141.903 14.9967 141.363 16.2227C141.09 16.8417 141.065 17.5377 141.047 18.2137C141.031 18.8107 141.019 19.4267 141.241 19.9807C141.382 20.3347 141.612 20.6447 141.838 20.9507C142.44 21.7627 143.134 22.3977 143.736 23.2097C143.267 21.2977 143.284 20.6937 143.471 19.4267C143.658 18.1607 144.718 17.0367 145.495 16.0197" fill="#1B227A"/>
<path d="M153.497 23.4447C153.382 23.3607 153.488 23.1827 153.595 23.0897C153.81 22.9007 154.03 22.7077 154.294 22.5947C154.557 22.4807 154.875 22.4567 155.123 22.6017C155.357 22.7387 155.489 23.0007 155.568 23.2597C155.845 24.1697 155.59 25.2217 154.926 25.9037C154.659 26.1777 154.302 26.4017 153.92 26.3807C153.538 26.3587 153.167 26.0057 153.239 25.6297" fill="#F9C4D1"/>
<path d="M146.744 33.6207C147.244 34.8567 147.89 35.9427 149.182 36.4367C149.146 36.2987 149.109 36.1607 149.073 36.0217C148.747 36.4437 148.315 36.7707 148.072 37.2527C147.809 37.7747 147.773 38.3797 147.734 38.9517C147.9 38.8827 148.067 38.8137 148.233 38.7447C146.817 37.4737 145.792 36.1237 145.427 34.2307C145.384 34.0047 145.01 34.0027 144.967 34.2307C144.607 36.1767 146.447 38.0397 147.819 39.1577C148.013 39.3157 148.308 39.2187 148.318 38.9507C148.344 38.2377 148.392 37.6377 148.848 37.0347C149.037 36.7847 149.274 36.5757 149.462 36.3207C149.564 36.1817 149.449 36.0047 149.314 35.9567C148.153 35.5427 147.599 34.5057 146.98 33.5197C146.906 33.4037 146.687 33.4797 146.744 33.6207Z" fill="#1979BF"/>
<path d="M148.737 39.0027C147.432 50.2007 146.471 62.0667 147.98 73.2897C147.998 73.4247 148.227 73.3927 148.218 73.2577C147.436 61.8177 148.002 50.4107 149.042 39.0027C149.059 38.8057 148.759 38.8117 148.737 39.0027Z" fill="#1979BF"/>
<path d="M149.966 39.8837C150.584 39.8837 150.585 38.9227 149.966 38.9227C149.348 38.9227 149.347 39.8837 149.966 39.8837Z" fill="#1979BF"/>
<path d="M149.785 48.0057C149.808 48.0017 149.83 47.9977 149.853 47.9937C149.948 47.9777 150.052 47.8737 150.068 47.7787C150.072 47.7557 150.076 47.7337 150.08 47.7117C150.148 47.3167 149.692 46.9837 149.375 47.3017C149.057 47.6187 149.39 48.0737 149.785 48.0057Z" fill="#1979BF"/>
<path d="M149.38 56.9617C150.003 56.9617 150.004 55.9927 149.38 55.9927C148.756 55.9927 148.755 56.9617 149.38 56.9617Z" fill="#1979BF"/>
<path d="M149.771 65.3437C149.836 65.3427 149.901 65.3407 149.966 65.3397C150.574 65.3277 150.575 64.4067 149.966 64.3947C149.901 64.3937 149.836 64.3917 149.771 64.3907C149.158 64.3787 149.157 65.3557 149.771 65.3437Z" fill="#1979BF"/>
<path d="M150.161 72.7157C150.719 72.7157 150.72 71.8487 150.161 71.8487C149.603 71.8487 149.602 72.7157 150.161 72.7157Z" fill="#005D8F"/>
<path d="M146.472 81.6517L166.237 88.9387C166.776 89.1377 167.37 88.8337 167.524 88.2807L172.504 74.5737C172.641 74.0807 172.377 73.5647 171.897 73.3877L152.132 66.1007C151.593 65.9017 151 66.2057 150.845 66.7587L145.865 80.4657C145.727 80.9587 145.991 81.4747 146.472 81.6517Z" fill="#FE7D90"/>
<path d="M147.246 80.8337L166.17 87.8107L171.122 74.2037L152.198 67.2277L147.246 80.8337Z" fill="#E5F8FF"/>
<path d="M153.718 69.0067L149.355 80.5017" stroke="#A1D2F0" stroke-width="0.5282" stroke-miterlimit="10" stroke-linecap="round" stroke-linejoin="round"/>
<path d="M155.508 69.6567L151.146 81.1517" stroke="#A1D2F0" stroke-width="0.5282" stroke-miterlimit="10" stroke-linecap="round" stroke-linejoin="round"/>
<path d="M158.098 70.5667L153.735 82.0607" stroke="#A1D2F0" stroke-width="0.5282" stroke-miterlimit="10" stroke-linecap="round" stroke-linejoin="round"/>
<path d="M160.688 71.4767L156.325 82.9707" stroke="#A1D2F0" stroke-width="0.5282" stroke-miterlimit="10" stroke-linecap="round" stroke-linejoin="round"/>
<path d="M163.279 72.3867L159.141 84.0157" stroke="#A1D2F0" stroke-width="0.5282" stroke-miterlimit="10" stroke-linecap="round" stroke-linejoin="round"/>
<path d="M165.868 73.2957L161.731 84.9257" stroke="#A1D2F0" stroke-width="0.5282" stroke-miterlimit="10" stroke-linecap="round" stroke-linejoin="round"/>
<path d="M168.459 74.2057L164.406 85.8857" stroke="#A1D2F0" stroke-width="0.5282" stroke-miterlimit="10" stroke-linecap="round" stroke-linejoin="round"/>
<path d="M149.108 70.6727L150.863 71.2297L148.53 77.6407L146.794 77.0427L149.108 70.6727Z" fill="#FE7D90"/>
<path d="M144.931 72.7927C144.62 73.6377 145.052 74.5747 145.897 74.8857L147.857 75.6077L148.984 72.5487C148.984 72.5487 147.427 71.9757 147.024 71.8267C146.179 71.5157 145.242 71.9477 144.931 72.7927ZM147.338 73.6797C147.163 74.1537 146.638 74.3967 146.164 74.2217C145.69 74.0467 145.448 73.5217 145.622 73.0477C145.797 72.5737 146.322 72.3307 146.796 72.5057C147.27 72.6807 147.513 73.2057 147.338 73.6797Z" fill="#FE7D90"/>
<path d="M160.427 78.1537C160.121 78.6567 159.815 79.1637 159.424 79.6037C158.865 80.2327 158.149 80.7057 157.577 81.3227C157.005 81.9397 156.474 83.2447 156.772 83.6067C157.07 83.9687 157.307 83.3177 157.575 83.1737C157.634 83.1417 157.931 82.8047 157.997 82.8187C158.141 82.8487 157.92 83.3547 157.888 83.4987C157.608 84.7797 156.889 85.9177 156.455 87.1547C156.406 87.2937 156.361 87.4497 156.418 87.5857C156.561 87.9297 157.079 87.7717 157.387 87.5607C158.632 86.7067 159.95 85.7607 160.461 84.3397C160.804 83.3877 161.116 82.3207 161.126 81.3087C161.136 80.2967 161.256 79.2187 161.89 78.4297" fill="#F9C4D1"/>
<path d="M146.304 27.2197C146.237 27.4337 146.392 28.4477 147.287 28.6437C148.037 28.8077 149.422 28.2527 149.255 27.5057C149.127 27.2197 146.371 27.0067 146.304 27.2197Z" fill="#E588A7"/>
<path d="M147.379 24.4267C147.204 24.8167 146.629 24.8037 146.595 25.2987C146.571 25.6507 146.85 25.9327 147.17 26.0087C147.251 26.0277 147.293 25.9377 147.246 25.8777C147.077 25.6657 146.698 25.4297 146.93 25.0647C146.985 24.9777 147.119 24.9077 147.192 24.8357C147.307 24.7207 147.385 24.6027 147.429 24.4467C147.437 24.4187 147.392 24.3977 147.379 24.4267Z" fill="#E588A7"/>
<path d="M144.485 22.1397C144.7 21.8017 145.031 21.7237 145.331 22.3887C145.52 22.8077 145.589 23.6367 144.997 23.7527C144.092 23.9307 144.134 22.6907 144.485 22.1397Z" fill="#1B227A"/>
<path d="M144.433 22.5297C144.528 22.3797 144.675 22.3447 144.808 22.6407C144.892 22.8267 144.922 23.1937 144.66 23.2457C144.259 23.3247 144.278 22.7747 144.433 22.5297Z" fill="white"/>
<path d="M146.254 20.7867C145.914 20.1557 144.328 19.7307 144.046 20.6287C144.019 20.7137 144.124 20.7987 144.201 20.7477C144.559 20.5107 144.797 20.3647 145.243 20.4557C145.582 20.5247 145.879 20.7027 146.185 20.8567C146.229 20.8787 146.278 20.8327 146.254 20.7867Z" fill="#1B227A"/>
<path d="M150.075 21.9947C150.316 21.6377 150.687 21.5537 151.022 22.2567C151.233 22.6997 151.309 23.5757 150.646 23.6997C149.632 23.8897 149.682 22.5777 150.075 21.9947Z" fill="#1B227A"/>
<path d="M150.016 22.4077C150.123 22.2487 150.287 22.2117 150.436 22.5237C150.529 22.7197 150.563 23.1087 150.269 23.1637C149.819 23.2477 149.841 22.6657 150.016 22.4077Z" fill="white"/>
<path d="M149.197 20.8777C149.701 20.7777 150.217 20.7717 150.709 20.9337C151.182 21.0897 151.472 21.4197 151.888 21.6557C151.992 21.7147 152.078 21.6007 152.038 21.5057C151.612 20.5047 149.996 20.3377 149.125 20.7057C149.022 20.7497 149.1 20.8967 149.197 20.8777Z" fill="#1B227A"/>
<path d="M149.43 25.4157C149.391 25.1627 149.485 24.8937 149.783 24.6447C150.295 24.2177 151.095 24.1387 151.72 24.3027C151.997 24.3757 152.262 24.5617 152.351 24.8347C152.405 25.0017 152.389 25.1857 152.342 25.3547C152.173 25.9717 151.584 26.4657 150.937 26.4767C150.339 26.4887 149.529 26.0557 149.43 25.4157Z" fill="#F9AFC7"/>
<path d="M144.291 25.2287C144.266 25.0277 144.321 24.8157 144.5 24.6207C144.806 24.2857 145.288 24.2277 145.665 24.3607C145.833 24.4197 145.993 24.5687 146.048 24.7847C146.082 24.9177 146.073 25.0627 146.045 25.1967C145.946 25.6847 145.594 26.0727 145.204 26.0777C144.845 26.0837 144.354 25.7367 144.291 25.2287Z" fill="#F9AFC7"/>
<path d="M154.739 35.2837C153.908 37.1097 153.772 39.2497 154.068 41.2667C154.363 43.2837 155.066 45.1997 155.847 47.0517C157.69 51.4197 160.005 55.5447 162.728 59.3127C163.006 59.6967 158.615 76.3117 159.184 79.5687C159.62 80.1557 160.71 80.3237 161.21 80.3977C164.669 76.3137 171.505 60.1357 171.58 58.7177C171.76 55.3197 170.336 51.0727 168.787 46.9657C166.635 41.2607 162.862 35.2977 155.973 33.1067" fill="#3E89CC"/>
<path d="M155.395 45.8687C156.922 49.7607 159.217 53.2327 160.992 56.9937C161.596 58.2737 162.435 59.4407 162.247 60.8737C161.881 63.6557 160.815 66.3067 160.486 69.1027C160.458 69.3417 160.815 69.3597 160.885 69.1567C161.789 66.5467 162.8 63.3207 162.929 60.5297C162.978 59.4827 162.548 58.8517 162.007 57.9487C159.666 54.0367 157.478 49.9407 155.552 45.8017C155.511 45.7157 155.359 45.7777 155.395 45.8687Z" fill="#1979BF"/>
<path d="M154.637 32.4917C154.633 33.5977 152.425 34.2837 151.624 34.6067C150.668 34.9937 149.712 35.3227 148.816 35.8447C148.44 36.0637 148.716 36.5437 149.09 36.4937C149.375 36.4557 150.086 37.2317 150.31 37.4557C150.892 38.0357 151.3 38.6867 151.599 39.4517C151.65 39.5817 151.755 39.6857 151.904 39.6837C152.827 39.6697 153.944 37.8687 154.472 37.2487C155.376 36.1887 156.351 35.0067 156.536 33.5857C156.568 33.3377 156.195 33.3187 156.122 33.5297C155.663 34.8567 154.869 35.9717 153.955 37.0247C153.627 37.4027 152.447 38.9747 152.03 38.7817C151.835 38.6917 151.485 37.7627 151.315 37.5427C151.074 37.2307 150.802 36.9597 150.511 36.6957C150.144 36.3637 149.549 35.7277 148.995 35.7967C149.055 36.0177 149.115 36.2377 149.174 36.4587C150.26 35.8137 155.52 34.5027 154.867 32.4607C154.828 32.3377 154.638 32.3567 154.637 32.4917Z" fill="#1979BF"/>
<path d="M168.125 66.8637C167.816 67.6087 167.521 68.3577 167.216 69.1037C166.955 69.7437 166.559 70.4277 166.609 71.1317C166.616 71.2247 166.737 71.2967 166.809 71.2147C167.254 70.7047 167.359 69.9997 167.555 69.3637C167.807 68.5457 168.092 67.7397 168.381 66.9337C168.44 66.7707 168.189 66.7097 168.125 66.8637Z" fill="#1979BF"/>
<path d="M59.8779 165.535L60.6919 121.999H57.7959L58.6099 165.535C58.6189 165.977 58.9029 166.335 59.2439 166.335C59.5849 166.335 59.8679 165.977 59.8779 165.535Z" fill="#CFD2E2"/>
<path d="M36.1525 163.84L52.9725 123.676L50.2805 122.607L34.9735 163.372C34.8195 163.786 34.9515 164.223 35.2675 164.349C35.5845 164.475 35.9805 164.247 36.1525 163.84Z" fill="#CFD2E2"/>
<path d="M82.3347 163.84L65.5146 123.676L68.2067 122.607L83.5127 163.372C83.6667 163.786 83.5347 164.223 83.2187 164.349C82.9027 164.475 82.5067 164.247 82.3347 163.84Z" fill="#CFD2E2"/>
<path d="M70.5165 109.889C71.4255 97.7027 70.4925 85.2617 66.9685 73.5097C64.0785 63.8747 53.9205 61.4677 45.5065 66.4767C37.4045 71.2997 32.8454 80.7597 30.2594 89.3647C27.7694 97.6477 26.1485 107.18 28.5425 115.674C31.1435 124.901 39.9894 128.255 48.7164 129.134C60.2114 130.293 72.0685 129.894 83.3085 127.075C86.8035 126.198 90.5435 123.229 86.3945 120.13C82.9645 117.569 77.4924 116.606 73.2724 116.538" fill="#E1ECF8"/>
<path d="M113.698 156.985C114.151 157.94 113.8 159.218 114.503 160.006C115.035 160.602 115.942 160.645 116.739 160.584C118.723 160.432 120.677 159.904 122.467 159.037C123.002 158.778 123.59 158.388 123.623 157.794C123.627 157.715 123.62 157.631 123.575 157.567C123.512 157.477 123.396 157.446 123.289 157.421C120.873 156.857 118.457 156.293 116.041 155.729" fill="#1B227A"/>
<path d="M93.0905 111.711C101.931 119.048 105.92 130.51 110.444 141.069C112.71 146.356 114.496 151.016 117.202 156.091C116.656 156.876 116.304 157.413 113.787 157.216C104.423 150.578 94.0686 139.695 90.8866 128.667C90.4796 127.257 90.0626 125.719 88.8906 124.836C88.4876 124.533 88.0206 124.329 87.5586 124.128C78.0836 120.014 70.9506 115.886 61.4766 111.772" fill="#3E89CC"/>
<path d="M90.6396 162.399C91.1276 163.337 90.8247 164.626 91.5567 165.388C92.1107 165.964 93.0187 165.973 93.8127 165.882C95.7897 165.656 97.7226 165.056 99.4796 164.123C100.005 163.844 100.578 163.433 100.589 162.838C100.591 162.759 100.58 162.676 100.532 162.613C100.466 162.525 100.348 162.498 100.241 162.477C97.8057 162.003 95.3707 161.529 92.9347 161.056" fill="#1B227A"/>
<path d="M42.5703 105.317C38.7653 113.326 43.1643 120.806 49.7563 123.778C55.9073 126.551 66.0033 125.691 72.3523 127.857C73.0613 128.099 73.7833 128.363 74.3523 128.85C74.9463 129.357 75.5993 131.242 75.9643 131.932C77.9383 141.091 81.0213 150.024 90.4793 162.546C91.8183 163.079 93.2783 162.737 94.3523 161.537C92.9163 153.319 90.3603 127.133 87.1243 122.196C82.8313 115.647 70.8353 107.45 64.7593 106.816" fill="#3E89CC"/>
<path d="M80.6832 116.654C83.1552 118.51 85.1642 120.718 87.4032 122.815C87.5912 122.991 87.9432 122.755 87.7772 122.526C85.9882 120.05 83.3702 118.045 80.8722 116.33C80.6702 116.191 80.4942 116.512 80.6832 116.654Z" fill="#1979BF"/>
<path d="M68.6964 60.7507C66.8394 60.3847 64.8904 60.9647 63.2914 61.9777C61.6924 62.9907 60.3944 64.4077 59.1734 65.8537C51.3904 75.0707 45.9524 86.1757 42.9194 97.8527C42.5374 99.3217 42.1904 100.827 42.2854 102.342C42.3794 103.857 42.9734 105.405 44.1724 106.336C44.8794 106.886 45.7454 107.187 46.6044 107.441C51.3724 108.85 56.4014 109.053 61.3694 109.246C66.5054 109.445 71.6494 109.644 76.7814 109.364C78.9024 109.249 81.2954 108.902 82.5264 107.17C83.0774 106.395 83.3084 105.442 83.4784 104.507C84.9614 96.3478 82.6064 88.0338 80.2744 80.0748C79.7074 78.1398 79.1364 76.1947 78.2584 74.3787C77.7604 73.3497 77.1654 72.3668 76.7304 71.3088C75.4964 68.3098 75.5174 64.6838 73.3314 62.2878C73.1434 62.0818 72.6204 62.2148 72.8504 62.3728" fill="#F4B5C7"/>
<path d="M68.8966 61.1777C68.8676 60.7637 69.4366 60.6177 69.8506 60.6437C72.6606 60.8197 75.3216 62.0787 77.5476 63.8027C79.7736 65.5257 81.6066 67.6997 83.3296 69.9257C87.2676 75.0107 90.7426 80.4887 93.2516 86.4107C93.9086 87.9607 94.5076 89.6027 94.3786 91.2807C94.1896 93.7367 92.4166 95.8637 90.2556 97.0467C88.0946 98.2297 85.5886 98.6047 83.1306 98.7697C81.8636 98.8547 80.5936 98.8887 79.3236 98.8717C78.1936 98.8567 76.7606 98.5547 76.5566 97.4437C76.3556 96.3467 77.5546 95.5577 78.5696 95.0947C79.9296 94.4747 81.2906 93.8547 82.6506 93.2337C83.1006 93.0287 83.5806 92.7967 83.8176 92.3627C84.2316 91.6067 83.7176 90.7007 83.2646 89.9667C81.1326 86.5127 80.1056 82.5147 78.7426 78.6917C77.5496 75.3457 76.0806 72.0967 74.3566 68.9907" fill="#F4B5C7"/>
<path d="M62.763 52.3597C62.217 55.3187 61.781 58.2987 61.458 61.2907C62.848 62.3207 64.657 62.6747 66.382 62.5437C68.107 62.4127 70.957 61.9367 71.46 60.8957C71.177 59.8997 70.387 56.4547 69.851 54.2347" fill="#F4B5C7"/>
<path d="M67.7317 97.2388C68.6587 97.2478 69.6326 97.2458 70.4446 96.7998C71.2446 96.3618 71.7877 95.5438 72.5977 95.1238C73.9547 94.4198 75.5936 95.0128 77.0006 95.6098C78.2696 96.1488 79.5376 96.6868 80.8066 97.2258C81.1826 97.3858 81.6206 97.6328 81.6206 98.0418C81.6206 98.5448 80.9846 98.7567 80.4836 98.7987C79.5856 98.8747 78.6826 98.8727 77.7806 98.8697C74.4276 98.8597 71.0757 98.8507 67.7227 98.8407" fill="#F9C4D1"/>
<path d="M68.5161 96.8747C63.8271 95.7537 55.319 92.6977 51.278 90.0657C49.87 89.1457 61.0911 73.0087 62.2021 71.3107C62.7521 70.4697 63.157 69.7237 63.539 68.7877C64.322 66.8667 65.06 64.2067 63.773 62.3307C62.148 59.9607 58.641 60.3117 56.371 61.4167C53.229 62.9467 50.555 65.3587 48.203 67.9037C42.639 73.9247 38.2991 81.6787 38.6421 89.8697C38.7741 93.0227 39.8171 96.4427 42.5071 98.0937C44.0051 99.0127 45.81 99.2567 47.557 99.4447C52.05 99.9307 56.568 100.193 61.087 100.231C62.606 100.244 64.1271 100.231 65.6421 100.12C66.5711 100.052 67.557 99.9207 68.268 99.3197C68.979 98.7177 69.2211 97.4827 68.5161 96.8747Z" fill="#F4B5C7"/>
<path d="M71.7548 43.4297C73.0228 43.6817 74.0208 44.7207 74.5618 45.8947C75.1028 47.0687 75.2618 48.3777 75.4138 49.6617C75.4538 49.9977 75.4928 50.3417 75.4248 50.6727C75.3198 51.1817 74.9418 51.6317 74.4508 51.8037C73.9598 51.9757 73.3728 51.8547 73.0048 51.4877C72.8008 51.2847 72.6678 51.0227 72.5388 50.7657C72.0848 49.8627 71.6308 48.9597 71.1768 48.0577" fill="#1B227A"/>
<path d="M74.3987 51.6077C73.9857 49.8957 73.9937 48.1047 73.4477 46.4147C72.7867 44.3697 71.4347 42.8327 69.2677 42.4457C66.9477 42.0317 64.3827 42.8127 62.6287 44.3697C59.7927 46.8887 59.5357 51.6987 61.9067 54.6597C64.2787 57.6207 68.9657 59.1347 72.3717 57.4647C73.4117 56.9547 74.2547 55.5057 74.5777 54.3927C74.8397 53.4887 74.6197 52.5227 74.3987 51.6077Z" fill="#F9C4D1"/>
<path d="M72.9769 41.0227C72.6059 40.6457 72.0449 40.5447 71.5199 40.4757C69.4609 40.2067 67.3469 40.1587 65.3269 40.6417C63.3069 41.1247 61.3789 42.1737 60.0969 43.8077C59.1169 45.0567 58.5399 46.7027 58.8749 48.2547C58.2609 51.1567 59.2379 52.8827 59.5859 53.7257C59.8679 54.4097 60.3869 55.0227 61.0789 55.2837C61.7709 55.5457 62.6369 55.3917 63.1039 54.8177C63.4409 54.4037 63.5349 53.8437 63.5449 53.3097C63.5739 51.6367 62.8889 49.9847 63.0979 48.3237C63.1189 48.1547 63.1519 47.9817 63.2439 47.8387C63.4569 47.5097 63.9009 47.4417 64.2909 47.3997C66.6599 47.1407 69.0619 46.6127 71.0609 45.3147C71.8959 44.7727 72.6659 44.0797 73.0989 43.1837C73.4359 42.4907 73.5169 41.5707 72.9769 41.0227Z" fill="#1B227A"/>
<path d="M42.5068 98.0927C43.5598 98.6947 44.7498 98.9627 45.9318 99.1317C47.1198 99.2887 48.3268 99.3657 49.5268 99.4567C51.9308 99.6177 54.3348 99.7477 56.7408 99.8137C57.9438 99.8457 59.1468 99.8617 60.3498 99.8617C60.9538 99.8687 61.5248 99.8447 62.1408 99.8197L63.9478 99.7507C64.5328 99.7217 65.1918 99.7157 65.7168 99.6797C66.2388 99.6107 66.7958 99.4087 67.2978 99.1697C67.7918 98.9287 68.2898 98.6037 68.5158 98.2297C68.6288 98.0437 68.6688 97.8907 68.6018 97.7307C68.6038 97.6487 68.5048 97.5637 68.4688 97.4737L68.2208 97.2167L68.4108 97.3137C66.3568 96.8217 64.3508 96.2047 62.3628 95.5307C60.3768 94.8527 58.4058 94.1267 56.4818 93.2767C55.5168 92.8597 54.5648 92.4087 53.6218 91.9347C53.1528 91.6907 52.6838 91.4487 52.2238 91.1807C51.9918 91.0517 51.7618 90.9187 51.5368 90.7747L51.1968 90.5627L51.0268 90.4567C50.8598 90.3177 50.9668 90.4157 50.8658 90.3057C50.7968 90.2227 50.7308 90.0757 50.7288 90.0337C50.6348 89.5267 50.7668 89.3007 50.8338 89.0067C50.9198 88.7337 51.0218 88.4797 51.1288 88.2307C51.3448 87.7347 51.5828 87.2607 51.8288 86.7917C52.3238 85.8567 52.8508 84.9497 53.3908 84.0497C55.5528 80.4557 57.9458 77.0277 60.3188 73.5897L62.1068 71.0247C62.6878 70.1737 63.1688 69.2657 63.5528 68.2997C63.9398 67.3457 64.2498 66.3467 64.3548 65.3207C64.4598 64.3037 64.3428 63.2207 63.7698 62.3327C64.3938 63.1827 64.5998 64.2867 64.5368 65.3347C64.4778 66.3927 64.2078 67.4237 63.8568 68.4177C63.5138 69.4097 63.0568 70.3787 62.4998 71.2787C61.9448 72.1737 61.3578 73.0307 60.7898 73.9077C58.4978 77.3937 56.2638 80.9207 54.1368 84.4937C53.6108 85.3887 53.0968 86.2917 52.6238 87.2067C52.3888 87.6637 52.1628 88.1257 51.9658 88.5887C51.8688 88.8197 51.7798 89.0527 51.7108 89.2777C51.6418 89.4787 51.6008 89.7757 51.6188 89.7857C51.6238 89.8107 51.5998 89.7167 51.5578 89.6927C51.4878 89.6397 51.6528 89.7757 51.5318 89.6817L51.6948 89.7807L52.0208 89.9797C52.2358 90.1157 52.4588 90.2417 52.6848 90.3647C53.1298 90.6187 53.5898 90.8507 54.0498 91.0847C54.9758 91.5397 55.9148 91.9747 56.8698 92.3767C60.6848 93.9847 64.6138 95.4207 68.6188 96.4397L68.7458 96.4717L68.8088 96.5367C68.9358 96.6677 69.0648 96.7917 69.1828 96.9347C69.2798 97.1127 69.4138 97.2517 69.4568 97.4777C69.6108 97.8917 69.4798 98.3887 69.2688 98.6977C68.8378 99.3497 68.2478 99.6667 67.6738 99.9557C67.0868 100.226 66.4938 100.443 65.8188 100.53C65.1428 100.575 64.5928 100.562 63.9728 100.574L62.1638 100.593C61.5748 100.601 60.9398 100.61 60.3378 100.586C59.1288 100.553 57.9208 100.504 56.7138 100.438C54.2998 100.308 51.8898 100.116 49.4908 99.8277C48.2908 99.6807 47.0938 99.5507 45.8978 99.3377C44.7098 99.1177 43.5208 98.7547 42.5068 98.0927Z" fill="#005D8F"/>
<path d="M75.3069 68.6417C78.4399 73.8717 80.2999 79.7537 82.2219 85.5037C82.2679 85.6417 82.4739 85.5867 82.4409 85.4437C81.0919 79.6347 78.6919 73.5757 75.6179 68.4607C75.4989 68.2627 75.1879 68.4427 75.3069 68.6417Z" fill="#005D8F"/>
<path d="M105.145 100.394H72.1523L78.8023 81.3867C79.0093 80.7947 79.5683 80.3987 80.1953 80.3987H110.61C111.359 80.3987 111.883 81.1377 111.636 81.8447L105.145 100.394Z" fill="#E1ECF8"/>
<path d="M76.7275 98.8147H58.7715V100.394H76.7275V98.8147Z" fill="#E1ECF8"/>
<path d="M63.7813 51.6668C63.5603 51.5118 63.3353 51.3537 63.0763 51.2767C62.8173 51.1997 62.5163 51.2167 62.3063 51.3877C62.1363 51.5267 62.0523 51.7427 61.9963 51.9537C61.8283 52.5867 61.8593 53.2837 62.1573 53.8667C62.4553 54.4497 63.0373 54.8987 63.6883 54.9617C64.3403 55.0257 65.0313 54.6628 65.2853 54.0588" fill="#F9C4D1"/>
<path d="M68.2395 63.4497C68.9695 67.3187 69.5305 71.3577 70.5235 75.1617C70.5995 75.4527 71.0625 75.3977 71.0525 75.0897C70.9315 71.1947 69.8415 67.0227 68.6085 63.3477C68.5295 63.1127 68.1945 63.2077 68.2395 63.4497Z" fill="#005D8F"/>
<path d="M70.2189 64.7247C70.6209 64.7247 70.6219 64.0997 70.2189 64.0997C69.8169 64.0997 69.8159 64.7247 70.2189 64.7247Z" fill="#005D8F"/>
<path d="M70.9625 67.7087C71.5005 67.7087 71.5015 66.8727 70.9625 66.8727C70.4245 66.8727 70.4235 67.7087 70.9625 67.7087Z" fill="#005D8F"/>
<path d="M71.6869 69.7897C71.6629 69.7787 71.6379 69.7668 71.6139 69.7558C70.9139 69.4328 70.9139 70.7187 71.6139 70.3967C71.6379 70.3857 71.6629 70.3747 71.6869 70.3627C71.9039 70.2627 71.9039 69.8897 71.6869 69.7897Z" fill="#005D8F"/>
<path d="M71.9762 73.1727C72.3632 73.1727 72.3642 72.5707 71.9762 72.5707C71.5892 72.5707 71.5882 73.1727 71.9762 73.1727Z" fill="#005D8F"/>
<path d="M72.7236 48.4447C72.4136 48.1907 72.0745 48.2187 71.9975 48.9447C71.9485 49.4017 72.1405 50.2107 72.7395 50.1367C73.6545 50.0237 73.2286 48.8587 72.7236 48.4447Z" fill="#1B227A"/>
<path d="M72.8946 48.7987C72.7576 48.6857 72.6066 48.6987 72.5726 49.0207C72.5506 49.2237 72.6366 49.5817 72.9016 49.5497C73.3076 49.4987 73.1186 48.9827 72.8946 48.7987Z" fill="white"/>
<path d="M67.3668 50.0467C67.0258 49.7817 66.6478 49.8177 66.5488 50.5907C66.4868 51.0767 66.6868 51.9337 67.3558 51.8447C68.3778 51.7087 67.9228 50.4787 67.3668 50.0467Z" fill="#1B227A"/>
<path d="M67.5525 50.4207C67.4015 50.3037 67.2334 50.3187 67.1894 50.6617C67.1614 50.8777 67.2505 51.2567 67.5475 51.2177C68.0005 51.1577 67.7985 50.6117 67.5525 50.4207Z" fill="white"/>
<path d="M65.1036 48.7267C65.4446 48.6547 65.7847 48.6207 66.1327 48.6407C66.4037 48.6557 66.6397 48.7097 66.9087 48.6707C67.0827 48.6457 67.0957 48.3827 66.9567 48.3067C66.3947 47.9977 65.5847 48.1847 65.0037 48.3647C64.7727 48.4367 64.8676 48.7757 65.1036 48.7267Z" fill="#1B227A"/>
<path d="M72.6629 45.6647C71.9329 45.4977 71.1699 46.1667 71.2579 46.9217C71.2719 47.0417 71.4059 47.1657 71.5279 47.0767C71.9609 46.7627 72.0699 46.1607 72.6629 46.0717C72.8719 46.0397 72.8559 45.7087 72.6629 45.6647Z" fill="#1B227A"/>
<path d="M70.0855 54.5767C70.0585 54.5667 70.0465 54.5287 70.0635 54.5047C71.0065 54.1797 71.9485 53.8538 72.8915 53.5288C72.9195 53.5188 72.9545 53.5107 72.9745 53.5317C72.9875 53.5447 72.9895 53.5658 72.9905 53.5838C73.0015 53.7758 73.0125 53.9687 73.0225 54.1607C73.0345 54.3807 73.0465 54.6067 72.9765 54.8147C72.9145 54.9997 72.7915 55.1588 72.6485 55.2908C72.2505 55.6558 71.6795 55.8218 71.1475 55.7318C70.9255 55.6938 70.7055 55.6117 70.5375 55.4607C70.3695 55.3097 70.0425 54.7287 70.0635 54.5047" fill="#E588A7"/>
<path d="M71.2872 50.7977C71.2872 50.7977 71.4862 50.9437 71.7372 51.1967C71.8572 51.3357 72.0042 51.4537 72.1492 51.6607C72.2782 51.8597 72.4302 52.0837 72.4082 52.4527C72.3932 52.6427 72.2302 52.8367 72.0762 52.9017C71.9272 52.9737 71.8392 52.9827 71.7192 53.0197C71.4962 53.0787 71.2792 53.0907 71.0982 53.1047C70.7312 53.1177 70.4912 53.0497 70.4912 53.0497C70.4912 53.0497 70.7202 52.9557 71.0422 52.8287C71.2052 52.7727 71.3852 52.6827 71.5792 52.6017C71.6672 52.5607 71.7592 52.5177 71.8512 52.4747C71.9022 52.4387 71.9082 52.4317 71.9132 52.3837C71.9352 52.2777 71.8542 52.0607 71.7712 51.8847C71.6752 51.6917 71.5852 51.5117 71.5082 51.3577C71.3562 51.0347 71.2872 50.7977 71.2872 50.7977Z" fill="#E588A7"/>
<path d="M151.731 102.869H9.12402V116.675H151.731V102.869Z" fill="#CFD2E2"/>
<path d="M10.3115 100.394H7.93555V166.335H10.3115V100.394Z" fill="#544D7C"/>
<path d="M152.919 100.394H150.543V166.335H152.919V100.394Z" fill="#544D7C"/>
<path d="M157.735 100.394H3.11816V105.345H157.735V100.394Z" fill="#544D7C"/>
<path d="M13.5086 80.0177H7.80664V100.394H13.5086V80.0177Z" fill="#8BC0ED"/>
<path d="M12.0333 82.1867H9.28125V95.1227H12.0333V82.1867Z" fill="#DEEAFA"/>
<path d="M24.9129 80.0177H19.2109V100.394H24.9129V80.0177Z" fill="#8BC0ED"/>
<path d="M23.4376 82.1867H20.6855V95.1227H23.4376V82.1867Z" fill="#DEEAFA"/>
<path d="M30.0728 79.497L24.8994 81.8942L33.4655 100.381L38.6389 97.9842L30.0728 79.497Z" fill="#FE7D90"/>
<path d="M29.6857 82.104L27.1885 83.2609L32.6268 94.9991L35.124 93.8421L29.6857 82.104Z" fill="#DEEAFA"/>
<path d="M19.2108 80.0177H13.5088V100.394H19.2108V80.0177Z" fill="#FE7D90"/>
<path d="M17.7354 82.1867H14.9834V95.1227H17.7354V82.1867Z" fill="#DEEAFA"/>
<path opacity="0.35" d="M119.15 100.394L120.053 86.9767H111.517L112.42 100.394H119.15Z" fill="#8BC0ED"/>
<path d="M113.185 99.5736L112.393 87.7957H119.177L118.385 99.5736H113.185Z" fill="#B4EFF9"/>
<path d="M112.652 91.6606L113.184 99.5736H118.384L118.916 91.6606H112.652Z" fill="#8BC0ED"/>
<g opacity="0.75">
<path d="M113.733 97.8697H115.152L114.314 89.4437C114.142 87.9387 112.736 87.8567 112.957 89.5727L113.733 97.8697Z" fill="white"/>
</g>
</svg>
