<svg width="813" height="227" viewBox="0 0 813 227" fill="none" xmlns="http://www.w3.org/2000/svg">
<path d="M250.948 140.193V136.14C257.896 136.14 261.949 134.853 263.107 132.28V35.201C261.949 32.6277 257.896 31.341 250.948 31.341V27.288H295.338C312.708 27.288 326.99 32.5633 338.184 43.114C349.507 53.536 355.168 66.9817 355.168 83.451C355.168 100.049 349.635 113.688 338.57 124.367C327.633 134.918 313.995 140.193 297.654 140.193H250.948ZM287.618 32.885V133.631H297.654C306.403 133.631 313.802 129.514 319.849 121.279C326.025 113.044 329.113 100.499 329.113 83.644C329.113 66.66 325.896 53.9863 319.463 45.623C313.03 37.131 304.988 32.885 295.338 32.885H287.618ZM367.615 140V135.947C374.563 135.947 378.616 134.66 379.774 132.087V35.008C378.616 32.4347 374.563 31.148 367.615 31.148V27.095H416.444V31.148C409.496 31.148 405.443 32.4347 404.285 35.008V132.087C405.443 134.66 409.496 135.947 416.444 135.947V140H367.615ZM430.378 140V135.947C437.326 135.947 441.379 134.66 442.537 132.087V35.008C441.379 32.4347 437.326 31.148 430.378 31.148V27.095H510.087V45.816H506.034C506.034 38.868 504.747 34.815 502.174 33.657H467.048V78.047H489.243C491.816 76.889 493.103 72.836 493.103 65.888H497.156V96.768H493.103C493.103 89.82 491.816 85.767 489.243 84.609H467.048V132.087C468.206 134.66 472.259 135.947 479.207 135.947V140H430.378ZM520.469 140V135.947C527.417 135.947 531.47 134.66 532.628 132.087V35.008C531.47 32.4347 527.417 31.148 520.469 31.148V27.095H555.402L596.511 116.84L637.62 27.095H672.939V31.148C665.991 31.148 661.938 32.4347 660.78 35.008V132.087C661.938 134.66 665.991 135.947 672.939 135.947V140H624.11V135.947C631.058 135.947 635.111 134.66 636.269 132.087V45.43L593.037 140H583.387L539.19 44.272V132.087C540.348 134.66 544.401 135.947 551.349 135.947V140H520.469ZM711.248 82.1C711.248 90.8493 712.149 99.0197 713.95 106.611C715.88 114.202 719.354 120.893 724.372 126.683C729.39 132.473 735.695 135.368 743.286 135.368C749.076 135.368 754.03 133.888 758.147 130.929C762.265 127.841 765.417 123.724 767.604 118.577C769.792 113.43 771.336 108.155 772.236 102.751C773.266 97.2183 773.78 91.364 773.78 85.188C773.78 76.5673 772.815 68.397 770.885 60.677C768.955 52.957 765.481 46.202 760.463 40.412C755.445 34.622 749.205 31.727 741.742 31.727C735.952 31.727 730.999 33.271 726.881 36.359C722.764 39.447 719.612 43.5643 717.424 48.711C715.237 53.8577 713.629 59.1973 712.599 64.73C711.699 70.134 711.248 75.924 711.248 82.1ZM701.791 124.753C690.726 113.173 685.193 99.47 685.193 83.644C685.193 67.818 690.79 54.115 701.984 42.535C713.178 30.955 726.688 25.165 742.514 25.165C758.34 25.165 771.85 30.955 783.044 42.535C794.238 54.115 799.835 67.818 799.835 83.644C799.835 99.47 794.174 113.173 782.851 124.753C771.657 136.204 758.212 141.93 742.514 141.93C726.56 141.93 712.985 136.204 701.791 124.753Z" fill="#FF2929"/>
<path d="M144.05 3.30557C144.654 3.4604 145.258 3.61522 145.88 3.77474C161.223 7.85909 175.865 14.8091 187.949 25.4277C189.182 26.4989 189.182 26.4989 190.441 27.5918C210.886 45.9379 222.905 70.921 226.244 98.5268C226.501 102.419 226.557 106.288 226.536 110.189C226.531 111.234 226.525 112.28 226.52 113.357C226.05 145.832 213.158 173.24 190.965 195.916C169.003 217.611 139.328 227.13 109.345 226.717C78.2032 225.653 49.7274 209.36 28.6972 186.414C7.568 161.477 -1.53293 130.297 0.209352 97.565C0.785442 92.3548 1.80531 87.2695 3.01144 82.1757C3.31966 82.1757 3.62789 82.1757 3.94546 82.1757C4.03697 83.2804 4.12847 84.3851 4.22275 85.5233C6.4022 109.696 15.778 130.624 33.8344 146.618C37.5768 149.648 41.4575 152.458 45.4066 155.193C46.6612 156.063 47.9008 156.957 49.1364 157.856C61.7874 166.471 78.223 172.016 93.3786 171.866C94.148 171.874 94.9174 171.881 95.7101 171.889C96.4578 171.887 97.2054 171.884 97.9758 171.881C98.9741 171.878 98.9741 171.878 99.9925 171.875C102.535 171.654 102.535 171.654 106.689 169.702C106.997 137.327 107.305 104.952 107.623 71.5956C124.129 72.9031 138.853 75.5377 150.581 88.3713C160.087 100.846 161.083 115.048 159.928 130.267C157.457 144.597 149.589 157.784 138.132 166.351C131.519 171.017 124.581 174.792 116.963 177.397C115.871 177.774 114.779 178.151 113.654 178.539C96.263 183.896 76.2514 183.064 59.0531 177.397C61.4234 178.31 63.7975 179.209 66.1751 180.102C66.8228 180.353 67.4706 180.604 68.138 180.863C79.3829 185.05 90.386 186.571 102.31 186.474C102.942 186.471 103.574 186.468 104.225 186.465C114.229 186.397 123.368 185.583 132.841 182.206C133.442 181.995 134.042 181.784 134.661 181.566C153.487 174.804 170.418 163.225 179.893 144.695C187.353 128.309 188.26 110.739 182.345 93.7177C175.117 76.1388 159.771 64.4703 143.072 57.3104C131.043 52.4855 118.417 49.9217 105.755 47.5498C105.098 47.4207 104.442 47.2916 103.767 47.1586C90.0669 44.5363 75.73 45.4512 61.8552 45.6261C62.7353 46.044 63.6155 46.4618 64.5223 46.8923C68.3893 49.0244 70.4488 51.7992 71.754 56.1401C72.1411 58.1912 72.2444 60.0463 72.2418 62.1345C72.2437 63.32 72.2437 63.32 72.2457 64.5294C72.2407 65.8173 72.2407 65.8173 72.2355 67.1311C72.2357 68.0417 72.2358 68.9522 72.2359 69.8904C72.2353 72.8984 72.228 75.9064 72.2207 78.9145C72.219 81.0008 72.2176 83.087 72.2167 85.1733C72.2131 90.6633 72.204 96.1533 72.1936 101.643C72.1841 107.246 72.1798 112.848 72.1751 118.451C72.1651 129.443 72.1491 140.435 72.1295 151.428C49.4766 143.872 28.3943 125.837 17.0219 104.298C10.8494 91.031 9.10602 76.1176 13.1836 61.857C20.026 43.5967 32.6015 32.3144 49.5195 24.2329C77.6393 11.6347 109.071 15.377 137.064 26.3764C147.371 30.7158 156.855 36.5251 165.532 43.7025C166.018 44.0966 166.505 44.4907 167.005 44.8968C174.326 50.8592 180.518 57.0812 186.081 64.8627C186.442 65.3666 186.803 65.8704 187.175 66.3896C191.827 72.9314 195.924 79.5736 199.157 86.9849C195.06 71.7312 189.353 57.9774 179.543 45.6261C178.865 44.7595 178.187 43.8928 177.489 42.9999C161.382 23.5632 136.479 11.161 111.936 8.31338C106.768 7.89347 101.596 7.8393 96.4142 7.81415C95.3439 7.80873 94.2736 7.8033 93.1709 7.79771C87.7678 7.8457 82.8469 8.17073 77.6425 9.72208C75.55 10.0946 74.1358 9.73313 72.1295 9.07655C95.581 0.348803 119.468 -3.11041 144.05 3.30557Z" fill="#FF2929"/>
<path d="M248.829 205C247.849 205 247.359 204.475 247.359 203.425V176.466C247.359 175.417 247.849 174.892 248.829 174.892H266.844C267.894 174.892 268.418 175.347 268.418 176.256V178.734C268.418 179.644 267.894 180.099 266.844 180.099H253.49V186.775H265.731C266.781 186.775 267.306 187.23 267.306 188.14V190.618C267.306 191.528 266.781 191.982 265.731 191.982H253.49V199.793H267.516C268.565 199.793 269.09 200.248 269.09 201.158V203.635C269.09 204.545 268.565 205 267.516 205H248.829ZM274.99 205C274.15 205 273.73 204.58 273.73 203.74V184.214C273.73 183.374 274.15 182.954 274.99 182.954H278.308C279.147 182.954 279.567 183.374 279.567 184.214V185.432H279.651C280.057 184.536 280.743 183.829 281.709 183.311C282.675 182.793 283.578 182.534 284.417 182.534C286.097 182.534 287.399 182.926 288.323 183.71C289.261 184.494 289.904 185.369 290.254 186.334H290.338C291.556 184.753 292.655 183.724 293.635 183.248C294.629 182.772 295.895 182.534 297.435 182.534C299.507 182.534 301.249 183.22 302.663 184.592C304.091 185.964 304.805 188.469 304.805 192.108V203.74C304.805 204.58 304.385 205 303.545 205H300.186C299.346 205 298.926 204.58 298.926 203.74V193.62C298.926 190.569 298.716 188.644 298.296 187.846C297.89 187.048 297.162 186.649 296.112 186.649C295.132 186.649 294.237 187.223 293.425 188.371C292.613 189.519 292.207 191.884 292.207 195.468V203.74C292.207 204.58 291.787 205 290.947 205H287.588C286.748 205 286.328 204.58 286.328 203.74V193.62C286.328 190.569 286.118 188.644 285.698 187.846C285.292 187.048 284.564 186.649 283.515 186.649C282.535 186.649 281.639 187.223 280.827 188.371C280.015 189.505 279.609 191.87 279.609 195.468V203.74C279.609 204.58 279.189 205 278.35 205H274.99ZM311.733 213.398C310.894 213.398 310.474 212.979 310.474 212.139V184.214C310.474 183.374 310.894 182.954 311.733 182.954H315.051C315.751 182.954 316.129 183.374 316.185 184.214L316.269 185.432H316.353C317.08 184.228 317.892 183.444 318.788 183.08C319.684 182.716 320.762 182.534 322.021 182.534C325.311 182.534 327.62 183.675 328.95 185.957C330.294 188.224 330.966 190.898 330.966 193.977C330.966 197.056 330.294 199.737 328.95 202.019C327.62 204.286 325.311 205.42 322.021 205.42C320.762 205.42 319.684 205.238 318.788 204.874C317.892 204.51 317.08 203.726 316.353 202.522H316.269C316.325 203.082 316.353 203.642 316.353 204.202V212.139C316.353 212.979 315.933 213.398 315.093 213.398H311.733ZM316.353 194.922C316.353 196.812 316.723 198.351 317.465 199.541C318.221 200.717 319.124 201.305 320.174 201.305C322.063 201.305 323.295 200.647 323.869 199.331C324.457 198.001 324.751 196.217 324.751 193.977C324.751 191.737 324.457 189.96 323.869 188.644C323.295 187.314 322.063 186.649 320.174 186.649C319.124 186.649 318.221 187.244 317.465 188.434C316.723 189.61 316.353 191.143 316.353 193.032V194.922ZM334.325 193.977C334.325 190.408 335.242 187.608 337.076 185.579C338.923 183.549 341.667 182.534 345.306 182.534C348.945 182.534 351.682 183.549 353.516 185.579C355.363 187.608 356.287 190.408 356.287 193.977C356.287 197.546 355.363 200.346 353.516 202.375C351.682 204.405 348.945 205.42 345.306 205.42C341.667 205.42 338.923 204.405 337.076 202.375C335.242 200.346 334.325 197.546 334.325 193.977ZM340.54 193.977C340.54 196.637 340.946 198.526 341.758 199.646C342.584 200.752 343.766 201.305 345.306 201.305C346.846 201.305 348.022 200.752 348.833 199.646C349.659 198.526 350.072 196.637 350.072 193.977C350.072 191.318 349.659 189.435 348.833 188.329C348.022 187.209 346.846 186.649 345.306 186.649C343.766 186.649 342.584 187.209 341.758 188.329C340.946 189.435 340.54 191.318 340.54 193.977ZM359.311 184.592C359.003 183.5 359.234 182.954 360.003 182.954H363.552C364.224 182.954 364.644 183.311 364.812 184.025L367.646 196.329C367.814 197.042 367.961 197.728 368.087 198.386C368.213 199.044 368.29 199.583 368.318 200.003H368.444C368.472 199.583 368.549 199.037 368.675 198.365C368.801 197.679 368.948 197 369.116 196.329L372.097 184.025C372.265 183.311 372.685 182.954 373.357 182.954H377.178C377.85 182.954 378.27 183.311 378.438 184.025L381.419 196.329C381.587 197 381.734 197.679 381.86 198.365C381.986 199.037 382.063 199.583 382.091 200.003H382.217C382.245 199.583 382.322 199.044 382.448 198.386C382.574 197.728 382.721 197.042 382.889 196.329L385.724 184.025C385.892 183.311 386.312 182.954 386.983 182.954H390.532C391.302 182.954 391.533 183.5 391.225 184.592L385.766 203.593C385.5 204.531 384.989 205 384.233 205H380.433C379.635 205 379.124 204.531 378.9 203.593L375.855 191.143C375.674 190.429 375.541 189.855 375.457 189.421C375.387 188.987 375.338 188.504 375.31 187.972H375.226C375.198 188.504 375.142 188.987 375.058 189.421C374.988 189.855 374.862 190.429 374.68 191.143L371.635 203.593C371.411 204.531 370.9 205 370.103 205H366.302C365.546 205 365.035 204.531 364.77 203.593L359.311 184.592ZM393.324 193.977C393.324 190.436 394.206 187.643 395.97 185.6C397.747 183.556 400.253 182.534 403.486 182.534C407.238 182.534 410.023 183.5 411.843 185.432C413.662 187.363 414.572 190.471 414.572 194.754C414.572 195.594 414.18 196.014 413.396 196.014H399.539C399.763 198.337 400.337 199.8 401.261 200.402C402.185 201.004 403.255 201.305 404.473 201.305C405.635 201.305 406.524 201.151 407.14 200.843C407.756 200.535 408.273 200.115 408.693 199.583C409.169 198.967 409.757 198.869 410.457 199.289L412.557 200.57C413.382 201.074 413.501 201.676 412.914 202.375C412.06 203.397 411.059 204.16 409.911 204.664C408.763 205.168 406.951 205.42 404.473 205.42C400.456 205.42 397.593 204.398 395.886 202.354C394.178 200.311 393.324 197.518 393.324 193.977ZM399.56 191.814H408.693C408.693 190.303 408.315 189.071 407.56 188.119C406.804 187.153 405.6 186.67 403.948 186.67C402.632 186.67 401.59 187.132 400.82 188.056C400.05 188.966 399.63 190.219 399.56 191.814ZM420.409 205C419.569 205 419.149 204.58 419.149 203.74V184.214C419.149 183.374 419.569 182.954 420.409 182.954H423.727C424.566 182.954 424.986 183.374 424.986 184.214V185.936H425.07C425.434 185.04 426.043 184.249 426.897 183.563C427.751 182.877 428.759 182.534 429.92 182.534C430.718 182.534 431.376 182.632 431.894 182.828C432.384 183.01 432.573 183.346 432.461 183.836L431.873 186.334C431.747 186.894 431.369 187.062 430.739 186.838C430.375 186.712 430.025 186.649 429.689 186.649C428.346 186.649 427.233 187.454 426.351 189.064C425.469 190.674 425.028 193.018 425.028 196.098V203.74C425.028 204.58 424.608 205 423.769 205H420.409ZM436.912 205C436.072 205 435.652 204.58 435.652 203.74V184.214C435.652 183.374 436.072 182.954 436.912 182.954H440.271C441.111 182.954 441.531 183.374 441.531 184.214V203.74C441.531 204.58 441.111 205 440.271 205H436.912ZM436.912 179.721C436.072 179.721 435.652 179.301 435.652 178.461V175.773C435.652 174.934 436.072 174.514 436.912 174.514H440.271C441.111 174.514 441.531 174.934 441.531 175.773V178.461C441.531 179.301 441.111 179.721 440.271 179.721H436.912ZM448.502 205C447.662 205 447.242 204.58 447.242 203.74V184.214C447.242 183.374 447.662 182.954 448.502 182.954H451.819C452.659 182.954 453.079 183.374 453.079 184.214V185.432H453.163C453.807 184.326 454.626 183.57 455.62 183.164C456.613 182.744 457.81 182.534 459.21 182.534C461.394 182.534 463.199 183.22 464.627 184.592C466.055 185.964 466.769 188.469 466.769 192.108V203.74C466.769 204.58 466.349 205 465.509 205H462.149C461.31 205 460.89 204.58 460.89 203.74V193.62C460.89 190.569 460.68 188.644 460.26 187.846C459.84 187.048 458.937 186.649 457.551 186.649C456.082 186.649 454.976 187.223 454.234 188.371C453.492 189.505 453.121 191.87 453.121 195.468V203.74C453.121 204.58 452.701 205 451.861 205H448.502ZM471.262 193.977C471.262 190.898 471.927 188.224 473.256 185.957C474.6 183.675 476.917 182.534 480.206 182.534C481.466 182.534 482.544 182.716 483.439 183.08C484.335 183.444 485.147 184.228 485.875 185.432H485.959L486.043 184.214C486.099 183.374 486.477 182.954 487.177 182.954H490.494C491.334 182.954 491.754 183.374 491.754 184.214V204.769C491.754 208.198 490.83 210.564 488.982 211.866C487.135 213.167 484.461 213.818 480.962 213.818C479.478 213.818 478.106 213.741 476.847 213.587C475.587 213.433 474.313 213.049 473.025 212.433C472.354 212.111 472.242 211.502 472.689 210.606L473.445 209.094C473.753 208.478 474.264 208.338 474.978 208.674C475.552 208.94 476.259 209.178 477.099 209.388C477.952 209.598 479.03 209.703 480.332 209.703C482.124 209.703 483.495 209.367 484.447 208.695C485.399 208.037 485.875 206.589 485.875 204.349V203.992C485.875 203.432 485.903 202.872 485.959 202.312H485.875C485.147 203.516 484.335 204.3 483.439 204.664C482.544 205.028 481.466 205.21 480.206 205.21C476.917 205.21 474.6 204.076 473.256 201.809C471.927 199.527 471.262 196.917 471.262 193.977ZM477.477 193.977C477.477 196.077 477.764 197.791 478.337 199.121C478.925 200.437 480.164 201.095 482.054 201.095C483.104 201.095 483.999 200.507 484.741 199.331C485.497 198.141 485.875 196.602 485.875 194.712V193.032C485.875 191.143 485.497 189.61 484.741 188.434C483.999 187.244 483.104 186.649 482.054 186.649C480.164 186.649 478.925 187.314 478.337 188.644C477.764 189.96 477.477 191.737 477.477 193.977ZM514.136 205C513.156 205 512.666 204.475 512.666 203.425V176.466C512.666 175.417 513.156 174.892 514.136 174.892H521.463C527.902 174.892 532.255 176.193 534.523 178.797C536.805 181.4 537.945 185.103 537.945 189.904C537.945 194.705 536.805 198.421 534.523 201.053C532.255 203.684 527.902 205 521.463 205H514.136ZM518.797 199.793H521.064C525.404 199.793 528.21 198.988 529.484 197.378C530.758 195.755 531.395 193.263 531.395 189.904C531.395 186.544 530.758 184.067 529.484 182.471C528.21 180.861 525.404 180.057 521.064 180.057H518.797V199.793ZM543.866 205C543.026 205 542.606 204.58 542.606 203.74V184.214C542.606 183.374 543.026 182.954 543.866 182.954H547.226C548.065 182.954 548.485 183.374 548.485 184.214V203.74C548.485 204.58 548.065 205 547.226 205H543.866ZM543.866 179.721C543.026 179.721 542.606 179.301 542.606 178.461V175.773C542.606 174.934 543.026 174.514 543.866 174.514H547.226C548.065 174.514 548.485 174.934 548.485 175.773V178.461C548.485 179.301 548.065 179.721 547.226 179.721H543.866ZM553.021 193.977C553.021 190.898 553.685 188.224 555.015 185.957C556.359 183.675 558.675 182.534 561.965 182.534C563.225 182.534 564.302 182.716 565.198 183.08C566.094 183.444 566.906 184.228 567.634 185.432H567.718L567.802 184.214C567.858 183.374 568.236 182.954 568.936 182.954H572.253C573.093 182.954 573.513 183.374 573.513 184.214V204.769C573.513 208.198 572.589 210.564 570.741 211.866C568.894 213.167 566.22 213.818 562.721 213.818C561.237 213.818 559.865 213.741 558.605 213.587C557.346 213.433 556.072 213.049 554.784 212.433C554.112 212.111 554 211.502 554.448 210.606L555.204 209.094C555.512 208.478 556.023 208.338 556.737 208.674C557.311 208.94 558.018 209.178 558.857 209.388C559.711 209.598 560.789 209.703 562.091 209.703C563.882 209.703 565.254 209.367 566.206 208.695C567.158 208.037 567.634 206.589 567.634 204.349V203.992C567.634 203.432 567.662 202.872 567.718 202.312H567.634C566.906 203.516 566.094 204.3 565.198 204.664C564.302 205.028 563.225 205.21 561.965 205.21C558.675 205.21 556.359 204.076 555.015 201.809C553.685 199.527 553.021 196.917 553.021 193.977ZM559.235 193.977C559.235 196.077 559.522 197.791 560.096 199.121C560.684 200.437 561.923 201.095 563.812 201.095C564.862 201.095 565.758 200.507 566.5 199.331C567.256 198.141 567.634 196.602 567.634 194.712V193.032C567.634 191.143 567.256 189.61 566.5 188.434C565.758 187.244 564.862 186.649 563.812 186.649C561.923 186.649 560.684 187.314 560.096 188.644C559.522 189.96 559.235 191.737 559.235 193.977ZM580.483 205C579.644 205 579.224 204.58 579.224 203.74V184.214C579.224 183.374 579.644 182.954 580.483 182.954H583.843C584.683 182.954 585.103 183.374 585.103 184.214V203.74C585.103 204.58 584.683 205 583.843 205H580.483ZM580.483 179.721C579.644 179.721 579.224 179.301 579.224 178.461V175.773C579.224 174.934 579.644 174.514 580.483 174.514H583.843C584.683 174.514 585.103 174.934 585.103 175.773V178.461C585.103 179.301 584.683 179.721 583.843 179.721H580.483ZM590.079 187.153C589.253 187.153 588.84 186.803 588.84 186.104V184.004C588.84 183.304 589.253 182.954 590.079 182.954H591.506V182.219C591.506 181.589 591.653 181.015 591.947 180.498L593.564 177.663C593.872 177.131 594.236 176.865 594.656 176.865H596.125C596.965 176.865 597.385 177.285 597.385 178.125V182.954H600.787C601.612 182.954 602.025 183.304 602.025 184.004V186.104C602.025 186.803 601.612 187.153 600.787 187.153H597.385V197.567C597.385 198.995 597.483 200.024 597.679 200.654C597.889 201.27 598.421 201.578 599.275 201.578C599.709 201.578 600.199 201.508 600.745 201.368C601.291 201.214 601.717 201.067 602.025 200.927C602.515 200.703 602.837 200.864 602.991 201.41L603.621 203.803C603.747 204.279 603.565 204.629 603.075 204.853C602.613 205.063 601.976 205.252 601.165 205.42C600.367 205.602 599.562 205.693 598.75 205.693C596.748 205.693 595.041 205.28 593.627 204.454C592.213 203.628 591.506 201.928 591.506 199.352V187.153H590.079ZM606.393 199.121C606.393 196.322 607.729 194.292 610.403 193.032C613.076 191.772 616.128 191.101 619.557 191.017V190.177C619.557 188.889 619.235 187.979 618.591 187.447C617.947 186.915 617.052 186.649 615.904 186.649C615.092 186.649 614.371 186.768 613.741 187.006C613.125 187.23 612.586 187.496 612.125 187.804C611.677 188.098 611.271 188.399 610.907 188.707C610.263 189.267 609.731 189.295 609.311 188.791L607.568 186.649C607.134 186.118 607.239 185.572 607.883 185.012C608.373 184.578 608.94 184.2 609.584 183.878C610.242 183.556 611.11 183.255 612.188 182.975C613.265 182.681 614.665 182.534 616.387 182.534C619.298 182.534 621.531 183.206 623.084 184.55C624.652 185.894 625.436 187.874 625.436 190.492V203.74C625.436 204.58 625.016 205 624.176 205H620.733C619.977 205 619.599 204.58 619.599 203.74V203.11H619.557C618.731 203.908 617.737 204.496 616.576 204.874C615.428 205.238 614.371 205.42 613.405 205.42C611.11 205.42 609.367 204.86 608.177 203.74C606.987 202.606 606.393 201.067 606.393 199.121ZM612.607 198.995C612.607 199.485 612.705 199.912 612.901 200.276C613.097 200.626 613.405 200.885 613.825 201.053C614.245 201.221 614.714 201.305 615.232 201.305C615.946 201.305 616.639 201.207 617.311 201.011C617.982 200.815 618.731 200.353 619.557 199.625V195.069C617.206 195.335 615.631 195.678 614.833 196.098C614.035 196.518 613.461 196.951 613.111 197.399C612.775 197.847 612.607 198.379 612.607 198.995ZM632.428 205C631.588 205 631.168 204.58 631.168 203.74V178.944C631.168 178.314 631.315 177.74 631.609 177.222L633.226 174.388C633.534 173.856 633.897 173.59 634.317 173.59H635.787C636.627 173.59 637.047 174.01 637.047 174.85V203.74C637.047 204.58 636.627 205 635.787 205H632.428ZM659.429 205C658.449 205 657.959 204.475 657.959 203.425V176.466C657.959 175.417 658.449 174.892 659.429 174.892H676.037C677.086 174.892 677.611 175.347 677.611 176.256V178.734C677.611 179.644 677.086 180.099 676.037 180.099H664.09V187.405H674.315C675.365 187.405 675.89 187.86 675.89 188.77V191.248C675.89 192.157 675.365 192.612 674.315 192.612H664.09V203.425C664.09 204.475 663.6 205 662.62 205H659.429ZM682.104 195.846V184.214C682.104 183.374 682.524 182.954 683.364 182.954H686.724C687.563 182.954 687.983 183.374 687.983 184.214V194.334C687.983 197.385 688.193 199.31 688.613 200.108C689.033 200.906 689.915 201.305 691.259 201.305C692.687 201.305 693.771 200.738 694.513 199.604C695.255 198.456 695.626 196.084 695.626 192.486V184.214C695.626 183.374 696.046 182.954 696.886 182.954H700.245C701.085 182.954 701.505 183.374 701.505 184.214V203.74C701.505 204.58 701.085 205 700.245 205H696.928C696.088 205 695.668 204.58 695.668 203.74V202.522H695.584C694.94 203.628 694.121 204.391 693.127 204.811C692.134 205.217 690.958 205.42 689.6 205.42C687.458 205.42 685.674 204.734 684.246 203.362C682.818 201.991 682.104 199.485 682.104 195.846ZM706.481 187.153C705.655 187.153 705.242 186.803 705.242 186.104V184.004C705.242 183.304 705.655 182.954 706.481 182.954H707.909V182.219C707.909 181.589 708.056 181.015 708.35 180.498L709.966 177.663C710.274 177.131 710.638 176.865 711.058 176.865H712.528C713.368 176.865 713.788 177.285 713.788 178.125V182.954H717.189C718.015 182.954 718.428 183.304 718.428 184.004V186.104C718.428 186.803 718.015 187.153 717.189 187.153H713.788V197.567C713.788 198.995 713.886 200.024 714.082 200.654C714.292 201.27 714.823 201.578 715.677 201.578C716.111 201.578 716.601 201.508 717.147 201.368C717.693 201.214 718.12 201.067 718.428 200.927C718.918 200.703 719.24 200.864 719.394 201.41L720.023 203.803C720.149 204.279 719.967 204.629 719.478 204.853C719.016 205.063 718.379 205.252 717.567 205.42C716.769 205.602 715.964 205.693 715.152 205.693C713.151 205.693 711.443 205.28 710.029 204.454C708.616 203.628 707.909 201.928 707.909 199.352V187.153H706.481ZM723.929 195.846V184.214C723.929 183.374 724.349 182.954 725.188 182.954H728.548C729.388 182.954 729.808 183.374 729.808 184.214V194.334C729.808 197.385 730.018 199.31 730.438 200.108C730.857 200.906 731.739 201.305 733.083 201.305C734.511 201.305 735.596 200.738 736.337 199.604C737.079 198.456 737.45 196.084 737.45 192.486V184.214C737.45 183.374 737.87 182.954 738.71 182.954H742.069C742.909 182.954 743.329 183.374 743.329 184.214V203.74C743.329 204.58 742.909 205 742.069 205H738.752C737.912 205 737.492 204.58 737.492 203.74V202.522H737.408C736.764 203.628 735.945 204.391 734.952 204.811C733.958 205.217 732.782 205.42 731.424 205.42C729.283 205.42 727.498 204.734 726.07 203.362C724.643 201.991 723.929 199.485 723.929 195.846ZM750.3 205C749.46 205 749.04 204.58 749.04 203.74V184.214C749.04 183.374 749.46 182.954 750.3 182.954H753.617C754.457 182.954 754.877 183.374 754.877 184.214V185.936H754.961C755.325 185.04 755.934 184.249 756.788 183.563C757.641 182.877 758.649 182.534 759.811 182.534C760.609 182.534 761.267 182.632 761.785 182.828C762.275 183.01 762.464 183.346 762.352 183.836L761.764 186.334C761.638 186.894 761.26 187.062 760.63 186.838C760.266 186.712 759.916 186.649 759.58 186.649C758.236 186.649 757.124 187.454 756.242 189.064C755.36 190.674 754.919 193.018 754.919 196.098V203.74C754.919 204.58 754.499 205 753.659 205H750.3ZM764.367 193.977C764.367 190.436 765.249 187.643 767.013 185.6C768.79 183.556 771.296 182.534 774.529 182.534C778.281 182.534 781.066 183.5 782.886 185.432C784.705 187.363 785.615 190.471 785.615 194.754C785.615 195.594 785.223 196.014 784.439 196.014H770.582C770.806 198.337 771.38 199.8 772.304 200.402C773.228 201.004 774.298 201.305 775.516 201.305C776.678 201.305 777.567 201.151 778.183 200.843C778.799 200.535 779.316 200.115 779.736 199.583C780.212 198.967 780.8 198.869 781.5 199.289L783.6 200.57C784.425 201.074 784.544 201.676 783.957 202.375C783.103 203.397 782.102 204.16 780.954 204.664C779.806 205.168 777.994 205.42 775.516 205.42C771.499 205.42 768.636 204.398 766.929 202.354C765.221 200.311 764.367 197.518 764.367 193.977ZM770.603 191.814H779.736C779.736 190.303 779.358 189.071 778.603 188.119C777.847 187.153 776.643 186.67 774.991 186.67C773.675 186.67 772.633 187.132 771.863 188.056C771.093 188.966 770.673 190.219 770.603 191.814ZM789.751 203.53C789.066 203.04 788.877 202.515 789.185 201.956L790.255 200.003C790.633 199.303 791.221 199.219 792.019 199.751C792.817 200.283 793.755 200.675 794.833 200.927C795.924 201.179 796.918 201.305 797.814 201.305C798.444 201.305 799.032 201.242 799.578 201.116C800.124 200.99 800.585 200.745 800.963 200.381C801.341 200.017 801.53 199.485 801.53 198.785C801.53 198.365 801.418 198.008 801.194 197.714C800.97 197.42 800.683 197.196 800.333 197.042C799.984 196.889 799.613 196.763 799.221 196.665C798.703 196.539 797.954 196.329 796.974 196.035C796.008 195.741 795.077 195.398 794.182 195.006C793.44 194.684 792.712 194.236 791.998 193.662C791.298 193.074 790.78 192.423 790.444 191.709C790.122 190.996 789.961 190.114 789.961 189.064C789.961 187.65 790.367 186.411 791.179 185.348C792.005 184.284 793.069 183.549 794.371 183.143C795.672 182.737 797.296 182.534 799.242 182.534C800.557 182.534 801.838 182.723 803.084 183.101C804.33 183.479 805.219 183.836 805.75 184.172C806.59 184.704 806.8 185.271 806.38 185.873L805.1 187.741C804.708 188.301 804.078 188.343 803.21 187.867C802.552 187.503 801.901 187.209 801.257 186.985C800.627 186.761 799.921 186.649 799.137 186.649C798.605 186.649 798.094 186.705 797.604 186.817C797.114 186.929 796.694 187.139 796.344 187.447C796.008 187.755 795.84 188.161 795.84 188.665C795.84 189.197 795.994 189.617 796.302 189.925C796.624 190.219 796.988 190.436 797.394 190.576C797.814 190.716 798.213 190.849 798.591 190.975C799.375 191.227 800.166 191.472 800.963 191.709C801.761 191.933 802.573 192.206 803.399 192.528C804.113 192.808 804.806 193.207 805.478 193.725C806.149 194.243 806.639 194.901 806.947 195.699C807.255 196.497 807.409 197.406 807.409 198.428C807.409 199.786 807.003 201.046 806.191 202.208C805.38 203.369 804.309 204.195 802.979 204.685C801.649 205.175 800.103 205.42 798.339 205.42C796.365 205.42 794.686 205.28 793.3 205C791.914 204.72 790.731 204.23 789.751 203.53Z" fill="black"/>
</svg>
