<svg width="1109" height="278" viewBox="0 0 1109 278" fill="none" xmlns="http://www.w3.org/2000/svg">
<path d="M294 171.25V166C303 166 308.25 164.333 309.75 161V35.25C308.25 31.9167 303 30.25 294 30.25V25H351.5C374 25 392.5 31.8333 407 45.5C421.667 59 429 76.4167 429 97.75C429 119.25 421.833 136.917 407.5 150.75C393.333 164.417 375.667 171.25 354.5 171.25H294ZM341.5 32.25V162.75H354.5C365.833 162.75 375.417 157.417 383.25 146.75C391.25 136.083 395.25 119.833 395.25 98C395.25 76 391.083 59.5833 382.75 48.75C374.417 37.75 364 32.25 351.5 32.25H341.5ZM445.123 171V165.75C454.123 165.75 459.373 164.083 460.873 160.75V35C459.373 31.6667 454.123 30 445.123 30V24.75H508.373V30C499.373 30 494.123 31.6667 492.623 35V160.75C494.123 164.083 499.373 165.75 508.373 165.75V171H445.123ZM526.422 171V165.75C535.422 165.75 540.672 164.083 542.172 160.75V35C540.672 31.6667 535.422 30 526.422 30V24.75H629.672V49H624.422C624.422 40 622.755 34.75 619.422 33.25H573.922V90.75H602.672C606.005 89.25 607.672 84 607.672 75H612.922V115H607.672C607.672 106 606.005 100.75 602.672 99.25H573.922V160.75C575.422 164.083 580.672 165.75 589.672 165.75V171H526.422ZM643.121 171V165.75C652.121 165.75 657.371 164.083 658.871 160.75V35C657.371 31.6667 652.121 30 643.121 30V24.75H688.371L741.621 141L794.871 24.75H840.621V30C831.621 30 826.371 31.6667 824.871 35V160.75C826.371 164.083 831.621 165.75 840.621 165.75V171H777.371V165.75C786.371 165.75 791.621 164.083 793.121 160.75V48.5L737.121 171H724.621L667.371 47V160.75C668.871 164.083 674.121 165.75 683.121 165.75V171H643.121ZM890.244 96C890.244 107.333 891.411 117.917 893.744 127.75C896.244 137.583 900.744 146.25 907.244 153.75C913.744 161.25 921.911 165 931.744 165C939.244 165 945.661 163.083 950.994 159.25C956.327 155.25 960.411 149.917 963.244 143.25C966.077 136.583 968.077 129.75 969.244 122.75C970.577 115.583 971.244 108 971.244 100C971.244 88.8333 969.994 78.25 967.494 68.25C964.994 58.25 960.494 49.5 953.994 42C947.494 34.5 939.411 30.75 929.744 30.75C922.244 30.75 915.827 32.75 910.494 36.75C905.161 40.75 901.077 46.0833 898.244 52.75C895.411 59.4167 893.327 66.3333 891.994 73.5C890.827 80.5 890.244 88 890.244 96ZM877.994 151.25C863.661 136.25 856.494 118.5 856.494 98C856.494 77.5 863.744 59.75 878.244 44.75C892.744 29.75 910.244 22.25 930.744 22.25C951.244 22.25 968.744 29.75 983.244 44.75C997.744 59.75 1004.99 77.5 1004.99 98C1004.99 118.5 997.661 136.25 982.994 151.25C968.494 166.083 951.077 173.5 930.744 173.5C910.077 173.5 892.494 166.083 877.994 151.25Z" fill="#FF2929"/>
<path d="M172.753 3.95712C173.477 4.14246 174.201 4.32781 174.948 4.51877C193.348 9.40817 210.908 17.7281 225.399 30.4397C226.879 31.722 226.879 31.722 228.388 33.0303C252.906 54.9925 267.321 84.9 271.325 117.947C271.633 122.607 271.7 127.238 271.675 131.908C271.669 133.159 271.663 134.411 271.656 135.7C271.093 174.576 255.631 207.387 229.017 234.533C202.678 260.504 167.091 271.899 131.133 271.405C93.7859 270.13 59.636 250.626 34.4154 223.158C9.07598 193.305 -1.83838 155.98 0.251067 116.796C0.941948 110.559 2.16503 104.471 3.61149 98.3731C3.98114 98.3731 4.35078 98.3731 4.73163 98.3731C4.84137 99.6956 4.95111 101.018 5.06417 102.381C7.67789 131.318 18.922 156.371 40.5761 175.518C45.0643 179.144 49.7183 182.509 54.4543 185.782C55.9588 186.825 57.4454 187.894 58.9272 188.971C74.0991 199.284 93.8096 205.921 111.985 205.742C112.908 205.751 113.83 205.76 114.781 205.769C115.678 205.767 116.574 205.764 117.498 205.76C118.696 205.757 118.696 205.757 119.917 205.753C122.966 205.488 122.966 205.488 127.947 203.152C128.317 164.395 128.686 125.639 129.067 85.7075C148.862 87.2727 166.521 90.4266 180.585 105.79C191.986 120.723 193.18 137.725 191.795 155.944C188.831 173.098 179.395 188.884 165.656 199.14C157.725 204.725 149.404 209.244 140.269 212.363C138.959 212.814 137.649 213.266 136.3 213.73C115.444 220.144 91.4451 219.147 70.8199 212.363C73.6626 213.456 76.5097 214.533 79.361 215.601C80.1378 215.902 80.9147 216.203 81.7151 216.512C95.2006 221.525 108.396 223.345 122.696 223.23C123.454 223.226 124.212 223.223 124.993 223.219C136.991 223.137 147.95 222.163 159.311 218.12C160.031 217.867 160.751 217.614 161.493 217.354C184.07 209.259 204.375 195.398 215.738 173.215C224.685 153.6 225.772 132.566 218.679 112.19C210.01 91.1463 191.607 77.1778 171.581 68.6067C157.155 62.8308 142.013 59.7617 126.827 56.9222C126.04 56.7676 125.253 56.6131 124.443 56.4539C108.014 53.3147 90.8198 54.4099 74.1804 54.6194C75.2359 55.1195 76.2914 55.6197 77.3789 56.1351C82.0165 58.6874 84.4863 62.0092 86.0516 67.2057C86.5158 69.6611 86.6398 71.8818 86.6366 74.3817C86.6389 75.8008 86.6389 75.8008 86.6413 77.2486C86.6352 78.7903 86.6352 78.7903 86.6291 80.3631C86.6292 81.4532 86.6294 82.5432 86.6296 83.6662C86.6288 87.2672 86.6201 90.8681 86.6113 94.4691C86.6092 96.9666 86.6076 99.464 86.6065 101.961C86.6022 108.534 86.5912 115.106 86.5788 121.678C86.5674 128.385 86.5622 135.092 86.5566 141.799C86.5446 154.957 86.5255 168.116 86.5019 181.275C59.3352 172.23 34.0522 150.64 20.4136 124.856C13.0113 108.974 10.9205 91.1209 15.8105 74.0495C24.0164 52.1899 39.0976 38.6838 59.3866 29.0094C93.1095 13.9279 130.804 18.408 164.375 31.5753C176.736 36.7701 188.109 43.7244 198.516 52.3165C199.099 52.7883 199.682 53.2601 200.283 53.7462C209.062 60.8839 216.488 68.3323 223.159 77.6476C223.592 78.2508 224.025 78.854 224.472 79.4754C230.05 87.3067 234.964 95.2581 238.841 104.13C233.928 85.8699 227.083 69.4052 215.318 54.6194C214.505 53.5819 213.692 52.5444 212.855 51.4754C193.539 28.2077 163.673 13.361 134.24 9.95201C128.042 9.44933 121.84 9.38447 115.626 9.35437C114.342 9.34788 113.058 9.34139 111.736 9.3347C105.256 9.39214 99.3548 9.78124 93.1134 11.6384C90.604 12.0843 88.908 11.6516 86.5019 10.8656C114.626 0.417555 143.273 -3.72349 172.753 3.95712Z" fill="#FF2929"/>
<path d="M300.542 254.044C299.289 254.044 298.662 253.373 298.662 252.03V217.547C298.662 216.205 299.289 215.533 300.542 215.533H323.584C324.927 215.533 325.598 216.115 325.598 217.279V220.448C325.598 221.611 324.927 222.193 323.584 222.193H306.504V230.733H322.161C323.503 230.733 324.175 231.315 324.175 232.479V235.648C324.175 236.812 323.503 237.394 322.161 237.394H306.504V247.384H324.443C325.786 247.384 326.458 247.966 326.458 249.129V252.298C326.458 253.462 325.786 254.044 324.443 254.044H300.542ZM334.004 254.044C332.93 254.044 332.393 253.507 332.393 252.433V227.457C332.393 226.383 332.93 225.846 334.004 225.846H338.247C339.321 225.846 339.858 226.383 339.858 227.457V229.015H339.966C340.485 227.869 341.362 226.965 342.598 226.302C343.833 225.64 344.988 225.309 346.062 225.309C348.21 225.309 349.875 225.81 351.057 226.812C352.257 227.815 353.08 228.934 353.528 230.169H353.635C355.193 228.146 356.598 226.83 357.852 226.222C359.123 225.613 360.743 225.309 362.712 225.309C365.362 225.309 367.591 226.186 369.399 227.94C371.226 229.695 372.139 232.9 372.139 237.555V252.433C372.139 253.507 371.602 254.044 370.527 254.044H366.23C365.156 254.044 364.619 253.507 364.619 252.433V239.488C364.619 235.585 364.351 233.124 363.813 232.103C363.294 231.083 362.363 230.572 361.021 230.572C359.767 230.572 358.621 231.306 357.583 232.774C356.545 234.243 356.025 237.268 356.025 241.852V252.433C356.025 253.507 355.488 254.044 354.414 254.044H350.117C349.043 254.044 348.506 253.507 348.506 252.433V239.488C348.506 235.585 348.237 233.124 347.7 232.103C347.181 231.083 346.25 230.572 344.907 230.572C343.654 230.572 342.508 231.306 341.47 232.774C340.431 234.225 339.912 237.25 339.912 241.852V252.433C339.912 253.507 339.375 254.044 338.301 254.044H334.004ZM381.001 264.786C379.927 264.786 379.39 264.249 379.39 263.175V227.457C379.39 226.383 379.927 225.846 381.001 225.846H385.244C386.139 225.846 386.623 226.383 386.694 227.457L386.802 229.015H386.909C387.84 227.475 388.879 226.472 390.024 226.007C391.17 225.541 392.549 225.309 394.16 225.309C398.368 225.309 401.322 226.768 403.022 229.686C404.741 232.586 405.601 236.006 405.601 239.945C405.601 243.884 404.741 247.312 403.022 250.23C401.322 253.131 398.368 254.581 394.16 254.581C392.549 254.581 391.17 254.348 390.024 253.883C388.879 253.417 387.84 252.415 386.909 250.875H386.802C386.873 251.591 386.909 252.307 386.909 253.023V263.175C386.909 264.249 386.372 264.786 385.298 264.786H381.001ZM386.909 241.153C386.909 243.57 387.384 245.54 388.333 247.062C389.299 248.565 390.454 249.317 391.797 249.317C394.214 249.317 395.789 248.476 396.523 246.793C397.275 245.092 397.651 242.809 397.651 239.945C397.651 237.08 397.275 234.806 396.523 233.124C395.789 231.423 394.214 230.572 391.797 230.572C390.454 230.572 389.299 231.333 388.333 232.855C387.384 234.359 386.909 236.319 386.909 238.736V241.153ZM409.897 239.945C409.897 235.379 411.07 231.799 413.416 229.203C415.779 226.607 419.288 225.309 423.943 225.309C428.598 225.309 432.098 226.607 434.443 229.203C436.807 231.799 437.988 235.379 437.988 239.945C437.988 244.51 436.807 248.091 434.443 250.687C432.098 253.283 428.598 254.581 423.943 254.581C419.288 254.581 415.779 253.283 413.416 250.687C411.07 248.091 409.897 244.51 409.897 239.945ZM417.847 239.945C417.847 243.347 418.366 245.764 419.404 247.196C420.461 248.61 421.973 249.317 423.943 249.317C425.912 249.317 427.416 248.61 428.455 247.196C429.511 245.764 430.039 243.347 430.039 239.945C430.039 236.543 429.511 234.135 428.455 232.721C427.416 231.288 425.912 230.572 423.943 230.572C421.973 230.572 420.461 231.288 419.404 232.721C418.366 234.135 417.847 236.543 417.847 239.945ZM441.855 227.94C441.462 226.544 441.757 225.846 442.742 225.846H447.28C448.14 225.846 448.677 226.302 448.892 227.215L452.517 242.953C452.732 243.866 452.92 244.743 453.081 245.584C453.242 246.426 453.341 247.115 453.376 247.652H453.538C453.573 247.115 453.672 246.417 453.833 245.558C453.994 244.68 454.182 243.812 454.397 242.953L458.21 227.215C458.425 226.302 458.962 225.846 459.822 225.846H464.709C465.569 225.846 466.106 226.302 466.321 227.215L470.134 242.953C470.349 243.812 470.537 244.68 470.698 245.558C470.859 246.417 470.958 247.115 470.994 247.652H471.155C471.191 247.115 471.289 246.426 471.45 245.584C471.611 244.743 471.799 243.866 472.014 242.953L475.64 227.215C475.854 226.302 476.392 225.846 477.251 225.846H481.79C482.774 225.846 483.07 226.544 482.676 227.94L475.693 252.245C475.353 253.444 474.7 254.044 473.733 254.044H468.872C467.852 254.044 467.198 253.444 466.912 252.245L463.018 236.319C462.785 235.406 462.615 234.672 462.507 234.117C462.418 233.562 462.355 232.944 462.319 232.264H462.212C462.176 232.944 462.104 233.562 461.997 234.117C461.908 234.672 461.746 235.406 461.514 236.319L457.62 252.245C457.333 253.444 456.68 254.044 455.659 254.044H450.798C449.832 254.044 449.178 253.444 448.838 252.245L441.855 227.94ZM485.361 239.945C485.361 235.415 486.489 231.843 488.745 229.229C491.019 226.616 494.224 225.309 498.359 225.309C503.158 225.309 506.72 226.544 509.048 229.015C511.375 231.485 512.539 235.46 512.539 240.938C512.539 242.013 512.038 242.55 511.035 242.55H493.311C493.597 245.522 494.331 247.393 495.513 248.163C496.694 248.932 498.064 249.317 499.622 249.317C501.108 249.317 502.244 249.12 503.032 248.727C503.82 248.333 504.482 247.796 505.02 247.115C505.628 246.327 506.38 246.202 507.275 246.739L509.961 248.377C511.017 249.022 511.169 249.792 510.417 250.687C509.325 251.994 508.045 252.97 506.577 253.614C505.109 254.259 502.791 254.581 499.622 254.581C494.483 254.581 490.822 253.274 488.638 250.66C486.453 248.046 485.361 244.474 485.361 239.945ZM493.337 237.179H505.02C505.02 235.245 504.536 233.67 503.569 232.452C502.603 231.217 501.063 230.599 498.95 230.599C497.267 230.599 495.933 231.19 494.949 232.372C493.964 233.535 493.427 235.138 493.337 237.179ZM520.005 254.044C518.931 254.044 518.394 253.507 518.394 252.433V227.457C518.394 226.383 518.931 225.846 520.005 225.846H524.248C525.322 225.846 525.859 226.383 525.859 227.457V229.659H525.967C526.432 228.513 527.211 227.502 528.303 226.625C529.395 225.747 530.684 225.309 532.17 225.309C533.191 225.309 534.032 225.434 534.695 225.685C535.321 225.917 535.563 226.347 535.42 226.974L534.668 230.169C534.507 230.886 534.023 231.1 533.218 230.814C532.752 230.653 532.305 230.572 531.875 230.572C530.156 230.572 528.733 231.602 527.605 233.661C526.477 235.72 525.913 238.718 525.913 242.657V252.433C525.913 253.507 525.376 254.044 524.302 254.044H520.005ZM541.113 254.044C540.039 254.044 539.502 253.507 539.502 252.433V227.457C539.502 226.383 540.039 225.846 541.113 225.846H545.41C546.484 225.846 547.021 226.383 547.021 227.457V252.433C547.021 253.507 546.484 254.044 545.41 254.044H541.113ZM541.113 221.71C540.039 221.71 539.502 221.173 539.502 220.099V216.661C539.502 215.587 540.039 215.05 541.113 215.05H545.41C546.484 215.05 547.021 215.587 547.021 216.661V220.099C547.021 221.173 546.484 221.71 545.41 221.71H541.113ZM555.938 254.044C554.863 254.044 554.326 253.507 554.326 252.433V227.457C554.326 226.383 554.863 225.846 555.938 225.846H560.181C561.255 225.846 561.792 226.383 561.792 227.457V229.015H561.899C562.723 227.6 563.77 226.633 565.042 226.114C566.313 225.577 567.843 225.309 569.634 225.309C572.427 225.309 574.736 226.186 576.562 227.94C578.389 229.695 579.302 232.9 579.302 237.555V252.433C579.302 253.507 578.765 254.044 577.69 254.044H573.394C572.319 254.044 571.782 253.507 571.782 252.433V239.488C571.782 235.585 571.514 233.124 570.977 232.103C570.439 231.083 569.285 230.572 567.512 230.572C565.632 230.572 564.218 231.306 563.269 232.774C562.32 234.225 561.846 237.25 561.846 241.852V252.433C561.846 253.507 561.309 254.044 560.234 254.044H555.938ZM585.049 239.945C585.049 236.006 585.899 232.586 587.6 229.686C589.319 226.768 592.282 225.309 596.489 225.309C598.101 225.309 599.479 225.541 600.625 226.007C601.771 226.472 602.809 227.475 603.74 229.015H603.848L603.955 227.457C604.027 226.383 604.51 225.846 605.405 225.846H609.648C610.723 225.846 611.26 226.383 611.26 227.457V253.749C611.26 258.135 610.078 261.161 607.715 262.826C605.352 264.491 601.932 265.323 597.456 265.323C595.558 265.323 593.804 265.225 592.192 265.028C590.581 264.831 588.952 264.339 587.305 263.551C586.445 263.139 586.302 262.36 586.875 261.214L587.842 259.281C588.236 258.493 588.889 258.314 589.802 258.744C590.536 259.084 591.44 259.388 592.515 259.657C593.607 259.925 594.985 260.06 596.65 260.06C598.942 260.06 600.697 259.63 601.914 258.771C603.132 257.929 603.74 256.076 603.74 253.211V252.755C603.74 252.039 603.776 251.323 603.848 250.606H603.74C602.809 252.146 601.771 253.149 600.625 253.614C599.479 254.08 598.101 254.312 596.489 254.312C592.282 254.312 589.319 252.862 587.6 249.962C585.899 247.044 585.049 243.705 585.049 239.945ZM592.998 239.945C592.998 242.63 593.365 244.824 594.099 246.524C594.851 248.207 596.436 249.049 598.853 249.049C600.195 249.049 601.341 248.297 602.29 246.793C603.257 245.271 603.74 243.302 603.74 240.885V238.736C603.74 236.319 603.257 234.359 602.29 232.855C601.341 231.333 600.195 230.572 598.853 230.572C596.436 230.572 594.851 231.423 594.099 233.124C593.365 234.806 592.998 237.08 592.998 239.945ZM639.888 254.044C638.634 254.044 638.008 253.373 638.008 252.03V217.547C638.008 216.205 638.634 215.533 639.888 215.533H649.26C657.496 215.533 663.064 217.198 665.964 220.528C668.883 223.858 670.342 228.594 670.342 234.735C670.342 240.876 668.883 245.629 665.964 248.995C663.064 252.361 657.496 254.044 649.26 254.044H639.888ZM645.85 247.384H648.75C654.3 247.384 657.89 246.354 659.519 244.295C661.148 242.219 661.963 239.032 661.963 234.735C661.963 230.438 661.148 227.269 659.519 225.228C657.89 223.169 654.3 222.14 648.75 222.14H645.85V247.384ZM677.915 254.044C676.841 254.044 676.304 253.507 676.304 252.433V227.457C676.304 226.383 676.841 225.846 677.915 225.846H682.212C683.286 225.846 683.823 226.383 683.823 227.457V252.433C683.823 253.507 683.286 254.044 682.212 254.044H677.915ZM677.915 221.71C676.841 221.71 676.304 221.173 676.304 220.099V216.661C676.304 215.587 676.841 215.05 677.915 215.05H682.212C683.286 215.05 683.823 215.587 683.823 216.661V220.099C683.823 221.173 683.286 221.71 682.212 221.71H677.915ZM689.624 239.945C689.624 236.006 690.474 232.586 692.175 229.686C693.894 226.768 696.857 225.309 701.064 225.309C702.676 225.309 704.054 225.541 705.2 226.007C706.346 226.472 707.384 227.475 708.315 229.015H708.423L708.53 227.457C708.602 226.383 709.085 225.846 709.98 225.846H714.224C715.298 225.846 715.835 226.383 715.835 227.457V253.749C715.835 258.135 714.653 261.161 712.29 262.826C709.927 264.491 706.507 265.323 702.031 265.323C700.133 265.323 698.379 265.225 696.768 265.028C695.156 264.831 693.527 264.339 691.88 263.551C691.021 263.139 690.877 262.36 691.45 261.214L692.417 259.281C692.811 258.493 693.464 258.314 694.377 258.744C695.111 259.084 696.016 259.388 697.09 259.657C698.182 259.925 699.561 260.06 701.226 260.06C703.517 260.06 705.272 259.63 706.489 258.771C707.707 257.929 708.315 256.076 708.315 253.211V252.755C708.315 252.039 708.351 251.323 708.423 250.606H708.315C707.384 252.146 706.346 253.149 705.2 253.614C704.054 254.08 702.676 254.312 701.064 254.312C696.857 254.312 693.894 252.862 692.175 249.962C690.474 247.044 689.624 243.705 689.624 239.945ZM697.573 239.945C697.573 242.63 697.94 244.824 698.674 246.524C699.426 248.207 701.011 249.049 703.428 249.049C704.771 249.049 705.916 248.297 706.865 246.793C707.832 245.271 708.315 243.302 708.315 240.885V238.736C708.315 236.319 707.832 234.359 706.865 232.855C705.916 231.333 704.771 230.572 703.428 230.572C701.011 230.572 699.426 231.423 698.674 233.124C697.94 234.806 697.573 237.08 697.573 239.945ZM724.751 254.044C723.677 254.044 723.14 253.507 723.14 252.433V227.457C723.14 226.383 723.677 225.846 724.751 225.846H729.048C730.122 225.846 730.659 226.383 730.659 227.457V252.433C730.659 253.507 730.122 254.044 729.048 254.044H724.751ZM724.751 221.71C723.677 221.71 723.14 221.173 723.14 220.099V216.661C723.14 215.587 723.677 215.05 724.751 215.05H729.048C730.122 215.05 730.659 215.587 730.659 216.661V220.099C730.659 221.173 730.122 221.71 729.048 221.71H724.751ZM737.024 231.217C735.968 231.217 735.439 230.769 735.439 229.874V227.188C735.439 226.293 735.968 225.846 737.024 225.846H738.85V224.906C738.85 224.1 739.038 223.366 739.414 222.704L741.482 219.078C741.876 218.398 742.341 218.058 742.878 218.058H744.758C745.833 218.058 746.37 218.595 746.37 219.669V225.846H750.72C751.777 225.846 752.305 226.293 752.305 227.188V229.874C752.305 230.769 751.777 231.217 750.72 231.217H746.37V244.537C746.37 246.363 746.495 247.679 746.746 248.485C747.014 249.273 747.694 249.667 748.787 249.667C749.342 249.667 749.968 249.577 750.667 249.398C751.365 249.201 751.911 249.013 752.305 248.834C752.931 248.548 753.343 248.753 753.54 249.452L754.346 252.513C754.507 253.122 754.274 253.569 753.647 253.856C753.057 254.125 752.242 254.366 751.204 254.581C750.183 254.814 749.154 254.93 748.115 254.93C745.555 254.93 743.371 254.402 741.562 253.346C739.754 252.289 738.85 250.114 738.85 246.82V231.217H737.024ZM757.891 246.524C757.891 242.944 759.6 240.348 763.02 238.736C766.44 237.125 770.343 236.266 774.729 236.158V235.084C774.729 233.437 774.317 232.273 773.494 231.593C772.67 230.912 771.524 230.572 770.056 230.572C769.018 230.572 768.096 230.724 767.29 231.029C766.502 231.315 765.813 231.655 765.222 232.049C764.649 232.425 764.13 232.81 763.665 233.204C762.841 233.92 762.161 233.956 761.624 233.312L759.395 230.572C758.84 229.892 758.974 229.194 759.797 228.478C760.424 227.923 761.149 227.439 761.973 227.027C762.814 226.616 763.924 226.231 765.303 225.873C766.681 225.497 768.472 225.309 770.674 225.309C774.398 225.309 777.253 226.168 779.241 227.887C781.246 229.605 782.249 232.139 782.249 235.487V252.433C782.249 253.507 781.711 254.044 780.637 254.044H776.233C775.266 254.044 774.783 253.507 774.783 252.433V251.627H774.729C773.673 252.647 772.402 253.399 770.916 253.883C769.447 254.348 768.096 254.581 766.86 254.581C763.924 254.581 761.695 253.865 760.173 252.433C758.652 250.982 757.891 249.013 757.891 246.524ZM765.84 246.363C765.84 246.99 765.965 247.536 766.216 248.001C766.466 248.449 766.86 248.78 767.397 248.995C767.935 249.21 768.534 249.317 769.197 249.317C770.11 249.317 770.996 249.192 771.855 248.941C772.715 248.691 773.673 248.1 774.729 247.169V241.341C771.721 241.681 769.707 242.12 768.687 242.657C767.666 243.194 766.932 243.749 766.484 244.322C766.055 244.895 765.84 245.576 765.84 246.363ZM791.191 254.044C790.117 254.044 789.58 253.507 789.58 252.433V220.716C789.58 219.911 789.768 219.177 790.144 218.514L792.212 214.889C792.606 214.208 793.071 213.868 793.608 213.868H795.488C796.562 213.868 797.1 214.405 797.1 215.479V252.433C797.1 253.507 796.562 254.044 795.488 254.044H791.191ZM825.728 254.044C824.474 254.044 823.848 253.373 823.848 252.03V217.547C823.848 216.205 824.474 215.533 825.728 215.533H846.97C848.313 215.533 848.984 216.115 848.984 217.279V220.448C848.984 221.611 848.313 222.193 846.97 222.193H831.689V231.539H844.768C846.111 231.539 846.782 232.121 846.782 233.285V236.454C846.782 237.617 846.111 238.199 844.768 238.199H831.689V252.03C831.689 253.373 831.063 254.044 829.81 254.044H825.728ZM854.731 242.335V227.457C854.731 226.383 855.269 225.846 856.343 225.846H860.64C861.714 225.846 862.251 226.383 862.251 227.457V240.401C862.251 244.304 862.52 246.766 863.057 247.787C863.594 248.807 864.722 249.317 866.44 249.317C868.267 249.317 869.654 248.592 870.603 247.142C871.552 245.674 872.026 242.639 872.026 238.038V227.457C872.026 226.383 872.563 225.846 873.638 225.846H877.935C879.009 225.846 879.546 226.383 879.546 227.457V252.433C879.546 253.507 879.009 254.044 877.935 254.044H873.691C872.617 254.044 872.08 253.507 872.08 252.433V250.875H871.973C871.149 252.289 870.102 253.265 868.831 253.802C867.559 254.321 866.056 254.581 864.319 254.581C861.58 254.581 859.297 253.704 857.471 251.949C855.645 250.195 854.731 246.99 854.731 242.335ZM885.911 231.217C884.854 231.217 884.326 230.769 884.326 229.874V227.188C884.326 226.293 884.854 225.846 885.911 225.846H887.737V224.906C887.737 224.1 887.925 223.366 888.301 222.704L890.369 219.078C890.763 218.398 891.228 218.058 891.765 218.058H893.645C894.719 218.058 895.256 218.595 895.256 219.669V225.846H899.607C900.663 225.846 901.191 226.293 901.191 227.188V229.874C901.191 230.769 900.663 231.217 899.607 231.217H895.256V244.537C895.256 246.363 895.382 247.679 895.632 248.485C895.901 249.273 896.581 249.667 897.673 249.667C898.228 249.667 898.855 249.577 899.553 249.398C900.251 249.201 900.798 249.013 901.191 248.834C901.818 248.548 902.23 248.753 902.427 249.452L903.232 252.513C903.394 253.122 903.161 253.569 902.534 253.856C901.943 254.125 901.129 254.366 900.09 254.581C899.07 254.814 898.04 254.93 897.002 254.93C894.442 254.93 892.257 254.402 890.449 253.346C888.641 252.289 887.737 250.114 887.737 246.82V231.217H885.911ZM908.228 242.335V227.457C908.228 226.383 908.765 225.846 909.839 225.846H914.136C915.21 225.846 915.747 226.383 915.747 227.457V240.401C915.747 244.304 916.016 246.766 916.553 247.787C917.09 248.807 918.218 249.317 919.937 249.317C921.763 249.317 923.15 248.592 924.099 247.142C925.048 245.674 925.522 242.639 925.522 238.038V227.457C925.522 226.383 926.06 225.846 927.134 225.846H931.431C932.505 225.846 933.042 226.383 933.042 227.457V252.433C933.042 253.507 932.505 254.044 931.431 254.044H927.188C926.113 254.044 925.576 253.507 925.576 252.433V250.875H925.469C924.645 252.289 923.598 253.265 922.327 253.802C921.056 254.321 919.552 254.581 917.815 254.581C915.076 254.581 912.793 253.704 910.967 251.949C909.141 250.195 908.228 246.99 908.228 242.335ZM941.958 254.044C940.884 254.044 940.347 253.507 940.347 252.433V227.457C940.347 226.383 940.884 225.846 941.958 225.846H946.201C947.275 225.846 947.812 226.383 947.812 227.457V229.659H947.92C948.385 228.513 949.164 227.502 950.256 226.625C951.348 225.747 952.638 225.309 954.124 225.309C955.144 225.309 955.986 225.434 956.648 225.685C957.275 225.917 957.516 226.347 957.373 226.974L956.621 230.169C956.46 230.886 955.977 231.1 955.171 230.814C954.705 230.653 954.258 230.572 953.828 230.572C952.109 230.572 950.686 231.602 949.558 233.661C948.43 235.72 947.866 238.718 947.866 242.657V252.433C947.866 253.507 947.329 254.044 946.255 254.044H941.958ZM959.951 239.945C959.951 235.415 961.079 231.843 963.335 229.229C965.609 226.616 968.813 225.309 972.949 225.309C977.747 225.309 981.31 226.544 983.638 229.015C985.965 231.485 987.129 235.46 987.129 240.938C987.129 242.013 986.628 242.55 985.625 242.55H967.9C968.187 245.522 968.921 247.393 970.103 248.163C971.284 248.932 972.654 249.317 974.211 249.317C975.697 249.317 976.834 249.12 977.622 248.727C978.41 248.333 979.072 247.796 979.609 247.115C980.218 246.327 980.97 246.202 981.865 246.739L984.551 248.377C985.607 249.022 985.759 249.792 985.007 250.687C983.915 251.994 982.635 252.97 981.167 253.614C979.699 254.259 977.38 254.581 974.211 254.581C969.073 254.581 965.412 253.274 963.228 250.66C961.043 248.046 959.951 244.474 959.951 239.945ZM967.927 237.179H979.609C979.609 235.245 979.126 233.67 978.159 232.452C977.192 231.217 975.653 230.599 973.54 230.599C971.857 230.599 970.523 231.19 969.539 232.372C968.554 233.535 968.017 235.138 967.927 237.179ZM992.419 252.164C991.542 251.537 991.3 250.866 991.694 250.15L993.064 247.652C993.547 246.757 994.299 246.65 995.32 247.33C996.34 248.01 997.54 248.512 998.918 248.834C1000.31 249.156 1001.59 249.317 1002.73 249.317C1003.54 249.317 1004.29 249.237 1004.99 249.076C1005.69 248.915 1006.28 248.601 1006.76 248.136C1007.24 247.67 1007.49 246.99 1007.49 246.095C1007.49 245.558 1007.34 245.101 1007.06 244.725C1006.77 244.349 1006.4 244.063 1005.95 243.866C1005.51 243.669 1005.03 243.508 1004.53 243.382C1003.87 243.221 1002.91 242.953 1001.66 242.577C1000.42 242.201 999.232 241.762 998.086 241.261C997.137 240.849 996.206 240.276 995.293 239.542C994.398 238.79 993.735 237.958 993.306 237.044C992.894 236.131 992.688 235.003 992.688 233.661C992.688 231.852 993.207 230.268 994.246 228.907C995.302 227.547 996.663 226.607 998.328 226.087C999.993 225.568 1002.07 225.309 1004.56 225.309C1006.24 225.309 1007.88 225.55 1009.47 226.034C1011.07 226.517 1012.2 226.974 1012.88 227.403C1013.96 228.084 1014.23 228.809 1013.69 229.579L1012.05 231.969C1011.55 232.685 1010.74 232.739 1009.63 232.13C1008.79 231.664 1007.96 231.288 1007.14 231.002C1006.33 230.715 1005.43 230.572 1004.42 230.572C1003.74 230.572 1003.09 230.644 1002.46 230.787C1001.84 230.93 1001.3 231.199 1000.85 231.593C1000.42 231.987 1000.21 232.506 1000.21 233.15C1000.21 233.831 1000.4 234.368 1000.8 234.762C1001.21 235.138 1001.68 235.415 1002.19 235.594C1002.73 235.773 1003.24 235.943 1003.73 236.104C1004.73 236.427 1005.74 236.74 1006.76 237.044C1007.78 237.331 1008.82 237.68 1009.88 238.092C1010.79 238.45 1011.67 238.96 1012.53 239.623C1013.39 240.285 1014.02 241.126 1014.41 242.147C1014.81 243.167 1015 244.331 1015 245.638C1015 247.375 1014.49 248.986 1013.45 250.472C1012.41 251.958 1011.04 253.014 1009.34 253.641C1007.64 254.268 1005.66 254.581 1003.4 254.581C1000.88 254.581 998.73 254.402 996.958 254.044C995.186 253.686 993.673 253.059 992.419 252.164Z" fill="black"/>
</svg>
