<svg width="3852" height="1156" viewBox="0 0 3852 1156" fill="none" xmlns="http://www.w3.org/2000/svg">
<path d="M1276.92 200.741H1433.68V841.001H1276.92V200.741ZM2054.11 200.741V255.512H1751.45V466.572H2018.22V521.343H1751.45V841.001H1594.22V200.741H2054.11ZM2153.26 200.741H2306.25L2527.69 637.969L2745.83 200.741H2895.51V841.001H2738.75V423.604L2529.58 841.001H2469.14L2252.89 418.883V841.001H2153.26V200.741ZM3404.51 855.166C3352.89 855.166 3304.72 846.824 3260.03 830.141C3215.33 813.458 3176.61 790.164 3143.87 760.26C3111.14 730.041 3085.32 694.314 3066.44 653.078C3047.86 611.527 3038.58 566.042 3038.58 516.621C3038.58 468.145 3047.86 423.762 3066.44 383.47C3085.32 342.864 3111.14 308.081 3143.87 279.121C3176.61 250.161 3215.33 227.655 3260.03 211.601C3304.72 195.547 3352.89 187.52 3404.51 187.52C3456.13 187.52 3504.14 195.705 3548.52 212.073C3593.22 228.127 3631.94 250.633 3664.67 279.593C3697.73 308.553 3723.69 343.178 3742.58 383.47C3761.47 423.447 3770.91 467.359 3770.91 515.205C3770.91 549.201 3766.66 581.308 3758.16 611.527C3749.66 641.431 3737.54 668.974 3721.81 694.157C3706.07 719.339 3687.18 741.845 3665.15 761.677C3643.11 781.508 3618.4 798.348 3591.02 812.199C3563.94 826.049 3534.67 836.594 3503.19 843.834C3471.71 851.388 3438.82 855.166 3404.51 855.166ZM3404.51 801.339C3435.67 801.339 3463.22 794.256 3487.14 780.091C3511.06 765.611 3531.05 745.78 3547.1 720.598C3563.16 695.416 3575.28 665.512 3583.46 630.886C3591.96 595.946 3596.21 557.857 3596.21 516.621C3596.21 476.015 3591.96 438.871 3583.46 405.19C3575.28 371.508 3563.16 342.549 3547.1 318.311C3531.05 294.073 3511.06 275.186 3487.14 261.651C3463.22 248.115 3435.67 241.347 3404.51 241.347C3373.03 241.347 3345.33 248.115 3321.41 261.651C3297.48 275.186 3277.5 294.073 3261.44 318.311C3245.39 342.549 3233.27 371.508 3225.08 405.19C3216.9 438.871 3212.81 476.015 3212.81 516.621C3212.81 557.857 3216.9 595.946 3225.08 630.886C3233.27 665.512 3245.39 695.416 3261.44 720.598C3277.5 745.78 3297.48 765.611 3321.41 780.091C3345.33 794.256 3373.03 801.339 3404.51 801.339Z" fill="#EA130C"/>
<path d="M1277 1079.69V946.603H1366.68V969.803H1305.14V1001.52H1362.06V1024.72H1305.14V1056.49H1366.94V1079.69H1277ZM1388.53 1079.69V979.876H1414.91V997.487H1416.08C1418.16 991.638 1421.63 987.024 1426.48 983.645C1431.33 980.265 1437.14 978.576 1443.9 978.576C1450.74 978.576 1456.57 980.287 1461.38 983.71C1466.19 987.089 1469.39 991.681 1471 997.487H1472.04C1474.07 991.768 1477.75 987.197 1483.08 983.775C1488.46 980.309 1494.8 978.576 1502.12 978.576C1511.44 978.576 1519 981.544 1524.8 987.479C1530.65 993.371 1533.58 1001.73 1533.58 1012.56V1079.69H1505.96V1018.02C1505.96 1012.48 1504.49 1008.32 1501.54 1005.54C1498.59 1002.77 1494.91 1001.39 1490.49 1001.39C1485.47 1001.39 1481.55 1002.99 1478.73 1006.19C1475.91 1009.36 1474.51 1013.54 1474.51 1018.74V1079.69H1447.67V1017.44C1447.67 1012.54 1446.26 1008.64 1443.44 1005.74C1440.67 1002.84 1437.01 1001.39 1432.46 1001.39C1429.38 1001.39 1426.61 1002.17 1424.14 1003.72C1421.72 1005.24 1419.79 1007.39 1418.36 1010.16C1416.93 1012.89 1416.21 1016.09 1416.21 1019.78V1079.69H1388.53ZM1555.45 1117.12V979.876H1582.74V996.642H1583.97C1585.19 993.956 1586.94 991.226 1589.24 988.454C1591.58 985.638 1594.61 983.298 1598.34 981.435C1602.11 979.529 1606.78 978.576 1612.37 978.576C1619.65 978.576 1626.37 980.482 1632.52 984.295C1638.67 988.064 1643.59 993.761 1647.27 1001.39C1650.95 1008.97 1652.79 1018.48 1652.79 1029.91C1652.79 1041.05 1651 1050.45 1647.4 1058.12C1643.85 1065.74 1639 1071.53 1632.84 1075.47C1626.73 1079.37 1619.89 1081.32 1612.31 1081.32C1606.94 1081.32 1602.37 1080.43 1598.6 1078.65C1594.87 1076.88 1591.82 1074.65 1589.43 1071.96C1587.05 1069.23 1585.23 1066.48 1583.97 1063.71H1583.13V1117.12H1555.45ZM1582.54 1029.78C1582.54 1035.72 1583.37 1040.9 1585.01 1045.32C1586.66 1049.73 1589.04 1053.18 1592.16 1055.65C1595.28 1058.07 1599.07 1059.29 1603.53 1059.29C1608.04 1059.29 1611.85 1058.05 1614.97 1055.58C1618.09 1053.07 1620.45 1049.6 1622.06 1045.19C1623.7 1040.72 1624.53 1035.59 1624.53 1029.78C1624.53 1024.02 1623.72 1018.95 1622.12 1014.58C1620.52 1010.2 1618.16 1006.78 1615.04 1004.31C1611.92 1001.84 1608.08 1000.61 1603.53 1000.61C1599.03 1000.61 1595.22 1001.8 1592.1 1004.18C1589.02 1006.56 1586.66 1009.94 1585.01 1014.32C1583.37 1018.69 1582.54 1023.85 1582.54 1029.78ZM1716.35 1081.64C1706.26 1081.64 1697.53 1079.5 1690.16 1075.21C1682.84 1070.88 1677.19 1064.85 1673.2 1057.14C1669.21 1049.39 1667.22 1040.4 1667.22 1030.17C1667.22 1019.86 1669.21 1010.85 1673.2 1003.14C1677.19 995.386 1682.84 989.363 1690.16 985.074C1697.53 980.742 1706.26 978.576 1716.35 978.576C1726.44 978.576 1735.15 980.742 1742.47 985.074C1749.84 989.363 1755.51 995.386 1759.5 1003.14C1763.49 1010.85 1765.48 1019.86 1765.48 1030.17C1765.48 1040.4 1763.49 1049.39 1759.5 1057.14C1755.51 1064.85 1749.84 1070.88 1742.47 1075.21C1735.15 1079.5 1726.44 1081.64 1716.35 1081.64ZM1716.48 1060.2C1721.07 1060.2 1724.91 1058.9 1727.98 1056.3C1731.06 1053.66 1733.38 1050.06 1734.94 1045.51C1736.54 1040.96 1737.34 1035.78 1737.34 1029.98C1737.34 1024.17 1736.54 1019 1734.94 1014.45C1733.38 1009.9 1731.06 1006.3 1727.98 1003.66C1724.91 1001.02 1721.07 999.696 1716.48 999.696C1711.84 999.696 1707.95 1001.02 1704.78 1003.66C1701.66 1006.3 1699.3 1009.9 1697.7 1014.45C1696.14 1019 1695.36 1024.17 1695.36 1029.98C1695.36 1035.78 1696.14 1040.96 1697.7 1045.51C1699.3 1050.06 1701.66 1053.66 1704.78 1056.3C1707.95 1058.9 1711.84 1060.2 1716.48 1060.2ZM1800.67 1079.69L1773.51 979.876H1801.51L1816.98 1046.94H1817.89L1834.01 979.876H1861.5L1877.87 1046.55H1878.72L1893.92 979.876H1921.87L1894.77 1079.69H1865.46L1848.3 1016.92H1847.07L1829.91 1079.69H1800.67ZM1979.62 1081.64C1969.36 1081.64 1960.52 1079.56 1953.11 1075.4C1945.74 1071.2 1940.07 1065.27 1936.08 1057.6C1932.1 1049.89 1930.1 1040.77 1930.1 1030.24C1930.1 1019.97 1932.1 1010.96 1936.08 1003.2C1940.07 995.451 1945.68 989.407 1952.91 985.074C1960.19 980.742 1968.73 978.576 1978.52 978.576C1985.1 978.576 1991.23 979.637 1996.91 981.76C2002.63 983.84 2007.61 986.981 2011.86 991.183C2016.15 995.386 2019.48 1000.67 2021.86 1007.04C2024.25 1013.36 2025.44 1020.77 2025.44 1029.26V1036.87H1941.15V1019.71H1999.38C1999.38 1015.73 1998.51 1012.19 1996.78 1009.12C1995.05 1006.04 1992.64 1003.64 1989.57 1001.91C1986.53 1000.13 1983 999.241 1978.97 999.241C1974.77 999.241 1971.05 1000.22 1967.8 1002.17C1964.59 1004.07 1962.08 1006.65 1960.26 1009.9C1958.44 1013.1 1957.51 1016.68 1957.46 1020.62V1036.93C1957.46 1041.87 1958.37 1046.14 1960.19 1049.73C1962.06 1053.33 1964.68 1056.1 1968.06 1058.05C1971.44 1060 1975.44 1060.98 1980.08 1060.98C1983.15 1060.98 1985.97 1060.54 1988.53 1059.68C1991.08 1058.81 1993.27 1057.51 1995.09 1055.78C1996.91 1054.05 1998.3 1051.92 1999.25 1049.41L2024.85 1051.1C2023.55 1057.25 2020.89 1062.62 2016.86 1067.22C2012.87 1071.76 2007.72 1075.32 2001.39 1077.87C1995.11 1080.39 1987.86 1081.64 1979.62 1081.64ZM2043.5 1079.69V979.876H2070.34V997.292H2071.38C2073.2 991.096 2076.26 986.417 2080.55 983.255C2084.84 980.049 2089.77 978.446 2095.36 978.446C2096.75 978.446 2098.24 978.533 2099.85 978.706C2101.45 978.879 2102.86 979.117 2104.07 979.421V1003.98C2102.77 1003.59 2100.97 1003.25 2098.68 1002.95C2096.38 1002.64 2094.28 1002.49 2092.37 1002.49C2088.3 1002.49 2084.66 1003.38 2081.46 1005.15C2078.29 1006.89 2075.78 1009.31 2073.92 1012.43C2072.1 1015.55 2071.19 1019.15 2071.19 1023.22V1079.69H2043.5ZM2118.38 1079.69V979.876H2146.07V1079.69H2118.38ZM2132.29 967.008C2128.18 967.008 2124.65 965.644 2121.7 962.914C2118.8 960.142 2117.35 956.827 2117.35 952.971C2117.35 949.159 2118.8 945.888 2121.7 943.159C2124.65 940.386 2128.18 939 2132.29 939C2136.41 939 2139.92 940.386 2142.82 943.159C2145.77 945.888 2147.24 949.159 2147.24 952.971C2147.24 956.827 2145.77 960.142 2142.82 962.914C2139.92 965.644 2136.41 967.008 2132.29 967.008ZM2195.93 1021.99V1079.69H2168.25V979.876H2194.63V997.487H2195.8C2198.01 991.681 2201.71 987.089 2206.91 983.71C2212.11 980.287 2218.41 978.576 2225.82 978.576C2232.75 978.576 2238.8 980.092 2243.95 983.125C2249.11 986.158 2253.12 990.49 2255.98 996.122C2258.84 1001.71 2260.27 1008.38 2260.27 1016.14V1079.69H2232.58V1021.08C2232.62 1014.97 2231.06 1010.2 2227.9 1006.78C2224.74 1003.31 2220.39 1001.58 2214.84 1001.58C2211.11 1001.58 2207.82 1002.38 2204.96 1003.98C2202.15 1005.59 2199.94 1007.93 2198.33 1011C2196.77 1014.04 2195.97 1017.7 2195.93 1021.99ZM2327.05 1119.2C2318.09 1119.2 2310.4 1117.97 2303.98 1115.5C2297.62 1113.07 2292.55 1109.76 2288.78 1105.56C2285.01 1101.36 2282.56 1096.63 2281.43 1091.39L2307.04 1087.95C2307.82 1089.94 2309.05 1091.8 2310.74 1093.54C2312.43 1095.27 2314.66 1096.65 2317.44 1097.69C2320.25 1098.78 2323.67 1099.32 2327.7 1099.32C2333.73 1099.32 2338.69 1097.85 2342.59 1094.9C2346.53 1092 2348.5 1087.12 2348.5 1080.28V1062.02H2347.33C2346.12 1064.79 2344.3 1067.41 2341.87 1069.88C2339.44 1072.35 2336.33 1074.36 2332.51 1075.92C2328.7 1077.48 2324.15 1078.26 2318.87 1078.26C2311.37 1078.26 2304.55 1076.53 2298.4 1073.06C2292.29 1069.56 2287.41 1064.2 2283.77 1057.01C2280.18 1049.78 2278.38 1040.64 2278.38 1029.59C2278.38 1018.28 2280.22 1008.84 2283.9 1001.26C2287.59 993.674 2292.48 987.999 2298.59 984.23C2304.74 980.46 2311.48 978.576 2318.8 978.576C2324.39 978.576 2329.07 979.529 2332.84 981.435C2336.61 983.298 2339.64 985.638 2341.94 988.454C2344.28 991.226 2346.07 993.956 2347.33 996.642H2348.37V979.876H2375.86V1080.67C2375.86 1089.16 2373.78 1096.26 2369.62 1101.98C2365.46 1107.7 2359.7 1111.99 2352.33 1114.85C2345.01 1117.75 2336.59 1119.2 2327.05 1119.2ZM2327.64 1057.47C2332.1 1057.47 2335.87 1056.36 2338.95 1054.15C2342.07 1051.9 2344.45 1048.7 2346.1 1044.54C2347.78 1040.33 2348.63 1035.31 2348.63 1029.46C2348.63 1023.61 2347.81 1018.54 2346.16 1014.25C2344.51 1009.92 2342.13 1006.56 2339.01 1004.18C2335.89 1001.8 2332.1 1000.61 2327.64 1000.61C2323.09 1000.61 2319.26 1001.84 2316.14 1004.31C2313.02 1006.74 2310.66 1010.12 2309.05 1014.45C2307.45 1018.78 2306.65 1023.78 2306.65 1029.46C2306.65 1035.22 2307.45 1040.2 2309.05 1044.41C2310.7 1048.57 2313.06 1051.79 2316.14 1054.09C2319.26 1056.34 2323.09 1057.47 2327.64 1057.47ZM2487.94 1079.69H2440.76V946.603H2488.33C2501.72 946.603 2513.24 949.267 2522.91 954.596C2532.57 959.882 2540 967.485 2545.2 977.406C2550.44 987.327 2553.06 999.198 2553.06 1013.02C2553.06 1026.88 2550.44 1038.8 2545.2 1048.76C2540 1058.72 2532.52 1066.37 2522.78 1071.7C2513.07 1077.03 2501.46 1079.69 2487.94 1079.69ZM2468.9 1055.58H2486.77C2495.09 1055.58 2502.09 1054.11 2507.76 1051.16C2513.48 1048.18 2517.77 1043.56 2520.63 1037.32C2523.53 1031.04 2524.98 1022.94 2524.98 1013.02C2524.98 1003.18 2523.53 995.147 2520.63 988.909C2517.77 982.67 2513.5 978.078 2507.83 975.132C2502.15 972.186 2495.16 970.713 2486.84 970.713H2468.9V1055.58ZM2573.38 1079.69V979.876H2601.07V1079.69H2573.38ZM2587.29 967.008C2583.17 967.008 2579.64 965.644 2576.7 962.914C2573.79 960.142 2572.34 956.827 2572.34 952.971C2572.34 949.159 2573.79 945.888 2576.7 943.159C2579.64 940.386 2583.17 939 2587.29 939C2591.41 939 2594.91 940.386 2597.82 943.159C2600.76 945.888 2602.24 949.159 2602.24 952.971C2602.24 956.827 2600.76 960.142 2597.82 962.914C2594.91 965.644 2591.41 967.008 2587.29 967.008ZM2668.21 1119.2C2659.25 1119.2 2651.56 1117.97 2645.14 1115.5C2638.77 1113.07 2633.71 1109.76 2629.94 1105.56C2626.17 1101.36 2623.72 1096.63 2622.59 1091.39L2648.2 1087.95C2648.98 1089.94 2650.21 1091.8 2651.9 1093.54C2653.59 1095.27 2655.82 1096.65 2658.6 1097.69C2661.41 1098.78 2664.83 1099.32 2668.86 1099.32C2674.89 1099.32 2679.85 1097.85 2683.74 1094.9C2687.69 1092 2689.66 1087.12 2689.66 1080.28V1062.02H2688.49C2687.28 1064.79 2685.46 1067.41 2683.03 1069.88C2680.6 1072.35 2677.48 1074.36 2673.67 1075.92C2669.86 1077.48 2665.31 1078.26 2660.03 1078.26C2652.53 1078.26 2645.71 1076.53 2639.55 1073.06C2633.45 1069.56 2628.57 1064.2 2624.93 1057.01C2621.34 1049.78 2619.54 1040.64 2619.54 1029.59C2619.54 1018.28 2621.38 1008.84 2625.06 1001.26C2628.75 993.674 2633.64 987.999 2639.75 984.23C2645.9 980.46 2652.64 978.576 2659.96 978.576C2665.55 978.576 2670.23 979.529 2674 981.435C2677.77 983.298 2680.8 985.638 2683.1 988.454C2685.43 991.226 2687.23 993.956 2688.49 996.642H2689.53V979.876H2717.02V1080.67C2717.02 1089.16 2714.94 1096.26 2710.78 1101.98C2706.62 1107.7 2700.86 1111.99 2693.49 1114.85C2686.17 1117.75 2677.74 1119.2 2668.21 1119.2ZM2668.8 1057.47C2673.26 1057.47 2677.03 1056.36 2680.11 1054.15C2683.23 1051.9 2685.61 1048.7 2687.25 1044.54C2688.94 1040.33 2689.79 1035.31 2689.79 1029.46C2689.79 1023.61 2688.97 1018.54 2687.32 1014.25C2685.67 1009.92 2683.29 1006.56 2680.17 1004.18C2677.05 1001.8 2673.26 1000.61 2668.8 1000.61C2664.25 1000.61 2660.42 1001.84 2657.3 1004.31C2654.18 1006.74 2651.82 1010.12 2650.21 1014.45C2648.61 1018.78 2647.81 1023.78 2647.81 1029.46C2647.81 1035.22 2648.61 1040.2 2650.21 1044.41C2651.86 1048.57 2654.22 1051.79 2657.3 1054.09C2660.42 1056.34 2664.25 1057.47 2668.8 1057.47ZM2739.05 1079.69V979.876H2766.73V1079.69H2739.05ZM2752.95 967.008C2748.84 967.008 2745.31 965.644 2742.36 962.914C2739.46 960.142 2738.01 956.827 2738.01 952.971C2738.01 949.159 2739.46 945.888 2742.36 943.159C2745.31 940.386 2748.84 939 2752.95 939C2757.07 939 2760.58 940.386 2763.48 943.159C2766.43 945.888 2767.9 949.159 2767.9 952.971C2767.9 956.827 2766.43 960.142 2763.48 962.914C2760.58 965.644 2757.07 967.008 2752.95 967.008ZM2842 979.876V1000.67H2781.89V979.876H2842ZM2795.54 955.961H2823.22V1049.02C2823.22 1051.58 2823.61 1053.57 2824.39 1055C2825.17 1056.39 2826.25 1057.36 2827.64 1057.92C2829.07 1058.49 2830.72 1058.77 2832.58 1058.77C2833.88 1058.77 2835.18 1058.66 2836.48 1058.44C2837.78 1058.18 2838.77 1057.99 2839.47 1057.86L2843.82 1078.46C2842.43 1078.89 2840.49 1079.39 2837.97 1079.95C2835.46 1080.56 2832.41 1080.93 2828.81 1081.06C2822.14 1081.32 2816.29 1080.43 2811.26 1078.39C2806.28 1076.36 2802.4 1073.19 2799.63 1068.91C2796.86 1064.62 2795.49 1059.2 2795.54 1052.66V955.961ZM2888.5 1081.58C2882.13 1081.58 2876.45 1080.47 2871.47 1078.26C2866.49 1076.01 2862.55 1072.7 2859.65 1068.32C2856.79 1063.9 2855.36 1058.4 2855.36 1051.81C2855.36 1046.27 2856.37 1041.61 2858.41 1037.84C2860.45 1034.07 2863.22 1031.04 2866.73 1028.74C2870.24 1026.45 2874.22 1024.72 2878.69 1023.55C2883.19 1022.38 2887.91 1021.55 2892.85 1021.08C2898.66 1020.47 2903.34 1019.91 2906.89 1019.39C2910.44 1018.82 2913.02 1018 2914.62 1016.92C2916.23 1015.83 2917.03 1014.23 2917.03 1012.11V1011.72C2917.03 1007.6 2915.73 1004.42 2913.13 1002.17C2910.57 999.913 2906.93 998.786 2902.21 998.786C2897.23 998.786 2893.26 999.891 2890.32 1002.1C2887.37 1004.27 2885.42 1007 2884.47 1010.29L2858.87 1008.21C2860.17 1002.14 2862.72 996.902 2866.53 992.483C2870.35 988.02 2875.26 984.598 2881.29 982.215C2887.35 979.789 2894.37 978.576 2902.34 978.576C2907.89 978.576 2913.19 979.226 2918.26 980.525C2923.37 981.825 2927.9 983.84 2931.84 986.569C2935.83 989.299 2938.97 992.808 2941.27 997.097C2943.56 1001.34 2944.71 1006.43 2944.71 1012.37V1079.69H2918.46V1065.85H2917.68C2916.07 1068.97 2913.93 1071.72 2911.24 1074.1C2908.56 1076.44 2905.33 1078.29 2901.56 1079.63C2897.79 1080.93 2893.44 1081.58 2888.5 1081.58ZM2896.43 1062.47C2900.5 1062.47 2904.1 1061.67 2907.21 1060.07C2910.33 1058.42 2912.78 1056.21 2914.56 1053.44C2916.33 1050.67 2917.22 1047.53 2917.22 1044.02V1033.42C2916.36 1033.99 2915.16 1034.51 2913.65 1034.98C2912.18 1035.42 2910.51 1035.83 2908.64 1036.22C2906.78 1036.56 2904.92 1036.89 2903.06 1037.19C2901.19 1037.45 2899.5 1037.69 2897.99 1037.91C2894.74 1038.38 2891.9 1039.14 2889.47 1040.18C2887.05 1041.22 2885.16 1042.63 2883.82 1044.41C2882.48 1046.14 2881.81 1048.31 2881.81 1050.9C2881.81 1054.67 2883.17 1057.55 2885.9 1059.55C2888.67 1061.5 2892.18 1062.47 2896.43 1062.47ZM2993.87 946.603V1079.69H2966.19V946.603H2993.87ZM3058.92 1079.69V946.603H3147.04V969.803H3087.06V1001.52H3141.2V1024.72H3087.06V1079.69H3058.92ZM3223.21 1037.19V979.876H3250.89V1079.69H3224.31V1061.56H3223.27C3221.02 1067.41 3217.27 1072.11 3212.03 1075.66C3206.83 1079.22 3200.48 1080.99 3192.99 1080.99C3186.32 1080.99 3180.45 1079.48 3175.38 1076.44C3170.31 1073.41 3166.35 1069.1 3163.49 1063.51C3160.67 1057.92 3159.24 1051.23 3159.2 1043.43V979.876H3186.88V1038.49C3186.92 1044.38 3188.51 1049.04 3191.63 1052.46C3194.74 1055.89 3198.93 1057.6 3204.17 1057.6C3207.5 1057.6 3210.62 1056.84 3213.53 1055.32C3216.43 1053.76 3218.77 1051.47 3220.54 1048.44C3222.36 1045.4 3223.25 1041.65 3223.21 1037.19ZM3326.13 979.876V1000.67H3266.02V979.876H3326.13ZM3279.66 955.961H3307.35V1049.02C3307.35 1051.58 3307.74 1053.57 3308.52 1055C3309.3 1056.39 3310.38 1057.36 3311.77 1057.92C3313.2 1058.49 3314.84 1058.77 3316.71 1058.77C3318.01 1058.77 3319.31 1058.66 3320.61 1058.44C3321.91 1058.18 3322.9 1057.99 3323.6 1057.86L3327.95 1078.46C3326.56 1078.89 3324.61 1079.39 3322.1 1079.95C3319.59 1080.56 3316.53 1080.93 3312.94 1081.06C3306.27 1081.32 3300.42 1080.43 3295.39 1078.39C3290.41 1076.36 3286.53 1073.19 3283.76 1068.91C3280.99 1064.62 3279.62 1059.2 3279.66 1052.66V955.961ZM3408.17 1037.19V979.876H3435.86V1079.69H3409.28V1061.56H3408.24C3405.99 1067.41 3402.24 1072.11 3397 1075.66C3391.8 1079.22 3385.45 1080.99 3377.96 1080.99C3371.28 1080.99 3365.41 1079.48 3360.34 1076.44C3355.28 1073.41 3351.31 1069.1 3348.45 1063.51C3345.64 1057.92 3344.21 1051.23 3344.16 1043.43V979.876H3371.85V1038.49C3371.89 1044.38 3373.47 1049.04 3376.59 1052.46C3379.71 1055.89 3383.89 1057.6 3389.13 1057.6C3392.47 1057.6 3395.59 1056.84 3398.49 1055.32C3401.39 1053.76 3403.73 1051.47 3405.51 1048.44C3407.33 1045.4 3408.22 1041.65 3408.17 1037.19ZM3458 1079.69V979.876H3484.84V997.292H3485.88C3487.7 991.096 3490.75 986.417 3495.04 983.255C3499.33 980.049 3504.27 978.446 3509.86 978.446C3511.25 978.446 3512.74 978.533 3514.34 978.706C3515.95 978.879 3517.36 979.117 3518.57 979.421V1003.98C3517.27 1003.59 3515.47 1003.25 3513.17 1002.95C3510.88 1002.64 3508.78 1002.49 3506.87 1002.49C3502.8 1002.49 3499.16 1003.38 3495.95 1005.15C3492.79 1006.89 3490.28 1009.31 3488.42 1012.43C3486.6 1015.55 3485.69 1019.15 3485.69 1023.22V1079.69H3458ZM3573.73 1081.64C3563.46 1081.64 3554.62 1079.56 3547.21 1075.4C3539.85 1071.2 3534.17 1065.27 3530.18 1057.6C3526.2 1049.89 3524.21 1040.77 3524.21 1030.24C3524.21 1019.97 3526.2 1010.96 3530.18 1003.2C3534.17 995.451 3539.78 989.407 3547.02 985.074C3554.29 980.742 3562.83 978.576 3572.62 978.576C3579.21 978.576 3585.34 979.637 3591.01 981.76C3596.73 983.84 3601.71 986.981 3605.96 991.183C3610.25 995.386 3613.58 1000.67 3615.97 1007.04C3618.35 1013.36 3619.54 1020.77 3619.54 1029.26V1036.87H3535.25V1019.71H3593.48C3593.48 1015.73 3592.61 1012.19 3590.88 1009.12C3589.15 1006.04 3586.74 1003.64 3583.67 1001.91C3580.64 1000.13 3577.1 999.241 3573.08 999.241C3568.87 999.241 3565.15 1000.22 3561.9 1002.17C3558.69 1004.07 3556.18 1006.65 3554.36 1009.9C3552.54 1013.1 3551.61 1016.68 3551.57 1020.62V1036.93C3551.57 1041.87 3552.48 1046.14 3554.29 1049.73C3556.16 1053.33 3558.78 1056.1 3562.16 1058.05C3565.54 1060 3569.54 1060.98 3574.18 1060.98C3577.26 1060.98 3580.07 1060.54 3582.63 1059.68C3585.18 1058.81 3587.37 1057.51 3589.19 1055.78C3591.01 1054.05 3592.4 1051.92 3593.35 1049.41L3618.96 1051.1C3617.66 1057.25 3614.99 1062.62 3610.96 1067.22C3606.98 1071.76 3601.82 1075.32 3595.5 1077.87C3589.21 1080.39 3581.96 1081.64 3573.73 1081.64ZM3720.66 1008.34L3695.31 1009.9C3694.88 1007.73 3693.95 1005.78 3692.52 1004.05C3691.09 1002.27 3689.21 1000.87 3686.87 999.826C3684.57 998.743 3681.82 998.202 3678.61 998.202C3674.32 998.202 3670.71 999.111 3667.76 1000.93C3664.81 1002.71 3663.34 1005.09 3663.34 1008.08C3663.34 1010.46 3664.29 1012.48 3666.2 1014.12C3668.11 1015.77 3671.38 1017.09 3676.01 1018.09L3694.08 1021.73C3703.78 1023.72 3711.02 1026.92 3715.78 1031.34C3720.55 1035.76 3722.93 1041.57 3722.93 1048.76C3722.93 1055.3 3721 1061.04 3717.15 1065.98C3713.34 1070.92 3708.09 1074.78 3701.42 1077.55C3694.79 1080.28 3687.15 1081.64 3678.48 1081.64C3665.27 1081.64 3654.74 1078.89 3646.9 1073.39C3639.1 1067.84 3634.53 1060.31 3633.19 1050.77L3660.42 1049.34C3661.24 1053.37 3663.23 1056.45 3666.4 1058.57C3669.56 1060.65 3673.61 1061.69 3678.55 1061.69C3683.4 1061.69 3687.3 1060.76 3690.24 1058.9C3693.23 1056.99 3694.75 1054.54 3694.79 1051.55C3694.75 1049.04 3693.69 1046.98 3691.61 1045.38C3689.53 1043.73 3686.32 1042.48 3681.99 1041.61L3664.71 1038.17C3654.96 1036.22 3647.7 1032.84 3642.94 1028.03C3638.21 1023.22 3635.85 1017.09 3635.85 1009.64C3635.85 1003.23 3637.58 997.703 3641.05 993.068C3644.56 988.432 3649.48 984.858 3655.8 982.345C3662.17 979.832 3669.62 978.576 3678.16 978.576C3690.76 978.576 3700.69 981.24 3707.92 986.569C3715.2 991.898 3719.45 999.155 3720.66 1008.34Z" fill="black"/>
<path d="M839.755 131.052C840.842 131.412 841.929 131.773 843.048 132.144C868.135 140.489 892.1 149.817 915.412 162.045C920.358 164.636 925.384 166.979 930.49 169.27C943.635 175.495 955.687 183.591 967.87 191.368C970.805 193.237 973.751 195.086 976.711 196.92C996.117 209.047 1014.31 222.283 1031.09 237.597C1034.54 240.724 1038.01 243.711 1041.63 246.641C1057.18 259.589 1071.35 273.929 1083.93 289.542C1085.53 291.491 1087.14 293.438 1088.75 295.385C1099.5 308.52 1109.2 321.963 1118.15 336.28C1119.72 338.77 1121.36 341.224 1123.01 343.672C1151.72 386.604 1167.86 434.515 1178.48 484.105C1179.25 487.615 1179.25 487.615 1180.82 491.872C1182.64 509.491 1182.64 509.491 1178.83 516.513C1174.92 520.88 1171.41 524.428 1165.26 525.253C1163.48 525.329 1163.48 525.329 1161.67 525.406C1160.5 525.479 1159.33 525.552 1158.13 525.628C1152.43 524.476 1148.68 521.432 1144.87 517.35C1143.16 513.314 1142.02 509.958 1141.05 505.775C1140.76 504.665 1140.47 503.554 1140.18 502.409C1139.27 498.872 1138.4 495.326 1137.55 491.778C1136.96 489.436 1136.36 487.095 1135.76 484.755C1134.33 479.146 1132.94 473.531 1131.55 467.913C1128.67 456.227 1125.67 444.73 1121.43 433.421C1121.04 432.37 1120.65 431.318 1120.24 430.235C1113.93 413.732 1106.62 397.963 1098 382.464C1097.36 381.335 1096.74 380.205 1096.09 379.04C1088.6 365.635 1080.87 352.741 1071.42 340.5C1070.21 338.842 1068.99 337.181 1067.77 335.518C1042.81 301.35 1012.16 268.644 977.663 243.082C976.001 241.805 974.34 240.524 972.683 239.242C910.143 191.075 816.281 130.427 733.883 129.178C776.33 136.066 827.495 166.709 862.347 188.876C865.251 190.69 868.195 192.422 871.162 194.139C905.035 213.79 936.586 237.517 964.198 264.731C967.443 267.77 970.724 270.622 974.154 273.46C993.461 289.534 1011.05 307.196 1026.11 327.011C1027.52 328.823 1027.52 328.823 1028.97 330.672C1036.55 340.502 1043.42 350.594 1049.94 361.107C1050.94 362.72 1051.94 364.333 1052.98 365.995C1079.77 409.538 1079.77 409.538 1087.14 433.181C1088.51 437.575 1090.12 441.736 1091.94 445.972C1100.7 466.58 1105.7 487.968 1108.32 510.038C1108.67 514.256 1108.67 514.256 1110.49 517.35C1119.48 570.177 1112.24 629.759 1096.42 680.712C1096.12 681.732 1095.8 682.754 1095.48 683.807C1091.77 695.655 1087.1 706.894 1081.5 718.045C1079.4 722.348 1077.6 726.672 1075.82 731.106C1064.1 758.44 1045.32 783.699 1026.11 806.605C1025.43 807.411 1024.76 808.218 1024.06 809.049C1014.14 820.777 1003.41 831.67 992.314 842.387C991.103 843.563 989.891 844.738 988.643 845.951C980.247 853.959 971.404 861.116 962.037 868.053C961.031 868.814 960.025 869.576 958.99 870.361C929.513 892.639 896.902 910.099 863.587 926.502C862.363 927.111 861.138 927.719 859.877 928.346C826.151 944.817 787.343 953.338 750.487 960.593C742.617 962.177 735.202 964.375 727.632 966.968C839.415 970.082 945.344 933.984 1030.8 865.055C1031.82 864.26 1032.85 863.463 1033.9 862.643C1039.73 858.041 1044.66 853.065 1049.54 847.544C1052.54 844.222 1055.64 841.01 1058.78 837.807C1079.26 816.793 1095.6 793.084 1111.12 768.551C1115.09 762.284 1118.28 758.581 1122.58 753.061C1105.97 859.335 1063.63 958.882 972.487 1027.01C969.037 1029.52 965.543 1031.97 962.037 1034.41C960.297 1035.66 958.557 1036.9 956.817 1038.15C943.642 1047.5 929.854 1055.83 915.733 1063.79C913.284 1065.18 910.842 1066.57 908.407 1067.98C886.214 1080.73 863.058 1089.44 838.583 1097.36C837.148 1097.82 835.714 1098.3 834.234 1098.78C815.354 1104.88 796.398 1108.75 776.715 1111.58C773.236 1112.08 769.76 1112.59 766.286 1113.13C726.051 1119.15 686.123 1119.14 645.483 1118.95C504.338 1118.38 332.489 1065.38 228.758 973.517L231.884 969.769C231.884 969.769 258.523 978.388 268.681 963.83C274.657 955.263 275.639 945.79 270.951 934.549L274.076 930.803C364.013 1016.16 549.185 1084.48 683.877 1056.89C568.199 1057.52 459.291 1036.76 360.398 972.964C359.033 972.119 357.666 971.275 356.26 970.405C332.952 955.86 310.769 939.818 290.077 922.006C288.903 921.008 288.903 921.008 287.706 919.989C275.649 909.703 264.197 898.832 252.767 887.91C251.373 886.581 249.979 885.251 248.542 883.88C240.706 876.346 233.2 868.659 226.006 860.559C224.467 858.866 222.927 857.174 221.385 855.483C177.891 807.404 139.756 753.426 114.806 694.278C113.608 691.473 112.353 688.69 111.093 685.91C106.738 676.02 102.139 668.382 96.3023 655.233C97.8924 666.37 100.319 676.873 103.951 687.561C105.095 690.966 106.167 694.394 107.162 697.841C113.28 718.478 122.84 737.73 132.244 757.146C132.692 758.074 133.14 759.002 133.601 759.958C153.128 800.389 176.102 836.99 205.305 871.723C207.096 873.859 208.864 876.013 210.629 878.169C220.361 889.892 231.085 900.675 241.824 911.541C246.303 916.076 250.766 920.624 255.209 925.191C255.96 925.953 256.711 926.713 257.485 927.497C270.68 941.09 270.68 941.09 270.543 948.984C269.623 964.915 258.523 971.323 240.552 969.075C228.832 966.827 222.088 957.774 214.579 949.826C213.576 948.781 212.573 947.736 211.54 946.66C202.59 937.227 194.176 927.439 186.075 917.33C183.802 914.499 181.501 911.69 179.198 908.881C160.55 885.865 145.258 860.723 130.842 835.11C129.259 832.329 127.631 829.578 125.981 826.832C91.6908 768.314 74.4422 701.471 63.9678 635.733C53.4938 569.995 52.9542 451.21 94.6723 395.616C94.6341 409.322 94.6762 423.03 94.6586 436.737C94.6505 442.82 94.6396 448.902 94.6217 454.985C94.4575 511.2 104.094 564.224 125.886 616.691C127.272 620.069 128.594 623.456 129.882 626.869C135.067 640.196 141.814 652.807 148.946 665.255C149.76 666.681 150.574 668.107 151.413 669.576C158.619 682.079 166.31 694.22 174.437 706.19C176.048 708.583 176.048 708.583 177.691 711.026C184.181 720.529 191.103 729.599 198.366 738.565C201.163 742.018 200.936 741.269 203.28 744.266C204.062 745.015 203.28 744.265 204.129 745.157C206.788 748.163 209.282 751.187 211.747 754.337C226.018 772.488 241.755 789.247 258.567 805.252C261.28 807.837 263.976 810.438 266.67 813.041C277.099 823.056 287.845 832.308 299.453 841.076C301.547 842.719 303.638 844.368 305.722 846.023C328.337 863.827 351.67 880.956 376.025 896.528C378.622 839.226 419.234 883.544 459.581 904.359C485.34 919.989 649.923 969.684 766.286 887.91C911.951 785.546 825.472 538.038 593.854 527.691C582.105 878.169 646.278 986.545 337.962 768.551C318.648 754.804 309.41 738.198 291.64 722.676C290.11 721.365 288.582 720.056 287.007 718.707C276.948 710.051 267.725 700.96 258.823 691.203C256.189 688.451 253.552 685.704 250.911 682.96C243.811 675.459 237.138 667.755 230.695 659.73C230.006 658.878 229.317 658.026 228.607 657.148C211.276 635.658 195.745 613.19 182.25 589.289C181.759 588.42 181.266 587.552 180.759 586.657C162.171 553.514 148.58 517.389 139.569 480.818C139.171 479.215 138.773 477.611 138.362 475.96C129.054 436.593 128.252 385.343 140.058 346.494C140.502 345.019 140.947 343.544 141.405 342.024C159.81 282.59 196.466 237.476 252.945 206.705C305.516 179.615 368.211 167.78 427.496 167.864C429.134 167.865 429.134 167.865 430.804 167.866C468.768 167.93 507.441 168.735 544.797 175.639C546.86 175.999 548.923 176.358 550.987 176.716C609.786 187.413 667.605 206.069 721.382 231.092C722.573 231.643 723.764 232.194 724.991 232.762C731.57 235.815 779.201 260.176 790.14 276.054C760.299 266.929 732.548 256.864 702.825 246.641C688.891 242.022 674.911 237.984 660.632 234.464C659.002 234.061 657.373 233.658 655.694 233.243C650.512 231.987 645.321 230.783 640.121 229.593C639.104 229.357 638.086 229.12 637.037 228.876C618.855 224.676 600.636 221.769 582.105 219.386C577.675 218.817 573.247 218.231 568.82 217.641C545.574 214.572 522.858 212.749 499.381 212.733C498.071 212.732 496.761 212.731 495.411 212.73C472.54 212.757 450.191 214.006 427.594 217.603C426.046 217.845 424.499 218.086 422.904 218.334C370.299 226.864 319.614 246.369 280.701 282.049C278.749 283.727 278.749 283.727 276.757 285.438C221.629 334.65 221.482 418.852 251.693 480.537C264.438 507.026 281.274 531.157 301.016 553.319C302.102 554.546 303.187 555.773 304.306 557.037C313.914 567.594 324.479 577.008 335.395 586.292C336.242 587.013 339.948 589.626 340.821 590.369C349.892 598.043 359.11 605.105 369.083 611.681C368.111 611.038 370.027 612.305 369.083 611.681C398.822 636.154 449.454 658.345 444.37 655.233C444.806 554.316 444.37 416.373 444.37 315.454C534.144 309.853 561.756 312.796 651.06 315.021C639.339 302.889 591.337 290.364 578.305 287.412C574.123 286.463 569.954 285.473 565.783 284.484C539.071 278.285 473.693 268.419 444.37 271.219C512.617 234.218 635.582 261.518 710.483 279.801C714.641 280.811 718.804 281.795 722.969 282.78C738.264 286.458 753.17 291.017 768.07 295.953C771.289 297.004 774.517 298.015 777.754 299.01C788.016 302.172 797.957 305.594 807.692 310.054C811.747 311.9 815.824 313.687 819.917 315.454C878.081 340.761 878.081 340.761 899.583 355.007C902.929 357.228 902.93 357.228 907.831 359.702C915.684 363.909 922.676 369.349 929.794 374.591C932.346 376.469 934.906 378.338 937.467 380.204C945.692 386.218 953.795 392.32 961.744 398.669C969.558 404.851 977.348 410.839 987.04 413.937C986.215 412.492 986.215 412.491 985.373 411.016C984.602 409.662 983.831 408.307 983.035 406.912C982.167 405.392 981.299 403.871 980.405 402.305C978.665 399.223 976.948 396.129 975.265 393.02C964.151 372.618 951.094 353.147 937.034 334.505C935.49 332.402 933.948 330.298 932.406 328.194C923.795 316.506 915.173 305.245 904.864 294.871C901.865 291.827 899.013 288.742 896.171 285.567C889.168 277.856 881.669 270.64 874.135 263.409C872.763 262.074 871.391 260.74 869.978 259.366C861.69 251.4 853.13 244.057 843.97 237.025C840.924 234.687 837.947 232.315 835.013 229.851C779.248 183.214 660.632 123.792 569.5 118.528C656.892 102.87 755.14 102.838 839.755 131.052Z" fill="url(#paint0_linear_332_421)"/>
<defs>
<linearGradient id="paint0_linear_332_421" x1="1762.7" y1="580.336" x2="-325.391" y2="614.444" gradientUnits="userSpaceOnUse">
<stop offset="0.175" stop-color="#FFAA00"/>
<stop offset="0.544563" stop-color="#EE1C24"/>
</linearGradient>
</defs>
</svg>
