<svg width="640" height="443" viewBox="0 0 640 443" fill="none" xmlns="http://www.w3.org/2000/svg">
<rect width="640" height="443" fill="black"/>
<path d="M491.696 40.5756L486.578 40.5527L486.416 70.4713L491.534 70.4942L491.696 40.5756Z" fill="#FFE477" fill-opacity="0.22"/>
<path d="M502.793 70.5445L497.675 70.5216L497.837 40.603L502.955 40.6259L502.793 70.5445Z" fill="#FFE477" fill-opacity="0.22"/>
<path d="M514.214 40.6762L508.073 40.6488L507.911 70.5674L514.052 70.5948L514.214 40.6762Z" fill="#FFE477" fill-opacity="0.22"/>
<path d="M581.885 372.355L582.141 325.195L629.992 372.57L581.885 372.355Z" fill="#47BDFF" fill-opacity="0.22"/>
<path d="M101.966 308.359L21.6172 308L101.535 387.973L101.966 308.359Z" fill="#FF8A00" fill-opacity="0.28"/>
<ellipse cx="2.5589" cy="2.53551" rx="2.5589" ry="2.53551" transform="matrix(0.99999 0.0044682 -0.00541614 0.999985 17.4375 324.717)" fill="#FF8A00" fill-opacity="0.28"/>
<ellipse cx="2.5589" cy="2.53551" rx="2.5589" ry="2.53551" transform="matrix(0.99999 0.0044682 -0.00541614 0.999985 17.3438 340.943)" fill="#FF8A00" fill-opacity="0.28"/>
<ellipse cx="2.5589" cy="2.53551" rx="2.5589" ry="2.53551" transform="matrix(0.99999 0.0044682 -0.00541614 0.999985 17.2734 354.127)" fill="#FF8A00" fill-opacity="0.28"/>
<ellipse cx="2.5589" cy="2.53551" rx="2.5589" ry="2.53551" transform="matrix(0.99999 0.0044682 -0.00541614 0.999985 17.1914 370.354)" fill="#FF8A00" fill-opacity="0.28"/>
<ellipse cx="2.5589" cy="2.53551" rx="2.5589" ry="2.53551" transform="matrix(0.99999 0.0044682 -0.00541614 0.999985 17.0938 386.582)" fill="#FF8A00" fill-opacity="0.28"/>
<ellipse cx="2.5589" cy="2.53551" rx="2.5589" ry="2.53551" transform="matrix(0.99999 0.0044682 -0.00541614 0.999985 17.0273 399.766)" fill="#FF8A00" fill-opacity="0.28"/>
<ellipse cx="2.5589" cy="2.53551" rx="2.5589" ry="2.53551" transform="matrix(0.99999 0.0044682 -0.00541614 0.999985 25.418 362.277)" fill="#FF8A00" fill-opacity="0.28"/>
<ellipse cx="2.5589" cy="2.53551" rx="2.5589" ry="2.53551" transform="matrix(0.99999 0.0044682 -0.00541614 0.999985 25.332 378.502)" fill="#FF8A00" fill-opacity="0.28"/>
<ellipse cx="2.5589" cy="2.53551" rx="2.5589" ry="2.53551" transform="matrix(0.99999 0.0044682 -0.00541614 0.999985 25.2578 391.689)" fill="#FF8A00" fill-opacity="0.28"/>
<ellipse cx="2.5589" cy="2.53551" rx="2.5589" ry="2.53551" transform="matrix(0.99999 0.0044682 -0.00541614 0.999985 32.5391 369.408)" fill="#FF8A00" fill-opacity="0.28"/>
<ellipse cx="2.5589" cy="2.53551" rx="2.5589" ry="2.53551" transform="matrix(0.99999 0.0044682 -0.00541614 0.999985 32.457 385.635)" fill="#FF8A00" fill-opacity="0.28"/>
<ellipse cx="2.5589" cy="2.53551" rx="2.5589" ry="2.53551" transform="matrix(0.99999 0.0044682 -0.00541614 0.999985 32.3828 398.82)" fill="#FF8A00" fill-opacity="0.28"/>
<ellipse cx="2.5589" cy="2.53551" rx="2.5589" ry="2.53551" transform="matrix(0.99999 0.0044682 -0.00541614 0.999985 39.6719 376.541)" fill="#FF8A00" fill-opacity="0.28"/>
<ellipse cx="2.5589" cy="2.53551" rx="2.5589" ry="2.53551" transform="matrix(0.99999 0.0044682 -0.00541614 0.999985 39.5781 392.766)" fill="#FF8A00" fill-opacity="0.28"/>
<ellipse cx="2.5589" cy="2.53551" rx="2.5589" ry="2.53551" transform="matrix(0.99999 0.0044682 -0.00541614 0.999985 39.5078 405.949)" fill="#FF8A00" fill-opacity="0.28"/>
<ellipse cx="2.5589" cy="2.53551" rx="2.5589" ry="2.53551" transform="matrix(0.99999 0.0044682 -0.00541614 0.999985 24.1445 407.91)" fill="#FF8A00" fill-opacity="0.28"/>
<ellipse cx="2.5589" cy="2.53551" rx="2.5589" ry="2.53551" transform="matrix(0.99999 0.0044682 -0.00541614 0.999985 84.5352 408.182)" fill="#FF8A00" fill-opacity="0.28"/>
<ellipse cx="2.5589" cy="2.53551" rx="2.5589" ry="2.53551" transform="matrix(0.99999 0.0044682 -0.00541614 0.999985 28.5469 351.135)" fill="#FF8A00" fill-opacity="0.28"/>
<ellipse cx="2.5589" cy="2.53551" rx="2.5589" ry="2.53551" transform="matrix(0.99999 0.0044682 -0.00541614 0.999985 47.8945 369.479)" fill="#FF8A00" fill-opacity="0.28"/>
<ellipse cx="2.5589" cy="2.53551" rx="2.5589" ry="2.53551" transform="matrix(0.99999 0.0044682 -0.00541614 0.999985 47.8125 385.705)" fill="#FF8A00" fill-opacity="0.28"/>
<ellipse cx="2.5589" cy="2.53551" rx="2.5589" ry="2.53551" transform="matrix(0.99999 0.0044682 -0.00541614 0.999985 47.7383 398.889)" fill="#FF8A00" fill-opacity="0.28"/>
<ellipse cx="2.5589" cy="2.53551" rx="2.5589" ry="2.53551" transform="matrix(0.99999 0.0044682 -0.00541614 0.999985 53.9922 377.619)" fill="#FF8A00" fill-opacity="0.28"/>
<ellipse cx="2.5589" cy="2.53551" rx="2.5589" ry="2.53551" transform="matrix(0.99999 0.0044682 -0.00541614 0.999985 53.9023 393.844)" fill="#FF8A00" fill-opacity="0.28"/>
<ellipse cx="2.5589" cy="2.53551" rx="2.5589" ry="2.53551" transform="matrix(0.99999 0.0044682 -0.00541614 0.999985 53.8359 407.027)" fill="#FF8A00" fill-opacity="0.28"/>
<ellipse cx="2.5589" cy="2.53551" rx="2.5589" ry="2.53551" transform="matrix(0.99999 0.0044682 -0.00541614 0.999985 62.2266 369.543)" fill="#FF8A00" fill-opacity="0.28"/>
<ellipse cx="2.5589" cy="2.53551" rx="2.5589" ry="2.53551" transform="matrix(0.99999 0.0044682 -0.00541614 0.999985 62.1367 385.768)" fill="#FF8A00" fill-opacity="0.28"/>
<ellipse cx="2.5589" cy="2.53551" rx="2.5589" ry="2.53551" transform="matrix(0.99999 0.0044682 -0.00541614 0.999985 62.0664 398.951)" fill="#FF8A00" fill-opacity="0.28"/>
<ellipse cx="2.5589" cy="2.53551" rx="2.5589" ry="2.53551" transform="matrix(0.99999 0.0044682 -0.00541614 0.999985 70.3711 377.689)" fill="#FF8A00" fill-opacity="0.28"/>
<ellipse cx="2.5589" cy="2.53551" rx="2.5589" ry="2.53551" transform="matrix(0.99999 0.0044682 -0.00541614 0.999985 70.2812 393.918)" fill="#FF8A00" fill-opacity="0.28"/>
<ellipse cx="2.5589" cy="2.53551" rx="2.5589" ry="2.53551" transform="matrix(0.99999 0.0044682 -0.00541614 0.999985 70.2148 407.102)" fill="#FF8A00" fill-opacity="0.28"/>
<ellipse cx="2.54926" cy="2.5452" rx="2.54926" ry="2.5452" transform="matrix(0.73817 -0.674615 0.681298 0.732006 24.5508 334.289)" fill="#FF8A00" fill-opacity="0.28"/>
<ellipse cx="2.54926" cy="2.5452" rx="2.54926" ry="2.5452" transform="matrix(0.73817 -0.674615 0.681298 0.732006 35.6406 346.215)" fill="#FF8A00" fill-opacity="0.28"/>
<ellipse cx="2.54926" cy="2.5452" rx="2.54926" ry="2.5452" transform="matrix(0.73817 -0.674615 0.681298 0.732006 44.6602 355.902)" fill="#FF8A00" fill-opacity="0.28"/>
<ellipse cx="2.54926" cy="2.5452" rx="2.54926" ry="2.5452" transform="matrix(0.73817 -0.674615 0.681298 0.732006 77.4805 388.279)" fill="#FF8A00" fill-opacity="0.28"/>
<ellipse cx="2.54926" cy="2.5452" rx="2.54926" ry="2.5452" transform="matrix(0.73817 -0.674615 0.681298 0.732006 88.5742 400.203)" fill="#FF8A00" fill-opacity="0.28"/>
<ellipse cx="2.54926" cy="2.5452" rx="2.54926" ry="2.5452" transform="matrix(0.73817 -0.674615 0.681298 0.732006 97.5938 409.891)" fill="#FF8A00" fill-opacity="0.28"/>
<ellipse cx="4.60602" cy="4.56392" rx="4.60602" ry="4.56392" transform="matrix(0.99999 0.0044682 -0.00541614 0.999985 538.062 336.66)" fill="#47BDFF" fill-opacity="0.22"/>
<ellipse cx="4.60602" cy="4.56392" rx="4.60602" ry="4.56392" transform="matrix(0.99999 0.0044682 -0.00541614 0.999985 537.203 306.23)" fill="#47BDFF" fill-opacity="0.22"/>
<ellipse cx="4.60602" cy="4.56392" rx="4.60602" ry="4.56392" transform="matrix(0.99999 0.0044682 -0.00541614 0.999985 552.551 307.312)" fill="#47BDFF" fill-opacity="0.22"/>
<ellipse cx="4.60602" cy="4.56392" rx="4.60602" ry="4.56392" transform="matrix(0.99999 0.0044682 -0.00541614 0.999985 551.375 335.705)" fill="#47BDFF" fill-opacity="0.22"/>
<ellipse cx="4.60602" cy="4.56392" rx="4.60602" ry="4.56392" transform="matrix(0.99999 0.0044682 -0.00541614 0.999985 595.535 307.504)" fill="#47BDFF" fill-opacity="0.22"/>
<ellipse cx="4.60602" cy="4.56392" rx="4.60602" ry="4.56392" transform="matrix(0.99999 0.0044682 -0.00541614 0.999985 595.703 277.078)" fill="#47BDFF" fill-opacity="0.22"/>
<ellipse cx="4.60602" cy="4.56392" rx="4.60602" ry="4.56392" transform="matrix(0.99999 0.0044682 -0.00541614 0.999985 537.117 321.441)" fill="#47BDFF" fill-opacity="0.22"/>
<ellipse cx="4.60602" cy="4.56392" rx="4.60602" ry="4.56392" transform="matrix(0.99999 0.0044682 -0.00541614 0.999985 610.891 307.574)" fill="#47BDFF" fill-opacity="0.22"/>
<ellipse cx="4.60602" cy="4.56392" rx="4.60602" ry="4.56392" transform="matrix(0.99999 0.0044682 -0.00541614 0.999985 610.031 277.143)" fill="#47BDFF" fill-opacity="0.22"/>
<ellipse cx="4.60602" cy="4.56392" rx="4.60602" ry="4.56392" transform="matrix(0.99999 0.0044682 -0.00541614 0.999985 609.953 292.357)" fill="#47BDFF" fill-opacity="0.22"/>
<ellipse cx="4.60602" cy="4.56392" rx="4.60602" ry="4.56392" transform="matrix(0.99999 0.0044682 -0.00541614 0.999985 581.207 307.439)" fill="#47BDFF" fill-opacity="0.22"/>
<ellipse cx="4.60602" cy="4.56392" rx="4.60602" ry="4.56392" transform="matrix(0.99999 0.0044682 -0.00541614 0.999985 580.348 277.01)" fill="#47BDFF" fill-opacity="0.22"/>
<ellipse cx="4.60602" cy="4.56392" rx="4.60602" ry="4.56392" transform="matrix(0.99999 0.0044682 -0.00541614 0.999985 580.27 292.223)" fill="#47BDFF" fill-opacity="0.22"/>
<ellipse cx="4.60602" cy="4.56392" rx="4.60602" ry="4.56392" transform="matrix(0.99999 0.0044682 -0.00541614 0.999985 566.723 336.787)" fill="#47BDFF" fill-opacity="0.22"/>
<ellipse cx="4.60602" cy="4.56392" rx="4.60602" ry="4.56392" transform="matrix(0.99999 0.0044682 -0.00541614 0.999985 565.863 306.357)" fill="#47BDFF" fill-opacity="0.22"/>
<ellipse cx="4.60602" cy="4.56392" rx="4.60602" ry="4.56392" transform="matrix(0.99999 0.0044682 -0.00541614 0.999985 565.777 321.57)" fill="#47BDFF" fill-opacity="0.22"/>
<ellipse cx="17.9123" cy="17.2415" rx="17.9123" ry="17.2415" transform="matrix(0.99999 0.0044682 -0.00541614 0.999985 603.863 118.66)" fill="#FFE477" fill-opacity="0.22"/>
<path d="M637.553 40.7203L576.14 40.4459L637.209 104.107L637.553 40.7203Z" fill="#FFE477" fill-opacity="0.22"/>
<path d="M575.045 53.6258L575.075 48.0478L630.556 104.077L624.927 104.052L575.045 53.6258Z" fill="#FFE477" fill-opacity="0.22"/>
<path d="M574.973 66.8103L575.009 60.218L618.786 104.025L612.644 103.997L574.973 66.8103Z" fill="#FFE477" fill-opacity="0.22"/>
<path d="M574.91 78.4734L574.943 72.3883L605.991 103.968L599.85 103.94L574.91 78.4734Z" fill="#FFE477" fill-opacity="0.22"/>
<path d="M574.842 91.1508L574.875 85.0657L593.709 103.913L588.591 103.89L574.842 91.1508Z" fill="#FFE477" fill-opacity="0.22"/>
<path d="M574.773 103.828L574.806 97.743L581.426 103.858L574.773 103.828Z" fill="#FFE477" fill-opacity="0.22"/>
<path d="M549.448 55.0327L534.527 69.6722L549.28 85.9655L564.204 70.819L549.448 55.0327Z" fill="#FFE477" fill-opacity="0.22"/>
<path d="M480.95 40.0206L476.344 40L476.179 70.4257L480.785 70.4463L480.95 40.0206Z" fill="#FFE477" fill-opacity="0.22"/>
<path d="M637.553 40.7203L576.14 40.4459L637.209 104.107L637.553 40.7203Z" fill="#FFE477" fill-opacity="0.22"/>
<path d="M575.045 53.6258L575.075 48.0478L630.556 104.077L624.927 104.052L575.045 53.6258Z" fill="#FFE477" fill-opacity="0.22"/>
<path d="M574.973 66.8103L575.009 60.218L618.786 104.025L612.644 103.997L574.973 66.8103Z" fill="#FFE477" fill-opacity="0.22"/>
<path d="M574.91 78.4734L574.943 72.3883L605.991 103.968L599.85 103.94L574.91 78.4734Z" fill="#FFE477" fill-opacity="0.22"/>
<path d="M574.842 91.1508L574.875 85.0657L593.709 103.913L588.591 103.89L574.842 91.1508Z" fill="#FFE477" fill-opacity="0.22"/>
<path d="M574.773 103.828L574.806 97.743L581.426 103.858L574.773 103.828Z" fill="#FFE477" fill-opacity="0.22"/>
<path d="M549.448 55.0327L534.527 69.6722L549.28 85.9655L564.204 70.819L549.448 55.0327Z" fill="#FFE477" fill-opacity="0.22"/>
<path d="M480.95 40.0206L476.344 40L476.179 70.4257L480.785 70.4463L480.95 40.0206Z" fill="#FFE477" fill-opacity="0.22"/>
<path d="M0.471621 38.876L26.7177 12.1166L26.4238 66.3757L0.471621 38.876Z" fill="#89D5F4" fill-opacity="0.22"/>
<path d="M36.3352 126.259L36.6153 74.535L62.5758 100.513L36.3352 126.259Z" fill="#89D5F4" fill-opacity="0.22"/>
<ellipse cx="5.62958" cy="5.57812" rx="5.62958" ry="5.57812" transform="matrix(0.99999 0.0044682 -0.00541614 0.999985 36.4258 14.1875)" fill="#89D5F4" fill-opacity="0.22"/>
<ellipse cx="5.62958" cy="5.57812" rx="5.62958" ry="5.57812" transform="matrix(0.99999 0.0044682 -0.00541614 0.999985 35.293 34.4648)" fill="#89D5F4" fill-opacity="0.22"/>
<ellipse cx="5.62958" cy="5.57812" rx="5.62958" ry="5.57812" transform="matrix(0.99999 0.0044682 -0.00541614 0.999985 36.2109 54.7559)" fill="#89D5F4" fill-opacity="0.22"/>
<ellipse cx="5.62958" cy="5.57812" rx="5.62958" ry="5.57812" transform="matrix(0.99999 0.0044682 -0.00541614 0.999985 56.8984 14.2812)" fill="#89D5F4" fill-opacity="0.22"/>
<ellipse cx="5.62958" cy="5.57812" rx="5.62958" ry="5.57812" transform="matrix(0.99999 0.0044682 -0.00541614 0.999985 55.7578 34.5586)" fill="#89D5F4" fill-opacity="0.22"/>
<ellipse cx="5.62958" cy="5.57812" rx="5.62958" ry="5.57812" transform="matrix(0.99999 0.0044682 -0.00541614 0.999985 56.6758 54.8457)" fill="#89D5F4" fill-opacity="0.22"/>
<ellipse cx="5.62958" cy="5.57812" rx="5.62958" ry="5.57812" transform="matrix(0.99999 0.0044682 -0.00541614 0.999985 56.8984 14.2812)" fill="#89D5F4" fill-opacity="0.22"/>
<ellipse cx="5.62958" cy="5.57812" rx="5.62958" ry="5.57812" transform="matrix(0.99999 0.0044682 -0.00541614 0.999985 55.7578 34.5586)" fill="#89D5F4" fill-opacity="0.22"/>
<ellipse cx="5.62958" cy="5.57812" rx="5.62958" ry="5.57812" transform="matrix(0.99999 0.0044682 -0.00541614 0.999985 56.6758 54.8457)" fill="#89D5F4" fill-opacity="0.22"/>
<ellipse cx="5.62958" cy="5.57812" rx="5.62958" ry="5.57812" transform="matrix(0.99999 0.0044682 -0.00541614 0.999985 76.3438 14.3652)" fill="#89D5F4" fill-opacity="0.22"/>
<ellipse cx="5.62958" cy="5.57812" rx="5.62958" ry="5.57812" transform="matrix(0.99999 0.0044682 -0.00541614 0.999985 75.207 34.6465)" fill="#89D5F4" fill-opacity="0.22"/>
<ellipse cx="5.62958" cy="5.57812" rx="5.62958" ry="5.57812" transform="matrix(0.99999 0.0044682 -0.00541614 0.999985 76.125 54.9336)" fill="#89D5F4" fill-opacity="0.22"/>
</svg>
