<svg width="3828" height="1065" viewBox="0 0 3828 1065" fill="none" xmlns="http://www.w3.org/2000/svg">
<path d="M815.835 24.2831C816.969 24.6629 818.103 25.0427 819.271 25.4339C845.452 34.2239 870.461 44.0501 894.79 56.9317C899.951 59.6614 905.196 62.1289 910.525 64.5419C924.242 71.0995 936.819 79.6283 949.534 87.8204C952.597 89.7893 955.672 91.7376 958.761 93.6691C979.013 106.445 998.004 120.388 1015.52 136.518C1019.11 139.813 1022.74 142.96 1026.52 146.046C1042.74 159.685 1057.52 174.791 1070.65 191.239C1072.33 193.291 1074.01 195.342 1075.68 197.394C1086.91 211.229 1097.02 225.39 1106.36 240.472C1108.01 243.095 1109.72 245.68 1111.43 248.26C1141.4 293.484 1158.25 343.954 1169.33 396.192C1172.56 411.105 1177.16 436.608 1155.53 439.539C1141.77 440.128 1133.39 432.635 1130.26 419.021C1129.96 417.85 1129.66 416.68 1129.35 415.474C1128.4 411.748 1127.5 408.013 1126.61 404.275C1125.99 401.809 1125.37 399.343 1124.75 396.878C1123.26 390.97 1121.8 385.054 1120.35 379.136C1117.34 366.826 1114.21 354.714 1109.79 342.801C1109.38 341.694 1108.97 340.587 1108.55 339.446C1101.97 322.061 1094.33 305.451 1085.33 289.123C1084.67 287.933 1084.02 286.743 1083.34 285.517C1075.52 271.396 1067.46 257.813 1057.6 244.917C1056.33 243.171 1055.06 241.421 1053.79 239.669C1027.74 203.677 995.751 169.224 959.755 142.297C958.02 140.951 956.287 139.602 954.557 138.251C889.29 87.5128 791.336 23.6253 705.347 22.3096C749.645 29.5654 803.039 61.8444 839.411 85.1955C842.442 87.1062 845.514 88.931 848.611 90.7397C883.96 111.44 916.887 136.435 945.702 165.103C949.089 168.304 952.513 171.307 956.092 174.298C976.241 191.23 994.599 209.835 1010.31 230.708C1011.78 232.617 1011.78 232.617 1013.29 234.565C1021.22 244.92 1028.38 255.552 1035.18 266.625C1036.23 268.325 1037.27 270.024 1038.35 271.774C1066.31 317.643 1066.31 317.643 1074 342.549C1075.43 347.177 1077.11 351.56 1079.01 356.024C1088.15 377.731 1093.38 400.262 1096.1 423.51C1096.47 427.955 1096.47 427.955 1098.37 431.213C1107.75 486.862 1100.2 549.627 1083.7 603.3C1083.37 604.376 1083.04 605.452 1082.7 606.56C1078.83 619.041 1073.96 630.881 1068.12 642.627C1065.93 647.16 1064.04 651.715 1062.19 656.386C1049.96 685.179 1030.37 711.789 1010.31 735.917C1009.61 736.767 1008.9 737.616 1008.17 738.492C997.817 750.846 986.62 762.322 975.044 773.61C973.78 774.849 972.515 776.088 971.213 777.364C962.451 785.8 953.223 793.339 943.447 800.647C942.397 801.449 941.348 802.251 940.266 803.078C909.506 826.547 875.473 844.939 840.705 862.219C839.427 862.86 838.15 863.5 836.834 864.161C801.638 881.511 761.138 890.487 722.675 898.13C714.462 899.798 706.723 902.113 698.824 904.846C815.48 908.125 926.026 870.099 1015.2 797.489C1016.27 796.651 1017.34 795.812 1018.44 794.949C1024.52 790.101 1029.67 784.858 1034.77 779.044C1037.89 775.544 1041.13 772.161 1044.4 768.787C1065.78 746.649 1082.83 721.674 1099.04 695.831C1103.18 689.229 1106.5 685.328 1110.99 679.513C1093.65 791.463 1049.47 896.328 954.353 968.096C950.752 970.741 947.105 973.321 943.447 975.891C941.63 977.203 939.815 978.517 938 979.832C924.25 989.678 909.861 998.449 895.125 1006.84C892.569 1008.3 890.02 1009.77 887.479 1011.25C864.319 1024.68 840.153 1033.86 814.612 1042.2C813.114 1042.69 811.616 1043.19 810.073 1043.7C790.369 1050.12 770.587 1054.2 750.046 1057.18C746.416 1057.71 742.788 1058.25 739.163 1058.81C697.173 1065.16 655.504 1065.14 613.094 1064.94C465.796 1064.34 286.454 1008.52 178.202 911.744L181.464 907.797C181.464 907.797 209.265 916.875 219.865 901.539C226.102 892.516 227.127 882.536 222.234 870.696L225.496 866.749C319.353 956.669 512.597 1028.63 653.161 999.572C532.441 1000.23 418.785 978.365 315.581 911.161C314.155 910.272 312.73 909.382 311.262 908.466C286.938 893.144 263.788 876.245 242.194 857.483C240.969 856.43 240.969 856.43 239.72 855.357C227.137 844.521 215.186 833.07 203.258 821.565C201.803 820.164 200.348 818.763 198.849 817.32C190.671 809.383 182.838 801.285 175.33 792.753C173.724 790.969 172.117 789.187 170.508 787.406C125.118 736.759 85.3202 679.898 59.2819 617.591C58.0316 614.636 56.7226 611.705 55.4075 608.776C50.8629 598.358 46.0635 590.312 39.972 576.461C41.6315 588.192 44.1641 599.257 47.9541 610.515C49.1483 614.102 50.2667 617.713 51.3049 621.345C57.6903 643.084 67.6666 663.364 77.4809 683.817C77.9482 684.795 78.4155 685.772 78.8969 686.779C99.2746 729.369 123.25 767.925 153.727 804.513C155.596 806.764 157.441 809.033 159.283 811.303C169.439 823.653 180.631 835.011 191.837 846.459C196.512 851.236 201.169 856.027 205.806 860.837C206.59 861.639 207.374 862.441 208.181 863.266C221.952 877.585 221.952 877.585 221.809 885.9C220.849 902.682 209.265 909.433 190.51 907.065C178.279 904.697 171.241 895.161 163.405 886.789C162.358 885.688 161.312 884.587 160.233 883.452C150.893 873.517 142.113 863.206 133.658 852.557C131.286 849.574 128.885 846.615 126.482 843.656C107.021 819.41 91.0615 792.925 76.0173 765.945C74.3651 763.015 72.6666 760.117 70.9449 757.224C35.1595 695.582 17.1589 625.168 6.22793 555.919C-4.7026 486.67 -5.26579 361.54 38.271 302.978C38.2311 317.415 38.2751 331.856 38.2567 346.294C38.2482 352.702 38.2368 359.11 38.2182 365.518C38.0469 424.735 48.1029 480.59 70.8453 535.86C72.2914 539.418 73.6712 542.987 75.0155 546.581C80.427 560.62 87.4674 573.905 94.9103 587.019C95.7601 588.52 96.6099 590.022 97.4855 591.569C105.006 604.741 113.032 617.53 121.513 630.139C123.194 632.661 123.194 632.661 124.908 635.233C131.682 645.244 138.905 654.798 146.485 664.243C149.404 667.881 149.167 667.091 151.613 670.249C152.429 671.038 151.613 670.249 152.499 671.187C155.273 674.355 157.877 677.54 160.449 680.857C175.343 699.978 191.766 717.632 209.311 734.492C212.142 737.216 214.955 739.956 217.767 742.698C228.65 753.248 239.865 762.993 251.979 772.229C254.164 773.961 256.345 775.697 258.521 777.44C282.122 796.195 306.471 814.239 331.889 830.643C332.427 818.66 332.965 806.678 333.52 794.332C342.036 795.706 349.411 798.902 356.759 803.114C371.431 811.242 386.372 818.136 402.014 824.328C403.165 824.785 404.316 825.242 405.502 825.713C437.331 838.134 471.118 847.358 504.654 854.325C506.832 854.788 506.832 854.788 509.054 855.26C573.98 867.934 647.794 859.883 710.24 840.116C711.396 839.75 712.552 839.385 713.743 839.008C749.287 827.473 781.404 810.061 810.982 787.913C846.985 760.996 872.339 726.65 884.737 683.817C885.025 682.865 885.313 681.913 885.61 680.932C888.696 669.49 888.647 657.983 888.61 646.223C888.609 645.142 888.609 644.06 888.608 642.946C888.538 624.416 886.816 606.942 881.476 589.091C881.143 587.958 880.811 586.826 880.469 585.66C864.21 532.161 825.464 489.578 775.413 462.846C709.493 429.168 647.321 440.686 568.358 440.686C567.82 565.725 567.282 690.764 566.727 819.592C548.37 817.815 548.37 817.815 538.615 814.214C537.572 813.834 536.529 813.455 535.455 813.063C532.111 811.839 528.779 810.586 525.447 809.33C523.116 808.466 520.784 807.604 518.452 806.742C501.319 800.374 484.379 793.616 467.606 786.403C464.149 784.929 460.677 783.499 457.195 782.084C441.344 775.61 426.182 768.106 411.055 760.185C406.827 757.978 402.584 755.802 398.339 753.629C365.563 736.732 334.034 717.82 304.165 696.448C303.223 695.775 302.281 695.103 301.311 694.41C281.155 679.928 262.37 663.858 243.825 647.506C242.229 646.126 240.633 644.746 238.99 643.324C228.493 634.206 218.868 624.631 209.577 614.351C206.829 611.453 204.077 608.559 201.321 605.668C193.911 597.767 186.947 589.651 180.223 581.197C179.504 580.3 178.785 579.403 178.045 578.479C159.958 555.841 143.75 532.173 129.667 506.994C129.153 506.08 128.64 505.165 128.11 504.222C108.712 469.31 94.5285 431.255 85.1254 392.73C84.7096 391.041 84.2939 389.352 83.8656 387.612C74.1515 346.143 73.3146 292.156 85.635 251.232C86.0988 249.678 86.5626 248.124 87.0405 246.523C106.247 183.915 144.502 136.391 203.443 103.977C258.306 75.4403 323.733 62.9733 385.604 63.0618C387.313 63.0625 387.312 63.0625 389.055 63.0631C428.675 63.1305 469.034 63.9792 508.018 71.2517C510.171 71.6305 512.324 72.0088 514.477 72.3865C575.839 83.6548 636.18 103.306 692.301 129.666C693.544 130.247 694.787 130.827 696.068 131.425C702.933 134.641 752.641 160.304 764.057 177.03C732.915 167.417 703.954 156.814 672.935 146.046C658.394 141.18 643.804 136.926 628.902 133.219C627.202 132.794 625.502 132.37 623.75 131.932C618.342 130.61 612.923 129.34 607.498 128.088C606.436 127.838 605.373 127.589 604.279 127.332C585.305 122.907 566.291 119.846 546.953 117.336C542.33 116.735 537.709 116.118 533.088 115.498C508.829 112.264 485.123 110.344 460.622 110.326C459.255 110.325 457.888 110.324 456.479 110.323C432.611 110.353 409.288 111.668 385.706 115.457C384.091 115.712 382.476 115.966 380.812 116.228C325.912 125.212 273.019 145.759 232.409 183.345C230.372 185.112 230.372 185.112 228.294 186.916C170.762 238.755 170.609 327.454 202.137 392.434C215.437 420.338 233.007 445.758 253.61 469.104C254.743 470.396 255.876 471.688 257.043 473.02C267.069 484.141 278.095 494.058 289.488 503.837C290.372 504.597 291.256 505.357 292.166 506.14C301.633 514.224 311.254 521.663 321.661 528.59C322.646 529.248 323.63 529.905 324.644 530.582C327.058 532.194 329.473 533.803 331.889 535.412C331.896 533.778 331.903 532.144 331.91 530.461C332.078 490.763 332.255 451.066 332.442 411.369C332.533 392.171 332.62 372.974 332.7 353.777C332.77 337.051 332.845 320.326 332.928 303.6C332.971 294.738 333.012 285.876 333.045 277.014C333.077 268.683 333.117 260.352 333.162 252.021C333.177 248.954 333.19 245.887 333.199 242.82C333.213 238.652 333.236 234.483 333.262 230.315C333.263 229.085 333.265 227.855 333.267 226.587C333.334 218.258 333.334 218.258 335.151 216.499C337.612 216.345 340.081 216.3 342.548 216.299C344.15 216.294 345.752 216.29 347.403 216.285C349.177 216.288 350.952 216.292 352.781 216.295C354.641 216.292 356.501 216.289 358.418 216.287C364.643 216.28 370.868 216.284 377.093 216.29C381.47 216.288 385.847 216.287 390.223 216.285C399.475 216.282 408.727 216.286 417.979 216.293C427.309 216.301 436.639 216.301 445.969 216.293C503.635 216.247 561.264 216.629 618.914 218.078C606.682 205.299 556.587 192.104 542.986 188.994C538.623 187.994 534.272 186.951 529.919 185.91C502.043 179.38 433.815 168.987 403.213 171.936C474.434 132.959 602.761 161.717 680.927 180.976C685.265 182.041 689.611 183.077 693.957 184.116C709.919 187.99 725.475 192.792 741.025 197.991C744.384 199.099 747.753 200.163 751.131 201.211C761.84 204.543 772.214 208.147 782.374 212.845C786.605 214.79 790.86 216.672 795.131 218.534C855.831 245.193 855.831 245.193 878.271 260.199C881.763 262.539 881.763 262.539 886.878 265.145C895.073 269.577 902.37 275.307 909.799 280.83C912.462 282.809 915.133 284.776 917.806 286.742C926.39 293.077 934.846 299.505 943.141 306.194C951.296 312.705 959.426 319.014 969.54 322.277C968.679 320.754 968.679 320.754 967.801 319.2C966.996 317.773 966.19 316.347 965.361 314.877C964.455 313.275 963.549 311.674 962.615 310.023C960.799 306.777 959.008 303.518 957.251 300.242C945.653 278.752 932.027 258.241 917.354 238.602C915.743 236.387 914.133 234.171 912.525 231.954C903.538 219.643 894.539 207.781 883.782 196.851C880.652 193.645 877.676 190.395 874.71 187.051C867.401 178.928 859.576 171.326 851.713 163.709C850.281 162.304 848.85 160.898 847.375 159.45C838.726 151.059 829.793 143.323 820.233 135.916C817.055 133.453 813.948 130.954 810.885 128.359C752.689 79.2309 628.902 16.635 533.798 11.0904C625 -5.40371 727.531 -5.43758 815.835 24.2831Z" fill="url(#paint0_linear_115_1188)"/>
<path d="M1252.92 148.74H1409.68V789H1252.92V148.74ZM2030.11 148.74V203.512H1727.45V414.571H1994.22V469.342H1727.45V789H1570.22V148.74H2030.11ZM2129.26 148.74H2282.25L2503.69 585.968L2721.83 148.74H2871.51V789H2714.75V371.604L2505.58 789H2445.14L2228.89 366.882V789H2129.26V148.74ZM3380.51 803.165C3328.89 803.165 3280.72 794.823 3236.03 778.14C3191.33 761.457 3152.61 738.163 3119.87 708.259C3087.14 678.041 3061.32 642.313 3042.44 601.077C3023.86 559.526 3014.58 514.041 3014.58 464.621C3014.58 416.145 3023.86 371.761 3042.44 331.469C3061.32 290.863 3087.14 256.08 3119.87 227.12C3152.61 198.16 3191.33 175.654 3236.03 159.6C3280.72 143.546 3328.89 135.52 3380.51 135.52C3432.13 135.52 3480.14 143.704 3524.52 160.072C3569.22 176.126 3607.94 198.633 3640.67 227.592C3673.73 256.552 3699.69 291.178 3718.58 331.469C3737.47 371.446 3746.91 415.358 3746.91 463.204C3746.91 497.2 3742.66 529.308 3734.16 559.526C3725.66 589.43 3713.54 616.973 3697.81 642.156C3682.07 667.338 3663.18 689.845 3641.15 709.676C3619.11 729.507 3594.4 746.347 3567.02 760.198C3539.94 774.048 3510.67 784.593 3479.19 791.833C3447.71 799.388 3414.82 803.165 3380.51 803.165ZM3380.51 749.338C3411.67 749.338 3439.22 742.255 3463.14 728.09C3487.06 713.611 3507.05 693.779 3523.1 668.597C3539.16 643.415 3551.28 613.511 3559.46 578.885C3567.96 543.945 3572.21 505.857 3572.21 464.621C3572.21 424.014 3567.96 386.87 3559.46 353.189C3551.28 319.508 3539.16 290.548 3523.1 266.31C3507.05 242.072 3487.06 223.185 3463.14 209.65C3439.22 196.114 3411.67 189.347 3380.51 189.347C3349.03 189.347 3321.33 196.114 3297.41 209.65C3273.48 223.185 3253.5 242.072 3237.44 266.31C3221.39 290.548 3209.27 319.508 3201.08 353.189C3192.9 386.87 3188.81 424.014 3188.81 464.621C3188.81 505.857 3192.9 543.945 3201.08 578.885C3209.27 613.511 3221.39 643.415 3237.44 668.597C3253.5 693.779 3273.48 713.611 3297.41 728.09C3321.33 742.255 3349.03 749.338 3380.51 749.338Z" fill="#FF4548"/>
<path d="M1252.57 996V862.909H1342.25V886.109H1280.71V917.822H1337.63V941.022H1280.71V972.8H1342.51V996H1252.57ZM1364.1 996V896.182H1390.48V913.793H1391.65C1393.73 907.944 1397.2 903.33 1402.05 899.951C1406.9 896.572 1412.71 894.882 1419.47 894.882C1426.31 894.882 1432.14 896.593 1436.95 900.016C1441.76 903.395 1444.96 907.988 1446.57 913.793H1447.61C1449.64 908.074 1453.32 903.504 1458.65 900.081C1464.03 896.615 1470.37 894.882 1477.69 894.882C1487.01 894.882 1494.57 897.85 1500.37 903.785C1506.22 909.677 1509.15 918.039 1509.15 928.87V996H1481.53V934.328C1481.53 928.783 1480.06 924.624 1477.11 921.851C1474.16 919.078 1470.48 917.692 1466.06 917.692C1461.04 917.692 1457.12 919.295 1454.3 922.501C1451.48 925.664 1450.08 929.844 1450.08 935.043V996H1423.24V933.744C1423.24 928.848 1421.83 924.949 1419.01 922.046C1416.24 919.143 1412.58 917.692 1408.03 917.692C1404.95 917.692 1402.18 918.472 1399.71 920.032C1397.29 921.548 1395.36 923.692 1393.93 926.465C1392.5 929.195 1391.78 932.401 1391.78 936.083V996H1364.1ZM1531.02 1033.43V896.182H1558.31V912.948H1559.54C1560.76 910.262 1562.51 907.533 1564.81 904.76C1567.15 901.944 1570.18 899.604 1573.91 897.741C1577.68 895.835 1582.35 894.882 1587.94 894.882C1595.22 894.882 1601.94 896.788 1608.09 900.601C1614.24 904.37 1619.16 910.067 1622.84 917.692C1626.52 925.274 1628.36 934.783 1628.36 946.221C1628.36 957.355 1626.57 966.756 1622.97 974.425C1619.42 982.05 1614.57 987.833 1608.41 991.776C1602.3 995.675 1595.46 997.625 1587.88 997.625C1582.51 997.625 1577.94 996.737 1574.17 994.96C1570.44 993.184 1567.39 990.953 1565 988.267C1562.62 985.537 1560.8 982.786 1559.54 980.013H1558.7V1033.43H1531.02ZM1558.11 946.091C1558.11 952.026 1558.94 957.203 1560.58 961.623C1562.23 966.042 1564.61 969.486 1567.73 971.955C1570.85 974.381 1574.64 975.594 1579.1 975.594C1583.61 975.594 1587.42 974.36 1590.54 971.89C1593.66 969.377 1596.02 965.912 1597.63 961.493C1599.27 957.03 1600.1 951.896 1600.1 946.091C1600.1 940.329 1599.29 935.26 1597.69 930.884C1596.09 926.509 1593.73 923.086 1590.61 920.616C1587.49 918.147 1583.65 916.912 1579.1 916.912C1574.6 916.912 1570.79 918.104 1567.67 920.487C1564.59 922.869 1562.23 926.249 1560.58 930.624C1558.94 935 1558.11 940.156 1558.11 946.091ZM1691.92 997.95C1681.83 997.95 1673.1 995.805 1665.73 991.516C1658.41 987.184 1652.76 981.162 1648.77 973.45C1644.78 965.695 1642.79 956.705 1642.79 946.481C1642.79 936.17 1644.78 927.158 1648.77 919.447C1652.76 911.692 1658.41 905.67 1665.73 901.381C1673.1 897.048 1681.83 894.882 1691.92 894.882C1702.01 894.882 1710.72 897.048 1718.04 901.381C1725.41 905.67 1731.08 911.692 1735.07 919.447C1739.06 927.158 1741.05 936.17 1741.05 946.481C1741.05 956.705 1739.06 965.695 1735.07 973.45C1731.08 981.162 1725.41 987.184 1718.04 991.516C1710.72 995.805 1702.01 997.95 1691.92 997.95ZM1692.05 976.504C1696.64 976.504 1700.48 975.205 1703.55 972.605C1706.63 969.962 1708.95 966.366 1710.51 961.817C1712.11 957.268 1712.91 952.091 1712.91 946.286C1712.91 940.48 1712.11 935.303 1710.51 930.754C1708.95 926.205 1706.63 922.609 1703.55 919.967C1700.48 917.324 1696.64 916.002 1692.05 916.002C1687.41 916.002 1683.52 917.324 1680.35 919.967C1677.23 922.609 1674.87 926.205 1673.27 930.754C1671.71 935.303 1670.93 940.48 1670.93 946.286C1670.93 952.091 1671.71 957.268 1673.27 961.817C1674.87 966.366 1677.23 969.962 1680.35 972.605C1683.52 975.205 1687.41 976.504 1692.05 976.504ZM1776.24 996L1749.08 896.182H1777.08L1792.55 963.247H1793.46L1809.58 896.182H1837.07L1853.44 962.857H1854.29L1869.49 896.182H1897.44L1870.34 996H1841.03L1823.87 933.224H1822.64L1805.48 996H1776.24ZM1955.19 997.95C1944.93 997.95 1936.09 995.87 1928.68 991.711C1921.31 987.509 1915.64 981.573 1911.65 973.905C1907.67 966.193 1905.67 957.074 1905.67 946.546C1905.67 936.278 1907.67 927.267 1911.65 919.512C1915.64 911.757 1921.25 905.713 1928.48 901.381C1935.76 897.048 1944.3 894.882 1954.09 894.882C1960.67 894.882 1966.8 895.944 1972.48 898.066C1978.2 900.146 1983.18 903.287 1987.43 907.489C1991.72 911.692 1995.05 916.977 1997.43 923.346C1999.82 929.671 2001.01 937.08 2001.01 945.571V953.174H1916.72V936.018H1974.95C1974.95 932.032 1974.08 928.501 1972.35 925.425C1970.62 922.349 1968.21 919.945 1965.14 918.212C1962.1 916.436 1958.57 915.548 1954.54 915.548C1950.34 915.548 1946.62 916.522 1943.37 918.472C1940.16 920.378 1937.65 922.956 1935.83 926.205C1934.01 929.411 1933.08 932.985 1933.03 936.928V953.239C1933.03 958.178 1933.94 962.446 1935.76 966.042C1937.63 969.637 1940.25 972.41 1943.63 974.36C1947.01 976.309 1951.01 977.284 1955.65 977.284C1958.72 977.284 1961.54 976.851 1964.1 975.984C1966.65 975.118 1968.84 973.818 1970.66 972.085C1972.48 970.352 1973.87 968.229 1974.82 965.717L2000.42 967.406C1999.12 973.558 1996.46 978.93 1992.43 983.523C1988.44 988.072 1983.29 991.624 1976.96 994.18C1970.68 996.693 1963.43 997.95 1955.19 997.95ZM2019.07 996V896.182H2045.91V913.598H2046.95C2048.77 907.403 2051.83 902.724 2056.12 899.561C2060.41 896.355 2065.34 894.752 2070.93 894.752C2072.32 894.752 2073.81 894.839 2075.42 895.012C2077.02 895.185 2078.43 895.424 2079.64 895.727V920.292C2078.34 919.902 2076.54 919.555 2074.25 919.252C2071.95 918.949 2069.85 918.797 2067.94 918.797C2063.87 918.797 2060.23 919.685 2057.03 921.461C2053.86 923.194 2051.35 925.62 2049.49 928.74C2047.67 931.859 2046.76 935.455 2046.76 939.527V996H2019.07ZM2093.95 996V896.182H2121.64V996H2093.95ZM2107.86 883.315C2103.75 883.315 2100.22 881.95 2097.27 879.221C2094.37 876.448 2092.92 873.134 2092.92 869.278C2092.92 865.465 2094.37 862.194 2097.27 859.465C2100.22 856.692 2103.75 855.306 2107.86 855.306C2111.98 855.306 2115.49 856.692 2118.39 859.465C2121.34 862.194 2122.81 865.465 2122.81 869.278C2122.81 873.134 2121.34 876.448 2118.39 879.221C2115.49 881.95 2111.98 883.315 2107.86 883.315ZM2171.5 938.293V996H2143.82V896.182H2170.2V913.793H2171.37C2173.58 907.988 2177.28 903.395 2182.48 900.016C2187.68 896.593 2193.98 894.882 2201.39 894.882C2208.32 894.882 2214.37 896.398 2219.52 899.431C2224.68 902.464 2228.69 906.796 2231.55 912.428C2234.41 918.017 2235.84 924.689 2235.84 932.444V996H2208.15V937.383C2208.19 931.274 2206.63 926.509 2203.47 923.086C2200.31 919.62 2195.96 917.887 2190.41 917.887C2186.68 917.887 2183.39 918.689 2180.53 920.292C2177.72 921.895 2175.51 924.234 2173.9 927.31C2172.34 930.343 2171.54 934.004 2171.5 938.293ZM2302.62 1035.51C2293.66 1035.51 2285.97 1034.28 2279.55 1031.81C2273.19 1029.38 2268.12 1026.07 2264.35 1021.86C2260.58 1017.66 2258.13 1012.94 2257 1007.7L2282.61 1004.25C2283.39 1006.25 2284.62 1008.11 2286.31 1009.84C2288 1011.57 2290.23 1012.96 2293.01 1014C2295.82 1015.08 2299.24 1015.63 2303.27 1015.63C2309.3 1015.63 2314.26 1014.15 2318.16 1011.21C2322.1 1008.3 2324.07 1003.43 2324.07 996.585V978.324H2322.9C2321.69 981.097 2319.87 983.718 2317.44 986.187C2315.01 988.657 2311.9 990.671 2308.08 992.231C2304.27 993.79 2299.72 994.57 2294.44 994.57C2286.94 994.57 2280.12 992.837 2273.97 989.371C2267.86 985.862 2262.98 980.512 2259.34 973.32C2255.75 966.085 2253.95 956.944 2253.95 945.896C2253.95 934.588 2255.79 925.144 2259.47 917.562C2263.16 909.98 2268.05 904.305 2274.16 900.536C2280.31 896.767 2287.05 894.882 2294.37 894.882C2299.96 894.882 2304.64 895.835 2308.41 897.741C2312.18 899.604 2315.21 901.944 2317.51 904.76C2319.85 907.533 2321.64 910.262 2322.9 912.948H2323.94V896.182H2351.43V996.975C2351.43 1005.47 2349.35 1012.57 2345.19 1018.29C2341.03 1024.01 2335.27 1028.3 2327.9 1031.16C2320.58 1034.06 2312.16 1035.51 2302.62 1035.51ZM2303.21 973.775C2307.67 973.775 2311.44 972.67 2314.52 970.461C2317.64 968.208 2320.02 965.002 2321.67 960.843C2323.35 956.64 2324.2 951.615 2324.2 945.766C2324.2 939.917 2323.38 934.848 2321.73 930.559C2320.08 926.227 2317.7 922.869 2314.58 920.487C2311.46 918.104 2307.67 916.912 2303.21 916.912C2298.66 916.912 2294.83 918.147 2291.71 920.616C2288.59 923.043 2286.23 926.422 2284.62 930.754C2283.02 935.087 2282.22 940.091 2282.22 945.766C2282.22 951.528 2283.02 956.51 2284.62 960.713C2286.27 964.872 2288.63 968.099 2291.71 970.396C2294.83 972.648 2298.66 973.775 2303.21 973.775ZM2463.51 996H2416.33V862.909H2463.9C2477.29 862.909 2488.81 865.574 2498.48 870.902C2508.14 876.188 2515.57 883.791 2520.77 893.712C2526.01 903.634 2528.63 915.504 2528.63 929.325C2528.63 943.188 2526.01 955.102 2520.77 965.067C2515.57 975.031 2508.09 982.678 2498.35 988.007C2488.64 993.336 2477.03 996 2463.51 996ZM2444.47 971.89H2462.34C2470.66 971.89 2477.66 970.417 2483.33 967.471C2489.05 964.482 2493.34 959.868 2496.2 953.629C2499.1 947.347 2500.55 939.246 2500.55 929.325C2500.55 919.49 2499.1 911.453 2496.2 905.215C2493.34 898.976 2489.07 894.384 2483.4 891.438C2477.72 888.492 2470.73 887.019 2462.41 887.019H2444.47V971.89ZM2548.95 996V896.182H2576.64V996H2548.95ZM2562.86 883.315C2558.74 883.315 2555.21 881.95 2552.27 879.221C2549.36 876.448 2547.91 873.134 2547.91 869.278C2547.91 865.465 2549.36 862.194 2552.27 859.465C2555.21 856.692 2558.74 855.306 2562.86 855.306C2566.98 855.306 2570.48 856.692 2573.39 859.465C2576.33 862.194 2577.81 865.465 2577.81 869.278C2577.81 873.134 2576.33 876.448 2573.39 879.221C2570.48 881.95 2566.98 883.315 2562.86 883.315ZM2643.78 1035.51C2634.82 1035.51 2627.13 1034.28 2620.71 1031.81C2614.34 1029.38 2609.28 1026.07 2605.51 1021.86C2601.74 1017.66 2599.29 1012.94 2598.16 1007.7L2623.77 1004.25C2624.55 1006.25 2625.78 1008.11 2627.47 1009.84C2629.16 1011.57 2631.39 1012.96 2634.17 1014C2636.98 1015.08 2640.4 1015.63 2644.43 1015.63C2650.46 1015.63 2655.42 1014.15 2659.31 1011.21C2663.26 1008.3 2665.23 1003.43 2665.23 996.585V978.324H2664.06C2662.85 981.097 2661.03 983.718 2658.6 986.187C2656.17 988.657 2653.05 990.671 2649.24 992.231C2645.43 993.79 2640.88 994.57 2635.6 994.57C2628.1 994.57 2621.28 992.837 2615.12 989.371C2609.02 985.862 2604.14 980.512 2600.5 973.32C2596.91 966.085 2595.11 956.944 2595.11 945.896C2595.11 934.588 2596.95 925.144 2600.63 917.562C2604.32 909.98 2609.21 904.305 2615.32 900.536C2621.47 896.767 2628.21 894.882 2635.53 894.882C2641.12 894.882 2645.8 895.835 2649.57 897.741C2653.34 899.604 2656.37 901.944 2658.67 904.76C2661 907.533 2662.8 910.262 2664.06 912.948H2665.1V896.182H2692.59V996.975C2692.59 1005.47 2690.51 1012.57 2686.35 1018.29C2682.19 1024.01 2676.43 1028.3 2669.06 1031.16C2661.74 1034.06 2653.31 1035.51 2643.78 1035.51ZM2644.37 973.775C2648.83 973.775 2652.6 972.67 2655.68 970.461C2658.8 968.208 2661.18 965.002 2662.82 960.843C2664.51 956.64 2665.36 951.615 2665.36 945.766C2665.36 939.917 2664.54 934.848 2662.89 930.559C2661.24 926.227 2658.86 922.869 2655.74 920.487C2652.62 918.104 2648.83 916.912 2644.37 916.912C2639.82 916.912 2635.99 918.147 2632.87 920.616C2629.75 923.043 2627.39 926.422 2625.78 930.754C2624.18 935.087 2623.38 940.091 2623.38 945.766C2623.38 951.528 2624.18 956.51 2625.78 960.713C2627.43 964.872 2629.79 968.099 2632.87 970.396C2635.99 972.648 2639.82 973.775 2644.37 973.775ZM2714.62 996V896.182H2742.3V996H2714.62ZM2728.52 883.315C2724.41 883.315 2720.88 881.95 2717.93 879.221C2715.03 876.448 2713.58 873.134 2713.58 869.278C2713.58 865.465 2715.03 862.194 2717.93 859.465C2720.88 856.692 2724.41 855.306 2728.52 855.306C2732.64 855.306 2736.15 856.692 2739.05 859.465C2742 862.194 2743.47 865.465 2743.47 869.278C2743.47 873.134 2742 876.448 2739.05 879.221C2736.15 881.95 2732.64 883.315 2728.52 883.315ZM2817.57 896.182V916.977H2757.46V896.182H2817.57ZM2771.11 872.267H2798.79V965.327C2798.79 967.883 2799.18 969.876 2799.96 971.305C2800.74 972.692 2801.82 973.667 2803.21 974.23C2804.64 974.793 2806.29 975.075 2808.15 975.075C2809.45 975.075 2810.75 974.966 2812.05 974.75C2813.35 974.49 2814.34 974.295 2815.04 974.165L2819.39 994.765C2818 995.199 2816.06 995.697 2813.54 996.26C2811.03 996.866 2807.98 997.235 2804.38 997.365C2797.71 997.625 2791.86 996.737 2786.83 994.7C2781.85 992.664 2777.97 989.501 2775.2 985.212C2772.43 980.923 2771.06 975.508 2771.11 968.966V872.267ZM2864.07 997.885C2857.7 997.885 2852.02 996.78 2847.04 994.57C2842.06 992.317 2838.12 989.003 2835.22 984.627C2832.36 980.208 2830.93 974.706 2830.93 968.121C2830.93 962.576 2831.94 957.918 2833.98 954.149C2836.02 950.38 2838.79 947.347 2842.3 945.051C2845.81 942.755 2849.79 941.022 2854.26 939.852C2858.76 938.683 2863.48 937.859 2868.42 937.383C2874.23 936.776 2878.91 936.213 2882.46 935.693C2886.01 935.13 2888.59 934.307 2890.19 933.224C2891.8 932.141 2892.6 930.538 2892.6 928.415V928.025C2892.6 923.909 2891.3 920.725 2888.7 918.472C2886.14 916.219 2882.5 915.093 2877.78 915.093C2872.8 915.093 2868.83 916.197 2865.89 918.407C2862.94 920.573 2860.99 923.303 2860.04 926.595L2834.44 924.516C2835.74 918.45 2838.29 913.208 2842.1 908.789C2845.92 904.327 2850.83 900.904 2856.86 898.521C2862.92 896.095 2869.94 894.882 2877.91 894.882C2883.46 894.882 2888.76 895.532 2893.83 896.832C2898.94 898.131 2903.47 900.146 2907.41 902.875C2911.4 905.605 2914.54 909.114 2916.84 913.403C2919.13 917.649 2920.28 922.739 2920.28 928.675V996H2894.03V982.158H2893.25C2891.64 985.277 2889.5 988.028 2886.81 990.411C2884.13 992.751 2880.9 994.592 2877.13 995.935C2873.36 997.235 2869.01 997.885 2864.07 997.885ZM2872 978.779C2876.07 978.779 2879.67 977.977 2882.78 976.374C2885.9 974.728 2888.35 972.518 2890.13 969.746C2891.9 966.973 2892.79 963.832 2892.79 960.323V949.73C2891.93 950.293 2890.73 950.813 2889.22 951.29C2887.75 951.723 2886.08 952.135 2884.21 952.525C2882.35 952.871 2880.49 953.196 2878.63 953.499C2876.76 953.759 2875.07 953.998 2873.56 954.214C2870.31 954.691 2867.47 955.449 2865.04 956.489C2862.62 957.528 2860.73 958.936 2859.39 960.713C2858.05 962.446 2857.38 964.612 2857.38 967.211C2857.38 970.98 2858.74 973.862 2861.47 975.854C2864.24 977.804 2867.75 978.779 2872 978.779ZM2969.44 862.909V996H2941.76V862.909H2969.44ZM3034.49 996V862.909H3122.61V886.109H3062.63V917.822H3116.77V941.022H3062.63V996H3034.49ZM3198.78 953.499V896.182H3226.46V996H3199.88V977.869H3198.84C3196.59 983.718 3192.84 988.418 3187.6 991.971C3182.4 995.523 3176.05 997.3 3168.56 997.3C3161.89 997.3 3156.02 995.783 3150.95 992.751C3145.88 989.718 3141.92 985.407 3139.06 979.819C3136.24 974.23 3134.81 967.536 3134.77 959.738V896.182H3162.45V954.799C3162.49 960.691 3164.08 965.348 3167.2 968.771C3170.31 972.194 3174.5 973.905 3179.74 973.905C3183.07 973.905 3186.19 973.147 3189.1 971.63C3192 970.071 3194.34 967.775 3196.11 964.742C3197.93 961.709 3198.82 957.962 3198.78 953.499ZM3301.7 896.182V916.977H3241.59V896.182H3301.7ZM3255.23 872.267H3282.92V965.327C3282.92 967.883 3283.31 969.876 3284.09 971.305C3284.87 972.692 3285.95 973.667 3287.34 974.23C3288.77 974.793 3290.41 975.075 3292.28 975.075C3293.58 975.075 3294.88 974.966 3296.18 974.75C3297.48 974.49 3298.47 974.295 3299.17 974.165L3303.52 994.765C3302.13 995.199 3300.18 995.697 3297.67 996.26C3295.16 996.866 3292.1 997.235 3288.51 997.365C3281.84 997.625 3275.99 996.737 3270.96 994.7C3265.98 992.664 3262.1 989.501 3259.33 985.212C3256.56 980.923 3255.19 975.508 3255.23 968.966V872.267ZM3383.74 953.499V896.182H3411.43V996H3384.85V977.869H3383.81C3381.56 983.718 3377.81 988.418 3372.57 991.971C3367.37 995.523 3361.02 997.3 3353.53 997.3C3346.85 997.3 3340.98 995.783 3335.91 992.751C3330.85 989.718 3326.88 985.407 3324.02 979.819C3321.21 974.23 3319.78 967.536 3319.73 959.738V896.182H3347.42V954.799C3347.46 960.691 3349.04 965.348 3352.16 968.771C3355.28 972.194 3359.46 973.905 3364.7 973.905C3368.04 973.905 3371.16 973.147 3374.06 971.63C3376.96 970.071 3379.3 967.775 3381.08 964.742C3382.9 961.709 3383.79 957.962 3383.74 953.499ZM3433.57 996V896.182H3460.41V913.598H3461.45C3463.27 907.403 3466.32 902.724 3470.61 899.561C3474.9 896.355 3479.84 894.752 3485.43 894.752C3486.82 894.752 3488.31 894.839 3489.91 895.012C3491.52 895.185 3492.93 895.424 3494.14 895.727V920.292C3492.84 919.902 3491.04 919.555 3488.74 919.252C3486.45 918.949 3484.35 918.797 3482.44 918.797C3478.37 918.797 3474.73 919.685 3471.52 921.461C3468.36 923.194 3465.85 925.62 3463.99 928.74C3462.17 931.859 3461.26 935.455 3461.26 939.527V996H3433.57ZM3549.3 997.95C3539.03 997.95 3530.19 995.87 3522.78 991.711C3515.42 987.509 3509.74 981.573 3505.75 973.905C3501.77 966.193 3499.78 957.074 3499.78 946.546C3499.78 936.278 3501.77 927.267 3505.75 919.512C3509.74 911.757 3515.35 905.713 3522.59 901.381C3529.86 897.048 3538.4 894.882 3548.19 894.882C3554.78 894.882 3560.91 895.944 3566.58 898.066C3572.3 900.146 3577.28 903.287 3581.53 907.489C3585.82 911.692 3589.15 916.977 3591.54 923.346C3593.92 929.671 3595.11 937.08 3595.11 945.571V953.174H3510.82V936.018H3569.05C3569.05 932.032 3568.18 928.501 3566.45 925.425C3564.72 922.349 3562.31 919.945 3559.24 918.212C3556.21 916.436 3552.67 915.548 3548.65 915.548C3544.44 915.548 3540.72 916.522 3537.47 918.472C3534.26 920.378 3531.75 922.956 3529.93 926.205C3528.11 929.411 3527.18 932.985 3527.14 936.928V953.239C3527.14 958.178 3528.05 962.446 3529.86 966.042C3531.73 969.637 3534.35 972.41 3537.73 974.36C3541.11 976.309 3545.11 977.284 3549.75 977.284C3552.83 977.284 3555.64 976.851 3558.2 975.984C3560.75 975.118 3562.94 973.818 3564.76 972.085C3566.58 970.352 3567.97 968.229 3568.92 965.717L3594.53 967.406C3593.23 973.558 3590.56 978.93 3586.53 983.523C3582.55 988.072 3577.39 991.624 3571.07 994.18C3564.78 996.693 3557.53 997.95 3549.3 997.95ZM3696.23 924.646L3670.88 926.205C3670.45 924.039 3669.52 922.089 3668.09 920.357C3666.66 918.58 3664.78 917.172 3662.44 916.132C3660.14 915.049 3657.39 914.508 3654.18 914.508C3649.89 914.508 3646.28 915.418 3643.33 917.237C3640.38 919.013 3638.91 921.396 3638.91 924.386C3638.91 926.768 3639.86 928.783 3641.77 930.429C3643.68 932.076 3646.95 933.397 3651.58 934.393L3669.65 938.033C3679.35 940.026 3686.59 943.232 3691.35 947.651C3696.12 952.07 3698.5 957.875 3698.5 965.067C3698.5 971.609 3696.57 977.349 3692.72 982.288C3688.91 987.227 3683.66 991.083 3676.99 993.855C3670.36 996.585 3662.72 997.95 3654.05 997.95C3640.84 997.95 3630.31 995.199 3622.47 989.696C3614.67 984.151 3610.1 976.613 3608.76 967.081L3635.99 965.652C3636.81 969.681 3638.8 972.757 3641.97 974.88C3645.13 976.959 3649.18 977.999 3654.12 977.999C3658.97 977.999 3662.87 977.067 3665.81 975.205C3668.8 973.298 3670.32 970.85 3670.36 967.861C3670.32 965.348 3669.26 963.29 3667.18 961.688C3665.1 960.041 3661.89 958.785 3657.56 957.918L3640.28 954.474C3630.53 952.525 3623.27 949.145 3618.51 944.336C3613.78 939.527 3611.42 933.397 3611.42 925.945C3611.42 919.533 3613.15 914.01 3616.62 909.374C3620.13 904.738 3625.05 901.164 3631.37 898.651C3637.74 896.138 3645.19 894.882 3653.73 894.882C3666.33 894.882 3676.26 897.547 3683.49 902.875C3690.77 908.204 3695.02 915.461 3696.23 924.646Z" fill="white"/>
<defs>
<linearGradient id="paint0_linear_115_1188" x1="1173" y1="451.53" x2="-28.6696" y2="519.742" gradientUnits="userSpaceOnUse">
<stop stop-color="#FF5B4B"/>
<stop offset="0.809903" stop-color="#FF4548"/>
</linearGradient>
</defs>
</svg>
