<svg width="12563" height="3809" viewBox="0 0 12563 3809" fill="none" xmlns="http://www.w3.org/2000/svg">
<path d="M4429 364.108H4940.26V2645.45H4429V364.108ZM6963.75 364.108V559.266H5976.64V1311.3H6846.69V1506.46H5976.64V2645.45H5463.85V364.108H6963.75ZM7287.11 364.108H7786.08L8508.29 1922.02L9219.74 364.108H9707.91V2645.45H9196.64V1158.2L8514.45 2645.45H8317.33L7612.05 1141.38V2645.45H7287.11V364.108ZM11368 2695.92C11199.6 2695.92 11042.5 2666.2 10896.8 2606.75C10751 2547.31 10624.7 2464.31 10517.9 2357.76C10411.2 2250.08 10327 2122.78 10265.4 1975.85C10204.8 1827.8 10174.5 1665.73 10174.5 1489.64C10174.5 1316.91 10204.8 1158.77 10265.4 1015.2C10327 870.514 10411.2 746.577 10517.9 643.388C10624.7 540.199 10751 460.007 10896.8 402.804C11042.5 345.601 11199.6 317 11368 317C11536.3 317 11692.9 346.164 11837.6 404.486C11983.4 461.689 12109.7 541.881 12216.5 645.07C12324.3 748.258 12409 871.633 12470.6 1015.2C12532.2 1157.64 12563 1314.11 12563 1484.59C12563 1605.72 12549.1 1720.12 12521.4 1827.8C12493.6 1934.35 12454.1 2032.49 12402.8 2122.22C12351.5 2211.95 12289.9 2292.14 12218 2362.81C12146.1 2433.47 12065.6 2493.47 11976.3 2542.82C11887.9 2592.17 11792.5 2629.75 11689.8 2655.54C11587.1 2682.46 11479.9 2695.92 11368 2695.92ZM11368 2504.13C11469.6 2504.13 11559.4 2478.89 11637.5 2428.42C11715.5 2376.82 11780.7 2306.16 11833 2216.44C11885.4 2126.71 11924.9 2020.16 11951.6 1896.78C11979.3 1772.28 11993.2 1636.57 11993.2 1489.64C11993.2 1344.95 11979.3 1212.6 11951.6 1092.59C11924.9 972.577 11885.4 869.391 11833 783.028C11780.7 696.664 11715.5 629.367 11637.5 581.14C11559.4 532.909 11469.6 508.794 11368 508.794C11265.3 508.794 11175 532.909 11096.9 581.14C11018.9 629.367 10953.7 696.664 10901.4 783.028C10849 869.391 10809.5 972.577 10782.8 1092.59C10756.1 1212.6 10742.8 1344.95 10742.8 1489.64C10742.8 1636.57 10756.1 1772.28 10782.8 1896.78C10809.5 2020.16 10849 2126.71 10901.4 2216.44C10953.7 2306.16 11018.9 2376.82 11096.9 2428.42C11175 2478.89 11265.3 2504.13 11368 2504.13Z" fill="#EA130C"/>
<g filter="url(#filter0_d_0_1)">
<path d="M4164.84 3537.1V3062.89H4457.32V3145.55H4256.61V3258.57H4442.25V3341.23H4256.61V3454.43H4458.17V3537.1H4164.84ZM4528.58 3537.1V3181.44H4614.62V3244.19H4618.43C4625.22 3223.35 4636.54 3206.91 4652.35 3194.87C4668.17 3182.83 4687.12 3176.81 4709.17 3176.81C4731.48 3176.81 4750.49 3182.91 4766.18 3195.11C4781.86 3207.15 4792.3 3223.51 4797.55 3244.19H4800.94C4807.56 3223.82 4819.57 3207.53 4836.95 3195.34C4854.5 3182.99 4875.17 3176.81 4899.05 3176.81C4929.44 3176.81 4954.1 3187.39 4973.02 3208.53C4992.1 3229.53 5001.65 3259.31 5001.65 3297.9V3537.1H4911.57V3317.36C4911.57 3297.62 4906.78 3282.79 4897.16 3272.89C4887.53 3263.02 4875.53 3258.1 4861.12 3258.1C4844.74 3258.1 4831.96 3263.8 4822.76 3275.2C4813.57 3286.5 4809 3301.39 4809 3319.92V3537.1H4721.46V3315.29C4721.46 3297.83 4716.86 3283.93 4707.67 3273.6C4698.63 3263.27 4686.7 3258.1 4671.86 3258.1C4661.81 3258.1 4652.78 3260.88 4644.72 3266.4C4636.83 3271.82 4630.53 3279.48 4625.87 3289.35C4621.21 3299.08 4618.86 3310.48 4618.86 3323.63V3537.1H4528.58ZM5072.98 3670.46V3181.44H5161.98V3241.18H5165.99C5169.97 3231.61 5175.68 3221.89 5183.18 3212.01C5190.81 3201.97 5200.7 3193.64 5212.86 3187C5225.16 3180.21 5240.39 3176.81 5258.62 3176.81C5282.36 3176.81 5304.28 3183.6 5324.34 3197.19C5344.39 3210.62 5360.44 3230.92 5372.44 3258.1C5384.44 3285.11 5390.45 3319 5390.45 3359.72C5390.45 3399.42 5384.61 3432.91 5372.87 3460.24C5361.29 3487.39 5345.47 3508.02 5325.38 3522.06C5305.45 3535.96 5283.15 3542.9 5258.42 3542.9C5240.91 3542.9 5226 3539.73 5213.71 3533.39C5201.54 3527.08 5191.6 3519.14 5183.8 3509.55C5176.04 3499.83 5170.1 3490.03 5165.99 3480.16H5163.26V3670.46H5072.98ZM5161.33 3359.26C5161.33 3380.42 5164.04 3398.88 5169.39 3414.63C5174.77 3430.34 5182.53 3442.64 5192.71 3451.44C5202.88 3460.06 5215.24 3464.41 5229.79 3464.41C5244.5 3464.41 5256.92 3459.99 5267.1 3451.19C5277.27 3442.25 5284.97 3429.88 5290.22 3414.17C5295.57 3398.24 5298.28 3379.96 5298.28 3359.26C5298.28 3338.74 5295.64 3320.67 5290.42 3305.1C5285.2 3289.49 5277.5 3277.31 5267.33 3268.51C5257.15 3259.71 5244.63 3255.32 5229.79 3255.32C5215.11 3255.32 5202.69 3259.56 5192.51 3268.04C5182.46 3276.52 5174.77 3288.57 5169.39 3304.17C5164.04 3319.74 5161.33 3338.13 5161.33 3359.26ZM5597.74 3544.04C5564.83 3544.04 5536.36 3536.42 5512.33 3521.13C5488.45 3505.7 5470.02 3484.22 5457.01 3456.75C5444 3429.13 5437.51 3397.1 5437.51 3360.65C5437.51 3323.91 5444 3291.81 5457.01 3264.34C5470.02 3236.71 5488.45 3215.25 5512.33 3199.97C5536.36 3184.53 5564.83 3176.81 5597.74 3176.81C5630.65 3176.81 5659.06 3184.53 5682.93 3199.97C5706.97 3215.25 5725.46 3236.71 5738.47 3264.34C5751.49 3291.81 5757.98 3323.91 5757.98 3360.65C5757.98 3397.1 5751.49 3429.13 5738.47 3456.75C5725.46 3484.22 5706.97 3505.7 5682.93 3521.13C5659.06 3536.42 5630.65 3544.04 5597.74 3544.04ZM5598.17 3467.65C5613.14 3467.65 5625.66 3463.02 5635.67 3453.75C5645.72 3444.35 5653.28 3431.52 5658.37 3415.31C5663.59 3399.1 5666.2 3380.64 5666.2 3359.97C5666.2 3339.27 5663.59 3320.85 5658.37 3304.64C5653.28 3288.42 5645.72 3275.6 5635.67 3266.19C5625.66 3256.78 5613.14 3252.07 5598.17 3252.07C5583.03 3252.07 5570.35 3256.78 5560.01 3266.19C5549.83 3275.6 5542.13 3288.42 5536.92 3304.64C5531.83 3320.85 5529.28 3339.27 5529.28 3359.97C5529.28 3380.64 5531.83 3399.1 5536.92 3415.31C5542.13 3431.52 5549.83 3444.35 5560.01 3453.75C5570.35 3463.02 5583.03 3467.65 5598.17 3467.65ZM5872.75 3537.1L5784.16 3181.44H5875.48L5925.94 3420.4H5928.91L5981.48 3181.44H6071.14L6124.53 3419.01H6127.3L6176.87 3181.44H6268.03L6179.64 3537.1H6084.05L6028.09 3313.44H6024.07L5968.11 3537.1H5872.75ZM6456.38 3544.04C6422.91 3544.04 6394.08 3536.63 6369.92 3521.81C6345.88 3506.85 6327.39 3485.72 6314.37 3458.39C6301.39 3430.91 6294.87 3398.42 6294.87 3360.9C6294.87 3324.31 6301.39 3292.2 6314.37 3264.55C6327.39 3236.94 6345.68 3215.4 6369.26 3199.97C6393.01 3184.53 6420.86 3176.81 6452.79 3176.81C6474.25 3176.81 6494.24 3180.59 6512.77 3188.16C6531.42 3195.57 6547.66 3206.76 6561.52 3221.73C6575.52 3236.71 6586.38 3255.54 6594.14 3278.23C6601.93 3300.75 6605.81 3327.16 6605.81 3357.41V3384.52H6330.91V3323.38H6520.82C6520.82 3309.2 6517.98 3296.58 6512.34 3285.64C6506.7 3274.67 6498.84 3266.12 6488.83 3259.95C6478.91 3253.61 6467.4 3250.44 6454.26 3250.44C6440.56 3250.44 6428.43 3253.93 6417.83 3260.88C6407.36 3267.65 6399.17 3276.84 6393.24 3288.42C6387.3 3299.83 6384.27 3312.58 6384.1 3326.62V3384.74C6384.1 3402.34 6387.07 3417.55 6393.01 3430.34C6399.11 3443.17 6407.65 3453.04 6418.67 3459.99C6429.7 3466.94 6442.74 3470.43 6457.88 3470.43C6467.89 3470.43 6477.09 3468.86 6485.44 3465.8C6493.75 3462.7 6500.89 3458.07 6506.83 3451.9C6512.77 3445.74 6517.3 3438.15 6520.4 3429.2L6603.89 3435.23C6599.65 3457.14 6590.98 3476.27 6577.83 3492.66C6564.82 3508.84 6548.02 3521.53 6527.38 3530.61C6506.9 3539.59 6483.25 3544.04 6456.38 3544.04ZM6664.72 3537.1V3181.44H6752.25V3243.5H6755.64C6761.58 3221.42 6771.56 3204.75 6785.55 3193.48C6799.54 3182.06 6815.62 3176.35 6833.85 3176.35C6838.39 3176.35 6843.25 3176.66 6848.5 3177.28C6853.72 3177.89 6858.31 3178.74 6862.26 3179.82V3267.33C6858.02 3265.94 6852.15 3264.73 6844.68 3263.66C6837.18 3262.56 6830.33 3262.02 6824.1 3262.02C6810.83 3262.02 6798.96 3265.19 6788.52 3271.5C6778.18 3277.7 6769.99 3286.32 6763.93 3297.44C6757.99 3308.56 6755.02 3321.38 6755.02 3335.89V3537.1H6664.72ZM6908.93 3537.1V3181.44H6999.24V3537.1H6908.93ZM6954.3 3135.59C6940.89 3135.59 6929.38 3130.73 6919.76 3121.01C6910.3 3111.13 6905.57 3099.32 6905.57 3085.58C6905.57 3071.99 6910.3 3060.34 6919.76 3050.62C6929.38 3040.74 6940.89 3035.8 6954.3 3035.8C6967.74 3035.8 6979.18 3040.74 6988.64 3050.62C6998.26 3060.34 7003.06 3071.99 7003.06 3085.58C7003.06 3099.32 6998.26 3111.13 6988.64 3121.01C6979.18 3130.73 6967.74 3135.59 6954.3 3135.59ZM7161.85 3331.5V3537.1H7071.58V3181.44H7157.61V3244.19H7161.43C7168.64 3223.51 7180.71 3207.15 7197.66 3195.11C7214.62 3182.91 7235.17 3176.81 7259.34 3176.81C7281.94 3176.81 7301.67 3182.21 7318.47 3193.02C7335.3 3203.83 7348.38 3219.26 7357.7 3239.33C7367.03 3259.24 7371.69 3283.01 7371.69 3310.66V3537.1H7281.39V3328.26C7281.52 3306.49 7276.43 3289.49 7266.12 3277.31C7255.82 3264.94 7241.63 3258.78 7223.53 3258.78C7211.36 3258.78 7200.63 3261.63 7191.31 3267.33C7182.14 3273.07 7174.93 3281.4 7169.68 3292.34C7164.59 3303.18 7161.99 3316.22 7161.85 3331.5ZM7589.49 3677.88C7560.27 3677.88 7535.19 3673.49 7514.25 3664.69C7493.51 3656.03 7476.97 3644.24 7464.68 3629.28C7452.38 3614.31 7444.39 3597.46 7440.71 3578.79L7524.23 3566.53C7526.78 3573.62 7530.79 3580.25 7536.3 3586.45C7541.81 3592.61 7549.08 3597.53 7558.15 3601.23C7567.31 3605.12 7578.47 3607.04 7591.61 3607.04C7611.28 3607.04 7627.46 3601.8 7640.18 3591.29C7653.03 3580.96 7659.45 3563.57 7659.45 3539.2V3474.14H7655.63C7651.69 3484.01 7645.75 3493.34 7637.83 3502.14C7629.9 3510.94 7619.76 3518.1 7607.3 3523.66C7594.87 3529.22 7580.03 3532 7562.81 3532C7538.35 3532 7516.11 3525.84 7496.05 3513.47C7476.13 3501 7460.21 3481.9 7448.34 3456.28C7436.63 3430.52 7430.76 3397.96 7430.76 3358.58C7430.76 3318.28 7436.76 3284.65 7448.76 3257.64C7460.8 3230.61 7476.75 3210.39 7496.67 3196.96C7516.73 3183.52 7538.71 3176.81 7562.59 3176.81C7580.82 3176.81 7596.08 3180.21 7608.38 3187C7620.67 3193.64 7630.55 3201.97 7638.05 3212.01C7645.69 3221.89 7651.53 3231.61 7655.63 3241.18H7659.03V3181.44H7748.68V3540.59C7748.68 3570.84 7741.9 3596.14 7728.33 3616.52C7714.76 3636.9 7695.98 3652.19 7671.94 3662.38C7648.07 3672.71 7620.61 3677.88 7589.49 3677.88ZM7591.42 3457.92C7605.96 3457.92 7618.26 3453.97 7628.3 3446.09C7638.48 3438.08 7646.24 3426.67 7651.62 3411.85C7657.1 3396.85 7659.87 3378.96 7659.87 3358.12C7659.87 3337.27 7657.2 3319.21 7651.82 3303.92C7646.44 3288.5 7638.67 3276.52 7628.5 3268.04C7618.32 3259.56 7605.96 3255.32 7591.42 3255.32C7576.58 3255.32 7564.09 3259.71 7553.91 3268.51C7543.73 3277.16 7536.04 3289.21 7530.79 3304.64C7525.57 3320.06 7522.96 3337.88 7522.96 3358.12C7522.96 3378.64 7525.57 3396.39 7530.79 3411.39C7536.17 3426.21 7543.86 3437.68 7553.91 3445.88C7564.09 3453.9 7576.58 3457.92 7591.42 3457.92ZM8114.22 3537.1H7960.35V3062.89H8115.49C8159.17 3062.89 8196.74 3072.38 8228.27 3091.37C8259.78 3110.2 8284.01 3137.29 8300.97 3172.64C8318.06 3207.99 8326.61 3250.29 8326.61 3299.54C8326.61 3348.93 8318.06 3391.4 8300.97 3426.89C8284.01 3462.38 8259.62 3489.63 8227.85 3508.63C8196.18 3527.62 8158.32 3537.1 8114.22 3537.1ZM8052.12 3451.19H8110.41C8137.54 3451.19 8160.37 3445.95 8178.86 3435.44C8197.52 3424.82 8211.51 3408.36 8220.84 3386.13C8230.3 3363.75 8235.03 3334.89 8235.03 3299.54C8235.03 3264.48 8230.3 3235.86 8220.84 3213.63C8211.51 3191.4 8197.58 3175.04 8179.09 3164.54C8160.57 3154.04 8137.77 3148.8 8110.64 3148.8H8052.12V3451.19ZM8392.88 3537.1V3181.44H8483.19V3537.1H8392.88ZM8438.25 3135.59C8424.81 3135.59 8413.3 3130.73 8403.71 3121.01C8394.22 3111.13 8389.49 3099.32 8389.49 3085.58C8389.49 3071.99 8394.22 3060.34 8403.71 3050.62C8413.3 3040.74 8424.81 3035.8 8438.25 3035.8C8451.68 3035.8 8463.1 3040.74 8472.59 3050.62C8482.18 3060.34 8487 3071.99 8487 3085.58C8487 3099.32 8482.18 3111.13 8472.59 3121.01C8463.1 3130.73 8451.68 3135.59 8438.25 3135.59ZM8702.16 3677.88C8672.94 3677.88 8647.86 3673.49 8626.92 3664.69C8606.14 3656.03 8589.64 3644.24 8577.34 3629.28C8565.05 3614.31 8557.06 3597.46 8553.37 3578.79L8636.9 3566.53C8639.44 3573.62 8643.45 3580.25 8648.97 3586.45C8654.48 3592.61 8661.75 3597.53 8670.82 3601.23C8679.98 3605.12 8691.14 3607.04 8704.28 3607.04C8723.95 3607.04 8740.12 3601.8 8752.81 3591.29C8765.69 3580.96 8772.12 3563.57 8772.12 3539.2V3474.14H8768.3C8764.35 3484.01 8758.42 3493.34 8750.49 3502.14C8742.57 3510.94 8732.39 3518.1 8719.97 3523.66C8707.54 3529.22 8692.7 3532 8675.48 3532C8651.02 3532 8628.78 3525.84 8608.69 3513.47C8588.79 3501 8572.88 3481.9 8561 3456.28C8549.3 3430.52 8543.43 3397.96 8543.43 3358.58C8543.43 3318.28 8549.43 3284.65 8561.43 3257.64C8573.46 3230.61 8589.41 3210.39 8609.34 3196.96C8629.4 3183.52 8651.38 3176.81 8675.25 3176.81C8693.48 3176.81 8708.75 3180.21 8721.04 3187C8733.34 3193.64 8743.22 3201.97 8750.72 3212.01C8758.32 3221.89 8764.19 3231.61 8768.3 3241.18H8771.69V3181.44H8861.35V3540.59C8861.35 3570.84 8854.57 3596.14 8841 3616.52C8827.43 3636.9 8808.64 3652.19 8784.61 3662.38C8760.73 3672.71 8733.24 3677.88 8702.16 3677.88ZM8704.08 3457.92C8718.63 3457.92 8730.93 3453.97 8740.97 3446.09C8751.15 3438.08 8758.91 3426.67 8764.26 3411.85C8769.77 3396.85 8772.54 3378.96 8772.54 3358.12C8772.54 3337.27 8769.87 3319.21 8764.49 3303.92C8759.1 3288.5 8751.34 3276.52 8741.17 3268.04C8730.99 3259.56 8718.63 3255.32 8704.08 3255.32C8689.24 3255.32 8676.75 3259.71 8666.58 3268.51C8656.4 3277.16 8648.7 3289.21 8643.45 3304.64C8638.24 3320.06 8635.63 3337.88 8635.63 3358.12C8635.63 3378.64 8638.24 3396.39 8643.45 3411.39C8648.84 3426.21 8656.53 3437.68 8666.58 3445.88C8676.75 3453.9 8689.24 3457.92 8704.08 3457.92ZM8933.2 3537.1V3181.44H9023.47V3537.1H8933.2ZM8978.53 3135.59C8965.13 3135.59 8953.62 3130.73 8943.99 3121.01C8934.54 3111.13 8929.81 3099.32 8929.81 3085.58C8929.81 3071.99 8934.54 3060.34 8943.99 3050.62C8953.62 3040.74 8965.13 3035.8 8978.53 3035.8C8991.97 3035.8 9003.42 3040.74 9012.88 3050.62C9022.5 3060.34 9027.29 3071.99 9027.29 3085.58C9027.29 3099.32 9022.5 3111.13 9012.88 3121.01C9003.42 3130.73 8991.97 3135.59 8978.53 3135.59ZM9268.96 3181.44V3255.54H9072.92V3181.44H9268.96ZM9117.44 3096.23H9207.71V3427.81C9207.71 3436.94 9208.98 3444.03 9211.53 3449.12C9214.07 3454.07 9217.59 3457.53 9222.13 3459.53C9226.79 3461.56 9232.17 3462.56 9238.24 3462.56C9242.48 3462.56 9246.72 3462.16 9250.96 3461.38C9255.2 3460.45 9258.43 3459.78 9260.71 3459.31L9274.9 3532.71C9270.36 3534.25 9264.04 3536.03 9255.82 3538.02C9247.63 3540.2 9237.69 3541.51 9225.94 3541.98C9204.19 3542.9 9185.11 3539.73 9168.71 3532.46C9152.46 3525.23 9139.81 3513.94 9130.78 3498.69C9121.74 3483.4 9117.27 3464.09 9117.44 3440.78V3096.23ZM9420.62 3543.83C9399.84 3543.83 9381.32 3539.88 9365.08 3532C9348.83 3523.98 9335.98 3512.19 9326.53 3496.58C9317.2 3480.83 9312.53 3461.24 9312.53 3437.76C9312.53 3418.02 9315.83 3401.41 9322.48 3387.98C9329.13 3374.55 9338.17 3363.75 9349.62 3355.55C9361.06 3347.39 9374.04 3341.23 9388.62 3337.06C9403.3 3332.89 9418.69 3329.93 9434.81 3328.26C9453.75 3326.09 9469.02 3324.09 9480.6 3322.24C9492.17 3320.21 9500.59 3317.29 9505.81 3313.44C9511.06 3309.55 9513.67 3303.85 9513.67 3296.3V3294.91C9513.67 3280.23 9509.43 3268.9 9500.95 3260.88C9492.6 3252.84 9480.73 3248.82 9465.33 3248.82C9449.09 3248.82 9436.14 3252.76 9426.55 3260.63C9416.93 3268.36 9410.57 3278.09 9407.47 3289.81L9323.98 3282.4C9328.22 3260.77 9336.54 3242.11 9348.96 3226.36C9361.42 3210.46 9377.44 3198.27 9397.1 3189.78C9416.87 3181.13 9439.76 3176.81 9465.76 3176.81C9483.86 3176.81 9501.14 3179.13 9517.68 3183.76C9534.34 3188.39 9549.12 3195.57 9561.97 3205.29C9574.98 3215.02 9585.22 3227.52 9592.72 3242.81C9600.19 3257.92 9603.94 3276.06 9603.94 3297.23V3537.1H9518.33V3487.78H9515.79C9510.54 3498.9 9503.56 3508.7 9494.78 3517.18C9486.04 3525.52 9475.51 3532.11 9463.21 3536.88C9450.92 3541.51 9436.73 3543.83 9420.62 3543.83ZM9446.48 3475.74C9459.75 3475.74 9471.5 3472.89 9481.64 3467.19C9491.81 3461.31 9499.81 3453.43 9505.61 3443.56C9511.38 3433.69 9514.29 3422.51 9514.29 3410V3372.23C9511.48 3374.26 9507.57 3376.11 9502.64 3377.79C9497.85 3379.36 9492.4 3380.82 9486.3 3382.21C9480.24 3383.42 9474.17 3384.59 9468.1 3385.66C9462.01 3386.59 9456.49 3387.44 9451.57 3388.23C9440.97 3389.9 9431.71 3392.61 9423.78 3396.32C9415.89 3400.02 9409.73 3405.05 9405.35 3411.39C9400.98 3417.55 9398.8 3425.28 9398.8 3434.51C9398.8 3447.95 9403.23 3458.21 9412.14 3465.33C9421.17 3472.28 9432.62 3475.74 9446.48 3475.74ZM9764.27 3062.89V3537.1H9674V3062.89H9764.27ZM9976.43 3537.1V3062.89H10263.8V3145.55H10068.2V3258.57H10244.8V3341.23H10068.2V3537.1H9976.43ZM10512.2 3385.66V3181.44H10602.5V3537.1H10515.8V3472.5H10512.4C10505.1 3493.34 10492.9 3510.09 10475.8 3522.74C10458.8 3535.42 10438.1 3541.73 10413.7 3541.73C10391.9 3541.73 10372.8 3536.35 10356.3 3525.52C10339.7 3514.72 10326.8 3499.36 10317.5 3479.44C10308.3 3459.53 10303.6 3435.69 10303.5 3407.9V3181.44H10393.8V3390.29C10393.9 3411.28 10399.1 3427.89 10409.3 3440.07C10419.4 3452.29 10433.1 3458.39 10450.2 3458.39C10461 3458.39 10471.2 3455.68 10480.7 3450.26C10490.1 3444.7 10497.8 3436.54 10503.5 3425.75C10509.5 3414.92 10512.4 3401.55 10512.2 3385.66ZM10847.9 3181.44V3255.54H10651.9V3181.44H10847.9ZM10696.4 3096.23H10786.7V3427.81C10786.7 3436.94 10787.9 3444.03 10790.5 3449.12C10793 3454.07 10796.5 3457.53 10801.1 3459.53C10805.7 3461.56 10811.1 3462.56 10817.2 3462.56C10821.4 3462.56 10825.7 3462.16 10829.9 3461.38C10834.2 3460.45 10837.4 3459.78 10839.7 3459.31L10853.9 3532.71C10849.3 3534.25 10843 3536.03 10834.8 3538.02C10826.6 3540.2 10816.6 3541.51 10804.9 3541.98C10783.1 3542.9 10764.1 3539.73 10747.7 3532.46C10731.4 3525.23 10718.8 3513.94 10709.7 3498.69C10700.7 3483.4 10696.2 3464.09 10696.4 3440.78V3096.23ZM11115.5 3385.66V3181.44H11205.8V3537.1H11119.1V3472.5H11115.7C11108.4 3493.34 11096.1 3510.09 11079.1 3522.74C11062.1 3535.42 11041.4 3541.73 11017 3541.73C10995.2 3541.73 10976 3536.35 10959.5 3525.52C10943 3514.72 10930 3499.36 10920.7 3479.44C10911.5 3459.53 10906.9 3435.69 10906.7 3407.9V3181.44H10997V3390.29C10997.2 3411.28 11002.3 3427.89 11012.5 3440.07C11022.7 3452.29 11036.3 3458.39 11053.4 3458.39C11064.3 3458.39 11074.5 3455.68 11083.9 3450.26C11093.4 3444.7 11101 3436.54 11106.8 3425.75C11112.7 3414.92 11115.6 3401.55 11115.5 3385.66ZM11278 3537.1V3181.44H11365.5V3243.5H11368.9C11374.9 3221.42 11384.8 3204.75 11398.8 3193.48C11412.8 3182.06 11428.9 3176.35 11447.1 3176.35C11451.7 3176.35 11456.5 3176.66 11461.7 3177.28C11467 3177.89 11471.6 3178.74 11475.5 3179.82V3267.33C11471.3 3265.94 11465.4 3264.73 11457.9 3263.66C11450.5 3262.56 11443.6 3262.02 11437.4 3262.02C11424.1 3262.02 11412.2 3265.19 11401.8 3271.5C11391.5 3277.7 11383.3 3286.32 11377.2 3297.44C11371.3 3308.56 11368.3 3321.38 11368.3 3335.89V3537.1H11278ZM11655.4 3544.04C11621.9 3544.04 11593.1 3536.63 11568.9 3521.81C11544.9 3506.85 11526.4 3485.72 11513.4 3458.39C11500.4 3430.91 11493.9 3398.42 11493.9 3360.9C11493.9 3324.31 11500.4 3292.2 11513.4 3264.55C11526.4 3236.94 11544.7 3215.4 11568.3 3199.97C11592 3184.53 11619.9 3176.81 11651.8 3176.81C11673.3 3176.81 11693.3 3180.59 11711.8 3188.16C11730.5 3195.57 11746.7 3206.76 11760.6 3221.73C11774.5 3236.71 11785.4 3255.54 11793.2 3278.23C11801 3300.75 11804.8 3327.16 11804.8 3357.41V3384.52H11529.9V3323.38H11719.9C11719.9 3309.2 11717 3296.58 11711.4 3285.64C11705.7 3274.67 11697.9 3266.12 11687.9 3259.95C11678 3253.61 11666.4 3250.44 11653.3 3250.44C11639.6 3250.44 11627.5 3253.93 11616.9 3260.88C11606.4 3267.65 11598.2 3276.84 11592.3 3288.42C11586.3 3299.83 11583.3 3312.58 11583.2 3326.62V3384.74C11583.2 3402.34 11586.1 3417.55 11592 3430.34C11598.1 3443.17 11606.7 3453.04 11617.7 3459.99C11628.7 3466.94 11641.8 3470.43 11656.9 3470.43C11667 3470.43 11676.1 3468.86 11684.5 3465.8C11692.8 3462.7 11699.9 3458.07 11705.9 3451.9C11711.8 3445.74 11716.3 3438.15 11719.4 3429.2L11803 3435.23C11798.7 3457.14 11790 3476.27 11776.9 3492.66C11763.9 3508.84 11747.1 3521.53 11726.4 3530.61C11705.9 3539.59 11682.3 3544.04 11655.4 3544.04ZM12134.6 3282.87L12052 3288.42C12050.6 3280.69 12047.5 3273.74 12042.9 3267.58C12038.2 3261.24 12032.1 3256.25 12024.4 3252.53C12016.9 3248.67 12008 3246.74 11997.5 3246.74C11983.5 3246.74 11971.7 3249.98 11962.1 3256.46C11952.5 3262.81 11947.7 3271.29 11947.7 3281.94C11947.7 3290.42 11950.8 3297.62 11957 3303.46C11963.3 3309.34 11973.9 3314.04 11989 3317.61L12048 3330.58C12079.6 3337.67 12103.2 3349.07 12118.7 3364.82C12134.3 3380.57 12142 3401.27 12142 3426.89C12142 3450.19 12135.8 3470.64 12123.2 3488.25C12110.8 3505.85 12093.6 3519.6 12071.9 3529.47C12050.3 3539.2 12025.4 3544.04 11997.1 3544.04C11954 3544.04 11919.7 3534.25 11894.1 3514.65C11868.6 3494.87 11853.7 3468.04 11849.4 3434.05L11938.2 3428.95C11940.8 3443.31 11947.3 3454.29 11957.7 3461.84C11968 3469.25 11981.2 3472.96 11997.3 3472.96C12013.1 3472.96 12025.8 3469.65 12035.4 3463.02C12045.2 3456.21 12050.1 3447.48 12050.3 3436.83C12050.1 3427.89 12046.7 3420.55 12039.9 3414.84C12033.1 3408.97 12022.6 3404.51 12008.5 3401.41L11952.2 3389.15C11920.4 3382.21 11896.7 3370.16 11881.2 3353.02C11865.7 3335.89 11858 3314.04 11858 3287.5C11858 3264.66 11863.7 3244.96 11875 3228.45C11886.4 3211.93 11902.5 3199.2 11923.1 3190.24C11943.9 3181.29 11968.2 3176.81 11996 3176.81C12037.1 3176.81 12069.5 3186.3 12093.1 3205.29C12116.8 3224.28 12130.7 3250.14 12134.6 3282.87Z" fill="white"/>
<path d="M4164.84 3537.1V3062.89H4457.32V3145.55H4256.61V3258.57H4442.25V3341.23H4256.61V3454.43H4458.17V3537.1H4164.84ZM4528.58 3537.1V3181.44H4614.62V3244.19H4618.43C4625.22 3223.35 4636.54 3206.91 4652.35 3194.87C4668.17 3182.83 4687.12 3176.81 4709.17 3176.81C4731.48 3176.81 4750.49 3182.91 4766.18 3195.11C4781.86 3207.15 4792.3 3223.51 4797.55 3244.19H4800.94C4807.56 3223.82 4819.57 3207.53 4836.95 3195.34C4854.5 3182.99 4875.17 3176.81 4899.05 3176.81C4929.44 3176.81 4954.1 3187.39 4973.02 3208.53C4992.1 3229.53 5001.65 3259.31 5001.65 3297.9V3537.1H4911.57V3317.36C4911.57 3297.62 4906.78 3282.79 4897.16 3272.89C4887.53 3263.02 4875.53 3258.1 4861.12 3258.1C4844.74 3258.1 4831.96 3263.8 4822.76 3275.2C4813.57 3286.5 4809 3301.39 4809 3319.92V3537.1H4721.46V3315.29C4721.46 3297.83 4716.86 3283.93 4707.67 3273.6C4698.63 3263.27 4686.7 3258.1 4671.86 3258.1C4661.81 3258.1 4652.78 3260.88 4644.72 3266.4C4636.83 3271.82 4630.53 3279.48 4625.87 3289.35C4621.21 3299.08 4618.86 3310.48 4618.86 3323.63V3537.1H4528.58ZM5072.98 3670.46V3181.44H5161.98V3241.18H5165.99C5169.97 3231.61 5175.68 3221.89 5183.18 3212.01C5190.81 3201.97 5200.7 3193.64 5212.86 3187C5225.16 3180.21 5240.39 3176.81 5258.62 3176.81C5282.36 3176.81 5304.28 3183.6 5324.34 3197.19C5344.39 3210.62 5360.44 3230.92 5372.44 3258.1C5384.44 3285.11 5390.45 3319 5390.45 3359.72C5390.45 3399.42 5384.61 3432.91 5372.87 3460.24C5361.29 3487.39 5345.47 3508.02 5325.38 3522.06C5305.45 3535.96 5283.15 3542.9 5258.42 3542.9C5240.91 3542.9 5226 3539.73 5213.71 3533.39C5201.54 3527.08 5191.6 3519.14 5183.8 3509.55C5176.04 3499.83 5170.1 3490.03 5165.99 3480.16H5163.26V3670.46H5072.98ZM5161.33 3359.26C5161.33 3380.42 5164.04 3398.88 5169.39 3414.63C5174.77 3430.34 5182.53 3442.64 5192.71 3451.44C5202.88 3460.06 5215.24 3464.41 5229.79 3464.41C5244.5 3464.41 5256.92 3459.99 5267.1 3451.19C5277.27 3442.25 5284.97 3429.88 5290.22 3414.17C5295.57 3398.24 5298.28 3379.96 5298.28 3359.26C5298.28 3338.74 5295.64 3320.67 5290.42 3305.1C5285.2 3289.49 5277.5 3277.31 5267.33 3268.51C5257.15 3259.71 5244.63 3255.32 5229.79 3255.32C5215.11 3255.32 5202.69 3259.56 5192.51 3268.04C5182.46 3276.52 5174.77 3288.57 5169.39 3304.17C5164.04 3319.74 5161.33 3338.13 5161.33 3359.26ZM5597.74 3544.04C5564.83 3544.04 5536.36 3536.42 5512.33 3521.13C5488.45 3505.7 5470.02 3484.22 5457.01 3456.75C5444 3429.13 5437.51 3397.1 5437.51 3360.65C5437.51 3323.91 5444 3291.81 5457.01 3264.34C5470.02 3236.71 5488.45 3215.25 5512.33 3199.97C5536.36 3184.53 5564.83 3176.81 5597.74 3176.81C5630.65 3176.81 5659.06 3184.53 5682.93 3199.97C5706.97 3215.25 5725.46 3236.71 5738.47 3264.34C5751.49 3291.81 5757.98 3323.91 5757.98 3360.65C5757.98 3397.1 5751.49 3429.13 5738.47 3456.75C5725.46 3484.22 5706.97 3505.7 5682.93 3521.13C5659.06 3536.42 5630.65 3544.04 5597.74 3544.04ZM5598.17 3467.65C5613.14 3467.65 5625.66 3463.02 5635.67 3453.75C5645.72 3444.35 5653.28 3431.52 5658.37 3415.31C5663.59 3399.1 5666.2 3380.64 5666.2 3359.97C5666.2 3339.27 5663.59 3320.85 5658.37 3304.64C5653.28 3288.42 5645.72 3275.6 5635.67 3266.19C5625.66 3256.78 5613.14 3252.07 5598.17 3252.07C5583.03 3252.07 5570.35 3256.78 5560.01 3266.19C5549.83 3275.6 5542.13 3288.42 5536.92 3304.64C5531.83 3320.85 5529.28 3339.27 5529.28 3359.97C5529.28 3380.64 5531.83 3399.1 5536.92 3415.31C5542.13 3431.52 5549.83 3444.35 5560.01 3453.75C5570.35 3463.02 5583.03 3467.65 5598.17 3467.65ZM5872.75 3537.1L5784.16 3181.44H5875.48L5925.94 3420.4H5928.91L5981.48 3181.44H6071.14L6124.53 3419.01H6127.3L6176.87 3181.44H6268.03L6179.64 3537.1H6084.05L6028.09 3313.44H6024.07L5968.11 3537.1H5872.75ZM6456.38 3544.04C6422.91 3544.04 6394.08 3536.63 6369.92 3521.81C6345.88 3506.85 6327.39 3485.72 6314.37 3458.39C6301.39 3430.91 6294.87 3398.42 6294.87 3360.9C6294.87 3324.31 6301.39 3292.2 6314.37 3264.55C6327.39 3236.94 6345.68 3215.4 6369.26 3199.97C6393.01 3184.53 6420.86 3176.81 6452.79 3176.81C6474.25 3176.81 6494.24 3180.59 6512.77 3188.16C6531.42 3195.57 6547.66 3206.76 6561.52 3221.73C6575.52 3236.71 6586.38 3255.54 6594.14 3278.23C6601.93 3300.75 6605.81 3327.16 6605.81 3357.41V3384.52H6330.91V3323.38H6520.82C6520.82 3309.2 6517.98 3296.58 6512.34 3285.64C6506.7 3274.67 6498.84 3266.12 6488.83 3259.95C6478.91 3253.61 6467.4 3250.44 6454.26 3250.44C6440.56 3250.44 6428.43 3253.93 6417.83 3260.88C6407.36 3267.65 6399.17 3276.84 6393.24 3288.42C6387.3 3299.83 6384.27 3312.58 6384.1 3326.62V3384.74C6384.1 3402.34 6387.07 3417.55 6393.01 3430.34C6399.11 3443.17 6407.65 3453.04 6418.67 3459.99C6429.7 3466.94 6442.74 3470.43 6457.88 3470.43C6467.89 3470.43 6477.09 3468.86 6485.44 3465.8C6493.75 3462.7 6500.89 3458.07 6506.83 3451.9C6512.77 3445.74 6517.3 3438.15 6520.4 3429.2L6603.89 3435.23C6599.65 3457.14 6590.98 3476.27 6577.83 3492.66C6564.82 3508.84 6548.02 3521.53 6527.38 3530.61C6506.9 3539.59 6483.25 3544.04 6456.38 3544.04ZM6664.72 3537.1V3181.44H6752.25V3243.5H6755.64C6761.58 3221.42 6771.56 3204.75 6785.55 3193.48C6799.54 3182.06 6815.62 3176.35 6833.85 3176.35C6838.39 3176.35 6843.25 3176.66 6848.5 3177.28C6853.72 3177.89 6858.31 3178.74 6862.26 3179.82V3267.33C6858.02 3265.94 6852.15 3264.73 6844.68 3263.66C6837.18 3262.56 6830.33 3262.02 6824.1 3262.02C6810.83 3262.02 6798.96 3265.19 6788.52 3271.5C6778.18 3277.7 6769.99 3286.32 6763.93 3297.44C6757.99 3308.56 6755.02 3321.38 6755.02 3335.89V3537.1H6664.72ZM6908.93 3537.1V3181.44H6999.24V3537.1H6908.93ZM6954.3 3135.59C6940.89 3135.59 6929.38 3130.73 6919.76 3121.01C6910.3 3111.13 6905.57 3099.32 6905.57 3085.58C6905.57 3071.99 6910.3 3060.34 6919.76 3050.62C6929.38 3040.74 6940.89 3035.8 6954.3 3035.8C6967.74 3035.8 6979.18 3040.74 6988.64 3050.62C6998.26 3060.34 7003.06 3071.99 7003.06 3085.58C7003.06 3099.32 6998.26 3111.13 6988.64 3121.01C6979.18 3130.73 6967.74 3135.59 6954.3 3135.59ZM7161.85 3331.5V3537.1H7071.58V3181.44H7157.61V3244.19H7161.43C7168.64 3223.51 7180.71 3207.15 7197.66 3195.11C7214.62 3182.91 7235.17 3176.81 7259.34 3176.81C7281.94 3176.81 7301.67 3182.21 7318.47 3193.02C7335.3 3203.83 7348.38 3219.26 7357.7 3239.33C7367.03 3259.24 7371.69 3283.01 7371.69 3310.66V3537.1H7281.39V3328.26C7281.52 3306.49 7276.43 3289.49 7266.12 3277.31C7255.82 3264.94 7241.63 3258.78 7223.53 3258.78C7211.36 3258.78 7200.63 3261.63 7191.31 3267.33C7182.14 3273.07 7174.93 3281.4 7169.68 3292.34C7164.59 3303.18 7161.99 3316.22 7161.85 3331.5ZM7589.49 3677.88C7560.27 3677.88 7535.19 3673.49 7514.25 3664.69C7493.51 3656.03 7476.97 3644.24 7464.68 3629.28C7452.38 3614.31 7444.39 3597.46 7440.71 3578.79L7524.23 3566.53C7526.78 3573.62 7530.79 3580.25 7536.3 3586.45C7541.81 3592.61 7549.08 3597.53 7558.15 3601.23C7567.31 3605.12 7578.47 3607.04 7591.61 3607.04C7611.28 3607.04 7627.46 3601.8 7640.18 3591.29C7653.03 3580.96 7659.45 3563.57 7659.45 3539.2V3474.14H7655.63C7651.69 3484.01 7645.75 3493.34 7637.83 3502.14C7629.9 3510.94 7619.76 3518.1 7607.3 3523.66C7594.87 3529.22 7580.03 3532 7562.81 3532C7538.35 3532 7516.11 3525.84 7496.05 3513.47C7476.13 3501 7460.21 3481.9 7448.34 3456.28C7436.63 3430.52 7430.76 3397.96 7430.76 3358.58C7430.76 3318.28 7436.76 3284.65 7448.76 3257.64C7460.8 3230.61 7476.75 3210.39 7496.67 3196.96C7516.73 3183.52 7538.71 3176.81 7562.59 3176.81C7580.82 3176.81 7596.08 3180.21 7608.38 3187C7620.67 3193.64 7630.55 3201.97 7638.05 3212.01C7645.69 3221.89 7651.53 3231.61 7655.63 3241.18H7659.03V3181.44H7748.68V3540.59C7748.68 3570.84 7741.9 3596.14 7728.33 3616.52C7714.76 3636.9 7695.98 3652.19 7671.94 3662.38C7648.07 3672.71 7620.61 3677.88 7589.49 3677.88ZM7591.42 3457.92C7605.96 3457.92 7618.26 3453.97 7628.3 3446.09C7638.48 3438.08 7646.24 3426.67 7651.62 3411.85C7657.1 3396.85 7659.87 3378.96 7659.87 3358.12C7659.87 3337.27 7657.2 3319.21 7651.82 3303.92C7646.44 3288.5 7638.67 3276.52 7628.5 3268.04C7618.32 3259.56 7605.96 3255.32 7591.42 3255.32C7576.58 3255.32 7564.09 3259.71 7553.91 3268.51C7543.73 3277.16 7536.04 3289.21 7530.79 3304.64C7525.57 3320.06 7522.96 3337.88 7522.96 3358.12C7522.96 3378.64 7525.57 3396.39 7530.79 3411.39C7536.17 3426.21 7543.86 3437.68 7553.91 3445.88C7564.09 3453.9 7576.58 3457.92 7591.42 3457.92ZM8114.22 3537.1H7960.35V3062.89H8115.49C8159.17 3062.89 8196.74 3072.38 8228.27 3091.37C8259.78 3110.2 8284.01 3137.29 8300.97 3172.64C8318.06 3207.99 8326.61 3250.29 8326.61 3299.54C8326.61 3348.93 8318.06 3391.4 8300.97 3426.89C8284.01 3462.38 8259.62 3489.63 8227.85 3508.63C8196.18 3527.62 8158.32 3537.1 8114.22 3537.1ZM8052.12 3451.19H8110.41C8137.54 3451.19 8160.37 3445.95 8178.86 3435.44C8197.52 3424.82 8211.51 3408.36 8220.84 3386.13C8230.3 3363.75 8235.03 3334.89 8235.03 3299.54C8235.03 3264.48 8230.3 3235.86 8220.84 3213.63C8211.51 3191.4 8197.58 3175.04 8179.09 3164.54C8160.57 3154.04 8137.77 3148.8 8110.64 3148.8H8052.12V3451.19ZM8392.88 3537.1V3181.44H8483.19V3537.1H8392.88ZM8438.25 3135.59C8424.81 3135.59 8413.3 3130.73 8403.71 3121.01C8394.22 3111.13 8389.49 3099.32 8389.49 3085.58C8389.49 3071.99 8394.22 3060.34 8403.71 3050.62C8413.3 3040.74 8424.81 3035.8 8438.25 3035.8C8451.68 3035.8 8463.1 3040.74 8472.59 3050.62C8482.18 3060.34 8487 3071.99 8487 3085.58C8487 3099.32 8482.18 3111.13 8472.59 3121.01C8463.1 3130.73 8451.68 3135.59 8438.25 3135.59ZM8702.16 3677.88C8672.94 3677.88 8647.86 3673.49 8626.92 3664.69C8606.14 3656.03 8589.64 3644.24 8577.34 3629.28C8565.05 3614.31 8557.06 3597.46 8553.37 3578.79L8636.9 3566.53C8639.44 3573.62 8643.45 3580.25 8648.97 3586.45C8654.48 3592.61 8661.75 3597.53 8670.82 3601.23C8679.98 3605.12 8691.14 3607.04 8704.28 3607.04C8723.95 3607.04 8740.12 3601.8 8752.81 3591.29C8765.69 3580.96 8772.12 3563.57 8772.12 3539.2V3474.14H8768.3C8764.35 3484.01 8758.42 3493.34 8750.49 3502.14C8742.57 3510.94 8732.39 3518.1 8719.97 3523.66C8707.54 3529.22 8692.7 3532 8675.48 3532C8651.02 3532 8628.78 3525.84 8608.69 3513.47C8588.79 3501 8572.88 3481.9 8561 3456.28C8549.3 3430.52 8543.43 3397.96 8543.43 3358.58C8543.43 3318.28 8549.43 3284.65 8561.43 3257.64C8573.46 3230.61 8589.41 3210.39 8609.34 3196.96C8629.4 3183.52 8651.38 3176.81 8675.25 3176.81C8693.48 3176.81 8708.75 3180.21 8721.04 3187C8733.34 3193.64 8743.22 3201.97 8750.72 3212.01C8758.32 3221.89 8764.19 3231.61 8768.3 3241.18H8771.69V3181.44H8861.35V3540.59C8861.35 3570.84 8854.57 3596.14 8841 3616.52C8827.43 3636.9 8808.64 3652.19 8784.61 3662.38C8760.73 3672.71 8733.24 3677.88 8702.16 3677.88ZM8704.08 3457.92C8718.63 3457.92 8730.93 3453.97 8740.97 3446.09C8751.15 3438.08 8758.91 3426.67 8764.26 3411.85C8769.77 3396.85 8772.54 3378.96 8772.54 3358.12C8772.54 3337.27 8769.87 3319.21 8764.49 3303.92C8759.1 3288.5 8751.34 3276.52 8741.17 3268.04C8730.99 3259.56 8718.63 3255.32 8704.08 3255.32C8689.24 3255.32 8676.75 3259.71 8666.58 3268.51C8656.4 3277.16 8648.7 3289.21 8643.45 3304.64C8638.24 3320.06 8635.63 3337.88 8635.63 3358.12C8635.63 3378.64 8638.24 3396.39 8643.45 3411.39C8648.84 3426.21 8656.53 3437.68 8666.58 3445.88C8676.75 3453.9 8689.24 3457.92 8704.08 3457.92ZM8933.2 3537.1V3181.44H9023.47V3537.1H8933.2ZM8978.53 3135.59C8965.13 3135.59 8953.62 3130.73 8943.99 3121.01C8934.54 3111.13 8929.81 3099.32 8929.81 3085.58C8929.81 3071.99 8934.54 3060.34 8943.99 3050.62C8953.62 3040.74 8965.13 3035.8 8978.53 3035.8C8991.97 3035.8 9003.42 3040.74 9012.88 3050.62C9022.5 3060.34 9027.29 3071.99 9027.29 3085.58C9027.29 3099.32 9022.5 3111.13 9012.88 3121.01C9003.42 3130.73 8991.97 3135.59 8978.53 3135.59ZM9268.96 3181.44V3255.54H9072.92V3181.44H9268.96ZM9117.44 3096.23H9207.71V3427.81C9207.71 3436.94 9208.98 3444.03 9211.53 3449.12C9214.07 3454.07 9217.59 3457.53 9222.13 3459.53C9226.79 3461.56 9232.17 3462.56 9238.24 3462.56C9242.48 3462.56 9246.72 3462.16 9250.96 3461.38C9255.2 3460.45 9258.43 3459.78 9260.71 3459.31L9274.9 3532.71C9270.36 3534.25 9264.04 3536.03 9255.82 3538.02C9247.63 3540.2 9237.69 3541.51 9225.94 3541.98C9204.19 3542.9 9185.11 3539.73 9168.71 3532.46C9152.46 3525.23 9139.81 3513.94 9130.78 3498.69C9121.74 3483.4 9117.27 3464.09 9117.44 3440.78V3096.23ZM9420.62 3543.83C9399.84 3543.83 9381.32 3539.88 9365.08 3532C9348.83 3523.98 9335.98 3512.19 9326.53 3496.58C9317.2 3480.83 9312.53 3461.24 9312.53 3437.76C9312.53 3418.02 9315.83 3401.41 9322.48 3387.98C9329.13 3374.55 9338.17 3363.75 9349.62 3355.55C9361.06 3347.39 9374.04 3341.23 9388.62 3337.06C9403.3 3332.89 9418.69 3329.93 9434.81 3328.26C9453.75 3326.09 9469.02 3324.09 9480.6 3322.24C9492.17 3320.21 9500.59 3317.29 9505.81 3313.44C9511.06 3309.55 9513.67 3303.85 9513.67 3296.3V3294.91C9513.67 3280.23 9509.43 3268.9 9500.95 3260.88C9492.6 3252.84 9480.73 3248.82 9465.33 3248.82C9449.09 3248.82 9436.14 3252.76 9426.55 3260.63C9416.93 3268.36 9410.57 3278.09 9407.47 3289.81L9323.98 3282.4C9328.22 3260.77 9336.54 3242.11 9348.96 3226.36C9361.42 3210.46 9377.44 3198.27 9397.1 3189.78C9416.87 3181.13 9439.76 3176.81 9465.76 3176.81C9483.86 3176.81 9501.14 3179.13 9517.68 3183.76C9534.34 3188.39 9549.12 3195.57 9561.97 3205.29C9574.98 3215.02 9585.22 3227.52 9592.72 3242.81C9600.19 3257.92 9603.94 3276.06 9603.94 3297.23V3537.1H9518.33V3487.78H9515.79C9510.54 3498.9 9503.56 3508.7 9494.78 3517.18C9486.04 3525.52 9475.51 3532.11 9463.21 3536.88C9450.92 3541.51 9436.73 3543.83 9420.62 3543.83ZM9446.48 3475.74C9459.75 3475.74 9471.5 3472.89 9481.64 3467.19C9491.81 3461.31 9499.81 3453.43 9505.61 3443.56C9511.38 3433.69 9514.29 3422.51 9514.29 3410V3372.23C9511.48 3374.26 9507.57 3376.11 9502.64 3377.79C9497.85 3379.36 9492.4 3380.82 9486.3 3382.21C9480.24 3383.42 9474.17 3384.59 9468.1 3385.66C9462.01 3386.59 9456.49 3387.44 9451.57 3388.23C9440.97 3389.9 9431.71 3392.61 9423.78 3396.32C9415.89 3400.02 9409.73 3405.05 9405.35 3411.39C9400.98 3417.55 9398.8 3425.28 9398.8 3434.51C9398.8 3447.95 9403.23 3458.21 9412.14 3465.33C9421.17 3472.28 9432.62 3475.74 9446.48 3475.74ZM9764.27 3062.89V3537.1H9674V3062.89H9764.27ZM9976.43 3537.1V3062.89H10263.8V3145.55H10068.2V3258.57H10244.8V3341.23H10068.2V3537.1H9976.43ZM10512.2 3385.66V3181.44H10602.5V3537.1H10515.8V3472.5H10512.4C10505.1 3493.34 10492.9 3510.09 10475.8 3522.74C10458.8 3535.42 10438.1 3541.73 10413.7 3541.73C10391.9 3541.73 10372.8 3536.35 10356.3 3525.52C10339.7 3514.72 10326.8 3499.36 10317.5 3479.44C10308.3 3459.53 10303.6 3435.69 10303.5 3407.9V3181.44H10393.8V3390.29C10393.9 3411.28 10399.1 3427.89 10409.3 3440.07C10419.4 3452.29 10433.1 3458.39 10450.2 3458.39C10461 3458.39 10471.2 3455.68 10480.7 3450.26C10490.1 3444.7 10497.8 3436.54 10503.5 3425.75C10509.5 3414.92 10512.4 3401.55 10512.2 3385.66ZM10847.9 3181.44V3255.54H10651.9V3181.44H10847.9ZM10696.4 3096.23H10786.7V3427.81C10786.7 3436.94 10787.9 3444.03 10790.5 3449.12C10793 3454.07 10796.5 3457.53 10801.1 3459.53C10805.7 3461.56 10811.1 3462.56 10817.2 3462.56C10821.4 3462.56 10825.7 3462.16 10829.9 3461.38C10834.2 3460.45 10837.4 3459.78 10839.7 3459.31L10853.9 3532.71C10849.3 3534.25 10843 3536.03 10834.8 3538.02C10826.6 3540.2 10816.6 3541.51 10804.9 3541.98C10783.1 3542.9 10764.1 3539.73 10747.7 3532.46C10731.4 3525.23 10718.8 3513.94 10709.7 3498.69C10700.7 3483.4 10696.2 3464.09 10696.4 3440.78V3096.23ZM11115.5 3385.66V3181.44H11205.8V3537.1H11119.1V3472.5H11115.7C11108.4 3493.34 11096.1 3510.09 11079.1 3522.74C11062.1 3535.42 11041.4 3541.73 11017 3541.73C10995.2 3541.73 10976 3536.35 10959.5 3525.52C10943 3514.72 10930 3499.36 10920.7 3479.44C10911.5 3459.53 10906.9 3435.69 10906.7 3407.9V3181.44H10997V3390.29C10997.2 3411.28 11002.3 3427.89 11012.5 3440.07C11022.7 3452.29 11036.3 3458.39 11053.4 3458.39C11064.3 3458.39 11074.5 3455.68 11083.9 3450.26C11093.4 3444.7 11101 3436.54 11106.8 3425.75C11112.7 3414.92 11115.6 3401.55 11115.5 3385.66ZM11278 3537.1V3181.44H11365.5V3243.5H11368.9C11374.9 3221.42 11384.8 3204.75 11398.8 3193.48C11412.8 3182.06 11428.9 3176.35 11447.1 3176.35C11451.7 3176.35 11456.5 3176.66 11461.7 3177.28C11467 3177.89 11471.6 3178.74 11475.5 3179.82V3267.33C11471.3 3265.94 11465.4 3264.73 11457.9 3263.66C11450.5 3262.56 11443.6 3262.02 11437.4 3262.02C11424.1 3262.02 11412.2 3265.19 11401.8 3271.5C11391.5 3277.7 11383.3 3286.32 11377.2 3297.44C11371.3 3308.56 11368.3 3321.38 11368.3 3335.89V3537.1H11278ZM11655.4 3544.04C11621.9 3544.04 11593.1 3536.63 11568.9 3521.81C11544.9 3506.85 11526.4 3485.72 11513.4 3458.39C11500.4 3430.91 11493.9 3398.42 11493.9 3360.9C11493.9 3324.31 11500.4 3292.2 11513.4 3264.55C11526.4 3236.94 11544.7 3215.4 11568.3 3199.97C11592 3184.53 11619.9 3176.81 11651.8 3176.81C11673.3 3176.81 11693.3 3180.59 11711.8 3188.16C11730.5 3195.57 11746.7 3206.76 11760.6 3221.73C11774.5 3236.71 11785.4 3255.54 11793.2 3278.23C11801 3300.75 11804.8 3327.16 11804.8 3357.41V3384.52H11529.9V3323.38H11719.9C11719.9 3309.2 11717 3296.58 11711.4 3285.64C11705.7 3274.67 11697.9 3266.12 11687.9 3259.95C11678 3253.61 11666.4 3250.44 11653.3 3250.44C11639.6 3250.44 11627.5 3253.93 11616.9 3260.88C11606.4 3267.65 11598.2 3276.84 11592.3 3288.42C11586.3 3299.83 11583.3 3312.58 11583.2 3326.62V3384.74C11583.2 3402.34 11586.1 3417.55 11592 3430.34C11598.1 3443.17 11606.7 3453.04 11617.7 3459.99C11628.7 3466.94 11641.8 3470.43 11656.9 3470.43C11667 3470.43 11676.1 3468.86 11684.5 3465.8C11692.8 3462.7 11699.9 3458.07 11705.9 3451.9C11711.8 3445.74 11716.3 3438.15 11719.4 3429.2L11803 3435.23C11798.7 3457.14 11790 3476.27 11776.9 3492.66C11763.9 3508.84 11747.1 3521.53 11726.4 3530.61C11705.9 3539.59 11682.3 3544.04 11655.4 3544.04ZM12134.6 3282.87L12052 3288.42C12050.6 3280.69 12047.5 3273.74 12042.9 3267.58C12038.2 3261.24 12032.1 3256.25 12024.4 3252.53C12016.9 3248.67 12008 3246.74 11997.5 3246.74C11983.5 3246.74 11971.7 3249.98 11962.1 3256.46C11952.5 3262.81 11947.7 3271.29 11947.7 3281.94C11947.7 3290.42 11950.8 3297.62 11957 3303.46C11963.3 3309.34 11973.9 3314.04 11989 3317.61L12048 3330.58C12079.6 3337.67 12103.2 3349.07 12118.7 3364.82C12134.3 3380.57 12142 3401.27 12142 3426.89C12142 3450.19 12135.8 3470.64 12123.2 3488.25C12110.8 3505.85 12093.6 3519.6 12071.9 3529.47C12050.3 3539.2 12025.4 3544.04 11997.1 3544.04C11954 3544.04 11919.7 3534.25 11894.1 3514.65C11868.6 3494.87 11853.7 3468.04 11849.4 3434.05L11938.2 3428.95C11940.8 3443.31 11947.3 3454.29 11957.7 3461.84C11968 3469.25 11981.2 3472.96 11997.3 3472.96C12013.1 3472.96 12025.8 3469.65 12035.4 3463.02C12045.2 3456.21 12050.1 3447.48 12050.3 3436.83C12050.1 3427.89 12046.7 3420.55 12039.9 3414.84C12033.1 3408.97 12022.6 3404.51 12008.5 3401.41L11952.2 3389.15C11920.4 3382.21 11896.7 3370.16 11881.2 3353.02C11865.7 3335.89 11858 3314.04 11858 3287.5C11858 3264.66 11863.7 3244.96 11875 3228.45C11886.4 3211.93 11902.5 3199.2 11923.1 3190.24C11943.9 3181.29 11968.2 3176.81 11996 3176.81C12037.1 3176.81 12069.5 3186.3 12093.1 3205.29C12116.8 3224.28 12130.7 3250.14 12134.6 3282.87Z" fill="white"/>
</g>
<path d="M2850.89 86.85C2854.86 88.2063 2858.82 89.5664 2862.9 90.9642C2954.39 122.404 3041.78 157.548 3126.8 203.617C3144.83 213.379 3163.16 222.207 3181.78 230.838C3229.72 254.291 3273.67 284.793 3318.1 314.093C3328.8 321.135 3339.55 328.101 3350.34 335.011C3421.11 380.7 3487.46 430.567 3548.65 488.263C3561.23 500.044 3573.89 511.298 3587.09 522.337C3643.8 571.119 3695.47 625.145 3741.35 683.968C3747.18 691.311 3753.05 698.646 3758.92 705.982C3798.13 755.468 3833.5 806.115 3866.14 860.055C3871.87 869.437 3877.85 878.682 3883.86 887.905C3988.56 1049.65 4047.42 1230.16 4086.15 1416.99C4088.96 1430.22 4088.96 1430.22 4094.68 1446.25C4101.32 1512.64 4101.32 1512.64 4087.43 1539.09C4073.17 1555.54 4060.37 1568.91 4037.94 1572.02C4031.45 1572.31 4031.45 1572.31 4024.85 1572.6C4020.58 1572.87 4016.31 1573.15 4011.94 1573.43C3991.15 1569.09 3977.48 1557.62 3963.58 1542.24C3957.35 1527.04 3953.19 1514.39 3949.65 1498.63C3948.59 1494.45 3947.54 1490.27 3946.48 1485.95C3943.16 1472.63 3939.99 1459.27 3936.89 1445.9C3934.74 1437.08 3932.55 1428.26 3930.36 1419.44C3925.14 1398.31 3920.08 1377.15 3915.01 1355.99C3904.5 1311.96 3893.56 1268.65 3878.1 1226.04C3876.68 1222.08 3875.26 1218.12 3873.76 1214.03C3850.75 1151.86 3824.09 1092.45 3792.66 1034.06C3790.32 1029.8 3788.06 1025.54 3785.69 1021.16C3758.38 970.652 3730.19 922.073 3695.73 875.954C3691.31 869.708 3686.86 863.45 3682.41 857.185C3591.39 728.455 3479.62 605.234 3353.81 508.928C3347.75 504.117 3341.7 499.291 3335.65 494.461C3107.58 312.989 2765.29 84.4953 2464.8 79.7896C2619.6 105.74 2806.18 221.189 2933.28 304.704C2943.87 311.539 2954.61 318.064 2965.43 324.533C3088.96 398.569 3204.01 487.961 3304.71 590.491C3316.54 601.941 3328.51 612.686 3341.02 623.378C3411.43 683.938 3475.57 750.48 3530.49 825.134C3535.63 831.961 3535.63 831.961 3540.92 838.927C3568.56 875.962 3593.62 913.984 3617.39 953.592C3621.04 959.669 3624.69 965.746 3628.48 972.008C3726.18 1136.06 3726.18 1136.06 3753.05 1225.13C3758.05 1241.69 3763.92 1257.37 3770.56 1273.32C3802.5 1350.97 3820.74 1431.55 3830.29 1514.7C3831.57 1530.59 3831.57 1530.59 3838.21 1542.24C3870.99 1741.27 3844.59 1965.75 3786.9 2157.72C3785.8 2161.56 3784.63 2165.41 3783.47 2169.38C3769.94 2214.02 3752.91 2256.36 3732.49 2298.37C3724.83 2314.58 3718.26 2330.87 3711.77 2347.58C3669.03 2450.56 3600.54 2545.73 3530.49 2632.03C3528.01 2635.06 3525.57 2638.1 3523.01 2641.23C3486.84 2685.42 3447.71 2726.46 3407.24 2766.84C3402.83 2771.27 3398.41 2775.69 3393.86 2780.26C3363.24 2810.43 3330.99 2837.4 3296.83 2863.53C3293.16 2866.4 3289.49 2869.27 3285.72 2872.23C3178.22 2956.16 3059.3 3021.94 2937.8 3083.74C2933.34 3086.04 2928.87 3088.33 2924.27 3090.69C2801.28 3152.74 2659.76 3184.85 2525.35 3212.18C2496.65 3218.15 2469.61 3226.43 2442 3236.2C2849.65 3247.93 3235.95 3111.93 3547.59 2852.24C3551.31 2849.24 3555.07 2846.24 3558.9 2843.15C3580.16 2825.81 3598.14 2807.07 3615.93 2786.26C3626.87 2773.75 3638.18 2761.65 3649.63 2749.58C3724.32 2670.41 3783.9 2581.08 3840.5 2488.66C3854.98 2465.04 3866.61 2451.09 3882.29 2430.3C3821.72 2830.69 3667.32 3205.74 3334.94 3462.41C3322.36 3471.87 3309.61 3481.1 3296.83 3490.29C3290.48 3495 3284.14 3499.67 3277.79 3504.38C3229.75 3539.61 3179.46 3570.99 3127.97 3600.98C3119.04 3606.22 3110.13 3611.45 3101.25 3616.77C3020.32 3664.8 2935.87 3697.62 2846.62 3727.46C2841.39 3729.19 2836.16 3731 2830.76 3732.81C2761.91 3755.79 2692.78 3770.37 2621 3781.03C2608.31 3782.92 2595.64 3784.84 2582.97 3786.87C2436.24 3809.55 2290.63 3809.51 2142.42 3808.8C1627.7 3806.65 1001 3606.97 622.718 3260.87L634.118 3246.75C634.118 3246.75 731.264 3279.23 768.308 3224.38C790.102 3192.1 793.683 3156.41 776.587 3114.06L787.983 3099.95C1115.96 3421.53 1791.25 3678.93 2282.44 3574.98C1860.59 3577.36 1463.42 3499.14 1102.78 3258.79C1097.8 3255.61 1092.82 3252.43 1087.69 3249.15C1002.69 3194.35 921.794 3133.91 846.335 3066.8C842.054 3063.04 842.054 3063.04 837.689 3059.2C793.719 3020.45 751.956 2979.49 710.274 2938.35C705.19 2933.34 700.106 2928.33 694.866 2923.16C666.29 2894.78 638.917 2865.82 612.682 2835.3C607.069 2828.92 601.453 2822.55 595.83 2816.17C437.217 2635.04 298.147 2431.67 207.159 2208.83C202.79 2198.26 198.214 2187.78 193.619 2177.3C177.737 2140.04 160.966 2111.26 139.68 2061.72C145.479 2103.68 154.328 2143.25 167.573 2183.52C171.745 2196.35 175.655 2209.27 179.283 2222.25C201.594 2300 236.458 2372.54 270.752 2445.69C272.386 2449.18 274.02 2452.68 275.701 2456.28C346.911 2608.61 430.693 2746.5 537.19 2877.36C543.721 2885.41 550.169 2893.52 556.605 2901.65C592.096 2945.81 631.204 2986.44 670.367 3027.38C686.701 3044.46 702.976 3061.6 719.179 3078.8C721.918 3081.67 724.656 3084.54 727.479 3087.49C775.598 3138.7 775.598 3138.7 775.099 3168.44C771.744 3228.46 731.264 3252.61 665.728 3244.14C622.988 3235.67 598.394 3201.56 571.01 3171.62C567.352 3167.68 563.695 3163.74 559.927 3159.69C527.289 3124.15 496.605 3087.27 467.062 3049.19C458.773 3038.52 450.382 3027.94 441.983 3017.35C373.978 2930.64 318.211 2835.92 265.639 2739.42C259.866 2728.94 253.929 2718.58 247.912 2708.23C122.863 2487.76 59.9612 2235.93 21.7633 1988.26C-16.4331 1740.59 -18.4009 1293.06 133.736 1083.61C133.597 1135.24 133.75 1186.89 133.686 1238.53C133.657 1261.45 133.617 1284.36 133.552 1307.28C132.953 1519.07 168.095 1718.84 247.566 1916.52C252.62 1929.24 257.441 1942 262.138 1954.86C281.047 2005.07 305.652 2052.58 331.661 2099.48C334.629 2104.86 337.598 2110.23 340.657 2115.76C366.936 2162.87 394.983 2208.61 424.621 2253.71C430.496 2262.72 430.496 2262.72 436.487 2271.93C460.155 2307.73 485.398 2341.9 511.885 2375.68C522.085 2388.69 521.257 2385.87 529.805 2397.16C532.657 2399.98 529.805 2397.16 532.901 2400.52C542.598 2411.84 551.693 2423.24 560.682 2435.1C612.726 2503.49 670.115 2566.63 731.425 2626.93C741.319 2636.67 751.15 2646.47 760.975 2656.27C799.007 2694.01 838.195 2728.86 880.527 2761.9C888.164 2768.09 895.789 2774.3 903.389 2780.53C985.861 2847.61 1070.95 2912.15 1159.77 2970.81C1169.24 2754.93 1317.34 2921.9 1464.48 3000.32C1558.42 3059.2 2158.62 3246.43 2582.97 2938.35C3114.18 2552.68 2798.81 1620.19 1954.14 1581.2C1911.3 2901.65 2145.32 3309.96 1020.96 2488.66C950.527 2436.86 916.838 2374.3 852.035 2315.82C846.455 2310.88 840.883 2305.95 835.139 2300.87C798.456 2268.25 764.822 2234 732.358 2197.24C722.753 2186.87 713.136 2176.53 703.505 2166.19C677.613 2137.93 653.278 2108.9 629.782 2078.67C627.269 2075.46 624.756 2072.25 622.167 2068.94C558.965 1987.97 502.327 1903.33 453.113 1813.28C451.323 1810 449.525 1806.73 447.676 1803.36C379.889 1678.49 330.326 1542.39 297.465 1404.61C296.013 1398.57 294.562 1392.53 293.063 1386.31C259.119 1237.99 256.194 1044.9 299.248 898.537C300.867 892.98 302.49 887.423 304.16 881.696C371.279 657.776 504.956 487.807 710.923 371.876C902.638 269.813 1131.27 225.224 1347.47 225.541C1353.45 225.545 1353.45 225.545 1359.54 225.548C1497.98 225.789 1639.02 228.822 1775.24 254.833C1782.77 256.19 1790.29 257.542 1797.82 258.891C2012.25 299.193 2223.1 369.48 2419.21 463.755C2423.56 465.831 2427.9 467.907 2432.37 470.047C2456.37 481.549 2630.07 573.33 2669.96 633.151C2561.13 598.772 2459.93 560.852 2351.54 522.337C2300.72 504.934 2249.74 489.721 2197.67 476.459C2191.73 474.941 2185.78 473.423 2179.66 471.859C2160.76 467.127 2141.83 462.591 2122.87 458.107C2119.16 457.218 2115.45 456.325 2111.62 455.406C2045.32 439.582 1978.88 428.63 1911.3 419.652C1895.14 417.508 1879 415.301 1862.85 413.078C1778.08 401.515 1695.24 394.647 1609.62 394.587C1604.84 394.583 1600.07 394.579 1595.14 394.575C1511.74 394.677 1430.24 399.383 1347.83 412.935C1342.18 413.846 1336.54 414.754 1330.73 415.689C1138.89 447.826 954.05 521.312 812.143 655.738C805.024 662.06 805.024 662.06 797.76 668.506C596.72 853.914 596.184 1171.15 706.357 1403.55C752.835 1503.35 814.232 1594.26 886.227 1677.76C890.188 1682.38 894.144 1687 898.225 1691.77C933.264 1731.54 971.792 1767.01 1011.6 1801.99C1014.69 1804.7 1028.2 1814.55 1031.39 1817.35C1064.47 1846.26 1098.08 1872.87 1134.45 1897.64C1137.9 1899.99 1130.91 1895.22 1134.45 1897.64C1242.9 1989.84 1427.55 2073.45 1409.01 2061.72C1410.6 1681.52 1409.01 1161.81 1409.01 781.593C1736.4 760.491 1837.09 771.578 2162.76 779.961C2120.02 734.253 1944.97 687.065 1897.44 675.943C1882.19 672.368 1866.99 668.638 1851.78 664.912C1754.36 641.557 1515.94 604.386 1409.01 614.935C1657.89 475.532 2106.32 578.386 2379.47 647.268C2394.63 651.073 2409.81 654.781 2425 658.492C2480.78 672.349 2535.14 689.525 2589.47 708.122C2601.21 712.081 2612.98 715.89 2624.79 719.639C2662.21 731.552 2698.46 744.444 2733.97 761.248C2748.75 768.203 2763.62 774.935 2778.55 781.593C2990.66 876.938 2990.66 876.938 3069.07 930.61C3081.28 938.978 3081.28 938.978 3099.15 948.299C3127.79 964.149 3153.29 984.644 3179.25 1004.39C3188.55 1011.47 3197.89 1018.51 3207.23 1025.54C3237.22 1048.2 3266.77 1071.19 3295.76 1095.11C3324.26 1118.4 3352.67 1140.96 3388.01 1152.63C3385 1147.19 3385 1147.18 3381.93 1141.63C3379.12 1136.53 3376.31 1131.42 3373.4 1126.16C3370.24 1120.44 3367.07 1114.71 3363.81 1108.81C3357.47 1097.2 3351.21 1085.54 3345.07 1073.83C3304.54 996.96 3256.92 923.603 3205.65 853.368C3200.02 845.445 3194.39 837.518 3188.77 829.591C3157.37 785.556 3125.93 743.13 3088.33 704.045C3077.39 692.577 3066.99 680.954 3056.63 668.992C3031.09 639.94 3003.74 612.754 2976.27 585.511C2971.27 580.481 2966.26 575.455 2961.11 570.279C2930.89 540.266 2899.67 512.601 2866.26 486.108C2855.16 477.299 2844.3 468.363 2833.6 459.079C2630.24 283.373 2197.67 59.4976 1865.33 39.6653C2184.03 -19.3269 2542.32 -19.4474 2850.89 86.85Z" fill="url(#paint0_linear_0_1)"/>
<defs>
<filter id="filter0_d_0_1" x="4160.84" y="3035.8" width="7985.21" height="650.08" filterUnits="userSpaceOnUse" color-interpolation-filters="sRGB">
<feFlood flood-opacity="0" result="BackgroundImageFix"/>
<feColorMatrix in="SourceAlpha" type="matrix" values="0 0 0 0 0 0 0 0 0 0 0 0 0 0 0 0 0 0 127 0" result="hardAlpha"/>
<feOffset dy="4"/>
<feGaussianBlur stdDeviation="2"/>
<feComposite in2="hardAlpha" operator="out"/>
<feColorMatrix type="matrix" values="0 0 0 0 0 0 0 0 0 0 0 0 0 0 0 0 0 0 0.25 0"/>
<feBlend mode="normal" in2="BackgroundImageFix" result="effect1_dropShadow_0_1"/>
<feBlend mode="normal" in="SourceGraphic" in2="effect1_dropShadow_0_1" result="shape"/>
</filter>
<linearGradient id="paint0_linear_0_1" x1="6216.68" y1="1779.55" x2="-1398.27" y2="1899.95" gradientUnits="userSpaceOnUse">
<stop offset="0.175" stop-color="#FFAA00"/>
<stop offset="0.544563" stop-color="#EE1C24"/>
</linearGradient>
</defs>
</svg>
