<?xml version="1.0" encoding="UTF-8"?>
<svg version="1.1" xmlns="http://www.w3.org/2000/svg" width="492" height="362">
<path d="M0 0 C0.89992676 -0.0065712 1.79985352 -0.0131424 2.72705078 -0.01991272 C5.68969822 -0.03954241 8.6522954 -0.05128086 11.61499023 -0.0612793 C13.13641789 -0.06739259 13.13641789 -0.06739259 14.68858147 -0.07362938 C20.05003528 -0.09443898 25.41146383 -0.10876669 30.77294922 -0.11816406 C36.31021844 -0.12926018 41.84708934 -0.16371149 47.38421726 -0.20333576 C51.64528662 -0.22945201 55.9062599 -0.23785111 60.16740227 -0.24144554 C62.20916392 -0.24631889 64.25092106 -0.25795408 66.29260445 -0.27648354 C69.14591586 -0.3007843 71.99817969 -0.29992736 74.8515625 -0.29296875 C75.69377853 -0.30577881 76.53599457 -0.31858887 77.4037323 -0.33178711 C81.42453544 -0.29602554 83.38391557 -0.12584021 86.86167908 2.08137512 C90.5815468 5.98026252 90.16990069 9.34856377 90.1159668 14.55395508 C89.62732538 21.49977747 87.86102989 28.17730581 86.23608398 34.92700195 C85.41041727 38.43848002 84.59457398 41.95221806 83.77905273 45.46606445 C83.55504288 46.42612396 83.33103302 47.38618347 83.10023499 48.37533569 C81.22946652 56.44568449 79.47711389 64.5394978 77.75209045 72.641922 C77.28728308 74.82347831 76.82065614 77.00463728 76.35339355 79.18566895 C76.1988483 79.9071965 76.04430305 80.62872406 75.88507462 81.37211609 C75.57245147 82.83160577 75.25979632 84.2910886 74.94710922 85.75056458 C74.1697922 89.38291127 73.39719845 93.01615392 72.63397217 96.65148926 C71.90605836 100.11759022 71.16586657 103.58085805 70.41704369 107.04249954 C70.00862293 108.9468626 69.61353959 110.85407071 69.21882629 112.76132202 C67.68355107 119.80802392 66.22960958 124.68371615 61.17358398 129.92700195 C52.53334907 134.5973992 42.06914881 133.34662913 32.57592773 133.15356445 C30.90728669 133.12735569 29.23863055 133.10209212 27.56996155 133.07772827 C23.20509553 133.01148477 18.84055184 132.93250649 14.47595215 132.85076904 C10.01135509 132.76944836 5.54657054 132.70031853 1.08178711 132.63012695 C-7.65867484 132.49093756 -16.39883383 132.33827839 -25.13891602 132.17700195 C-25.33660031 126.16547326 -24.66370601 120.89374135 -23.3347168 115.04223633 C-23.04692856 113.72839714 -23.04692856 113.72839714 -22.75332642 112.38801575 C-22.12162978 109.51376145 -21.47806854 106.64230823 -20.83422852 103.77075195 C-20.38991321 101.7612634 -19.94631075 99.75161712 -19.50338745 97.74182129 C-18.33783908 92.4628137 -17.16204471 87.18613848 -15.98425293 81.90985107 C-15.02670756 77.61241797 -14.07624908 73.31343281 -13.12620735 69.01433563 C-11.15881622 60.11184548 -9.1866982 51.21039497 -7.2019043 42.31176758 C-6.93216797 41.09738762 -6.93216797 41.09738762 -6.65698242 39.85847473 C-5.83324815 36.17344858 -4.96928324 32.51192521 -4.006073 28.86071777 C-2.86379301 24.00826896 -2.65016299 19.82471185 -5.15063477 15.37768555 C-6.40816616 13.63072849 -7.73538472 11.99610708 -9.13891602 10.36450195 C-14.04610859 4.45542423 -14.04610859 4.45542423 -15.13891602 1.17700195 C-10.04938868 0.15244581 -5.16635305 0.01653411 0 0 Z " fill="#000000" transform="translate(140.138916015625,110.822998046875)"/>
<path d="M0 0 C4.09099571 3.91739257 7.6202228 8.11816283 11.125 12.5625 C11.64964844 13.22185547 12.17429688 13.88121094 12.71484375 14.56054688 C15.18757154 17.67493188 17.63854288 20.79981846 20 24 C18.49896806 27.67835299 16.39443473 29.59166622 13.375 32.125 C-4.97584807 48.34018903 -15.2097403 71.83487995 -17.1640625 96.03125 C-18.69464484 122.15318855 -9.3047591 147.51081372 8 167 C8.60199219 167.68449219 9.20398438 168.36898437 9.82421875 169.07421875 C24.21501921 184.43043978 47.25876781 196.07089684 68.47216797 197.12255859 C98.24942919 197.96835789 123.85219477 190.49934844 146.1484375 170.02734375 C147.46654835 168.71851537 148.74156295 167.36630308 150 166 C154.17432344 167.66566677 157.11157629 170.70378837 160.3125 173.75 C161.46788443 174.83425643 162.62412726 175.9175989 163.78125 177 C164.33425781 177.51820313 164.88726562 178.03640625 165.45703125 178.5703125 C168.22910933 181.13887092 171.10290622 183.57452614 174 186 C166.86789236 203.03781271 141.58409597 215.34612512 125.66894531 221.97021484 C120.53035995 223.96001734 115.3227346 225.58149548 110 227 C109.3498291 227.17644043 108.6996582 227.35288086 108.02978516 227.53466797 C75.15141734 235.98671208 39.96371775 228.61552472 11 212 C7.14015383 209.54602469 3.55766316 206.87172523 0 204 C-0.78286377 203.37520752 -0.78286377 203.37520752 -1.58154297 202.73779297 C-28.40756018 181.21559964 -45.38716843 150.88713056 -49.5625 116.66796875 C-52.94126938 84.42224092 -44.40488547 51.10025908 -25 25 C-21.2722068 20.40530724 -17.17180214 16.18835144 -13 12 C-12.03956015 11.01510674 -11.07990502 10.02944754 -10.12109375 9.04296875 C-3.57728216 2.38485477 -3.57728216 2.38485477 0 0 Z " fill="#000000" transform="translate(102,79)"/>
<path d="M0 0 C11.88 0 23.76 0 36 0 C37.94071174 7.76284694 39.74461843 15.40117342 41.1875 23.25 C41.36474609 24.19746094 41.54199219 25.14492187 41.72460938 26.12109375 C42.15298457 28.41347991 42.57809152 30.70641653 43 33 C46.93169571 28.27609695 50.37700762 23.23396671 53.875 18.1875 C55.6707505 15.59814363 57.46865405 13.01328121 59.30517578 10.45263672 C61.01785888 8.05576782 61.01785888 8.05576782 62.34716797 5.59814453 C63.7421251 3.27767217 64.86455377 1.6725702 67 0 C71.1726022 -0.95261296 75.12376733 -0.76038174 79.375 -0.5 C81.05142578 -0.44585937 81.05142578 -0.44585937 82.76171875 -0.390625 C85.51153557 -0.29661417 88.2533709 -0.15842046 91 0 C90.47842459 7.96301769 89.19819304 15.55220897 87.453125 23.33203125 C87.20004578 24.48507248 86.94696655 25.63811371 86.68621826 26.82609558 C85.88044308 30.48965273 85.06532165 34.15105701 84.25 37.8125 C83.71814791 40.22577885 83.18689333 42.63918945 82.65625 45.05273438 C81.36543093 50.91345329 80.06274038 56.77143425 78.75317383 62.62799072 C78.00862154 65.9614008 77.2689287 69.29586637 76.52929688 72.63037109 C76.07716366 74.6533965 75.62470765 76.67634979 75.171875 78.69921875 C74.96588684 79.6315181 74.75989868 80.56381744 74.54766846 81.52436829 C74.35759216 82.36799423 74.16751587 83.21162018 73.97167969 84.08081055 C73.72499542 85.18636543 73.72499542 85.18636543 73.47332764 86.31425476 C73 88 73 88 72 89 C70.29227642 89.08713831 68.58101351 89.10700007 66.87109375 89.09765625 C65.31938477 89.09282227 65.31938477 89.09282227 63.73632812 89.08789062 C62.64771484 89.07951172 61.55910156 89.07113281 60.4375 89.0625 C58.7987793 89.05573242 58.7987793 89.05573242 57.12695312 89.04882812 C54.41791505 89.03699826 51.70898401 89.02051543 49 89 C50.05347469 80.73332213 51.39897721 72.73479942 53.4140625 64.64453125 C54.10815982 61.96328293 54.10815982 61.96328293 54 59 C53.59910156 59.556875 53.19820313 60.11375 52.78515625 60.6875 C46.82392761 68.68987495 39.33755458 76.90222425 30 81 C29.01 80.505 29.01 80.505 28 80 C27.40576172 77.68334961 27.40576172 77.68334961 26.9296875 74.65234375 C26.75566406 73.57275391 26.58164062 72.49316406 26.40234375 71.38085938 C26.22832031 70.24455078 26.05429687 69.10824219 25.875 67.9375 C25.69324219 66.79732422 25.51148438 65.65714844 25.32421875 64.48242188 C24.87484646 61.65610667 24.43382997 58.82873562 24 56 C23.79318604 56.96413818 23.58637207 57.92827637 23.37329102 58.92163086 C22.6073524 62.48755104 21.8365328 66.05240115 21.06420898 69.61694336 C20.73018595 71.16190149 20.39749979 72.70714928 20.06616211 74.25268555 C19.59056453 76.47000821 19.11021962 78.68625576 18.62890625 80.90234375 C18.48095108 81.5971434 18.33299591 82.29194305 18.18055725 83.00779724 C17.11387171 87.88612829 17.11387171 87.88612829 16 89 C14.29227642 89.08713831 12.58101351 89.10700007 10.87109375 89.09765625 C9.31938477 89.09282227 9.31938477 89.09282227 7.73632812 89.08789062 C6.64771484 89.07951172 5.55910156 89.07113281 4.4375 89.0625 C2.7987793 89.05573242 2.7987793 89.05573242 1.12695312 89.04882812 C-1.58208759 89.03699825 -4.29100822 89.01967721 -7 89 C-6.55055872 80.91253463 -5.1050138 73.25676352 -3.2403965 65.38358307 C-2.75783644 63.34112618 -2.28637303 61.29637873 -1.8177948 59.25067139 C-0.4863001 53.44349303 0.85944719 47.63974786 2.22436523 41.84033203 C3.06355813 38.27123946 3.88597926 34.69861795 4.69814491 31.12328339 C5.00877274 29.77111038 5.32571823 28.42037156 5.64928246 27.07123566 C8.16556393 17.40395735 8.16556393 17.40395735 6 8 C4.57493539 5.81880011 4.57493539 5.81880011 2.875 4.125 C0 1.05741627 0 1.05741627 0 0 Z M55 56 C56 58 56 58 56 58 Z " fill="#FF5858" transform="translate(334,155)"/>
<path d="M0 0 C0.9973819 -0.00570007 1.99476379 -0.01140015 3.02236938 -0.01727295 C5.11141928 -0.02664851 7.20048346 -0.03322695 9.28955078 -0.03710938 C12.48886179 -0.04691269 15.68755531 -0.07804425 18.88671875 -0.109375 C20.92447538 -0.11589723 22.96223656 -0.12115075 25 -0.125 C26.43126724 -0.1435202 26.43126724 -0.1435202 27.89144897 -0.16241455 C29.2240123 -0.1579129 29.2240123 -0.1579129 30.58349609 -0.15332031 C31.36163666 -0.15696594 32.13977722 -0.16061157 32.9414978 -0.16436768 C35.74171823 0.31203495 37.09379181 1.20724644 39.1015625 3.203125 C41.32887481 11.43650843 37.50062423 21.86240962 35.671875 30.0078125 C35.31718135 31.62044846 34.96326188 33.23325488 34.6100769 34.84622192 C33.87169489 38.20787243 33.12635448 41.56787422 32.37548828 44.92675781 C31.41412734 49.22836275 30.46683886 53.53291454 29.52424812 57.83866692 C28.79590465 61.16131171 28.06200495 64.48270863 27.3262291 67.80371475 C26.97489236 69.39103816 26.62485646 70.97865009 26.27615738 72.56655502 C25.78859321 74.78112032 25.29400882 76.99399908 24.79736328 79.20654297 C24.51756622 80.46433563 24.23776917 81.7221283 23.94949341 83.01803589 C23.23952981 85.68487738 22.4637413 87.82206715 21.1015625 90.203125 C13.85191006 90.24945806 6.60228953 90.28499908 -0.64748096 90.30674934 C-4.01381979 90.3171882 -7.38005735 90.33134909 -10.74633789 90.35400391 C-14.61607565 90.37820311 -18.48566926 90.38959692 -22.35546875 90.3984375 C-23.56491653 90.40876007 -24.77436432 90.41908264 -26.02046204 90.42971802 C-27.70186531 90.42994461 -27.70186531 90.42994461 -29.41723633 90.43017578 C-30.40540848 90.434617 -31.39358063 90.43905823 -32.41169739 90.44363403 C-34.8984375 90.203125 -34.8984375 90.203125 -37.8984375 88.203125 C-39.41410498 83.17423017 -38.48340951 78.74552029 -37.37890625 73.7421875 C-37.1991777 72.88823395 -37.01944916 72.0342804 -36.83427429 71.15444946 C-36.20120716 68.16792702 -35.55032846 65.18559316 -34.8984375 62.203125 C-34.38599941 59.82784931 -33.8738042 57.45252122 -33.36181641 55.07714844 C-31.95569607 48.58024939 -30.53053907 42.08765937 -29.09741211 35.59667969 C-28.34783359 32.20151164 -27.60254334 28.80541713 -26.85828876 25.4090786 C-26.14106942 22.1393612 -25.41994498 18.87050869 -24.69921875 15.6015625 C-24.43256912 14.38407318 -24.16591949 13.16658386 -23.89118958 11.91220093 C-23.6439061 10.79568146 -23.39662262 9.67916199 -23.1418457 8.52880859 C-22.92518753 7.54544525 -22.70852936 6.56208191 -22.48530579 5.54891968 C-21.8984375 3.203125 -21.8984375 3.203125 -20.8984375 1.203125 C-14.14128678 -0.24252037 -6.88178586 0.03104642 0 0 Z " fill="#FF5858" transform="translate(452.8984375,153.796875)"/>
<path d="M0 0 C21.78 0 43.56 0 66 0 C64 17 64 17 61 25 C53.74 25 46.48 25 39 25 C39 22.36 39 19.72 39 17 C36.36 17 33.72 17 31 17 C30.95101562 17.72445312 30.90203125 18.44890625 30.8515625 19.1953125 C30.77679688 20.16210938 30.70203125 21.12890625 30.625 22.125 C30.55539062 23.07632813 30.48578125 24.02765625 30.4140625 25.0078125 C30 28 30 28 28 34 C37.24 34 46.48 34 56 34 C54.15952928 37.68094144 53.55999198 38.64130418 50.48046875 40.91015625 C49.78759766 41.42513672 49.09472656 41.94011719 48.38085938 42.47070312 C47.65705078 42.99599609 46.93324219 43.52128906 46.1875 44.0625 C45.47529297 44.59166016 44.76308594 45.12082031 44.02929688 45.66601562 C33.51165441 53.42046618 33.51165441 53.42046618 27.6875 53.1875 C26.36298828 53.14689453 26.36298828 53.14689453 25.01171875 53.10546875 C24.34785156 53.07066406 23.68398438 53.03585938 23 53 C22.97873047 53.89912109 22.97873047 53.89912109 22.95703125 54.81640625 C22.55502326 62.45455807 21.12687009 69.72415432 19.5 77.1875 C19.27417236 78.227854 19.04834473 79.26820801 18.81567383 80.34008789 C17.13531534 87.86468466 17.13531534 87.86468466 16 89 C14.29227642 89.08713831 12.58101351 89.10700007 10.87109375 89.09765625 C9.31938477 89.09282227 9.31938477 89.09282227 7.73632812 89.08789062 C6.64771484 89.07951172 5.55910156 89.07113281 4.4375 89.0625 C2.7987793 89.05573242 2.7987793 89.05573242 1.12695312 89.04882812 C-1.58208495 89.03699826 -4.29101599 89.02051543 -7 89 C-6.580666 78.39008746 -4.01341782 68.18889026 -1.6875 57.875 C-1.29171446 56.09388394 -0.89652849 54.31263454 -0.50195312 52.53125 C1.01477225 45.70794733 2.54195846 38.88792925 4.16748047 32.08959961 C4.44412788 30.93121078 4.44412788 30.93121078 4.72636414 29.74942017 C5.07158639 28.31148116 5.41999199 26.87430089 5.77229309 25.43807983 C7.31576832 19.02729329 8.53566153 13.75359999 5.1875 7.75 C4.465625 6.8425 3.74375 5.935 3 5 C2.01 3.35 1.02 1.7 0 0 Z " fill="#FF5858" transform="translate(267,155)"/>
<path d="M0 0 C10.89 0 21.78 0 33 0 C31.87498072 13.5002313 31.87498072 13.5002313 30.43359375 20 C30.27899689 20.7073378 30.12440002 21.4146756 29.96511841 22.14344788 C29.46331102 24.43067098 28.95058812 26.71528374 28.4375 29 C28.08193285 30.60979725 27.72704611 32.21974492 27.37280273 33.82983398 C26.44636185 38.0317358 25.51050265 42.23148399 24.57263184 46.43084717 C23.61790788 50.71428305 22.6728024 54.99983986 21.7265625 59.28515625 C20.34455312 65.53620581 18.9597111 71.78661377 17.56640625 78.03515625 C17.28740479 79.2869165 17.00840332 80.53867676 16.72094727 81.82836914 C16.17602434 84.22562405 15.59625163 86.61499349 15 89 C7.41 89 -0.18 89 -8 89 C-8 77.75255102 -8 77.75255102 -6.80664062 72.59155273 C-6.54637085 71.4401329 -6.28610107 70.28871307 -6.01794434 69.10240173 C-5.73358521 67.8916951 -5.44922607 66.68098846 -5.15625 65.43359375 C-4.71530183 63.48660874 -4.27436448 61.53962121 -3.83405304 59.5924921 C-3.06501604 56.20542503 -2.2818588 52.82162586 -1.5 49.4375 C-0.56585372 45.39037533 0.36526082 41.34265835 1.28186035 37.29151917 C1.85143497 34.7784789 2.42970011 32.26738753 3.01794434 29.75865173 C5.74517691 19.15874005 5.74517691 19.15874005 3.90625 8.73046875 C3.4421875 8.22128906 2.978125 7.71210938 2.5 7.1875 C-0.02025205 4.35221644 0 4.20703121 0 0 Z " fill="#FF5959" transform="translate(228,154)"/>
<path d="M0 0 C7.59 0 15.18 0 23 0 C22.4938554 10.36852095 20.65977616 19.89490682 18.25 29.9375 C17.88557553 31.48788836 17.52214077 33.03850966 17.15966797 34.58935547 C16.44306177 37.65125109 15.72206044 40.71205168 14.99707031 43.77197266 C13.6704115 49.38149733 12.39468008 55.00234394 11.125 60.625 C10.75262822 62.2630263 10.38023404 63.90104751 10.0078125 65.5390625 C8.9946525 70.02366995 7.99736588 74.51185356 7 79 C-0.59 79 -8.18 79 -16 79 C-15.58564972 67.81254256 -13.27922761 57.39580791 -10.79296875 46.51513672 C-9.91199591 42.60988827 -9.06208489 38.69866688 -8.21875 34.78515625 C-7.91035757 33.35782044 -7.6019265 31.93049299 -7.29345703 30.50317383 C-6.83901178 28.39997719 -6.38503117 26.29668909 -5.93304443 24.19296265 C-5.50770764 22.21655079 -5.07846016 20.24102193 -4.6484375 18.265625 C-4.40270996 17.12899414 -4.15698242 15.99236328 -3.90380859 14.82128906 C-2.72789212 9.849532 -1.34424795 4.92890914 0 0 Z " fill="#FBFAFA" transform="translate(170,138)"/>
<path d="M0 0 C1.48831242 0.00667405 2.97660807 0.01863442 4.46484375 0.03515625 C5.22345703 0.03966797 5.98207031 0.04417969 6.76367188 0.04882812 C8.64326246 0.06064945 10.52281274 0.07858547 12.40234375 0.09765625 C11.71069971 8.50954323 9.86924251 16.62936982 8.02734375 24.84765625 C7.71963483 26.23818898 7.41234073 27.62881358 7.10546875 29.01953125 C5.25357418 37.39042024 3.34142493 45.74652135 1.40234375 54.09765625 C-3.87765625 54.09765625 -9.15765625 54.09765625 -14.59765625 54.09765625 C-14.06339241 43.9657241 -11.89159557 34.26244292 -9.73193359 24.37841797 C-9.09197882 21.44664674 -8.46325899 18.51262267 -7.8359375 15.578125 C-7.43424478 13.71730726 -7.03192434 11.85662489 -6.62890625 9.99609375 C-6.44034058 9.1170639 -6.2517749 8.23803406 -6.05749512 7.33236694 C-4.47360208 0.12143328 -4.47360208 0.12143328 0 0 Z " fill="#FFF8F8" transform="translate(454.59765625,171.90234375)"/>
<path d="M0 0 C4.02803018 2.74638421 6.93379885 5.31250803 8.421875 9.984375 C9.29323294 15.03825107 8.62738935 18.72052234 6.04296875 23.1484375 C2.98298512 27.23457878 -0.25982139 28.63544066 -5.125 29.8125 C-11.07921698 30.27927418 -15.55102787 28.24156454 -20.125 24.5625 C-23.33498792 20.5028094 -24.30979063 17.54913752 -24.125 12.375 C-22.74933756 6.87235025 -20.11631141 2.85757796 -15.25 -0.125 C-10.0828841 -1.84737197 -5.14400242 -1.78061622 0 0 Z " fill="#FF5757" transform="translate(258.25,118.125)"/>
</svg>
