<svg width="440" height="230" viewBox="0 0 440 230" fill="none" xmlns="http://www.w3.org/2000/svg">
<path d="M282.888 76.0552C294.349 76.0552 305.809 76.0552 317.617 76.0552C320.873 92.9029 320.873 92.9029 321.897 98.2208C322.166 99.6072 322.435 100.994 322.705 102.38C322.843 103.103 322.982 103.827 323.125 104.572C323.259 105.26 323.393 105.949 323.531 106.658C323.647 107.256 323.763 107.855 323.882 108.472C324.189 110.03 324.189 110.03 325.059 111.611C325.374 111.147 325.69 110.682 326.014 110.204C331.952 101.457 337.914 92.7281 343.974 84.0656C344.471 83.3554 344.967 82.6453 345.478 81.9136C348.933 76.9879 348.933 76.9879 349.866 76.0552C351.58 75.9827 353.296 75.9667 355.011 75.9744C356.053 75.9771 357.095 75.9797 358.169 75.9825C359.277 75.9894 360.386 75.9964 361.494 76.0035C362.606 76.0076 363.717 76.0114 364.829 76.0148C367.559 76.0246 370.289 76.0382 373.019 76.0552C371.944 83.2191 370.447 90.2508 368.791 97.2991C366.139 108.602 363.654 119.935 361.287 131.301C358.974 142.407 356.563 153.48 354 164.532C346.633 164.532 339.265 164.532 331.674 164.532C332.666 155.909 334.504 147.68 336.609 139.267C336.824 138.4 337.04 137.534 337.262 136.641C337.46 135.861 337.657 135.082 337.86 134.279C338.376 132.219 338.376 132.219 338.29 129.803C337.509 131.045 337.509 131.045 336.713 132.312C332.84 138.373 329.267 143.693 323.406 147.994C322.571 148.642 321.736 149.29 320.877 149.958C313.987 155.268 313.987 155.268 311.002 156.263C310.409 152.807 309.821 149.349 309.236 145.892C309.037 144.716 308.836 143.542 308.634 142.367C308.344 140.674 308.058 138.98 307.772 137.287C307.599 136.269 307.426 135.251 307.247 134.203C306.923 131.857 306.79 129.684 306.868 127.322C306.322 127.322 305.776 127.322 305.214 127.322C305.099 128.948 305.099 128.948 304.982 130.607C304.412 136.291 303.147 141.819 301.897 147.383C301.49 149.198 301.089 151.015 300.689 152.831C298.742 161.623 298.742 161.623 297.772 164.532C290.405 164.532 283.037 164.532 275.446 164.532C275.99 159.641 276.607 155.113 277.72 150.371C278.021 149.054 278.322 147.736 278.621 146.418C278.779 145.729 278.937 145.041 279.099 144.331C279.922 140.7 280.706 137.06 281.493 133.42C282.721 127.748 283.958 122.078 285.207 116.411C285.598 114.637 285.988 112.863 286.378 111.089C286.632 109.938 286.886 108.786 287.141 107.635C287.731 104.969 288.312 102.302 288.875 99.6291C289.274 97.7862 289.706 95.9501 290.183 94.1259C291.249 90.0059 291.249 90.0059 290.508 85.9358C289.488 84.3877 288.397 83.0876 287.126 81.74C286.335 80.8253 285.545 79.9102 284.755 78.9945C284.139 78.2974 283.523 77.6003 282.888 76.882C282.888 76.6092 282.888 76.3363 282.888 76.0552Z" fill="#FF5858"/>
<path d="M380.461 76.0558C387.735 75.96 395.009 75.8865 402.283 75.8416C405.661 75.82 409.039 75.7907 412.416 75.7439C415.676 75.6989 418.936 75.6742 422.196 75.6635C423.439 75.6559 424.683 75.641 425.926 75.6186C427.669 75.5886 429.409 75.5845 431.152 75.5864C432.144 75.5772 433.135 75.5681 434.157 75.5586C436.689 76.0558 436.689 76.0558 438.687 78.0015C440.363 80.8029 440.144 82.0486 439.509 85.2161C439.327 86.1664 439.145 87.1166 438.957 88.0957C438.754 89.0342 438.552 89.9727 438.343 90.9397C438.18 91.7375 438.017 92.5354 437.848 93.3574C437.333 95.7968 436.783 98.2259 436.224 100.656C435.785 102.598 435.347 104.54 434.909 106.483C434.791 107.004 434.674 107.526 434.552 108.064C433.021 114.841 431.533 121.628 430.044 128.415C429.572 130.565 429.099 132.714 428.625 134.864C428.322 136.243 428.019 137.623 427.716 139.002C427.496 140.007 427.496 140.007 427.27 141.033C426.498 144.564 425.742 148.099 425.007 151.638C424.857 152.362 424.706 153.085 424.551 153.831C424.264 155.217 423.979 156.602 423.697 157.989C422.723 162.698 422.723 162.698 421.805 164.532C414.639 164.609 407.473 164.668 400.306 164.704C396.979 164.721 393.651 164.744 390.323 164.782C387.112 164.818 383.901 164.838 380.689 164.846C379.464 164.852 378.239 164.864 377.014 164.882C375.297 164.906 373.582 164.909 371.865 164.908C370.888 164.915 369.911 164.923 368.905 164.93C365.875 164.448 364.904 163.666 363.096 161.225C362.34 155.512 363.96 150.073 365.286 144.53C365.97 141.667 366.63 138.799 367.292 135.931C367.428 135.345 367.564 134.76 367.704 134.156C369.005 128.522 370.169 122.862 371.314 117.193C374.11 103.423 377.294 89.7444 380.461 76.0558Z" fill="#FF5858"/>
<path d="M215.911 76.0566C237.195 76.0566 258.479 76.0566 280.408 76.0566C279.869 81.9837 279.263 87.3878 277.927 93.1111C277.706 94.104 277.706 94.104 277.481 95.117C276.388 99.9213 276.388 99.9213 275.446 100.863C273.853 100.936 272.258 100.952 270.663 100.944C269.695 100.941 268.728 100.939 267.732 100.936C266.713 100.929 265.695 100.922 264.645 100.915C263.113 100.909 263.113 100.909 261.549 100.904C259.015 100.894 256.481 100.88 253.947 100.863C254.22 98.1345 254.493 95.4057 254.774 92.5943C251.773 92.5943 248.771 92.5943 245.679 92.5943C245.593 93.754 245.508 94.9137 245.42 96.1086C244.852 100.863 244.852 100.863 242.371 110.786C251.649 110.786 260.926 110.786 270.485 110.786C265.836 115.435 265.836 115.435 263.647 116.958C263.172 117.293 262.697 117.628 262.208 117.973C261.716 118.313 261.224 118.653 260.718 119.003C257.445 121.27 254.347 123.542 251.363 126.187C247.473 129.211 242.921 128.572 238.237 128.15C238.115 128.906 237.994 129.662 237.868 130.44C235.961 141.906 233.358 153.197 230.795 164.533C223.427 164.533 216.06 164.533 208.469 164.533C208.985 159.89 209.505 155.662 210.468 151.151C210.582 150.614 210.696 150.078 210.813 149.524C211.182 147.791 211.556 146.059 211.931 144.326C212.192 143.111 212.452 141.895 212.712 140.679C215.2 129.107 217.848 117.57 220.579 106.053C221.062 104.014 221.536 101.974 222.009 99.9329C222.148 99.3606 222.287 98.7883 222.429 98.1986C223.607 93.0649 224.479 88.7353 221.725 84.0186C221.034 83.1819 220.343 82.3452 219.632 81.4831C215.911 76.9073 215.911 76.9073 215.911 76.0566Z" fill="#FF5858"/>
<path d="M176.22 75.5586C186.862 75.5586 197.504 75.5586 208.469 75.5586C207.956 80.6884 207.465 85.1936 206.375 90.1357C206.187 90.9987 206.187 90.9987 205.995 91.8792C205.584 93.7614 205.166 95.642 204.748 97.5227C204.454 98.8597 204.161 100.197 203.868 101.534C203.088 105.093 202.302 108.65 201.516 112.208C200.524 116.695 199.54 121.184 198.555 125.673C197.767 129.262 196.978 132.851 196.186 136.44C194.161 145.627 192.204 154.827 190.277 164.035C182.91 164.035 175.542 164.035 167.951 164.035C168.881 153.805 168.881 153.805 169.98 148.932C170.096 148.409 170.212 147.886 170.331 147.348C170.704 145.674 171.085 144.002 171.465 142.33C171.729 141.151 171.992 139.973 172.255 138.794C172.779 136.445 173.305 134.096 173.834 131.747C174.993 126.587 176.11 121.418 177.223 116.248C178.088 112.239 178.979 108.237 179.902 104.241C180.099 103.377 180.295 102.512 180.498 101.622C180.874 99.9699 181.257 98.3197 181.648 96.6714C182.914 91.0808 182.914 91.0808 182.008 85.4812C180.701 83.4233 180.701 83.4233 179.062 81.6052C176.22 78.2938 176.22 78.2938 176.22 75.5586Z" fill="#FF5959"/>
<path d="M73.687 32.9721C86.4452 32.8948 99.2034 32.8365 111.962 32.8007C117.886 32.7836 123.81 32.7604 129.734 32.7226C134.897 32.6896 140.061 32.6682 145.225 32.6609C147.959 32.6566 150.692 32.6447 153.426 32.6224C156.479 32.5984 159.531 32.595 162.584 32.5966C163.489 32.5847 164.395 32.5728 165.327 32.5605C171.451 32.5939 171.451 32.5939 174.644 34.4943C177.404 37.6196 178.121 39.4331 178.01 43.6107C177.802 46.3167 177.234 48.872 176.602 51.5092C176.469 52.0769 176.335 52.6446 176.198 53.2296C175.912 54.4442 175.623 55.658 175.331 56.8712C174.553 60.1104 173.799 63.3553 173.042 66.5998C172.889 67.2544 172.736 67.909 172.578 68.5834C171.176 74.6089 169.906 80.6564 168.675 86.7196C166.99 94.9935 165.236 103.247 163.375 111.483C162.204 116.674 161.068 121.869 159.972 127.076C159.321 130.168 158.662 133.258 158.002 136.348C157.678 137.877 157.358 139.407 157.041 140.938C156.594 143.097 156.134 145.253 155.671 147.408C155.541 148.053 155.411 148.699 155.278 149.363C154.277 153.931 153.017 157.726 149.052 160.597C144.218 163.472 140.51 164.204 134.938 164.089C134.154 164.09 133.371 164.09 132.564 164.091C130 164.088 127.437 164.056 124.873 164.024C123.085 164.016 121.298 164.01 119.51 164.006C114.824 163.99 110.139 163.95 105.453 163.904C100.664 163.861 95.8747 163.843 91.0855 163.822C81.7026 163.778 72.3201 163.707 62.9375 163.62C63.4247 159.609 63.9718 155.711 64.8497 151.762C65.0698 150.765 65.2899 149.767 65.5167 148.739C65.7594 147.653 66.0022 146.566 66.245 145.48C66.5011 144.324 66.7568 143.167 67.0122 142.011C67.5637 139.515 68.1168 137.02 68.6708 134.524C70.058 128.271 71.4274 122.013 72.7993 115.756C73.2743 113.59 73.7498 111.424 74.2254 109.259C75.6992 102.548 77.1715 95.8377 78.6386 89.126C78.767 88.5387 78.8954 87.9515 79.0277 87.3465C79.6388 84.5512 80.249 81.7557 80.8578 78.9599C81.8434 74.441 82.835 69.9244 83.8745 65.4176C84.0335 64.7236 84.1925 64.0297 84.3564 63.3147C84.636 62.1008 84.9198 60.8879 85.2095 59.6765C86.7037 53.9772 86.7037 53.9772 85.0133 48.5957C83.5172 46.5899 81.957 44.6607 80.3538 42.7396C79.2753 41.4209 78.1996 40.0999 77.127 38.7764C76.6463 38.1974 76.1657 37.6184 75.6704 37.0219C74.5139 35.4527 74.5139 35.4527 73.687 32.9721Z" fill="white"/>
<path d="M118.338 58.6055C125.979 58.6055 133.619 58.6055 141.491 58.6055C140.957 63.4178 140.396 67.7007 139.34 72.3557C139.21 72.9342 139.08 73.5127 138.946 74.1088C138.523 75.9876 138.095 77.8651 137.667 79.7427C137.217 81.7348 136.769 83.7273 136.321 85.7198C136.016 87.0771 135.71 88.4343 135.404 89.7914C134.013 95.9558 132.658 102.128 131.313 108.302C130.952 109.96 130.59 111.617 130.227 113.274C129.212 117.915 128.2 122.558 127.195 127.201C126.896 128.574 126.597 129.947 126.297 131.32C126.169 131.921 126.04 132.523 125.907 133.143C125.047 137.066 125.047 137.066 124.127 137.986C122.473 138.059 120.817 138.075 119.162 138.067C117.655 138.063 117.655 138.063 116.118 138.059C115.06 138.052 114.002 138.045 112.912 138.038C111.851 138.034 110.79 138.031 109.697 138.027C107.065 138.017 104.433 138.003 101.801 137.986C102.348 130.273 103.952 122.84 105.573 115.299C105.868 113.913 106.163 112.528 106.457 111.142C109.197 98.3091 112.106 85.5151 115.074 72.7334C116.166 68.0251 117.252 63.3151 118.338 58.6055Z" fill="white"/>
<path d="M401.015 92.5C401.669 92.5043 402.323 92.5087 402.996 92.5131C404.055 92.5171 404.055 92.5171 405.136 92.5212C405.879 92.5281 406.621 92.5351 407.386 92.5422C408.131 92.5459 408.877 92.5497 409.645 92.5535C411.493 92.5633 413.341 92.5769 415.19 92.5939C414.154 99.2865 412.834 105.854 411.262 112.439C408.549 123.982 406.066 135.567 403.613 147.168C398.429 147.168 393.244 147.168 387.902 147.168C388.833 138.797 388.833 138.797 389.467 135.966C389.608 135.328 389.749 134.69 389.894 134.032C390.045 133.368 390.195 132.704 390.351 132.019C390.509 131.307 390.667 130.594 390.83 129.86C391.332 127.601 391.839 125.343 392.347 123.085C393.01 120.121 393.67 117.155 394.33 114.19C394.569 113.118 394.569 113.118 394.814 112.025C396.026 106.57 397.126 101.099 398.163 95.6079C398.828 92.6337 398.828 92.6337 401.015 92.5Z" fill="#FFFBFB"/>
<ellipse cx="198.546" cy="53.2316" rx="15.7108" ry="14.8839" fill="#FF5858"/>
<path d="M223.907 186.901C212.087 200.222 197.613 210.924 181.413 218.32C165.214 225.717 147.646 229.645 129.839 229.853C112.032 230.06 94.3777 226.543 78.0101 219.525C61.6424 212.508 46.9226 202.146 34.7955 189.105C22.6683 176.063 13.4017 160.631 7.59034 143.797C1.77897 126.963 -0.448761 109.101 1.05011 91.3554C2.54899 73.61 7.74136 56.3741 16.294 40.7537C24.8466 25.1333 36.5705 11.4736 50.7134 0.651138L69.64 25.3847C58.945 33.5688 50.0792 43.8985 43.6116 55.7109C37.1439 67.5233 33.2174 80.5574 32.0839 93.9767C30.9504 107.396 32.6351 120.904 37.0297 133.634C41.4244 146.364 48.4319 158.034 57.6027 167.896C66.7734 177.758 77.9047 185.594 90.2822 190.901C102.66 196.207 116.01 198.868 129.476 198.711C142.942 198.554 156.227 195.583 168.478 189.99C180.728 184.396 191.674 176.303 200.612 166.23L223.907 186.901Z" fill="white"/>
</svg>

