<svg width="1109" height="267" viewBox="0 0 1109 267" fill="none" xmlns="http://www.w3.org/2000/svg">
<path d="M294 160.108V154.858C303 154.858 308.25 153.192 309.75 149.858V24.1084C308.25 20.7751 303 19.1084 294 19.1084V13.8584H351.5C374 13.8584 392.5 20.6917 407 34.3584C421.667 47.8584 429 65.2751 429 86.6084C429 108.108 421.833 125.775 407.5 139.608C393.333 153.275 375.667 160.108 354.5 160.108H294ZM341.5 21.1084V151.608H354.5C365.833 151.608 375.417 146.275 383.25 135.608C391.25 124.942 395.25 108.692 395.25 86.8584C395.25 64.8584 391.083 48.4417 382.75 37.6084C374.417 26.6084 364 21.1084 351.5 21.1084H341.5ZM445.123 159.858V154.608C454.123 154.608 459.373 152.942 460.873 149.608V23.8584C459.373 20.5251 454.123 18.8584 445.123 18.8584V13.6084H508.373V18.8584C499.373 18.8584 494.123 20.5251 492.623 23.8584V149.608C494.123 152.942 499.373 154.608 508.373 154.608V159.858H445.123ZM526.422 159.858V154.608C535.422 154.608 540.672 152.942 542.172 149.608V23.8584C540.672 20.5251 535.422 18.8584 526.422 18.8584V13.6084H629.672V37.8584H624.422C624.422 28.8584 622.755 23.6084 619.422 22.1084H573.922V79.6084H602.672C606.005 78.1084 607.672 72.8584 607.672 63.8584H612.922V103.858H607.672C607.672 94.8584 606.005 89.6084 602.672 88.1084H573.922V149.608C575.422 152.942 580.672 154.608 589.672 154.608V159.858H526.422ZM643.121 159.858V154.608C652.121 154.608 657.371 152.942 658.871 149.608V23.8584C657.371 20.5251 652.121 18.8584 643.121 18.8584V13.6084H688.371L741.621 129.858L794.871 13.6084H840.621V18.8584C831.621 18.8584 826.371 20.5251 824.871 23.8584V149.608C826.371 152.942 831.621 154.608 840.621 154.608V159.858H777.371V154.608C786.371 154.608 791.621 152.942 793.121 149.608V37.3584L737.121 159.858H724.621L667.371 35.8584V149.608C668.871 152.942 674.121 154.608 683.121 154.608V159.858H643.121ZM890.244 84.8584C890.244 96.1917 891.411 106.775 893.744 116.608C896.244 126.442 900.744 135.108 907.244 142.608C913.744 150.108 921.911 153.858 931.744 153.858C939.244 153.858 945.661 151.942 950.994 148.108C956.327 144.108 960.411 138.775 963.244 132.108C966.077 125.442 968.077 118.608 969.244 111.608C970.577 104.442 971.244 96.8584 971.244 88.8584C971.244 77.6917 969.994 67.1084 967.494 57.1084C964.994 47.1084 960.494 38.3584 953.994 30.8584C947.494 23.3584 939.411 19.6084 929.744 19.6084C922.244 19.6084 915.827 21.6084 910.494 25.6084C905.161 29.6084 901.077 34.9417 898.244 41.6084C895.411 48.2751 893.327 55.1917 891.994 62.3584C890.827 69.3584 890.244 76.8584 890.244 84.8584ZM877.994 140.108C863.661 125.108 856.494 107.358 856.494 86.8584C856.494 66.3584 863.744 48.6084 878.244 33.6084C892.744 18.6084 910.244 11.1084 930.744 11.1084C951.244 11.1084 968.744 18.6084 983.244 33.6084C997.744 48.6084 1004.99 66.3584 1004.99 86.8584C1004.99 107.358 997.661 125.108 982.994 140.108C968.494 154.942 951.077 162.358 930.744 162.358C910.077 162.358 892.494 154.942 877.994 140.108Z" fill="#FF2929"/>
<path d="M172.753 3.72448C173.477 3.89893 174.201 4.07338 174.948 4.25311C193.348 8.85506 210.908 16.6858 225.399 28.6501C226.879 29.8571 226.879 29.8571 228.388 31.0885C252.906 51.7595 267.321 79.9087 271.325 111.013C271.633 115.399 271.7 119.758 271.675 124.153C271.669 125.331 271.663 126.509 271.656 127.722C271.093 164.313 255.631 195.195 229.017 220.745C202.678 245.189 167.091 255.914 131.133 255.449C93.7859 254.249 59.636 235.892 34.4154 210.038C9.07598 181.94 -1.83838 146.809 0.251067 109.929C0.941948 104.059 2.16503 98.3291 3.61149 92.5897C3.98114 92.5897 4.35078 92.5897 4.73163 92.5897C4.84137 93.8344 4.95111 95.0791 5.06417 96.3616C7.67789 123.598 18.922 147.177 40.5761 165.199C45.0643 168.612 49.7183 171.779 54.4543 174.86C55.9588 175.841 57.4454 176.848 58.9272 177.861C74.0991 187.568 93.8096 193.815 111.985 193.647C112.908 193.655 113.83 193.664 114.781 193.672C115.678 193.669 116.574 193.667 117.498 193.664C118.695 193.66 118.695 193.66 119.917 193.656C122.966 193.407 122.966 193.407 127.947 191.208C128.317 154.73 128.686 118.252 129.067 80.6688C148.862 82.142 166.521 85.1104 180.585 99.5704C191.986 113.626 193.18 129.628 191.795 146.776C188.831 162.922 179.395 177.78 165.656 187.432C157.725 192.689 149.404 196.943 140.269 199.878C138.959 200.303 137.649 200.728 136.3 201.165C115.444 207.201 91.4451 206.264 70.8199 199.878C73.6626 200.907 76.5097 201.92 79.361 202.926C80.1378 203.209 80.9147 203.492 81.715 203.783C95.2006 208.501 108.396 210.214 122.696 210.106C123.454 210.103 124.212 210.099 124.993 210.096C136.991 210.019 147.95 209.102 159.311 205.297C160.031 205.059 160.751 204.821 161.493 204.576C184.07 196.957 204.375 183.911 215.738 163.032C224.685 144.57 225.772 124.772 218.679 105.594C210.01 85.7878 191.607 72.6405 171.581 64.5733C157.155 59.1369 142.013 56.2482 126.827 53.5757C126.04 53.4302 125.253 53.2848 124.443 53.1349C108.014 50.1803 90.8198 51.2111 74.1804 51.4083C75.2359 51.879 76.2914 52.3498 77.3789 52.8349C82.0165 55.2371 84.4863 58.3636 86.0516 63.2546C86.5158 65.5657 86.6398 67.6558 86.6366 70.0087C86.6389 71.3444 86.6389 71.3444 86.6413 72.7071C86.6352 74.1582 86.6352 74.1582 86.6291 75.6386C86.6292 76.6645 86.6294 77.6904 86.6296 78.7475C86.6288 82.1367 86.6201 85.526 86.6113 88.9152C86.6092 91.2659 86.6076 93.6165 86.6065 95.9672C86.6022 102.153 86.5912 108.339 86.5788 114.524C86.5674 120.837 86.5622 127.15 86.5566 133.462C86.5446 145.847 86.5255 158.233 86.5019 170.618C59.3352 162.105 34.0522 141.784 20.4136 117.515C13.0113 102.567 10.9205 85.7638 15.8105 69.6961C24.0164 49.1216 39.0976 36.4096 59.3866 27.3039C93.1095 13.1091 130.804 17.3258 164.375 29.719C176.736 34.6083 188.109 41.1538 198.516 49.2408C199.099 49.6849 199.682 50.1289 200.283 50.5865C209.062 57.3045 216.488 64.315 223.159 73.0827C223.592 73.6504 224.025 74.2181 224.472 74.803C230.05 82.1739 234.964 89.6578 238.841 98.0083C233.928 80.8216 227.083 65.3248 215.318 51.4083C214.505 50.4318 213.692 49.4553 212.855 48.4492C193.539 26.5493 163.673 12.5755 134.24 9.36693C128.042 8.8938 121.84 8.83276 115.626 8.80443C114.342 8.79831 113.058 8.7922 111.736 8.78591C105.256 8.83998 99.3548 9.2062 93.1134 10.9541C90.604 11.3738 88.908 10.9666 86.5019 10.2268C114.626 0.393007 143.273 -3.50458 172.753 3.72448Z" fill="#FF2929"/>
<path d="M300.542 243.331C299.289 243.331 298.662 242.66 298.662 241.317V206.834C298.662 205.492 299.289 204.82 300.542 204.82H323.584C324.927 204.82 325.598 205.402 325.598 206.566V209.735C325.598 210.899 324.927 211.48 323.584 211.48H306.504V220.021H322.161C323.503 220.021 324.175 220.602 324.175 221.766V224.935C324.175 226.099 323.503 226.681 322.161 226.681H306.504V236.671H324.443C325.786 236.671 326.458 237.253 326.458 238.417V241.585C326.458 242.749 325.786 243.331 324.443 243.331H300.542ZM334.004 243.331C332.93 243.331 332.393 242.794 332.393 241.72V216.744C332.393 215.67 332.93 215.133 334.004 215.133H338.247C339.321 215.133 339.858 215.67 339.858 216.744V218.302H339.966C340.485 217.156 341.362 216.252 342.598 215.589C343.833 214.927 344.988 214.596 346.062 214.596C348.21 214.596 349.875 215.097 351.057 216.1C352.257 217.102 353.08 218.221 353.528 219.457H353.635C355.193 217.433 356.598 216.118 357.852 215.509C359.123 214.9 360.743 214.596 362.712 214.596C365.362 214.596 367.591 215.473 369.399 217.228C371.226 218.982 372.139 222.187 372.139 226.842V241.72C372.139 242.794 371.602 243.331 370.527 243.331H366.23C365.156 243.331 364.619 242.794 364.619 241.72V228.775C364.619 224.872 364.351 222.411 363.813 221.39C363.294 220.37 362.363 219.859 361.021 219.859C359.767 219.859 358.621 220.593 357.583 222.062C356.545 223.53 356.025 226.555 356.025 231.139V241.72C356.025 242.794 355.488 243.331 354.414 243.331H350.117C349.043 243.331 348.506 242.794 348.506 241.72V228.775C348.506 224.872 348.237 222.411 347.7 221.39C347.181 220.37 346.25 219.859 344.907 219.859C343.654 219.859 342.508 220.593 341.47 222.062C340.431 223.512 339.912 226.537 339.912 231.139V241.72C339.912 242.794 339.375 243.331 338.301 243.331H334.004ZM381.001 254.073C379.927 254.073 379.39 253.536 379.39 252.462V216.744C379.39 215.67 379.927 215.133 381.001 215.133H385.244C386.139 215.133 386.623 215.67 386.694 216.744L386.802 218.302H386.909C387.84 216.762 388.879 215.759 390.024 215.294C391.17 214.828 392.549 214.596 394.16 214.596C398.368 214.596 401.322 216.055 403.022 218.973C404.741 221.874 405.601 225.293 405.601 229.232C405.601 233.171 404.741 236.599 403.022 239.518C401.322 242.418 398.368 243.868 394.16 243.868C392.549 243.868 391.17 243.635 390.024 243.17C388.879 242.704 387.84 241.702 386.909 240.162H386.802C386.873 240.878 386.909 241.594 386.909 242.311V252.462C386.909 253.536 386.372 254.073 385.298 254.073H381.001ZM386.909 230.44C386.909 232.857 387.384 234.827 388.333 236.349C389.299 237.853 390.454 238.604 391.797 238.604C394.214 238.604 395.789 237.763 396.523 236.08C397.275 234.379 397.651 232.097 397.651 229.232C397.651 226.367 397.275 224.094 396.523 222.411C395.789 220.71 394.214 219.859 391.797 219.859C390.454 219.859 389.299 220.62 388.333 222.142C387.384 223.646 386.909 225.606 386.909 228.023V230.44ZM409.897 229.232C409.897 224.667 411.07 221.086 413.416 218.49C415.779 215.894 419.288 214.596 423.943 214.596C428.598 214.596 432.098 215.894 434.443 218.49C436.807 221.086 437.988 224.667 437.988 229.232C437.988 233.797 436.807 237.378 434.443 239.974C432.098 242.57 428.598 243.868 423.943 243.868C419.288 243.868 415.779 242.57 413.416 239.974C411.07 237.378 409.897 233.797 409.897 229.232ZM417.847 229.232C417.847 232.634 418.366 235.051 419.404 236.483C420.461 237.897 421.973 238.604 423.943 238.604C425.912 238.604 427.416 237.897 428.455 236.483C429.511 235.051 430.039 232.634 430.039 229.232C430.039 225.83 429.511 223.422 428.455 222.008C427.416 220.576 425.912 219.859 423.943 219.859C421.973 219.859 420.461 220.576 419.404 222.008C418.366 223.422 417.847 225.83 417.847 229.232ZM441.855 217.228C441.462 215.831 441.757 215.133 442.742 215.133H447.28C448.14 215.133 448.677 215.589 448.892 216.502L452.517 232.24C452.732 233.153 452.92 234.03 453.081 234.872C453.242 235.713 453.341 236.402 453.376 236.939H453.538C453.573 236.402 453.672 235.704 453.833 234.845C453.994 233.967 454.182 233.099 454.397 232.24L458.21 216.502C458.425 215.589 458.962 215.133 459.822 215.133H464.709C465.569 215.133 466.106 215.589 466.321 216.502L470.134 232.24C470.349 233.099 470.537 233.967 470.698 234.845C470.859 235.704 470.958 236.402 470.994 236.939H471.155C471.191 236.402 471.289 235.713 471.45 234.872C471.611 234.03 471.799 233.153 472.014 232.24L475.64 216.502C475.854 215.589 476.392 215.133 477.251 215.133H481.79C482.774 215.133 483.07 215.831 482.676 217.228L475.693 241.532C475.353 242.731 474.7 243.331 473.733 243.331H468.872C467.852 243.331 467.198 242.731 466.912 241.532L463.018 225.606C462.785 224.693 462.615 223.959 462.507 223.404C462.418 222.849 462.355 222.232 462.319 221.551H462.212C462.176 222.232 462.104 222.849 461.997 223.404C461.908 223.959 461.746 224.693 461.514 225.606L457.62 241.532C457.333 242.731 456.68 243.331 455.659 243.331H450.798C449.832 243.331 449.178 242.731 448.838 241.532L441.855 217.228ZM485.361 229.232C485.361 224.702 486.489 221.131 488.745 218.517C491.019 215.903 494.224 214.596 498.359 214.596C503.158 214.596 506.72 215.831 509.048 218.302C511.375 220.772 512.539 224.747 512.539 230.226C512.539 231.3 512.038 231.837 511.035 231.837H493.311C493.597 234.809 494.331 236.68 495.513 237.45C496.694 238.22 498.064 238.604 499.622 238.604C501.108 238.604 502.244 238.408 503.032 238.014C503.82 237.62 504.482 237.083 505.02 236.402C505.628 235.615 506.38 235.489 507.275 236.026L509.961 237.665C511.017 238.309 511.169 239.079 510.417 239.974C509.325 241.281 508.045 242.257 506.577 242.901C505.109 243.546 502.791 243.868 499.622 243.868C494.483 243.868 490.822 242.561 488.638 239.947C486.453 237.333 485.361 233.762 485.361 229.232ZM493.337 226.466H505.02C505.02 224.532 504.536 222.957 503.569 221.739C502.603 220.504 501.063 219.886 498.95 219.886C497.267 219.886 495.933 220.477 494.949 221.659C493.964 222.822 493.427 224.425 493.337 226.466ZM520.005 243.331C518.931 243.331 518.394 242.794 518.394 241.72V216.744C518.394 215.67 518.931 215.133 520.005 215.133H524.248C525.322 215.133 525.859 215.67 525.859 216.744V218.946H525.967C526.432 217.8 527.211 216.789 528.303 215.912C529.395 215.034 530.684 214.596 532.17 214.596C533.191 214.596 534.032 214.721 534.695 214.972C535.321 215.204 535.563 215.634 535.42 216.261L534.668 219.457C534.507 220.173 534.023 220.388 533.218 220.101C532.752 219.94 532.305 219.859 531.875 219.859C530.156 219.859 528.733 220.889 527.605 222.948C526.477 225.007 525.913 228.006 525.913 231.944V241.72C525.913 242.794 525.376 243.331 524.302 243.331H520.005ZM541.113 243.331C540.039 243.331 539.502 242.794 539.502 241.72V216.744C539.502 215.67 540.039 215.133 541.113 215.133H545.41C546.484 215.133 547.021 215.67 547.021 216.744V241.72C547.021 242.794 546.484 243.331 545.41 243.331H541.113ZM541.113 210.997C540.039 210.997 539.502 210.46 539.502 209.386V205.948C539.502 204.874 540.039 204.337 541.113 204.337H545.41C546.484 204.337 547.021 204.874 547.021 205.948V209.386C547.021 210.46 546.484 210.997 545.41 210.997H541.113ZM555.938 243.331C554.863 243.331 554.326 242.794 554.326 241.72V216.744C554.326 215.67 554.863 215.133 555.938 215.133H560.181C561.255 215.133 561.792 215.67 561.792 216.744V218.302H561.899C562.723 216.887 563.77 215.921 565.042 215.401C566.313 214.864 567.843 214.596 569.634 214.596C572.427 214.596 574.736 215.473 576.562 217.228C578.389 218.982 579.302 222.187 579.302 226.842V241.72C579.302 242.794 578.765 243.331 577.69 243.331H573.394C572.319 243.331 571.782 242.794 571.782 241.72V228.775C571.782 224.872 571.514 222.411 570.977 221.39C570.439 220.37 569.285 219.859 567.512 219.859C565.632 219.859 564.218 220.593 563.269 222.062C562.32 223.512 561.846 226.537 561.846 231.139V241.72C561.846 242.794 561.309 243.331 560.234 243.331H555.938ZM585.049 229.232C585.049 225.293 585.899 221.874 587.6 218.973C589.319 216.055 592.282 214.596 596.489 214.596C598.101 214.596 599.479 214.828 600.625 215.294C601.771 215.759 602.809 216.762 603.74 218.302H603.848L603.955 216.744C604.027 215.67 604.51 215.133 605.405 215.133H609.648C610.723 215.133 611.26 215.67 611.26 216.744V243.036C611.26 247.422 610.078 250.448 607.715 252.113C605.352 253.778 601.932 254.61 597.456 254.61C595.558 254.61 593.804 254.512 592.192 254.315C590.581 254.118 588.952 253.626 587.305 252.838C586.445 252.426 586.302 251.647 586.875 250.501L587.842 248.568C588.236 247.78 588.889 247.601 589.802 248.031C590.536 248.371 591.44 248.675 592.515 248.944C593.607 249.212 594.985 249.347 596.65 249.347C598.942 249.347 600.697 248.917 601.914 248.058C603.132 247.216 603.74 245.363 603.74 242.499V242.042C603.74 241.326 603.776 240.61 603.848 239.894H603.74C602.809 241.433 601.771 242.436 600.625 242.901C599.479 243.367 598.101 243.6 596.489 243.6C592.282 243.6 589.319 242.149 587.6 239.249C585.899 236.331 585.049 232.992 585.049 229.232ZM592.998 229.232C592.998 231.917 593.365 234.111 594.099 235.812C594.851 237.494 596.436 238.336 598.853 238.336C600.195 238.336 601.341 237.584 602.29 236.08C603.257 234.558 603.74 232.589 603.74 230.172V228.023C603.74 225.606 603.257 223.646 602.29 222.142C601.341 220.62 600.195 219.859 598.853 219.859C596.436 219.859 594.851 220.71 594.099 222.411C593.365 224.094 592.998 226.367 592.998 229.232ZM639.888 243.331C638.634 243.331 638.008 242.66 638.008 241.317V206.834C638.008 205.492 638.634 204.82 639.888 204.82H649.26C657.496 204.82 663.064 206.485 665.964 209.815C668.883 213.146 670.342 217.881 670.342 224.022C670.342 230.163 668.883 234.916 665.964 238.282C663.064 241.648 657.496 243.331 649.26 243.331H639.888ZM645.85 236.671H648.75C654.3 236.671 657.89 235.641 659.519 233.583C661.148 231.506 661.963 228.319 661.963 224.022C661.963 219.725 661.148 216.556 659.519 214.515C657.89 212.456 654.3 211.427 648.75 211.427H645.85V236.671ZM677.915 243.331C676.841 243.331 676.304 242.794 676.304 241.72V216.744C676.304 215.67 676.841 215.133 677.915 215.133H682.212C683.286 215.133 683.823 215.67 683.823 216.744V241.72C683.823 242.794 683.286 243.331 682.212 243.331H677.915ZM677.915 210.997C676.841 210.997 676.304 210.46 676.304 209.386V205.948C676.304 204.874 676.841 204.337 677.915 204.337H682.212C683.286 204.337 683.823 204.874 683.823 205.948V209.386C683.823 210.46 683.286 210.997 682.212 210.997H677.915ZM689.624 229.232C689.624 225.293 690.474 221.874 692.175 218.973C693.894 216.055 696.857 214.596 701.064 214.596C702.676 214.596 704.054 214.828 705.2 215.294C706.346 215.759 707.384 216.762 708.315 218.302H708.423L708.53 216.744C708.602 215.67 709.085 215.133 709.98 215.133H714.224C715.298 215.133 715.835 215.67 715.835 216.744V243.036C715.835 247.422 714.653 250.448 712.29 252.113C709.927 253.778 706.507 254.61 702.031 254.61C700.133 254.61 698.379 254.512 696.768 254.315C695.156 254.118 693.527 253.626 691.88 252.838C691.021 252.426 690.877 251.647 691.45 250.501L692.417 248.568C692.811 247.78 693.464 247.601 694.377 248.031C695.111 248.371 696.016 248.675 697.09 248.944C698.182 249.212 699.561 249.347 701.226 249.347C703.517 249.347 705.272 248.917 706.489 248.058C707.707 247.216 708.315 245.363 708.315 242.499V242.042C708.315 241.326 708.351 240.61 708.423 239.894H708.315C707.384 241.433 706.346 242.436 705.2 242.901C704.054 243.367 702.676 243.6 701.064 243.6C696.857 243.6 693.894 242.149 692.175 239.249C690.474 236.331 689.624 232.992 689.624 229.232ZM697.573 229.232C697.573 231.917 697.94 234.111 698.674 235.812C699.426 237.494 701.011 238.336 703.428 238.336C704.771 238.336 705.916 237.584 706.865 236.08C707.832 234.558 708.315 232.589 708.315 230.172V228.023C708.315 225.606 707.832 223.646 706.865 222.142C705.916 220.62 704.771 219.859 703.428 219.859C701.011 219.859 699.426 220.71 698.674 222.411C697.94 224.094 697.573 226.367 697.573 229.232ZM724.751 243.331C723.677 243.331 723.14 242.794 723.14 241.72V216.744C723.14 215.67 723.677 215.133 724.751 215.133H729.048C730.122 215.133 730.659 215.67 730.659 216.744V241.72C730.659 242.794 730.122 243.331 729.048 243.331H724.751ZM724.751 210.997C723.677 210.997 723.14 210.46 723.14 209.386V205.948C723.14 204.874 723.677 204.337 724.751 204.337H729.048C730.122 204.337 730.659 204.874 730.659 205.948V209.386C730.659 210.46 730.122 210.997 729.048 210.997H724.751ZM737.024 220.504C735.968 220.504 735.439 220.056 735.439 219.161V216.476C735.439 215.58 735.968 215.133 737.024 215.133H738.85V214.193C738.85 213.387 739.038 212.653 739.414 211.991L741.482 208.365C741.876 207.685 742.341 207.345 742.878 207.345H744.758C745.833 207.345 746.37 207.882 746.37 208.956V215.133H750.72C751.777 215.133 752.305 215.58 752.305 216.476V219.161C752.305 220.056 751.777 220.504 750.72 220.504H746.37V233.824C746.37 235.65 746.495 236.966 746.746 237.772C747.014 238.56 747.694 238.954 748.787 238.954C749.342 238.954 749.968 238.864 750.667 238.685C751.365 238.488 751.911 238.3 752.305 238.121C752.931 237.835 753.343 238.041 753.54 238.739L754.346 241.8C754.507 242.409 754.274 242.857 753.647 243.143C753.057 243.412 752.242 243.653 751.204 243.868C750.183 244.101 749.154 244.217 748.115 244.217C745.555 244.217 743.371 243.689 741.562 242.633C739.754 241.576 738.85 239.401 738.85 236.107V220.504H737.024ZM757.891 235.812C757.891 232.231 759.6 229.635 763.02 228.023C766.44 226.412 770.343 225.553 774.729 225.445V224.371C774.729 222.724 774.317 221.56 773.494 220.88C772.67 220.2 771.524 219.859 770.056 219.859C769.018 219.859 768.096 220.012 767.29 220.316C766.502 220.602 765.813 220.943 765.222 221.336C764.649 221.712 764.13 222.097 763.665 222.491C762.841 223.207 762.161 223.243 761.624 222.599L759.395 219.859C758.84 219.179 758.974 218.481 759.797 217.765C760.424 217.21 761.149 216.726 761.973 216.314C762.814 215.903 763.924 215.518 765.303 215.16C766.681 214.784 768.472 214.596 770.674 214.596C774.398 214.596 777.253 215.455 779.241 217.174C781.246 218.893 782.249 221.426 782.249 224.774V241.72C782.249 242.794 781.711 243.331 780.637 243.331H776.233C775.266 243.331 774.783 242.794 774.783 241.72V240.914H774.729C773.673 241.935 772.402 242.687 770.916 243.17C769.447 243.635 768.096 243.868 766.86 243.868C763.924 243.868 761.695 243.152 760.173 241.72C758.652 240.27 757.891 238.3 757.891 235.812ZM765.84 235.65C765.84 236.277 765.965 236.823 766.216 237.289C766.466 237.736 766.86 238.067 767.397 238.282C767.935 238.497 768.534 238.604 769.197 238.604C770.11 238.604 770.996 238.479 771.855 238.229C772.715 237.978 773.673 237.387 774.729 236.456V230.628C771.721 230.969 769.707 231.407 768.687 231.944C767.666 232.481 766.932 233.036 766.484 233.609C766.055 234.182 765.84 234.863 765.84 235.65ZM791.191 243.331C790.117 243.331 789.58 242.794 789.58 241.72V210.003C789.58 209.198 789.768 208.464 790.144 207.801L792.212 204.176C792.606 203.495 793.071 203.155 793.608 203.155H795.488C796.562 203.155 797.1 203.692 797.1 204.767V241.72C797.1 242.794 796.562 243.331 795.488 243.331H791.191ZM825.728 243.331C824.474 243.331 823.848 242.66 823.848 241.317V206.834C823.848 205.492 824.474 204.82 825.728 204.82H846.97C848.313 204.82 848.984 205.402 848.984 206.566V209.735C848.984 210.899 848.313 211.48 846.97 211.48H831.689V220.826H844.768C846.111 220.826 846.782 221.408 846.782 222.572V225.741C846.782 226.904 846.111 227.486 844.768 227.486H831.689V241.317C831.689 242.66 831.063 243.331 829.81 243.331H825.728ZM854.731 231.622V216.744C854.731 215.67 855.269 215.133 856.343 215.133H860.64C861.714 215.133 862.251 215.67 862.251 216.744V229.688C862.251 233.591 862.52 236.053 863.057 237.074C863.594 238.094 864.722 238.604 866.44 238.604C868.267 238.604 869.654 237.879 870.603 236.429C871.552 234.961 872.026 231.926 872.026 227.325V216.744C872.026 215.67 872.563 215.133 873.638 215.133H877.935C879.009 215.133 879.546 215.67 879.546 216.744V241.72C879.546 242.794 879.009 243.331 877.935 243.331H873.691C872.617 243.331 872.08 242.794 872.08 241.72V240.162H871.973C871.149 241.576 870.102 242.552 868.831 243.089C867.559 243.609 866.056 243.868 864.319 243.868C861.58 243.868 859.297 242.991 857.471 241.236C855.645 239.482 854.731 236.277 854.731 231.622ZM885.911 220.504C884.854 220.504 884.326 220.056 884.326 219.161V216.476C884.326 215.58 884.854 215.133 885.911 215.133H887.737V214.193C887.737 213.387 887.925 212.653 888.301 211.991L890.369 208.365C890.763 207.685 891.228 207.345 891.765 207.345H893.645C894.719 207.345 895.256 207.882 895.256 208.956V215.133H899.607C900.663 215.133 901.191 215.58 901.191 216.476V219.161C901.191 220.056 900.663 220.504 899.607 220.504H895.256V233.824C895.256 235.65 895.382 236.966 895.632 237.772C895.901 238.56 896.581 238.954 897.673 238.954C898.228 238.954 898.855 238.864 899.553 238.685C900.251 238.488 900.798 238.3 901.191 238.121C901.818 237.835 902.23 238.041 902.427 238.739L903.232 241.8C903.394 242.409 903.161 242.857 902.534 243.143C901.943 243.412 901.129 243.653 900.09 243.868C899.07 244.101 898.04 244.217 897.002 244.217C894.442 244.217 892.257 243.689 890.449 242.633C888.641 241.576 887.737 239.401 887.737 236.107V220.504H885.911ZM908.228 231.622V216.744C908.228 215.67 908.765 215.133 909.839 215.133H914.136C915.21 215.133 915.747 215.67 915.747 216.744V229.688C915.747 233.591 916.016 236.053 916.553 237.074C917.09 238.094 918.218 238.604 919.937 238.604C921.763 238.604 923.15 237.879 924.099 236.429C925.048 234.961 925.522 231.926 925.522 227.325V216.744C925.522 215.67 926.06 215.133 927.134 215.133H931.431C932.505 215.133 933.042 215.67 933.042 216.744V241.72C933.042 242.794 932.505 243.331 931.431 243.331H927.188C926.113 243.331 925.576 242.794 925.576 241.72V240.162H925.469C924.645 241.576 923.598 242.552 922.327 243.089C921.056 243.609 919.552 243.868 917.815 243.868C915.076 243.868 912.793 242.991 910.967 241.236C909.141 239.482 908.228 236.277 908.228 231.622ZM941.958 243.331C940.884 243.331 940.347 242.794 940.347 241.72V216.744C940.347 215.67 940.884 215.133 941.958 215.133H946.201C947.275 215.133 947.812 215.67 947.812 216.744V218.946H947.92C948.385 217.8 949.164 216.789 950.256 215.912C951.348 215.034 952.638 214.596 954.124 214.596C955.144 214.596 955.986 214.721 956.648 214.972C957.275 215.204 957.516 215.634 957.373 216.261L956.621 219.457C956.46 220.173 955.977 220.388 955.171 220.101C954.705 219.94 954.258 219.859 953.828 219.859C952.109 219.859 950.686 220.889 949.558 222.948C948.43 225.007 947.866 228.006 947.866 231.944V241.72C947.866 242.794 947.329 243.331 946.255 243.331H941.958ZM959.951 229.232C959.951 224.702 961.079 221.131 963.335 218.517C965.609 215.903 968.813 214.596 972.949 214.596C977.747 214.596 981.31 215.831 983.638 218.302C985.965 220.772 987.129 224.747 987.129 230.226C987.129 231.3 986.628 231.837 985.625 231.837H967.9C968.187 234.809 968.921 236.68 970.103 237.45C971.284 238.22 972.654 238.604 974.211 238.604C975.697 238.604 976.834 238.408 977.622 238.014C978.41 237.62 979.072 237.083 979.609 236.402C980.218 235.615 980.97 235.489 981.865 236.026L984.551 237.665C985.607 238.309 985.759 239.079 985.007 239.974C983.915 241.281 982.635 242.257 981.167 242.901C979.699 243.546 977.38 243.868 974.211 243.868C969.073 243.868 965.412 242.561 963.228 239.947C961.043 237.333 959.951 233.762 959.951 229.232ZM967.927 226.466H979.609C979.609 224.532 979.126 222.957 978.159 221.739C977.192 220.504 975.653 219.886 973.54 219.886C971.857 219.886 970.523 220.477 969.539 221.659C968.554 222.822 968.017 224.425 967.927 226.466ZM992.419 241.451C991.542 240.825 991.3 240.153 991.694 239.437L993.064 236.939C993.547 236.044 994.299 235.937 995.32 236.617C996.34 237.298 997.54 237.799 998.918 238.121C1000.31 238.443 1001.59 238.604 1002.73 238.604C1003.54 238.604 1004.29 238.524 1004.99 238.363C1005.69 238.202 1006.28 237.888 1006.76 237.423C1007.24 236.957 1007.49 236.277 1007.49 235.382C1007.49 234.845 1007.34 234.388 1007.06 234.012C1006.77 233.636 1006.4 233.35 1005.95 233.153C1005.51 232.956 1005.03 232.795 1004.53 232.669C1003.87 232.508 1002.91 232.24 1001.66 231.864C1000.42 231.488 999.232 231.049 998.086 230.548C997.137 230.136 996.206 229.563 995.293 228.829C994.398 228.077 993.735 227.245 993.306 226.332C992.894 225.418 992.688 224.291 992.688 222.948C992.688 221.139 993.207 219.555 994.246 218.194C995.302 216.834 996.663 215.894 998.328 215.375C999.993 214.855 1002.07 214.596 1004.56 214.596C1006.24 214.596 1007.88 214.837 1009.47 215.321C1011.07 215.804 1012.2 216.261 1012.88 216.69C1013.96 217.371 1014.23 218.096 1013.69 218.866L1012.05 221.256C1011.55 221.972 1010.74 222.026 1009.63 221.417C1008.79 220.951 1007.96 220.576 1007.14 220.289C1006.33 220.003 1005.43 219.859 1004.42 219.859C1003.74 219.859 1003.09 219.931 1002.46 220.074C1001.84 220.217 1001.3 220.486 1000.85 220.88C1000.42 221.274 1000.21 221.793 1000.21 222.438C1000.21 223.118 1000.4 223.655 1000.8 224.049C1001.21 224.425 1001.68 224.702 1002.19 224.881C1002.73 225.06 1003.24 225.23 1003.73 225.392C1004.73 225.714 1005.74 226.027 1006.76 226.332C1007.78 226.618 1008.82 226.967 1009.88 227.379C1010.79 227.737 1011.67 228.247 1012.53 228.91C1013.39 229.572 1014.02 230.414 1014.41 231.434C1014.81 232.455 1015 233.618 1015 234.925C1015 236.662 1014.49 238.273 1013.45 239.759C1012.41 241.245 1011.04 242.302 1009.34 242.928C1007.64 243.555 1005.66 243.868 1003.4 243.868C1000.88 243.868 998.73 243.689 996.958 243.331C995.186 242.973 993.673 242.346 992.419 241.451Z" fill="white"/>
</svg>
