<svg width="523" height="512" viewBox="0 0 523 512" fill="none" xmlns="http://www.w3.org/2000/svg">
<path d="M305.283 255.614C305.283 232.664 285.682 214.056 261.5 214.056C237.321 214.056 217.717 232.664 217.717 255.614C217.717 278.568 237.321 297.174 261.5 297.174C285.682 297.174 305.283 278.568 305.283 255.614Z" fill="#53C1DE"/>
<path fill-rule="evenodd" clip-rule="evenodd" d="M403.697 178.459C412.943 142.796 424.565 76.6637 383.594 54.2426C342.815 31.9192 289.749 74.6949 261.727 100.371C233.788 74.9507 179.23 32.3579 138.295 54.8502C97.5315 77.2485 110.102 142.285 119.553 178.171C81.5277 188.422 16.3438 210.502 16.3438 255.614C16.3438 300.598 81.4599 324.621 119.26 334.862C109.774 370.947 97.833 435.054 138.648 457.403C179.737 479.891 234.124 438.312 262.405 412.355C290.607 438.182 343.163 480.034 383.951 457.622C424.866 435.141 414.209 369.894 404.758 333.8C441.401 323.536 506.656 300.037 506.656 255.614C506.656 210.936 441.123 188.677 403.697 178.459ZM399.052 314.672C392.847 296.026 384.47 276.197 374.224 255.714C384.005 235.714 392.056 216.141 398.088 197.614C425.524 205.165 485.712 222.421 485.712 255.614C485.712 289.12 427.955 306.539 399.052 314.672ZM373.455 440.416C343.023 457.136 297.817 417.114 276.991 398.094C290.808 383.75 304.615 367.075 318.09 348.558C341.795 346.563 364.188 343.299 384.497 338.843C391.148 364.374 404.021 423.621 373.455 440.416ZM149.114 440.178C118.679 423.52 132.59 366.314 139.569 339.733C159.651 343.95 181.883 346.984 205.644 348.813C219.207 366.931 233.415 383.586 247.732 398.171C230.043 414.413 179.691 456.912 149.114 440.178ZM37.2881 255.614C37.2881 221.984 97.1157 204.853 125.177 197.322C131.314 216.264 139.362 236.07 149.075 256.099C139.236 276.426 131.073 296.546 124.88 315.712C98.1228 308.442 37.2881 289.266 37.2881 255.614ZM148.789 72.0566C179.348 55.2666 226.765 96.1573 247.05 114.562C232.807 129.081 218.73 145.61 205.282 163.624C182.223 165.653 160.148 168.91 139.855 173.275C132.241 144.331 118.262 88.8286 148.789 72.0566ZM333.074 185.234C348.718 187.107 363.707 189.6 377.781 192.65C373.556 205.504 368.29 218.946 362.088 232.725C353.097 216.533 343.446 200.666 333.074 185.234ZM261.734 128.77C271.395 138.704 281.07 149.797 290.589 161.832C271.282 160.965 251.944 160.962 232.637 161.819C242.164 149.896 251.923 138.819 261.734 128.77ZM161.092 232.71C154.993 218.979 149.774 205.478 145.512 192.44C159.502 189.469 174.421 187.04 189.963 185.197C179.562 200.595 169.928 216.456 161.092 232.71ZM190.41 327.451C174.353 325.75 159.209 323.445 145.223 320.555C149.553 307.288 154.886 293.496 161.116 279.469C170.073 295.893 179.855 311.907 190.41 327.451ZM262.314 383.864C252.387 373.696 242.484 362.45 232.813 350.354C252.23 351.077 271.684 351.078 291.099 350.256C281.551 362.573 271.909 373.835 262.314 383.864ZM362.287 278.755C368.841 292.934 374.365 306.651 378.753 319.694C364.536 322.774 349.188 325.254 333.015 327.096C343.464 311.371 353.269 295.258 362.287 278.755ZM306.401 329.506C276.701 331.52 246.817 331.498 217.107 329.67C200.226 306.264 185.198 281.648 172.226 256.093C185.135 230.59 200.054 206.022 216.855 182.653C246.586 180.52 276.5 180.514 306.231 182.666C322.889 206.034 337.784 230.538 350.993 255.81C337.941 281.299 322.944 305.917 306.401 329.506ZM373.133 71.4656C403.7 88.2006 390.094 147.636 383.416 173.482C363.075 169.026 340.985 165.71 317.858 163.65C304.384 145.441 290.425 128.883 276.412 114.552C296.958 95.7506 342.861 54.8942 373.133 71.4656Z" fill="#53C1DE"/>
</svg>
