<svg width="800" height="800" viewBox="0 0 800 800" fill="none" xmlns="http://www.w3.org/2000/svg">
<g clip-path="url(#clip0_2705_620)">
<path fill-rule="evenodd" clip-rule="evenodd" d="M495.45 160.015C482.256 160.015 471.575 149.62 471.575 136.779C471.575 123.938 482.256 113.59 495.45 113.59C508.644 113.59 519.325 123.938 519.325 136.779C519.325 149.62 508.644 160.015 495.45 160.015ZM304.55 160.015C291.356 160.015 280.675 149.62 280.675 136.779C280.675 123.938 291.356 113.59 304.55 113.59C317.744 113.59 328.425 123.938 328.425 136.779C328.425 149.62 317.744 160.015 304.55 160.015ZM509.562 66.976L518.455 53.9003L527.347 41.0117L547.162 12.0373C549.627 8.46245 548.612 3.66422 544.939 1.31237C541.314 -1.08652 536.337 -0.0987525 533.969 3.47606L503.714 47.5495L494.628 60.8145C465.873 49.949 433.83 43.8813 400 43.8813C366.218 43.8813 334.127 49.949 305.372 60.8145L296.334 47.5495L287.393 34.5206L266.128 3.47606C263.663 -0.0987525 258.734 -1.03948 255.061 1.31237C251.436 3.66422 250.421 8.46245 252.838 12.0373L272.653 41.0117L281.545 53.9003L290.486 66.976C222.97 97.5971 177.299 155.593 177.299 221.963H622.701C622.701 155.593 577.03 97.5971 509.562 66.976ZM180.731 252.914H177.299V593.555C177.299 620.601 199.869 642.615 227.706 642.615H264.05C262.793 646.707 262.117 650.987 262.117 655.502V753.575C262.117 779.21 283.526 800 309.866 800C336.205 800 357.615 779.21 357.615 753.575V655.502C357.615 650.987 356.891 646.707 355.682 642.615H444.318C443.109 646.707 442.433 650.987 442.433 655.502V753.575C442.433 779.21 463.795 800 490.134 800C516.522 800 537.931 779.21 537.931 753.575V655.502C537.931 650.987 537.207 646.707 535.95 642.615H572.342C600.18 642.615 622.701 620.601 622.701 593.555V252.914H180.731ZM97.7493 252.914C71.3616 252.914 50 273.704 50 299.339V498.069C50 523.705 71.3616 544.496 97.7493 544.496C124.089 544.496 145.45 523.705 145.45 498.069V299.339C145.45 273.704 124.089 252.914 97.7493 252.914ZM702.299 252.914C675.911 252.914 654.55 273.704 654.55 299.339V498.069C654.55 523.705 675.911 544.496 702.299 544.496C728.638 544.496 750 523.705 750 498.069V299.339C750 273.704 728.638 252.914 702.299 252.914Z" fill="#41B883"/>
</g>
<defs>
<clipPath id="clip0_2705_620">
<rect width="800" height="800" fill="white"/>
</clipPath>
</defs>
</svg>
