<svg width="957" height="850" viewBox="0 0 957 850" fill="none" xmlns="http://www.w3.org/2000/svg">
<path d="M361.367 123.958L358.875 265.625H99.6875C99.6875 265.625 99.6875 220.168 99.6875 185.937C99.6875 151.707 130.93 123.958 169.469 123.958C208.008 123.958 361.367 123.958 361.367 123.958Z" fill="#37474F"/>
<path d="M598.304 99.6448L635.189 44.4479C640.811 36.0365 637.681 25.1635 628.231 20.1698C618.76 15.1583 606.539 17.9563 600.896 26.35L562.118 84.3625C536.099 75.7208 507.968 70.8333 478.5 70.8333C449.032 70.8333 420.901 75.7208 394.862 84.3802L356.084 26.3677C350.461 17.974 338.24 15.176 328.749 20.1875C319.279 25.1813 316.169 36.0542 321.791 44.4656L358.676 99.6625C292.862 133.662 246.866 194.615 240.247 265.643H716.753C710.134 194.597 664.138 133.645 598.304 99.6448Z" fill="#00E676"/>
<path d="M378.812 194.792C389.824 194.792 398.75 186.863 398.75 177.083C398.75 167.303 389.824 159.375 378.812 159.375C367.801 159.375 358.875 167.303 358.875 177.083C358.875 186.863 367.801 194.792 378.812 194.792Z" fill="white"/>
<path d="M578.188 194.792C589.199 194.792 598.125 186.863 598.125 177.083C598.125 167.303 589.199 159.375 578.188 159.375C567.176 159.375 558.25 167.303 558.25 177.083C558.25 186.863 567.176 194.792 578.188 194.792Z" fill="white"/>
<path d="M787.531 247.917C777.682 247.917 186.615 247.917 169.469 247.917C130.93 247.917 99.6875 220.168 99.6875 185.938C99.6875 185.938 99.6875 629.832 99.6875 664.063C99.6875 698.293 130.93 726.042 169.469 726.042C186.615 726.042 857.312 726.042 857.312 726.042C857.312 726.042 857.312 344.126 857.312 309.896C857.312 275.666 826.07 247.917 787.531 247.917Z" fill="#448AFF"/>
<path d="M787.531 371.875C780.713 371.875 770.166 371.875 757.625 371.875V830.078C770.166 830.078 780.713 830.078 787.531 830.078C826.07 830.078 857.312 802.329 857.312 768.099C857.312 733.869 857.312 309.896 857.312 309.896C857.312 344.126 826.07 371.875 787.531 371.875Z" fill="#37474F"/>
<path d="M673.25 780.247L524.835 500.119C544.992 487.245 558.25 466.384 558.25 442.708C558.25 409.806 532.73 382.305 498.438 374.39V336.458C498.438 326.683 489.506 318.75 478.5 318.75C467.495 318.75 458.563 326.683 458.563 336.458V374.39C424.27 382.305 398.75 409.806 398.75 442.708C398.75 466.384 412.008 487.245 432.165 500.119L283.83 780.105C275.377 796.06 279.823 815.965 296.192 825.934C317.066 838.649 344.779 831.406 355.087 811.945L447.657 637.234C459.938 614.054 497.082 614.054 509.363 637.234L601.933 811.945C608.712 824.783 623.047 832.292 638.02 832.292C646.214 832.292 654.608 830.025 662.005 825.173C677.516 815.008 681.464 795.742 673.25 780.247ZM478.5 407.292C500.491 407.292 518.375 423.176 518.375 442.708C518.375 462.241 500.491 478.125 478.5 478.125C456.509 478.125 438.625 462.241 438.625 442.708C438.625 423.176 456.509 407.292 478.5 407.292Z" fill="#37474F"/>
</svg>
