<svg width="1024" height="990" viewBox="0 0 1024 990" fill="none" xmlns="http://www.w3.org/2000/svg">
<g clip-path="url(#clip0_2705_626)">
<path d="M426.667 323.812C330.667 323.812 266.667 400.125 266.667 515.625C266.667 631.125 326.4 709.5 420.267 709.5C514.133 709.5 576 610.5 576 513.562C576 416.625 537.6 323.812 426.667 323.812ZM426.667 323.812C330.667 323.812 266.667 400.125 266.667 515.625C266.667 631.125 326.4 709.5 420.267 709.5C514.133 709.5 576 610.5 576 513.562C576 416.625 537.6 323.812 426.667 323.812ZM896 82.5H128C116.684 82.5 105.832 86.846 97.8301 94.5818C89.8286 102.318 85.3333 112.81 85.3333 123.75V866.25C85.3333 877.19 89.8286 887.682 97.8301 895.418C105.832 903.154 116.684 907.5 128 907.5H896C907.316 907.5 918.168 903.154 926.17 895.418C934.171 887.682 938.667 877.19 938.667 866.25V123.75C938.667 112.81 934.171 102.318 926.17 94.5818C918.168 86.846 907.316 82.5 896 82.5ZM189.867 736.312H155.733V416.625H189.867V736.312ZM170.667 356.812C164.82 356.296 159.385 353.68 155.436 349.48C151.486 345.28 149.309 339.801 149.333 334.125C149.333 328.108 151.806 322.337 156.207 318.082C160.607 313.828 166.576 311.437 172.8 311.437C179.024 311.437 184.993 313.828 189.393 318.082C193.794 322.337 196.267 328.108 196.267 334.125C196.28 337.286 195.61 340.415 194.3 343.311C192.989 346.208 191.068 348.807 188.657 350.943C186.247 353.079 183.401 354.705 180.303 355.715C177.205 356.726 173.923 357.1 170.667 356.812ZM420.267 742.5C326.4 742.5 232.533 672.375 232.533 517.687C232.533 363 330.667 288.75 426.667 288.75C451.666 288.162 476.474 293.1 499.2 303.187C522.069 313.356 542.433 328.122 558.933 346.5C595.822 393.927 614.66 452.205 612.267 511.5C612.267 682.687 507.733 742.5 420.267 742.5ZM736 742.5C700.351 742.732 665.441 732.678 635.733 713.625L629.333 709.5L644.267 678.562L652.8 684.75C678.558 699.982 707.956 708.508 738.133 709.5C787.2 709.5 840.533 676.5 840.533 620.812C840.533 565.125 814.933 546.562 750.933 519.75C686.933 492.937 642.133 470.25 642.133 404.25C642.133 338.25 695.467 288.75 770.133 288.75C800.049 287.436 829.71 294.605 855.467 309.375L861.867 315.562L846.933 344.437L836.267 338.25C816.097 327.247 793.292 321.558 770.133 321.75C758.471 321.196 746.811 322.906 735.843 326.778C724.874 330.65 714.819 336.606 706.269 344.295C697.72 351.984 690.849 361.25 686.063 371.547C681.276 381.845 678.671 392.964 678.4 404.25C678.4 449.625 712.533 466.125 763.733 488.812H770.133C838.4 521.812 874.667 550.687 874.667 614.625C874.667 678.562 817.067 742.5 736 742.5ZM426.667 323.812C330.667 323.812 266.667 400.125 266.667 515.625C266.667 631.125 326.4 709.5 420.267 709.5C514.133 709.5 576 610.5 576 513.562C576 416.625 537.6 323.812 426.667 323.812Z" fill="black"/>
</g>
<defs>
<clipPath id="clip0_2705_626">
<rect width="1024" height="990" fill="white"/>
</clipPath>
</defs>
</svg>
