<svg width="835" height="845" viewBox="0 0 835 845" fill="none" xmlns="http://www.w3.org/2000/svg">
<path d="M765.417 668.958L114.813 772.823L34.7917 242.938L681.917 142.594L765.417 668.958Z" fill="#03A9F4"/>
<path d="M681.917 142.594L765.417 668.958L114.813 772.823L107.854 721.771L681.917 142.594Z" fill="#039BE5"/>
<path d="M34.7917 242.938L76.5418 515.802L386.188 188.365L34.7917 242.938Z" fill="#29B6F6"/>
<path d="M144.385 732.333L74.802 271.104L654.083 181.323L727.146 639.031L144.385 732.333ZM114.812 301.031L173.958 691.844L687.135 609.104L626.25 220.052L114.812 301.031Z" fill="white"/>
<path d="M193.094 475.312L200.052 528.125L626.25 459.469L617.552 406.656L193.094 475.312Z" fill="white"/>
<path d="M288.771 603.823L234.844 668.958L241.802 584.458C241.802 582.698 241.802 580.938 243.542 579.177L334 355.604C337.479 346.802 347.917 341.521 356.615 346.802L372.271 353.844C380.969 357.365 386.187 367.927 380.969 376.729L292.25 598.542C290.51 600.302 290.51 602.063 288.771 603.823ZM534.052 514.042L372.271 322.156C365.312 315.115 367.052 302.792 374.01 297.51L387.927 286.948C394.885 279.906 407.063 281.667 412.281 288.708L574.063 480.594L534.052 514.042ZM584.5 492.917C584.5 492.917 626.25 505.24 626.25 554.531C626.25 586.219 617.552 598.542 617.552 598.542C617.552 598.542 610.594 577.417 577.542 565.094C532.313 549.25 534.052 514.042 534.052 514.042L572.323 505.24L584.5 492.917Z" fill="white"/>
<path d="M354.875 440.104L334 491.156L367.052 459.469L374.01 440.104H354.875Z" fill="#03A9F4"/>
<path d="M339.219 528.125L367.052 459.469L334 491.156L320.083 528.125H339.219Z" fill="#039BE5"/>
<path d="M264.417 528.125L299.208 440.104H280.073L245.281 528.125H264.417Z" fill="#03A9F4"/>
<path d="M589.719 471.792L532.313 404.896H509.698L570.583 475.313L574.063 480.594L534.052 514.042L511.438 487.635L455.771 422.5H433.156L485.344 484.115L520.135 526.365L532.313 538.688L544.49 528.125L584.5 492.917L598.417 482.354L589.719 471.792Z" fill="#039BE5"/>
<path d="M295.729 367.927V387.292L382.708 424.26V404.896L295.729 367.927Z" fill="#03A9F4"/>
<path d="M313.125 591.5L259.198 568.615L245.281 582.698L313.125 610.865V591.5Z" fill="#039BE5"/>
<path d="M226.146 554.531V573.896L245.281 582.698L259.198 568.615L226.146 554.531Z" fill="#03A9F4"/>
<path d="M659.302 214.771V216.531L671.479 290.469L694.094 227.094C694.094 225.333 695.833 223.573 695.833 221.812L688.875 181.323C674.958 190.125 662.781 204.208 659.302 214.771ZM589.719 570.375C586.24 568.615 582.76 566.854 577.542 565.094C568.844 561.573 563.625 559.812 558.406 556.292L535.792 633.75L574.062 628.469L589.719 570.375ZM525.354 670.719L516.656 709.448L553.187 702.406L563.625 665.437L525.354 670.719ZM605.375 383.771V385.531L598.417 410.177L617.552 406.656L624.51 445.385L638.427 394.333L647.125 366.167L634.948 288.708L615.813 350.323L605.375 383.771Z" fill="#0277BD"/>
<path d="M634.948 288.708L647.125 366.167L669.74 290.469L657.563 216.531C648.865 241.177 640.167 265.823 638.427 269.344L634.948 288.708ZM535.792 633.75L525.354 670.719L563.625 665.438L574.063 628.469L535.792 633.75ZM624.511 445.385L617.552 406.656L598.417 410.177L582.76 466.51L619.292 461.229L624.511 445.385ZM584.5 492.917L574.063 498.198L558.406 556.292C563.625 559.813 570.583 563.333 577.542 565.094C582.761 566.854 586.24 568.615 589.719 570.375L607.115 507C596.677 496.438 584.5 492.917 584.5 492.917Z" fill="#90A4AE"/>
<path d="M607.115 507L619.292 459.469L581.021 464.75L570.583 503.479L584.5 491.156C584.5 492.917 596.677 496.437 607.115 507Z" fill="#0277BD"/>
<path d="M584.5 492.917L570.583 505.24L556.667 556.292C561.885 559.812 568.844 563.333 575.802 565.094C581.021 566.854 584.5 568.615 587.979 570.375L605.375 507C596.677 496.437 584.5 492.917 584.5 492.917Z" fill="#90A4AE"/>
<path d="M626.25 79.2188C521.875 79.2188 452.292 105.625 452.292 105.625V114.427C601.896 114.427 621.031 170.76 626.25 184.844V79.2188Z" fill="#78909C"/>
<path d="M765.417 110.906C761.937 117.948 758.458 123.229 748.021 123.229C728.885 123.229 713.229 95.0625 713.229 95.0625C683.656 75.6979 626.25 52.8125 574.062 52.8125C469.687 52.8125 434.896 79.2188 434.896 79.2188V88.0208C507.958 88.0208 535.792 95.0625 561.885 114.427C603.635 146.115 600.156 218.292 584.5 274.625L553.187 369.688L603.635 385.531L640.167 269.344C641.906 267.583 650.604 241.177 659.302 214.771C664.521 200.688 678.437 183.083 695.833 177.802C706.271 174.281 720.187 172.521 728.885 179.563C737.583 186.604 737.583 191.885 735.844 198.927L770.635 209.49L800.208 123.229L765.417 110.906Z" fill="#D7DEE2"/>
<path d="M748.021 123.229C728.886 123.229 713.229 95.0625 713.229 95.0625L699.313 139.073C694.094 158.437 673.219 167.24 655.823 161.958L581.021 137.313C589.719 153.156 593.198 170.76 594.938 191.885L661.042 213.01C666.261 202.448 674.958 190.125 687.136 183.083C690.615 181.323 694.094 179.563 697.573 177.802C708.011 174.281 721.927 172.521 730.625 179.562C739.323 186.604 739.323 191.885 737.584 198.927L765.417 110.906C761.938 117.948 758.458 123.229 748.021 123.229Z" fill="#90A4AE"/>
<path d="M553.188 369.688L401.844 727.052C393.146 749.937 405.323 778.104 429.677 785.146L445.333 790.427C469.688 797.469 494.042 783.385 499.261 765.781L603.636 385.531L553.188 369.688Z" fill="#424242"/>
</svg>
