<svg width="260" height="180" viewBox="0 0 260 180" fill="none" xmlns="http://www.w3.org/2000/svg">
<path d="M129.687 178.923L259.28 178.752C217.628 168.352 174.781 157.521 134.12 144.165C128.044 142.17 122.107 140.144 116.301 138.088C112.646 129.358 108.612 120.747 104.095 112.301C84.0948 74.9044 53.7694 40.1984 16.3979 11.9338C11.4962 8.22641 6.4714 4.634 1.33956 1.15508L0.94833 82.5457C5.26396 85.4317 9.60899 88.2271 13.9853 90.9136C30.7182 101.186 49.0579 110.74 69.2884 119.708C70.4216 120.221 71.5566 120.733 72.7016 121.243C73.0184 121.387 73.3293 121.532 73.6467 121.676C73.8971 121.791 74.1445 121.908 74.3954 122.023C74.6191 122.129 74.8434 122.234 75.0677 122.339C75.585 122.586 76.1101 122.832 76.6298 123.078C76.6619 123.094 76.6933 123.109 76.7253 123.125C76.9704 123.246 77.2149 123.37 77.4599 123.491C77.8029 123.663 78.1458 123.837 78.4888 124.009C78.7552 124.145 79.0228 124.279 79.2898 124.415C80.1745 124.876 81.0598 125.336 81.9456 125.793C82.1824 125.922 82.418 126.054 82.6548 126.182C82.9254 126.333 83.1966 126.481 83.4672 126.631C83.7354 126.782 84.003 126.933 84.2712 127.084C84.5626 127.252 84.8545 127.42 85.1465 127.588C85.9981 128.107 86.8622 128.631 87.7334 129.157C88.5506 129.661 89.3744 130.167 90.2094 130.679C91.0332 131.214 91.8593 131.748 92.6867 132.283C92.8713 132.409 93.0559 132.535 93.2405 132.661C93.5485 132.875 93.8566 133.09 94.1647 133.304C94.4359 133.496 94.7066 133.688 94.9779 133.88C95.6997 134.402 96.4198 134.926 97.1428 135.445C97.2574 135.531 97.3719 135.618 97.4865 135.704C97.7008 135.867 97.9151 136.03 98.13 136.193C98.8127 136.733 99.4931 137.268 100.175 137.805C100.571 138.13 100.963 138.449 101.359 138.773C101.431 138.833 101.503 138.893 101.575 138.953C102.14 139.434 102.708 139.917 103.272 140.396C103.503 140.6 103.733 140.803 103.963 141.006C104.139 141.164 104.315 141.322 104.491 141.48C104.785 141.749 105.079 142.019 105.373 142.288C105.619 142.518 105.864 142.747 106.11 142.976C106.352 143.207 106.596 143.439 106.838 143.669C107.028 143.853 107.215 144.036 107.405 144.22C107.679 144.491 107.952 144.761 108.224 145.031C108.434 145.243 108.641 145.453 108.851 145.665C109.065 145.885 109.279 146.106 109.493 146.326C109.714 146.558 109.934 146.79 110.155 147.022C110.321 147.2 110.489 147.38 110.655 147.558C110.912 147.839 111.17 148.12 111.426 148.401C111.627 148.625 111.83 148.85 112.03 149.074C112.243 149.317 112.453 149.558 112.665 149.8C112.857 150.023 113.047 150.245 113.239 150.469C113.452 150.722 113.664 150.975 113.877 151.228C114.078 151.472 114.28 151.716 114.48 151.96C114.666 152.19 114.852 152.419 115.037 152.649C115.24 152.907 115.446 153.165 115.649 153.423C115.854 153.688 116.056 153.952 116.26 154.217C116.441 154.456 116.62 154.696 116.801 154.935C116.997 155.201 117.193 155.467 117.389 155.732C117.561 155.97 117.734 156.207 117.905 156.445C118.091 156.708 118.279 156.971 118.464 157.234C118.655 157.511 118.846 157.788 119.037 158.065C119.22 158.336 119.4 158.606 119.583 158.878C119.751 159.132 119.917 159.385 120.084 159.64C120.256 159.907 120.428 160.174 120.6 160.441C120.779 160.725 120.959 161.01 121.137 161.294C121.297 161.555 121.459 161.816 121.618 162.077C121.792 162.367 121.963 162.657 122.136 162.946C122.296 163.22 122.454 163.493 122.613 163.766C122.77 164.044 122.929 164.321 123.086 164.598C123.249 164.891 123.413 165.185 123.576 165.479C123.727 165.76 123.882 166.041 124.033 166.322C124.184 166.608 124.331 166.895 124.482 167.181C124.637 167.482 124.79 167.784 124.943 168.084C125.099 168.397 125.255 168.709 125.41 169.022C125.536 169.281 125.663 169.539 125.788 169.798C125.935 170.109 126.083 170.421 126.23 170.733C126.377 171.053 126.522 171.374 126.668 171.694C126.818 172.03 126.966 172.365 127.115 172.701C127.215 172.93 127.314 173.159 127.413 173.388C127.555 173.725 127.698 174.061 127.839 174.398C127.978 174.739 128.116 175.08 128.253 175.421C128.272 175.468 128.291 175.516 128.309 175.564L128.295 175.566L128.588 176.273C128.607 176.323 128.626 176.372 128.646 176.422C128.765 176.733 128.884 177.045 129.003 177.356C129.097 177.609 129.191 177.861 129.284 178.114C129.381 178.384 129.481 178.655 129.577 178.926C129.583 178.926 129.588 178.926 129.592 178.925C129.624 178.925 129.655 178.924 129.687 178.923Z" fill="url(#paint0_linear_28_115)" fill-opacity="0.69"/>
<path d="M1.35887 2.20619C6.25865 5.54312 11.0585 8.9866 15.7476 12.5327C53.0206 40.7223 83.2646 75.3354 103.21 112.63C114.591 133.911 122.944 156.245 129.734 178.922C130.065 178.913 130.395 178.904 130.726 178.896C123.914 156.122 115.532 133.686 104.095 112.301C84.0954 74.904 53.77 40.198 16.3984 11.9334C11.4967 8.22597 6.47196 4.63354 1.34014 1.15462C1.34676 1.50579 1.35166 1.856 1.35887 2.20619Z" fill="url(#paint1_linear_28_115)"/>
<path d="M1.37281 3.00638C35.1085 26.273 64.0819 54.4564 85.9574 85.7569C92.0439 94.4651 97.6308 103.487 102.562 112.57C114.135 133.887 122.685 156.241 129.686 178.923C130.015 178.914 130.343 178.905 130.671 178.897C123.649 156.118 115.067 133.661 103.438 112.238C98.4925 103.13 92.8908 94.0846 86.7876 85.3526C64.7189 53.776 35.4476 25.3612 1.35414 1.95136C1.36076 2.30303 1.36617 2.6547 1.37281 3.00638Z" fill="url(#paint2_linear_28_115)"/>
<path d="M1.38499 3.69102C7.29755 7.80696 13.0848 12.0725 18.7223 16.5031C44.8904 37.0708 67.2515 60.3903 85.1841 85.8134C91.3044 94.489 96.9332 103.471 101.914 112.51C113.681 133.864 122.434 156.239 129.648 178.924C129.974 178.915 130.3 178.906 130.627 178.898C123.39 156.114 114.606 133.637 102.781 112.176C97.7867 103.114 92.143 94.1084 86.0067 85.4091C68.0282 59.9213 45.6107 36.543 19.3773 15.9236C13.526 11.3247 7.51448 6.90232 1.36691 2.64192C1.37295 2.99211 1.37895 3.34133 1.38499 3.69102Z" fill="url(#paint3_linear_28_115)"/>
<path d="M1.3984 4.4424C7.0095 8.38681 12.5083 12.466 17.8739 16.6918C43.9875 37.2596 66.374 60.5346 84.4108 85.8699C90.5677 94.5177 96.2391 103.46 101.266 112.449C113.23 133.842 122.185 156.236 129.615 178.925C129.94 178.917 130.263 178.908 130.588 178.899C123.134 156.112 114.147 133.614 102.123 112.116C97.0825 103.103 91.3968 94.1372 85.2238 85.4671C67.1424 60.0685 44.7013 36.7364 18.5236 16.1183C12.9454 11.7246 7.22231 7.4901 1.37975 3.40073C1.38637 3.74746 1.39237 4.09469 1.3984 4.4424Z" fill="url(#paint4_linear_28_115)"/>
<path d="M1.4117 5.19813C6.72311 8.96754 11.9322 12.8598 17.026 16.8804C43.0862 37.4483 65.4969 60.6787 83.6373 85.9268C89.8279 94.5414 95.5408 103.445 100.619 112.389C112.782 133.819 121.943 156.234 129.594 178.926C129.915 178.917 130.237 178.908 130.559 178.9C122.884 156.109 113.691 133.591 101.467 112.054C96.3765 103.086 90.6487 94.1604 84.4426 85.5236C66.2582 60.2142 43.7936 36.9275 17.6716 16.3113C12.3665 12.1239 6.93414 8.07823 1.39422 4.16237C1.39906 4.50761 1.40628 4.85288 1.4117 5.19813Z" fill="url(#paint5_linear_28_115)"/>
<path d="M1.42555 5.96329C6.43728 9.55424 11.3574 13.2557 16.1787 17.0686C42.1832 37.6356 64.6198 60.8219 82.8644 85.9832C89.0905 94.5676 94.8454 103.431 99.9708 112.329C112.337 133.798 121.707 156.232 129.58 178.927C129.9 178.918 130.22 178.909 130.541 178.901C122.642 156.107 113.237 133.568 100.809 111.992C95.671 103.073 89.9012 94.1866 83.6602 85.581C65.3723 60.3604 42.8839 37.1198 16.8188 16.5054C11.7868 12.5257 6.64654 8.6684 1.4075 4.93001C1.41293 5.27426 1.42013 5.61854 1.42555 5.96329Z" fill="url(#paint6_linear_28_115)"/>
<path d="M1.43967 6.74818C6.1511 10.1552 10.7863 13.6544 15.3309 17.2567C41.2803 37.8228 63.7412 60.9646 82.0904 86.0391C88.3497 94.5903 94.1472 103.415 99.3223 112.268C111.893 133.776 121.477 156.229 129.577 178.926C129.895 178.917 130.213 178.909 130.531 178.901C122.404 156.104 112.785 133.546 100.151 111.93C94.9632 103.056 89.1515 94.2098 82.8774 85.6379C64.4865 60.5061 41.9734 37.311 15.9658 16.6985C11.2098 12.9289 6.35861 9.26793 1.42045 5.71146C1.42648 6.0572 1.43423 6.40294 1.43967 6.74818Z" fill="url(#paint7_linear_28_115)"/>
<path d="M1.45357 7.53873C5.86588 10.7584 10.2143 14.0559 14.4823 17.4455C40.3766 38.0108 62.8635 61.1079 81.3175 86.0962C87.6105 94.6156 93.45 103.401 98.6742 112.208C111.453 133.755 121.254 156.227 129.585 178.926C129.901 178.917 130.217 178.909 130.533 178.901C122.174 156.102 112.337 133.524 99.4939 111.869C94.2566 103.04 88.4034 94.2346 82.095 85.695C63.5999 60.6514 41.0631 37.5024 15.1125 16.8922C10.6349 13.3358 6.07044 9.87853 1.43437 6.50892C1.44039 6.85219 1.44874 7.19546 1.45357 7.53873Z" fill="url(#paint8_linear_28_115)"/>
<path d="M1.46784 8.33305C5.58221 11.3629 9.64337 14.4577 13.6347 17.6342C39.4727 38.1975 61.9844 61.2507 80.5437 86.1527C86.8752 94.6458 92.7573 103.392 98.0265 112.148C111.016 133.735 121.035 156.227 129.601 178.926C129.915 178.918 130.229 178.909 130.543 178.901C121.948 156.101 111.891 133.503 98.8373 111.808C93.5556 103.031 87.6598 94.2653 81.3135 85.7524C62.7131 60.7961 40.1533 37.6936 14.2596 17.0858C10.0604 13.7436 5.78442 10.4905 1.44866 7.31019C1.45467 7.65098 1.46302 7.99226 1.46784 8.33305Z" fill="url(#paint9_linear_28_115)"/>
<path d="M1.47575 9.12736C5.29633 11.9654 9.07079 14.8589 12.7861 17.8218C38.5683 38.3838 61.1048 61.3923 79.7701 86.2085C86.1335 94.666 92.0576 103.373 97.3783 112.086C110.581 133.714 120.824 156.224 129.627 178.924C129.938 178.916 130.251 178.908 130.563 178.899C121.73 156.098 111.449 133.482 98.1796 111.745C92.8464 103.011 86.9092 94.285 80.5316 85.8088C61.8259 60.9402 39.2425 37.8834 13.4069 17.2789C9.48612 14.1522 5.49916 11.1033 1.46252 8.11587C1.46853 8.45319 1.47212 8.79003 1.47575 9.12736Z" fill="url(#paint10_linear_28_115)"/>
<path d="M1.48393 9.92576C5.0113 12.569 8.4991 15.2612 11.939 18.0105C37.6631 38.5696 60.2249 61.5336 78.9973 86.265C85.3945 94.6898 91.3611 103.357 96.7309 112.026C110.15 133.695 120.618 156.224 129.664 178.924C129.974 178.915 130.284 178.907 130.594 178.899C121.518 156.098 111.01 133.463 97.5233 111.684C92.1411 102.996 86.1619 94.3098 79.7499 85.8668C60.9395 61.085 38.3319 38.0742 12.5549 17.4731C8.91264 14.562 5.21414 11.7163 1.47367 8.92365C1.47849 9.25752 1.4797 9.59139 1.48393 9.92576Z" fill="url(#paint11_linear_28_115)"/>
<path d="M1.49152 10.7334C4.72687 13.1779 7.92794 15.666 11.0912 18.1991C36.7584 38.7554 59.3457 61.6753 78.2246 86.3214C84.6596 94.7199 90.6689 103.348 96.0836 111.965C109.722 133.675 120.421 156.223 129.713 178.922C130.021 178.914 130.329 178.906 130.637 178.898C121.314 156.097 110.574 133.442 96.8665 111.622C91.4393 102.986 85.4175 94.34 78.9694 85.9238C60.0531 61.2282 37.4213 38.2629 11.7036 17.6666C8.33854 14.9717 4.9291 12.3287 1.48243 9.73329C1.48606 10.0667 1.4879 10.4001 1.49152 10.7334Z" fill="url(#paint12_linear_28_115)"/>
<path d="M1.49906 11.559C4.44178 13.8007 7.35966 16.0732 10.2432 18.3873C35.8529 38.9407 58.4645 61.8161 77.4505 86.3779C83.9175 94.7397 89.9687 103.328 95.4356 111.905C109.297 133.657 120.231 156.223 129.772 178.922C130.078 178.914 130.384 178.905 130.691 178.897C121.116 156.097 110.141 133.424 96.2096 111.562C90.7303 102.967 84.6671 94.3608 78.1877 85.9817C59.1648 61.3725 36.5099 38.4532 10.8509 17.8608C7.76549 15.3844 4.64282 12.952 1.48997 10.5583C1.49361 10.8912 1.49543 11.2251 1.49906 11.559Z" fill="url(#paint13_linear_28_115)"/>
<path d="M1.5071 12.389C4.15719 14.4245 6.79132 16.4814 9.39468 18.5755C34.9457 39.1246 57.5826 61.9558 76.6775 86.4339C83.1782 94.7644 89.2709 103.313 94.7875 111.844C108.874 133.639 120.045 156.223 129.841 178.919C130.145 178.911 130.449 178.903 130.753 178.895C120.923 156.096 109.71 133.404 95.552 111.499C90.0242 102.951 83.9196 94.385 77.4059 86.0382C58.2753 61.5142 35.5956 38.6405 9.99826 18.0534C7.19363 15.798 4.35648 13.5823 1.49804 11.3948C1.50107 11.7262 1.50348 12.0576 1.5071 12.389Z" fill="url(#paint14_linear_28_115)"/>
<path d="M1.51479 13.2225C3.87521 15.0494 6.22317 16.8912 8.54692 18.7637C34.0392 39.3085 56.701 62.0947 75.9037 86.4894C82.4434 94.7932 88.5781 103.303 94.1396 111.783C108.456 133.621 119.867 156.223 129.921 178.917C130.224 178.909 130.526 178.901 130.829 178.893C120.739 156.096 109.284 133.387 94.8946 111.438C89.3225 102.941 83.1747 94.4148 76.6231 86.0952C57.3853 61.6561 34.6821 38.8289 9.14522 18.2471C6.62199 16.2138 4.07154 14.2156 1.50575 12.2362C1.50877 12.5651 1.51177 12.8941 1.51479 13.2225Z" fill="url(#paint15_linear_28_115)"/>
<path d="M1.52293 14.0603C3.59365 15.6756 5.65555 17.3018 7.69907 18.9523C33.1309 39.4918 55.818 62.2339 75.1307 86.5462C81.7048 94.8193 87.8827 103.289 93.4921 111.723C108.041 133.604 119.698 156.224 130.015 178.914C130.315 178.906 130.616 178.898 130.917 178.89C120.563 156.097 108.861 133.369 94.2382 111.377C88.6182 102.928 82.429 94.4409 75.8424 86.1526C56.4952 61.7972 33.769 39.0161 8.29318 18.4407C6.05196 16.6308 3.78821 14.8492 1.51446 13.0815C1.5169 13.4074 1.51932 13.7339 1.52293 14.0603Z" fill="url(#paint16_linear_28_115)"/>
<path d="M1.53058 14.9016C3.31339 16.3028 5.08854 17.7139 6.85124 19.1404C32.222 39.6746 54.9351 62.3721 74.3574 86.6021C80.9664 94.8429 87.1863 103.274 92.8442 111.662C107.629 133.587 119.536 156.224 130.12 178.911C130.418 178.903 130.717 178.895 131.016 178.887C120.394 156.097 108.441 133.352 93.5809 111.315C87.9123 102.911 81.6805 94.4646 75.0602 86.209C55.6047 61.9374 32.8536 39.2019 7.44002 18.6332C5.48079 17.0474 3.50501 15.4833 1.52154 13.9292C1.52457 14.2537 1.52814 14.5776 1.53058 14.9016Z" fill="url(#paint17_linear_28_115)"/>
<path d="M1.53871 15.7548C3.0336 16.938 4.52258 18.1281 6.00388 19.3291C31.313 39.8569 54.0503 62.5094 73.5844 86.6586C80.2295 94.8697 86.4914 103.262 92.1961 111.601C107.22 133.571 119.38 156.225 130.235 178.908C130.532 178.9 130.829 178.892 131.126 178.885C120.231 156.099 108.024 133.336 92.9239 111.254C87.2085 102.9 80.9353 94.4928 74.2783 86.2674C54.7127 62.0787 31.9387 39.3887 6.58737 18.8278C4.91074 17.468 3.22404 16.1205 1.52967 14.7834C1.53268 15.1074 1.53627 15.4308 1.53871 15.7548Z" fill="url(#paint18_linear_28_115)"/>
<path d="M1.55536 17.492C2.47323 18.2292 3.39462 18.9624 4.30775 19.7059C29.4918 40.2182 52.2793 62.7821 72.0371 86.7706C78.7556 94.9236 85.1021 103.237 90.9002 111.479C106.414 133.542 119.094 156.229 130.507 178.901C130.801 178.893 131.094 178.886 131.388 178.878C119.932 156.102 107.202 133.306 91.6096 111.131C85.8014 102.875 79.4442 94.5478 72.7151 86.3819C52.9269 62.3569 30.1049 39.7584 4.88229 19.2146C3.77562 18.3131 2.66006 17.423 1.54629 16.531C1.5487 16.8515 1.55295 17.1715 1.55536 17.492Z" fill="url(#paint19_linear_28_115)"/>
<path d="M1.56374 18.3654C2.19484 18.8761 2.83068 19.3808 3.45942 19.8945C28.5794 40.3979 51.3923 62.9172 71.2632 86.8268C78.0142 94.9447 84.4033 103.219 90.2523 111.418C106.016 133.528 118.963 156.231 130.662 178.897C130.953 178.89 131.245 178.882 131.536 178.874C119.793 156.105 106.796 133.292 90.9516 111.07C85.0931 102.857 78.6939 94.5699 71.9322 86.4387C52.0316 62.494 29.1854 39.9417 4.02863 19.4081C3.20752 18.7375 2.37875 18.0773 1.55409 17.4122C1.55651 17.7303 1.56192 18.0478 1.56374 18.3654Z" fill="url(#paint20_linear_28_115)"/>
<path d="M1.57008 19.2409C1.91621 19.5227 2.26592 19.8 2.61145 20.0827C27.6662 40.5764 50.5034 63.0511 70.4903 86.8828C77.2768 94.9709 83.7073 103.205 89.6042 111.357C105.622 133.515 118.84 156.234 130.83 178.893C131.12 178.885 131.41 178.877 131.699 178.87C119.663 156.108 106.394 133.279 90.2946 111.01C84.3882 102.845 77.9482 94.5972 71.151 86.4972C51.1356 62.6314 28.2663 40.1251 3.17655 19.6023C2.64102 19.1641 2.09958 18.7334 1.56227 18.2977C1.56468 18.6118 1.56886 18.9264 1.57008 19.2409Z" fill="url(#paint21_linear_28_115)"/>
<path d="M1.57169 20.0532C26.3878 40.3708 49.3311 62.8493 69.7168 86.9395C76.5418 95.0003 83.0156 103.195 88.9568 111.297C105.233 133.502 118.726 156.238 131.013 178.888C131.301 178.881 131.59 178.873 131.878 178.865C119.544 156.112 105.997 133.266 89.6384 110.949C83.6882 102.835 77.2049 94.6275 70.3693 86.5548C49.8023 62.2503 26.637 39.5804 1.5704 19.1139C1.5716 19.4265 1.57047 19.7401 1.57169 20.0532Z" fill="url(#paint22_linear_28_115)"/>
<path d="M1.574 20.9494C26.0033 41.0749 48.6804 63.265 68.944 86.9948C75.8074 95.0283 82.3225 103.184 88.3093 111.235C104.847 133.49 118.621 156.241 131.209 178.882C131.495 178.875 131.782 178.867 132.069 178.859C119.432 156.114 105.603 133.254 88.9808 110.887C82.9857 102.823 76.4605 94.656 69.5875 86.6111C49.144 62.6695 26.2465 40.2919 1.57156 20.0175C1.57337 20.3286 1.57279 20.6392 1.574 20.9494Z" fill="url(#paint23_linear_28_115)"/>
<path d="M1.57587 21.8483C25.6219 41.7776 48.0328 63.6794 68.17 87.0513C75.0642 95.0477 81.6225 103.164 87.6614 111.175C104.465 133.48 118.525 156.245 131.42 178.877C131.705 178.87 131.989 178.862 132.274 178.855C119.328 156.12 105.213 133.244 88.324 110.827C82.2768 102.805 75.7095 94.6769 68.8058 86.6697C48.4892 63.0894 25.8604 41.0025 1.57403 20.9253C1.57523 21.2329 1.57467 21.5406 1.57587 21.8483Z" fill="url(#paint24_linear_28_115)"/>
<path d="M1.57766 22.7494C25.2427 42.4773 47.3864 64.0917 67.3966 87.1073C74.3322 95.0798 80.932 103.157 87.0128 111.114C104.088 133.469 118.438 156.25 131.645 178.871C131.929 178.864 132.213 178.856 132.496 178.849C119.236 156.125 104.828 133.234 87.6677 110.766C81.5786 102.798 74.9698 94.7105 68.0247 86.7276C47.8363 63.5066 25.4777 41.7106 1.57583 21.8354C1.57704 22.1396 1.57705 22.4442 1.57766 22.7494Z" fill="url(#paint25_linear_28_115)"/>
<path d="M1.58017 23.6527C24.869 43.175 46.7441 64.5025 66.6232 87.1632C73.5961 95.1065 80.2385 103.144 86.3654 111.053C103.714 133.459 118.361 156.255 131.887 178.865C132.168 178.857 132.45 178.85 132.731 178.842C119.152 156.129 104.447 133.224 87.0109 110.704C80.8756 102.786 74.2249 94.7378 67.2431 86.7846C47.1869 63.9215 25.0987 42.4152 1.57837 22.7465C1.57897 23.0482 1.57898 23.3504 1.58017 23.6527Z" fill="url(#paint26_linear_28_115)"/>
<path d="M1.58178 24.5666C24.4956 43.8775 46.1046 64.9123 65.8496 87.2185C72.861 95.1336 79.5453 103.131 85.7173 110.991C103.345 133.45 118.293 156.26 132.143 178.857C132.424 178.85 132.703 178.842 132.983 178.835C119.078 156.134 104.07 133.215 86.3532 110.643C80.1735 102.773 73.4809 94.7653 66.4612 86.8409C46.5385 64.3342 24.7217 43.1173 1.57997 23.659C1.58057 23.9622 1.58118 24.2644 1.58178 24.5666Z" fill="url(#paint27_linear_28_115)"/>
<path d="M1.58373 25.4897C24.1248 44.5841 45.4683 65.3221 65.0757 87.275C72.122 95.1583 78.8484 103.117 85.0688 110.93C102.981 133.443 118.235 156.266 132.415 178.851C132.693 178.843 132.971 178.836 133.25 178.828C119.013 156.14 103.697 133.208 85.6952 110.582C79.4682 102.76 72.7335 94.7916 65.6789 86.8989C45.8951 64.749 24.3462 43.8318 1.58128 24.5909C1.58248 24.8907 1.58313 25.1904 1.58373 25.4897Z" fill="url(#paint28_linear_28_115)"/>
<path d="M1.58567 26.4137C23.7577 45.2878 44.8355 65.7301 64.3023 87.3306C71.3895 95.1885 78.1579 103.108 84.4209 110.869C102.622 133.436 118.187 156.272 132.703 178.843C132.98 178.836 133.257 178.828 133.534 178.82C118.959 156.147 103.331 133.201 85.0384 110.521C78.7683 102.751 71.9916 94.8228 64.8979 86.9565C45.2553 65.1609 23.9749 44.5434 1.58389 25.5238C1.58449 25.8211 1.58567 26.1174 1.58567 26.4137Z" fill="url(#paint29_linear_28_115)"/>
<path d="M1.588 27.3396C23.3932 45.9884 44.2044 66.1354 63.5289 87.387C70.658 95.2211 77.469 103.101 83.7728 110.808C102.267 133.431 118.151 156.28 133.009 178.835C133.285 178.828 133.56 178.82 133.836 178.813C118.917 156.155 102.968 133.197 84.382 110.461C78.0711 102.746 71.2524 94.8574 64.1167 87.0153C44.6176 65.5727 23.6057 45.2529 1.58624 26.4596C1.58623 26.7524 1.58801 27.0458 1.588 27.3396Z" fill="url(#paint30_linear_28_115)"/>
<path d="M1.58974 28.2665C23.0317 46.686 43.5762 66.5388 62.7553 87.4424C69.9188 95.2434 76.7718 103.084 83.1247 110.747C101.916 133.425 118.125 156.287 133.333 178.826C133.607 178.819 133.882 178.811 134.155 178.804C118.885 156.162 102.61 133.191 83.7251 110.4C77.365 102.729 70.5043 94.8806 63.3349 87.0717C43.9817 65.9795 23.2395 45.957 1.588 27.3945C1.58798 27.6853 1.58975 27.9757 1.58974 28.2665Z" fill="url(#paint31_linear_28_115)"/>
<path d="M1.59172 29.2059C22.6717 47.3902 42.95 66.9417 61.9814 87.4984C69.1839 95.2726 76.0795 103.074 82.4768 110.686C101.572 133.421 118.111 156.295 133.675 178.817C133.948 178.81 134.22 178.803 134.493 178.796C118.864 156.171 102.258 133.189 83.0677 110.339C76.6645 102.72 69.7618 94.9113 62.5527 87.1302C43.3484 66.3869 22.8759 46.6636 1.58998 28.3358C1.58998 28.6257 1.59233 28.9155 1.59172 29.2059Z" fill="url(#paint32_linear_28_115)"/>
<path d="M1.59063 30.1456C22.3121 48.0917 42.3272 67.3416 61.2086 87.5539C68.4579 95.3091 75.3961 103.071 81.8295 110.624C101.233 133.418 118.108 156.303 134.035 178.807C134.306 178.8 134.578 178.794 134.85 178.787C118.857 156.181 101.912 133.186 82.4114 110.278C75.9721 102.719 69.028 94.9494 61.7722 87.1872C42.7203 66.7918 22.5145 47.3741 1.59246 29.287C1.59184 29.5734 1.59125 29.8597 1.59063 30.1456Z" fill="url(#paint33_linear_28_115)"/>
<path d="M1.58717 31.084C21.9537 48.7879 41.705 67.7381 60.4346 87.6098C67.7236 95.3368 74.7037 103.059 81.1808 110.562C100.898 133.415 118.117 156.312 134.413 178.797C134.684 178.79 134.954 178.785 135.225 178.778C118.86 156.19 101.57 133.185 81.7546 110.217C75.2709 102.707 68.2842 94.978 60.9898 87.2446C42.091 67.1937 22.1521 48.0797 1.59026 30.2362C1.59023 30.5191 1.58721 30.8016 1.58717 31.084Z" fill="url(#paint34_linear_28_115)"/>
<path d="M1.58314 32.0238C21.5977 49.4811 41.0853 68.133 59.6612 87.6657C66.9869 95.363 74.0091 103.046 80.5329 110.501C100.569 133.415 118.139 156.323 134.812 178.788C135.081 178.781 135.35 178.776 135.619 178.769C118.875 156.202 101.234 133.185 81.0971 110.157C74.5679 102.695 67.5404 95.0062 60.2082 87.3025C41.4635 67.5931 21.7913 48.7808 1.58625 31.1849C1.58621 31.4648 1.58376 31.7443 1.58314 32.0238Z" fill="url(#paint35_linear_28_115)"/>
<path d="M1.57921 32.9651C21.2435 50.1718 40.4667 68.5245 58.8879 87.7212C66.2615 95.3996 73.3263 103.043 79.8856 110.439C100.247 133.415 118.173 156.335 135.231 178.778C135.499 178.771 135.767 178.766 136.035 178.759C118.904 156.214 100.904 133.186 80.4403 110.097C73.8757 102.694 66.8062 95.0448 59.4266 87.361C40.8391 67.9905 21.4336 49.4789 1.58291 32.1346C1.58228 32.4111 1.58044 32.6881 1.57921 32.9651Z" fill="url(#paint36_linear_28_115)"/>
<path d="M1.57564 33.9178C20.8903 50.869 39.8515 68.9156 58.1143 87.7772C65.5312 95.4322 72.638 103.036 79.2368 110.378C99.9293 133.417 118.222 156.347 135.672 178.768C135.938 178.761 136.205 178.756 136.472 178.749C118.947 156.228 100.578 133.189 79.7833 110.036C73.1796 102.689 66.0675 95.0794 58.6453 87.419C40.2162 68.3855 21.0762 50.1796 1.57871 33.0922C1.57807 33.3673 1.57628 33.6423 1.57564 33.9178Z" fill="url(#paint37_linear_28_115)"/>
<path d="M1.57164 34.8695C20.539 51.5608 39.2376 69.3031 57.3397 87.8327C64.8123 95.4762 71.9617 103.041 78.5883 110.317C99.6182 133.421 118.283 156.36 136.132 178.757C136.398 178.751 136.663 178.745 136.928 178.738C119.001 156.241 100.26 133.194 79.1258 109.976C72.4939 102.695 65.3403 95.125 57.863 87.477C39.5952 68.7781 20.7208 50.8803 1.57415 34.0539C1.5741 34.3254 1.57288 34.5975 1.57164 34.8695Z" fill="url(#paint38_linear_28_115)"/>
<path d="M1.56752 35.8218C20.19 52.2491 38.6254 69.6883 56.5662 87.8887C64.0808 95.506 71.2722 103.031 77.9402 110.255C99.3134 133.425 118.357 156.375 136.615 178.746C136.88 178.74 137.144 178.734 137.408 178.727C119.071 156.256 99.9472 133.199 78.4688 109.915C71.7967 102.687 64.6005 95.1567 57.0817 87.5345C38.9764 69.1672 20.3676 51.5755 1.57062 35.015C1.56997 35.2836 1.56877 35.5527 1.56752 35.8218Z" fill="url(#paint39_linear_28_115)"/>
<path d="M1.56418 36.7729C19.8429 52.9318 38.0151 70.0698 55.7929 87.9441C63.3554 95.5409 70.5883 103.027 77.2923 110.193C99.0154 133.43 118.449 156.39 137.123 178.733C137.385 178.727 137.648 178.721 137.912 178.714C119.157 156.272 99.6427 133.205 77.8133 109.854C71.1051 102.683 63.8669 95.1932 56.3007 87.5919C38.3597 69.5532 20.0171 52.2661 1.56736 35.9755C1.56612 36.2416 1.56484 36.5073 1.56418 36.7729Z" fill="url(#paint40_linear_28_115)"/>
<path d="M5.62932 36.5629C23.4248 52.3429 41.2668 69.1368 59.0888 86.8958C66.716 94.4905 73.9919 101.937 80.7136 109.028C102.794 132.334 122.623 155.303 141.721 177.617C141.982 177.61 142.244 177.604 142.506 177.598C123.326 155.186 103.413 132.11 81.2245 108.69C74.4992 101.595 67.2197 94.1448 59.5883 86.5461C41.6013 68.6222 23.593 51.6793 5.63252 35.7705C5.63126 36.0342 5.63056 36.2983 5.62932 36.5629Z" fill="url(#paint41_linear_28_115)"/>
<path d="M1.55661 38.6328C19.0131 54.1369 36.5966 70.6252 54.2455 88.055C61.9159 95.624 69.2339 103.031 75.9963 110.07C98.4399 133.447 118.677 156.427 138.206 178.708C138.466 178.701 138.727 178.695 138.988 178.689C119.374 156.31 99.0524 133.225 76.4995 109.734C69.7335 102.691 62.4119 95.2802 54.7379 87.7078C36.924 70.1155 19.1772 53.4817 1.55982 37.8502C1.55798 38.1114 1.55788 38.3721 1.55661 38.6328Z" fill="url(#paint42_linear_28_115)"/>
<path d="M1.5525 39.5972C18.6712 54.8211 35.9963 71.0056 53.472 88.1109C61.201 95.6698 68.5604 103.037 75.3476 110.008C98.1624 133.458 118.816 156.449 138.784 178.694C139.044 178.688 139.303 178.682 139.563 178.676C119.508 156.333 98.7666 133.237 75.8419 109.673C69.0518 102.699 61.6882 95.3275 53.9561 87.7661C36.3171 70.5009 18.8305 54.1738 1.55516 38.8246C1.55388 39.0818 1.55435 39.3395 1.5525 39.5972Z" fill="url(#paint43_linear_28_115)"/>
<path d="M1.54684 40.5595C18.3276 55.4981 35.3961 71.3824 52.698 88.166C60.6158 95.8408 67.8124 102.965 74.6998 109.946C97.0079 132.573 117.362 154.717 137.047 176.132C137.832 176.987 138.608 177.83 139.389 178.679C139.648 178.673 139.906 178.667 140.165 178.661C139.292 177.711 138.424 176.768 137.547 175.813C117.858 154.394 97.4997 132.247 75.1857 109.613C68.2953 102.629 61.0958 95.501 53.1745 87.8233C35.7109 70.8827 18.4846 54.8592 1.55183 39.7977C1.54996 40.0519 1.54869 40.3057 1.54684 40.5595Z" fill="url(#paint44_linear_28_115)"/>
<path d="M1.53855 41.4822C17.8568 56.035 34.6175 71.5826 51.9245 88.2218C59.9134 95.8964 67.1514 102.982 74.0517 109.884C95.4986 131.352 115.244 152.335 134.338 172.627C136.244 174.652 138.135 176.661 140.021 178.664C140.279 178.658 140.536 178.652 140.793 178.646C138.814 176.544 136.828 174.434 134.827 172.307C115.729 152.012 95.9816 131.026 74.5282 109.552C67.6255 102.648 60.3852 95.5591 52.3933 87.882C34.9229 71.0864 18.0091 55.4006 1.54471 40.7289C1.54344 40.9797 1.53982 41.231 1.53855 41.4822Z" fill="url(#paint45_linear_28_115)"/>
<path d="M1.52919 42.4522C17.5156 56.7133 34.0232 71.9582 51.1505 88.2772C59.2017 95.9418 66.4804 102.989 73.4037 109.823C93.8404 130.01 112.824 149.726 131.184 168.793C134.375 172.108 137.536 175.389 140.68 178.649C140.936 178.643 141.193 178.637 141.449 178.631C138.21 175.272 134.952 171.89 131.661 168.473C113.3 149.403 94.3139 129.685 73.8712 109.492C66.9462 102.656 59.6645 95.607 51.6116 87.9403C34.3227 71.4669 17.6643 56.0878 1.53603 41.7097C1.53415 41.9565 1.53106 42.2043 1.52919 42.4522Z" fill="url(#paint46_linear_28_115)"/>
<path d="M1.5206 43.4205C17.1732 57.384 33.4301 72.3291 50.3766 88.3323C58.5464 96.0408 65.866 103.05 72.7552 109.761C92.003 128.523 110.045 146.843 127.493 164.561C132.166 169.306 136.782 173.992 141.366 178.633C141.622 178.627 141.878 178.62 142.133 178.614C137.451 173.875 132.736 169.088 127.961 164.24C110.511 146.521 92.467 128.198 73.2151 109.432C66.3235 102.719 59.0015 95.708 50.8311 87.9981C33.7225 71.8423 17.3184 56.7664 1.52739 42.6874C1.5255 42.9318 1.52249 43.1761 1.5206 43.4205Z" fill="url(#paint47_linear_28_115)"/>
<path d="M1.51167 44.3637C16.7202 57.9383 32.6853 72.5552 49.6025 88.3883C57.8784 96.1272 65.2394 103.098 72.1065 109.699C89.9481 126.861 106.827 143.628 123.151 159.843C129.544 166.193 135.836 172.441 142.084 178.615C142.34 178.61 142.595 178.604 142.85 178.599C136.501 172.326 130.106 165.976 123.609 159.522C107.284 143.305 90.4026 126.537 72.5581 109.372C65.6892 102.769 58.3259 95.7964 50.0488 88.056C32.9689 72.0708 16.8589 57.3237 1.51796 43.6386C1.51667 43.8805 1.51415 44.1218 1.51167 44.3637Z" fill="url(#paint48_linear_28_115)"/>
<path d="M1.50348 45.2965C18.5712 60.5259 34.5405 75.1902 48.829 88.4436C57.2764 96.2727 64.6789 103.205 71.4585 109.637C87.6279 124.986 103.072 140.003 118.008 154.526C126.406 162.692 134.648 170.703 142.834 178.599C143.09 178.594 143.344 178.59 143.6 178.584C135.309 170.59 126.963 162.477 118.456 154.205C103.519 139.681 88.0736 124.663 71.9019 109.312C65.1205 102.878 57.7168 95.9449 49.2688 88.1143C34.8591 74.7488 18.7419 59.9489 1.51037 44.5808C1.50729 44.8192 1.50537 45.0581 1.50348 45.2965Z" fill="url(#paint49_linear_28_115)"/>
<path d="M1.49469 46.236C17.3528 60.389 32.9034 74.5703 48.0551 88.4992C56.6704 96.412 64.1137 103.306 70.81 109.575C84.9741 122.844 98.6391 135.861 111.855 148.45C122.619 158.704 133.149 168.729 143.618 178.584C143.873 178.578 144.126 178.574 144.381 178.569C133.805 168.615 123.169 158.489 112.293 148.129C99.0765 135.54 85.4097 122.522 71.2444 109.251C64.5469 102.981 57.1025 96.0862 48.486 88.1719C33.1989 74.1192 17.5064 59.8085 1.50045 45.5296C1.49913 45.7651 1.49718 46.0005 1.49469 46.236Z" fill="url(#paint50_linear_28_115)"/>
<path d="M1.48595 47.1896C17.021 61.0436 32.3166 74.9212 47.2816 88.5547C56.3155 96.7788 63.5858 103.438 70.162 109.514C81.9028 120.368 93.3541 131.064 104.427 141.407C118.006 154.09 131.249 166.458 144.433 178.569C144.687 178.563 144.941 178.559 145.194 178.554C131.9 166.345 118.549 153.878 104.856 141.087C93.7826 130.744 82.3307 120.048 70.5887 109.192C64.0119 103.116 56.7405 96.4554 47.706 88.2308C32.6074 74.475 17.1716 60.4715 1.49288 46.4932C1.48979 46.7252 1.48845 46.9572 1.48595 47.1896Z" fill="url(#paint51_linear_28_115)"/>
<path d="M1.47713 48.1422C16.9557 61.9284 32.0511 75.5567 46.5076 88.61C53.4338 94.8587 61.584 102.221 69.5134 109.451C78.2937 117.462 86.9577 125.406 95.3355 133.09C112.318 148.662 128.825 163.791 145.29 178.551C145.544 178.546 145.797 178.541 146.049 178.537C129.472 163.681 112.854 148.451 95.7551 132.771C87.3768 125.088 78.7128 117.143 69.9318 109.132C62.0019 101.901 53.8505 94.5379 46.9237 88.2886C32.3395 75.1204 17.1052 61.3667 1.4835 47.4556C1.48099 47.6841 1.47964 47.9131 1.47713 48.1422Z" fill="url(#paint52_linear_28_115)"/>
<path d="M1.46837 49.0833C12.2565 58.6829 22.9807 68.2881 33.6134 77.8119C37.6679 81.4433 41.7088 85.0629 45.7336 88.6648L46.5691 89.4114C54.2719 96.2992 61.5478 102.805 68.8648 109.388C73.9799 113.994 79.0338 118.551 84.0385 123.063C105.197 142.142 125.7 160.616 146.188 178.533C146.44 178.528 146.692 178.523 146.943 178.518C126.342 160.508 105.726 141.933 84.4486 122.747C79.444 118.234 74.3906 113.677 69.2749 109.071C61.9568 102.487 54.6809 95.9814 46.9774 89.0931L46.1425 88.3464C42.1177 84.7446 38.0769 81.1255 34.0223 77.494C23.2572 67.8518 12.3983 58.1267 1.47412 48.4071C1.4722 48.6327 1.4709 48.8577 1.46837 49.0833Z" fill="url(#paint53_linear_28_115)"/>
<path d="M1.45966 50.0264C7.67733 55.551 13.8724 61.0662 20.0301 66.5503C28.3861 73.9922 36.6999 81.3961 44.9596 88.7206L53.0436 95.8806C58.149 100.401 63.2094 104.882 68.2163 109.327L69.7678 110.706C96.1366 134.134 121.611 156.767 147.099 178.516C147.351 178.511 147.603 178.506 147.855 178.501C122.25 156.661 96.6614 133.928 70.1703 110.39L68.6187 109.011C63.6118 104.566 58.5509 100.085 53.4454 95.5642L45.3615 88.4047C37.1023 81.0803 28.7886 73.6763 20.4326 66.2349C14.1437 60.6343 7.81727 55.0016 1.466 49.3587C1.46349 49.5817 1.46219 49.8038 1.45966 50.0264Z" fill="url(#paint54_linear_28_115)"/>
<path d="M1.45019 50.9625C3.32303 52.6238 5.1941 54.2835 7.0598 55.9393C19.2701 66.7726 31.8959 77.9742 44.1856 88.7758C49.5035 93.4459 54.7846 98.0701 60.017 102.652L67.5676 109.265C94.4981 132.878 121.131 156.079 148.069 178.497C148.32 178.492 148.571 178.487 148.822 178.482C121.763 155.973 95.0122 132.67 67.9618 108.952L60.4112 102.339C55.1782 97.7577 49.8977 93.1335 44.5797 88.4639C32.2913 77.6633 19.6654 66.4617 7.45512 55.6288C5.45996 53.8586 3.45945 52.0838 1.45598 50.3071C1.45463 50.5248 1.45331 50.7434 1.45019 50.9625Z" fill="url(#paint55_linear_28_115)"/>
<path d="M1.43784 51.895C15.3338 64.1966 29.5302 76.74 43.4116 88.8309C51.2761 95.6758 59.1442 102.479 66.754 109.058L66.9197 109.202C96.1581 134.501 122.744 157.132 149.041 178.478C149.291 178.473 149.541 178.467 149.791 178.463C123.377 157.031 96.6805 134.308 67.3061 108.892L67.1399 108.748C59.5313 102.169 51.6638 95.3653 43.7992 88.5214C29.792 76.3215 15.4632 63.6592 1.44669 51.2505C1.44416 51.4652 1.44097 51.6804 1.43784 51.895Z" fill="url(#paint56_linear_28_115)"/>
<path d="M1.42612 52.8225C15.1415 64.9365 28.9999 77.1135 42.6382 88.8863C51.0448 96.1368 59.3022 103.194 66.2717 109.141C98.1903 136.396 125.151 158.713 150.086 178.458C150.27 178.454 150.455 178.45 150.639 178.447C150.704 178.446 150.771 178.445 150.837 178.444C125.798 158.628 98.7288 136.224 66.6493 108.832C59.6809 102.886 51.4229 95.8293 43.0181 88.5799C29.2569 76.7014 15.2715 64.4104 1.43433 52.1884C1.43179 52.3991 1.42866 52.6108 1.42612 52.8225Z" fill="url(#paint57_linear_28_115)"/>
<path d="M1.41362 53.746C14.8933 65.621 28.4523 77.4682 41.8641 88.9412C48.8188 94.8857 56.3683 101.285 65.623 109.078C97.152 135.645 124.884 158.147 151.174 178.439C151.425 178.434 151.677 178.432 151.928 178.428C125.525 158.06 97.6774 135.47 65.9935 108.772C56.74 100.98 49.191 94.5818 42.2369 88.6378C28.7051 77.0616 15.0227 65.1044 1.42251 53.1213C1.41937 53.3295 1.41618 53.5378 1.41362 53.746Z" fill="url(#paint58_linear_28_115)"/>
<path d="M1.40127 54.6701C14.6214 66.284 27.9005 77.8146 41.0901 88.9963C48.2364 95.0507 56.0489 101.599 64.9744 109.015C96.1144 134.91 124.698 157.632 152.328 178.422C152.578 178.418 152.829 178.415 153.08 178.412C125.329 157.543 96.6232 134.729 65.3365 108.712C56.4134 101.297 48.6016 94.7493 41.4558 88.6958C28.1481 77.4135 14.7478 65.7762 1.4101 54.0557C1.40696 54.2605 1.40442 54.4653 1.40127 54.6701Z" fill="url(#paint59_linear_28_115)"/>
<path d="M1.38953 55.5876C14.3406 66.9304 27.3477 78.1555 40.3162 89.0517C47.6269 95.1894 55.4813 101.699 64.3259 108.953C95.5389 134.567 124.686 157.281 153.5 178.406C153.75 178.402 154.001 178.399 154.251 178.395C125.308 157.188 96.0376 134.384 64.6798 108.653C55.8364 101.4 47.9843 94.8914 40.6742 88.7547C27.5887 77.7613 14.4641 66.4316 1.39724 54.9841C1.39467 55.1849 1.39211 55.3863 1.38953 55.5876Z" fill="url(#paint60_linear_28_115)"/>
<path d="M1.37719 56.5027C14.0544 67.5681 26.7948 78.4939 39.5416 89.1066C47.0274 95.334 54.9214 101.805 63.6768 108.891C94.5323 133.877 124.65 156.856 154.775 178.388C155.025 178.385 155.276 178.381 155.526 178.378C125.266 156.764 95.0167 133.691 64.0235 108.593C55.2699 101.509 47.3765 95.039 39.8925 88.8131C27.0311 78.1046 14.1755 67.0767 1.3849 55.9081C1.38293 56.1059 1.37976 56.3043 1.37719 56.5027Z" fill="url(#paint61_linear_28_115)"/>
<path d="M1.36524 57.4077C13.768 68.1942 26.2446 78.8292 38.7681 89.1624C46.3748 95.4336 54.3103 101.867 63.0287 108.829C94.0052 133.582 124.754 156.568 156.064 178.37C156.314 178.367 156.564 178.363 156.814 178.36C125.361 156.474 94.4796 133.395 63.3672 108.534C54.65 101.573 46.7163 95.1415 39.1119 88.8718C26.4757 78.4459 13.8868 67.7117 1.37239 56.8245C1.37041 57.0184 1.36781 57.2133 1.36524 57.4077Z" fill="white"/>
<path d="M1.35286 58.3155C13.4801 68.8206 25.697 79.1628 37.9929 89.217C45.6755 95.4944 53.6524 101.889 62.3789 108.766C93.5049 133.309 124.901 156.303 157.408 178.351C157.658 178.348 157.907 178.344 158.156 178.341C125.5 156.207 93.9687 133.122 62.7097 108.474C53.9856 101.598 46.0104 95.2054 38.3301 88.9299C25.9233 78.785 13.5958 68.347 1.35996 57.7437C1.35797 57.9341 1.35603 58.1246 1.35286 58.3155Z" fill="url(#paint62_linear_28_115)"/>
<path d="M1.341 59.2093C13.195 69.4336 25.1524 79.4933 37.2194 89.272C44.9857 95.5606 53.0035 101.917 61.731 108.703C93.0315 133.059 125.093 156.058 158.81 178.331C159.061 178.328 159.311 178.326 159.562 178.324C125.688 155.963 93.4882 132.872 62.0546 108.414C53.3295 101.629 45.3136 95.2745 37.5503 88.9879C25.3734 79.1209 13.3091 68.9674 1.34878 58.6464C1.34619 58.8344 1.34418 59.0219 1.341 59.2093Z" fill="url(#paint63_linear_28_115)"/>
<path d="M1.32976 60.1125C12.9099 70.0548 24.6113 79.8243 36.4454 89.3273C44.3036 95.6321 52.3627 101.95 61.0829 108.641C93.0762 133.206 125.327 155.887 160.239 178.319C160.491 178.316 160.743 178.315 160.995 178.312C125.913 155.789 93.5251 133.022 61.3983 108.355C52.6805 101.665 44.6243 95.35 36.7691 89.0467C24.8275 79.4573 13.021 69.5956 1.33697 59.559C1.33438 59.743 1.33175 59.9275 1.32976 60.1125Z" fill="url(#paint64_linear_28_115)"/>
<path d="M1.31725 61.0002C12.6153 70.6518 24.079 80.1581 35.6708 89.3826C43.5752 95.668 51.6751 101.948 60.4331 108.579C92.662 132.997 125.598 155.675 161.783 178.306C162.035 178.303 162.286 178.301 162.538 178.299C126.175 155.576 93.1021 132.813 60.7414 108.296C51.9863 101.667 43.8887 95.3894 35.9873 89.106C24.2893 79.7976 12.7223 70.2019 1.32449 60.4591C1.32189 60.6386 1.31985 60.8192 1.31725 61.0002Z" fill="url(#paint65_linear_28_115)"/>
<path d="M1.30484 61.8649C12.4069 71.3091 23.6098 80.5364 34.8974 89.4371C42.7577 95.6311 51.1312 102.05 59.7852 108.516C92.274 132.804 125.912 155.478 163.392 178.291C163.644 178.289 163.896 178.287 164.148 178.285C126.483 155.378 92.7052 132.621 60.0863 108.235C51.4353 101.772 43.0648 95.355 35.2075 89.1634C23.8183 80.1823 12.5144 70.8686 1.31386 61.3346C1.31066 61.5117 1.30747 61.6883 1.30484 61.8649Z" fill="url(#paint66_linear_28_115)"/>
<path d="M1.29067 62.7473C12.0785 71.8711 23.0378 80.8298 34.1234 89.492C42.0394 95.6735 50.4549 102.053 59.1366 108.453C91.9074 132.626 126.274 155.297 165.076 178.277C165.328 178.275 165.581 178.272 165.832 178.27C126.838 155.197 92.3291 132.443 59.4301 108.176C50.752 101.778 42.3395 95.4009 34.4264 89.2214C23.2399 80.4802 12.1825 71.4366 1.29911 62.226C1.29649 62.4001 1.29328 62.5737 1.29067 62.7473Z" fill="url(#paint67_linear_28_115)"/>
<path d="M1.27619 63.6198C11.8145 72.4815 22.5072 81.1524 33.3487 89.5475C41.3162 95.7126 49.7743 102.053 58.4873 108.391C91.5631 132.465 126.678 155.131 166.831 178.262C167.083 178.261 167.336 178.259 167.588 178.257C127.236 155.032 91.9771 132.283 58.7742 108.117C50.0642 101.781 41.6097 95.4434 33.6451 89.2808C22.7051 80.8092 11.9169 72.0564 1.2853 63.1099C1.28208 63.28 1.27881 63.4497 1.27619 63.6198Z" fill="url(#paint68_linear_28_115)"/>
<path d="M1.26248 64.4677C11.5288 73.0528 21.978 81.4709 32.5747 89.6019C40.589 95.7476 49.0891 102.048 57.8387 108.328C91.2452 132.318 127.134 154.983 168.672 178.253C168.926 178.252 169.18 178.251 169.434 178.25C127.687 154.885 91.6514 132.139 58.1173 108.057C49.3719 101.78 40.8754 95.4819 32.8646 89.3392C22.1711 81.1343 11.6276 72.6366 1.27104 63.9695C1.26781 64.1352 1.26511 64.3014 1.26248 64.4677Z" fill="url(#paint69_linear_28_115)"/>
<path d="M1.24824 65.3363C11.2134 73.6105 21.4018 81.7511 31.7995 89.6569C39.8577 95.7798 48.3998 102.041 57.1896 108.265C91.4721 132.556 127.464 154.814 170.556 178.246C170.812 178.245 171.067 178.244 171.323 178.243C128.008 154.713 91.8713 132.38 57.4611 107.998C48.6755 101.776 40.1369 95.5181 32.0829 89.3982C21.5896 81.4194 11.3092 73.2017 1.25616 64.8481C1.25353 65.0103 1.25088 65.1736 1.24824 65.3363Z" fill="url(#paint70_linear_28_115)"/>
<path d="M1.23456 66.1691C10.9485 74.1901 20.8945 82.078 31.0261 89.7113C39.1335 95.8162 47.7182 102.037 56.5405 108.202C91.2028 132.434 127.994 154.678 172.58 178.237C172.835 178.236 173.09 178.235 173.346 178.234C128.531 154.576 91.5936 132.258 56.8049 107.938C47.9867 101.776 39.4056 95.5569 31.3018 89.4549C21.0764 81.7511 11.0419 73.7867 1.24192 65.6893C1.23987 65.8501 1.2372 66.0099 1.23456 66.1691Z" fill="url(#paint71_linear_28_115)"/>
<path d="M1.22086 67.0169C10.6556 74.7491 20.3421 82.3679 30.2515 89.7662C38.4074 95.8517 47.0341 102.033 55.8913 108.139C90.9554 132.324 128.565 154.552 174.689 178.229C174.944 178.228 175.199 178.226 175.455 178.226C129.094 154.451 91.3398 132.15 56.1492 107.879C47.2962 101.775 38.6737 95.5965 30.5214 89.5139C20.5199 82.0475 10.745 74.3561 1.22825 66.5505C1.22619 66.7063 1.22351 66.8621 1.22086 67.0169Z" fill="url(#paint72_linear_28_115)"/>
<path d="M1.20819 67.8229C10.4024 75.3156 19.84 82.6916 29.4774 89.8213C37.67 95.8781 46.3381 102.021 55.2426 108.077C80.2294 125.08 116.026 147.843 176.928 178.226C177.162 178.225 177.397 178.226 177.631 178.226C140.602 159.807 97.7965 136.606 55.4935 107.82C46.5937 101.766 37.9292 95.6273 29.7407 89.5735C21.7761 83.6814 12.3317 76.485 1.21449 67.4252C1.21239 67.5578 1.2103 67.6904 1.20819 67.8229Z" fill="url(#paint73_linear_28_115)"/>
<path d="M1.19382 68.6747C10.4265 76.1351 19.576 83.1867 28.7028 89.8762C36.9368 95.9087 45.6482 102.011 54.5934 108.014C79.8183 124.948 116.217 147.698 179.253 178.226C179.489 178.226 179.725 178.226 179.961 178.226C141.928 159.866 97.857 136.642 54.8371 107.761C45.8966 101.761 37.1901 95.6619 28.959 89.6323C19.7503 82.8826 10.5183 75.7649 1.20067 68.2295C1.1986 68.3778 1.19648 68.5263 1.19382 68.6747Z" fill="url(#paint74_linear_28_115)"/>
<path d="M1.18082 69.4944C10.1278 76.6655 19.026 83.4654 27.9283 89.9313C36.2115 95.9439 44.9649 102.007 53.9444 107.951C77.8779 123.803 103.358 138.748 131.838 153.641C147.298 161.725 163.557 169.756 181.632 178.226C181.888 178.226 182.144 178.225 182.401 178.226C143.348 159.939 97.9562 136.694 54.1816 107.703C45.2068 101.761 36.4582 95.7015 28.1792 89.6919C19.1962 83.1672 10.2171 76.3028 1.18761 69.0591C1.18554 69.204 1.18349 69.3489 1.18082 69.4944Z" fill="url(#paint75_linear_28_115)"/>
<path d="M1.16756 70.3069C9.83481 77.1957 18.4806 83.7443 27.1537 89.9861C35.4735 95.9704 44.2689 101.993 53.2952 107.888C97.7961 136.963 143.115 159.611 184.147 178.226C184.409 178.227 184.671 178.227 184.933 178.228C143.755 159.568 98.2244 136.848 53.5246 107.643C44.5037 101.751 35.7125 95.731 27.3968 89.7502C18.6448 83.4516 9.92004 76.8399 1.17323 69.8815C1.17232 70.023 1.17025 70.1649 1.16756 70.3069Z" fill="url(#paint76_linear_28_115)"/>
<path d="M1.15473 71.0771C9.59748 77.7483 17.9999 84.0658 26.3796 90.0406C34.7367 95.9967 43.5746 101.98 52.6458 107.825C97.9715 137.038 144.645 159.676 186.851 178.233C187.115 178.233 187.379 178.234 187.643 178.235C145.289 159.634 98.3975 136.926 52.8706 107.584C43.8035 101.742 34.971 95.7617 26.6185 89.8086C18.1628 83.7796 9.68335 77.3999 1.16281 70.6611C1.15953 70.7996 1.15743 70.9386 1.15473 71.0771Z" fill="url(#paint77_linear_28_115)"/>
<path d="M1.14218 71.8705C9.31054 78.2686 17.4599 84.3409 25.605 90.095C34.0042 96.0268 42.8841 101.97 51.9967 107.762C98.1893 137.13 146.281 159.752 189.689 178.241C189.953 178.242 190.218 178.242 190.481 178.243C146.925 159.712 98.6076 137.02 52.2144 107.524C43.1065 101.736 34.2319 95.7953 25.8369 89.867C17.617 84.0596 9.39339 77.9301 1.14962 71.4669C1.14633 71.6014 1.14428 71.7359 1.14218 71.8705Z" fill="url(#paint78_linear_28_115)"/>
<path d="M1.12845 72.6498C9.02658 78.7809 16.9229 84.6142 24.8311 90.1497C33.2705 96.0547 42.1919 101.959 51.3482 107.699C98.4528 137.24 148.034 159.841 192.675 178.25C192.943 178.251 193.21 178.253 193.477 178.254C148.683 159.802 98.8693 137.135 51.5582 107.465C42.4078 101.728 33.4912 95.8272 25.0565 89.9257C17.0759 84.3394 9.10648 78.4498 1.13591 72.2561C1.13321 72.3872 1.13055 72.5183 1.12845 72.6498Z" fill="url(#paint79_linear_28_115)"/>
<path d="M1.11449 73.4229C8.74536 79.2923 16.3881 84.8872 24.0558 90.2051C32.532 96.0808 41.4959 101.946 50.6984 107.636C98.7672 137.371 149.917 159.944 195.827 178.266C196.094 178.268 196.361 178.269 196.629 178.27C150.568 159.908 99.1772 137.268 50.903 107.406C41.7059 101.719 32.7467 95.8578 24.2759 89.9846C16.5369 84.6174 8.82352 78.9677 1.1214 73.0385C1.11928 73.1666 1.1166 73.2947 1.11449 73.4229Z" fill="url(#paint80_linear_28_115)"/>
<path d="M1.1 74.1882C8.46657 79.8005 15.8564 85.158 23.2818 90.2597C31.7917 96.1051 40.7976 101.93 50.0492 107.573C99.1374 137.524 151.937 160.059 199.149 178.282C199.418 178.283 199.688 178.284 199.958 178.286C152.592 160.023 99.5438 137.425 50.2467 107.347C41.0005 101.707 31.9999 95.8851 23.4948 90.0431C16.0005 84.8936 8.54245 79.4833 1.10699 73.8133C1.10487 73.9384 1.10271 74.0635 1.1 74.1882Z" fill="url(#paint81_linear_28_115)"/>
<path d="M1.0867 74.9468C8.19079 80.3069 15.3276 85.4264 22.5072 90.314C31.0561 96.1321 40.1041 101.918 49.4 107.51C99.5591 137.695 154.104 160.188 202.651 178.302C202.923 178.303 203.196 178.305 203.468 178.307C154.765 160.154 99.9638 137.601 49.5916 107.288C40.3016 101.699 31.2584 95.9165 22.7142 90.1023C15.4675 85.1685 8.26364 79.9976 1.09364 74.5823C1.09093 74.7034 1.08883 74.8251 1.0867 74.9468Z" fill="url(#paint82_linear_28_115)"/>
<path d="M1.07344 75.6858C7.9174 80.798 14.8006 85.6931 21.7332 90.3689C30.3224 96.1597 39.4124 101.906 48.7509 107.447C100.078 137.91 154.498 159.652 206.352 178.324C206.625 178.326 206.898 178.328 207.171 178.329C155.126 159.607 100.468 137.815 48.9354 107.23C39.6017 101.692 30.5177 95.9491 21.9338 90.1612C14.9353 85.441 7.98733 80.4986 1.07983 75.3331C1.0771 75.4508 1.07558 75.568 1.07344 75.6858Z" fill="url(#paint83_linear_28_115)"/>
<path d="M1.05995 76.4169C7.64499 81.2858 14.2741 85.9573 20.9579 90.4233C29.5808 96.1835 38.7128 101.89 48.101 107.384C100.588 138.106 156.798 159.753 210.269 178.349C210.544 178.35 210.82 178.352 211.096 178.354C157.43 159.709 100.975 138.014 48.2802 107.171C38.8974 101.68 29.7713 95.9764 21.1532 90.2202C14.4052 85.7112 7.71315 80.9938 1.06635 76.0741C1.06421 76.1884 1.06209 76.3026 1.05995 76.4169Z" fill="url(#paint84_linear_28_115)"/>
<path d="M1.04665 77.1406C7.37456 81.7707 13.7501 86.2191 20.1834 90.4779C28.8436 96.2093 38.0182 101.876 47.4513 107.32C101.159 138.323 159.262 159.861 214.408 178.375C214.686 178.377 214.963 178.378 215.241 178.38C159.896 159.818 101.541 138.235 47.6246 107.112C38.1962 101.67 29.027 96.0066 20.3727 90.2787C13.8771 85.9789 7.44039 81.4856 1.0525 76.8068C1.05095 76.918 1.04881 77.0293 1.04665 77.1406Z" fill="url(#paint85_linear_28_115)"/>
<path d="M1.03393 77.8568C7.1053 82.2519 13.2273 86.4782 19.4088 90.5318C28.1093 96.2364 37.3253 101.863 46.8022 107.256C101.804 138.566 161.911 159.977 218.8 178.404C219.079 178.406 219.359 178.409 219.638 178.411C162.55 159.936 102.182 138.482 46.9695 107.052C37.4979 101.662 28.2873 96.0382 19.5922 90.3371C13.3507 86.2441 7.16935 81.9738 1.03978 77.5319C1.03763 77.6407 1.03608 77.749 1.03393 77.8568Z" fill="url(#paint86_linear_28_115)"/>
<path d="M1.02112 78.5657C6.83714 82.7298 12.7068 86.7356 18.6342 90.5868C27.3672 96.2592 36.6252 101.847 46.1524 107.194C101.84 138.453 163.256 159.589 221.329 177.774C222.037 177.996 222.749 178.217 223.459 178.439C223.74 178.441 224.021 178.443 224.302 178.445C223.344 178.146 222.385 177.848 221.43 177.549C163.373 159.369 101.976 138.239 46.3139 106.994C36.792 101.65 27.5387 96.0659 18.8111 90.397C12.8249 86.5078 6.89885 82.4607 1.02642 78.2516C1.02485 78.3565 1.02268 78.4614 1.02112 78.5657Z" fill="url(#paint87_linear_28_115)"/>
<path d="M1.00876 79.2332C6.59321 83.196 12.2111 87.0068 17.8589 90.642C26.6298 96.2856 35.9304 101.833 45.5032 107.131C70.7963 121.131 98.8664 133.923 131.317 146.238C163.931 158.616 196.952 168.948 222.077 176.567C224.178 177.204 226.287 177.84 228.398 178.475C228.681 178.478 228.965 178.479 229.247 178.482C226.884 177.771 224.524 177.059 222.173 176.346C163.462 158.543 101.443 137.812 45.6587 106.935C36.0919 101.641 26.7966 96.0963 18.0311 90.4562C12.3269 86.785 6.65317 82.9352 1.01409 78.9295C1.01251 79.0309 1.01033 79.1323 1.00876 79.2332Z" fill="url(#paint88_linear_28_115)"/>
<path d="M0.996408 79.9155C6.32614 83.6547 11.6894 87.2563 17.0843 90.6961C25.8877 96.3085 35.2303 101.816 44.8527 107.067C70.2612 120.934 98.5308 133.56 131.276 145.668C164.056 157.788 197.42 167.902 222.825 175.358C226.417 176.412 230.027 177.464 233.642 178.513C233.928 178.515 234.215 178.518 234.501 178.52C230.629 177.398 226.762 176.272 222.916 175.143C163.554 157.72 100.916 137.391 45.0029 106.876C35.3858 101.629 26.0486 96.1237 17.2505 90.5148C11.801 87.0404 6.38374 83.4008 1.00118 79.6207C0.999587 79.7191 0.998592 79.8171 0.996408 79.9155Z" fill="url(#paint89_linear_28_115)"/>
<path d="M0.984222 80.5906C6.05922 84.1102 11.1689 87.5031 16.3097 90.7506C25.151 96.3337 34.5356 101.802 44.2036 107.004C69.7286 120.739 98.197 133.199 131.235 145.098C164.184 156.965 197.89 166.857 223.573 174.151C228.774 175.627 234.013 177.1 239.251 178.563C239.539 178.566 239.828 178.568 240.116 178.571C234.619 177.036 229.118 175.49 223.659 173.941C122.121 145.11 77.4723 124.642 44.3485 106.818C34.6858 101.62 25.3066 96.1543 16.4707 90.5747C11.277 87.2942 6.11624 83.8648 0.98959 80.3062C0.987399 80.4007 0.985803 80.4957 0.984222 80.5906Z" fill="url(#paint90_linear_28_115)"/>
<path d="M0.971889 81.2585C5.79336 84.563 10.649 87.7481 15.5352 90.8051C24.4114 96.358 33.838 101.787 43.5539 106.941C69.1954 120.543 97.8626 132.839 131.194 144.528C164.316 156.144 198.361 165.815 224.321 172.942C231.253 174.845 238.252 176.741 245.222 178.616C245.512 178.619 245.801 178.621 246.091 178.624C238.861 176.678 231.596 174.712 224.402 172.737C121.78 144.563 76.9022 124.377 43.6928 106.759C33.9828 101.608 24.561 96.1821 15.6901 90.6327C10.7529 87.5436 5.84801 84.3229 0.977273 80.982C0.975671 81.074 0.97407 81.166 0.971889 81.2585Z" fill="url(#paint91_linear_28_115)"/>
<path d="M0.959929 81.9095C5.52788 85.0023 10.1288 87.9891 14.7597 90.8591C23.6673 96.3793 33.1359 101.768 42.9038 106.877C68.663 120.349 97.5297 132.478 131.153 143.958C164.45 155.327 198.833 164.773 225.068 171.733C233.868 174.068 242.773 176.389 251.585 178.674C251.878 178.677 252.17 178.679 252.463 178.682C243.39 176.331 234.211 173.94 225.144 171.535C198.913 164.576 164.536 155.131 131.247 143.765C97.6378 132.289 68.7836 120.165 43.0369 106.7C33.2749 101.594 23.8116 96.2084 14.9094 90.6916C10.2292 87.791 5.58018 84.7731 0.964758 81.6454C0.96315 81.7339 0.961524 81.8215 0.959929 81.9095Z" fill="url(#paint92_linear_28_115)"/>
<path d="M0.948833 82.5458C5.26444 85.4318 9.60955 88.2272 13.9858 90.9138C47.0102 111.187 86.2778 128.668 134.032 144.353C174.437 157.625 216.998 168.403 258.399 178.742C258.692 178.745 258.986 178.748 259.279 178.751C217.628 168.351 174.781 157.52 134.12 144.164C86.3865 128.485 47.1367 111.013 14.1289 90.7503C9.70576 88.0351 5.31382 85.2091 0.953083 82.2901C0.951484 82.3757 0.950433 82.4607 0.948833 82.5458Z" fill="url(#paint93_linear_28_115)"/>
<defs>
<linearGradient id="paint0_linear_28_115" x1="259.102" y1="89.6966" x2="0.963623" y2="90.2115" gradientUnits="userSpaceOnUse">
<stop offset="1" stop-color="white"/>
</linearGradient>
<linearGradient id="paint1_linear_28_115" x1="130.548" y1="89.9085" x2="1.51771" y2="90.1659" gradientUnits="userSpaceOnUse">
<stop stop-color="white"/>
<stop offset="1" stop-color="#FF5E5E" stop-opacity="0.27"/>
</linearGradient>
<linearGradient id="paint2_linear_28_115" x1="130.495" y1="90.3075" x2="1.53091" y2="90.5647" gradientUnits="userSpaceOnUse">
<stop stop-color="white"/>
<stop offset="1" stop-color="#FF5E5E" stop-opacity="0.27"/>
</linearGradient>
<linearGradient id="paint3_linear_28_115" x1="130.451" y1="90.6534" x2="1.54299" y2="90.9105" gradientUnits="userSpaceOnUse">
<stop stop-color="white"/>
<stop offset="1" stop-color="#FF5E5E" stop-opacity="0.27"/>
</linearGradient>
<linearGradient id="paint4_linear_28_115" x1="130.412" y1="91.0334" x2="1.55508" y2="91.2905" gradientUnits="userSpaceOnUse">
<stop stop-color="white"/>
<stop offset="1" stop-color="#FF5E5E" stop-opacity="0.27"/>
</linearGradient>
<linearGradient id="paint5_linear_28_115" x1="130.385" y1="91.4145" x2="1.56879" y2="91.6715" gradientUnits="userSpaceOnUse">
<stop stop-color="white"/>
<stop offset="1" stop-color="#FF5E5E" stop-opacity="0.27"/>
</linearGradient>
<linearGradient id="paint6_linear_28_115" x1="130.367" y1="91.7989" x2="1.5813" y2="92.0558" gradientUnits="userSpaceOnUse">
<stop stop-color="white"/>
<stop offset="1" stop-color="#FF5E5E" stop-opacity="0.27"/>
</linearGradient>
<linearGradient id="paint7_linear_28_115" x1="130.358" y1="92.1894" x2="1.59347" y2="92.4462" gradientUnits="userSpaceOnUse">
<stop stop-color="white"/>
<stop offset="1" stop-color="#FF5E5E" stop-opacity="0.27"/>
</linearGradient>
<linearGradient id="paint8_linear_28_115" x1="130.361" y1="92.5879" x2="1.60659" y2="92.8448" gradientUnits="userSpaceOnUse">
<stop stop-color="white"/>
<stop offset="1" stop-color="#FF5E5E" stop-opacity="0.27"/>
</linearGradient>
<linearGradient id="paint9_linear_28_115" x1="130.371" y1="92.9888" x2="1.62009" y2="93.2456" gradientUnits="userSpaceOnUse">
<stop stop-color="white"/>
<stop offset="1" stop-color="#FF5E5E" stop-opacity="0.27"/>
</linearGradient>
<linearGradient id="paint10_linear_28_115" x1="130.392" y1="93.3908" x2="1.63314" y2="93.6477" gradientUnits="userSpaceOnUse">
<stop stop-color="white"/>
<stop offset="1" stop-color="#FF5E5E" stop-opacity="0.27"/>
</linearGradient>
<linearGradient id="paint11_linear_28_115" x1="130.424" y1="93.7944" x2="1.64349" y2="94.0513" gradientUnits="userSpaceOnUse">
<stop stop-color="white"/>
<stop offset="1" stop-color="#FF5E5E" stop-opacity="0.27"/>
</linearGradient>
<linearGradient id="paint12_linear_28_115" x1="130.468" y1="94.1984" x2="1.65144" y2="94.4554" gradientUnits="userSpaceOnUse">
<stop stop-color="white"/>
<stop offset="1" stop-color="#FF5E5E" stop-opacity="0.27"/>
</linearGradient>
<linearGradient id="paint13_linear_28_115" x1="130.522" y1="94.6106" x2="1.65815" y2="94.8677" gradientUnits="userSpaceOnUse">
<stop stop-color="white"/>
<stop offset="1" stop-color="#FF5E5E" stop-opacity="0.27"/>
</linearGradient>
<linearGradient id="paint14_linear_28_115" x1="130.586" y1="95.0275" x2="1.66539" y2="95.2846" gradientUnits="userSpaceOnUse">
<stop stop-color="white"/>
<stop offset="1" stop-color="#FF5E5E" stop-opacity="0.27"/>
</linearGradient>
<linearGradient id="paint15_linear_28_115" x1="130.662" y1="95.4468" x2="1.67225" y2="95.7042" gradientUnits="userSpaceOnUse">
<stop stop-color="white"/>
<stop offset="1" stop-color="#FF5E5E" stop-opacity="0.27"/>
</linearGradient>
<linearGradient id="paint16_linear_28_115" x1="130.751" y1="95.8683" x2="1.68012" y2="96.1257" gradientUnits="userSpaceOnUse">
<stop stop-color="white"/>
<stop offset="1" stop-color="#FF5E5E" stop-opacity="0.27"/>
</linearGradient>
<linearGradient id="paint17_linear_28_115" x1="130.851" y1="96.2904" x2="1.68635" y2="96.5481" gradientUnits="userSpaceOnUse">
<stop stop-color="white"/>
<stop offset="1" stop-color="#FF5E5E" stop-opacity="0.27"/>
</linearGradient>
<linearGradient id="paint18_linear_28_115" x1="130.962" y1="96.7161" x2="1.69363" y2="96.974" gradientUnits="userSpaceOnUse">
<stop stop-color="white"/>
<stop offset="1" stop-color="#FF5E5E" stop-opacity="0.27"/>
</linearGradient>
<linearGradient id="paint19_linear_28_115" x1="131.225" y1="97.5859" x2="1.7085" y2="97.8443" gradientUnits="userSpaceOnUse">
<stop stop-color="white"/>
<stop offset="1" stop-color="#FF5E5E" stop-opacity="0.27"/>
</linearGradient>
<linearGradient id="paint20_linear_28_115" x1="131.375" y1="98.0244" x2="1.71541" y2="98.2831" gradientUnits="userSpaceOnUse">
<stop stop-color="white"/>
<stop offset="1" stop-color="#FF5E5E" stop-opacity="0.27"/>
</linearGradient>
<linearGradient id="paint21_linear_28_115" x1="131.539" y1="98.4649" x2="1.72271" y2="98.7239" gradientUnits="userSpaceOnUse">
<stop stop-color="white"/>
<stop offset="1" stop-color="#FF5E5E" stop-opacity="0.27"/>
</linearGradient>
<linearGradient id="paint22_linear_28_115" x1="131.718" y1="98.8705" x2="1.7293" y2="99.1298" gradientUnits="userSpaceOnUse">
<stop stop-color="white"/>
<stop offset="1" stop-color="#FF5E5E" stop-opacity="0.27"/>
</linearGradient>
<linearGradient id="paint23_linear_28_115" x1="131.91" y1="99.3191" x2="1.73027" y2="99.5788" gradientUnits="userSpaceOnUse">
<stop stop-color="white"/>
<stop offset="1" stop-color="#FF5E5E" stop-opacity="0.27"/>
</linearGradient>
<linearGradient id="paint24_linear_28_115" x1="132.117" y1="99.7705" x2="1.73165" y2="100.031" gradientUnits="userSpaceOnUse">
<stop stop-color="white"/>
<stop offset="1" stop-color="#FF5E5E" stop-opacity="0.27"/>
</linearGradient>
<linearGradient id="paint25_linear_28_115" x1="132.339" y1="100.222" x2="1.73272" y2="100.483" gradientUnits="userSpaceOnUse">
<stop stop-color="white"/>
<stop offset="1" stop-color="#FF5E5E" stop-opacity="0.27"/>
</linearGradient>
<linearGradient id="paint26_linear_28_115" x1="132.575" y1="100.674" x2="1.73408" y2="100.935" gradientUnits="userSpaceOnUse">
<stop stop-color="white"/>
<stop offset="1" stop-color="#FF5E5E" stop-opacity="0.27"/>
</linearGradient>
<linearGradient id="paint27_linear_28_115" x1="132.828" y1="101.126" x2="1.73503" y2="101.388" gradientUnits="userSpaceOnUse">
<stop stop-color="white"/>
<stop offset="1" stop-color="#FF5E5E" stop-opacity="0.27"/>
</linearGradient>
<linearGradient id="paint28_linear_28_115" x1="133.096" y1="101.589" x2="1.73541" y2="101.851" gradientUnits="userSpaceOnUse">
<stop stop-color="white"/>
<stop offset="1" stop-color="#FF5E5E" stop-opacity="0.27"/>
</linearGradient>
<linearGradient id="paint29_linear_28_115" x1="133.381" y1="102.051" x2="1.73708" y2="102.314" gradientUnits="userSpaceOnUse">
<stop stop-color="white"/>
<stop offset="1" stop-color="#FF5E5E" stop-opacity="0.27"/>
</linearGradient>
<linearGradient id="paint30_linear_28_115" x1="133.684" y1="102.515" x2="1.73832" y2="102.778" gradientUnits="userSpaceOnUse">
<stop stop-color="white"/>
<stop offset="1" stop-color="#FF5E5E" stop-opacity="0.27"/>
</linearGradient>
<linearGradient id="paint31_linear_28_115" x1="134.004" y1="102.977" x2="1.73913" y2="103.241" gradientUnits="userSpaceOnUse">
<stop stop-color="white"/>
<stop offset="1" stop-color="#FF5E5E" stop-opacity="0.27"/>
</linearGradient>
<linearGradient id="paint32_linear_28_115" x1="134.342" y1="103.444" x2="1.74022" y2="103.708" gradientUnits="userSpaceOnUse">
<stop stop-color="white"/>
<stop offset="1" stop-color="#FF5E5E" stop-opacity="0.27"/>
</linearGradient>
<linearGradient id="paint33_linear_28_115" x1="134.7" y1="103.914" x2="1.73831" y2="104.179" gradientUnits="userSpaceOnUse">
<stop stop-color="white"/>
<stop offset="1" stop-color="#FF5E5E" stop-opacity="0.27"/>
</linearGradient>
<linearGradient id="paint34_linear_28_115" x1="135.076" y1="104.383" x2="1.73393" y2="104.649" gradientUnits="userSpaceOnUse">
<stop stop-color="white"/>
<stop offset="1" stop-color="#FF5E5E" stop-opacity="0.27"/>
</linearGradient>
<linearGradient id="paint35_linear_28_115" x1="135.472" y1="104.852" x2="1.72896" y2="105.119" gradientUnits="userSpaceOnUse">
<stop stop-color="white"/>
<stop offset="1" stop-color="#FF5E5E" stop-opacity="0.27"/>
</linearGradient>
<linearGradient id="paint36_linear_28_115" x1="135.888" y1="105.322" x2="1.72408" y2="105.589" gradientUnits="userSpaceOnUse">
<stop stop-color="white"/>
<stop offset="1" stop-color="#FF5E5E" stop-opacity="0.27"/>
</linearGradient>
<linearGradient id="paint37_linear_28_115" x1="136.326" y1="105.795" x2="1.71956" y2="106.064" gradientUnits="userSpaceOnUse">
<stop stop-color="white"/>
<stop offset="1" stop-color="#FF5E5E" stop-opacity="0.27"/>
</linearGradient>
<linearGradient id="paint38_linear_28_115" x1="136.784" y1="106.27" x2="1.71461" y2="106.539" gradientUnits="userSpaceOnUse">
<stop stop-color="white"/>
<stop offset="1" stop-color="#FF5E5E" stop-opacity="0.27"/>
</linearGradient>
<linearGradient id="paint39_linear_28_115" x1="137.264" y1="106.745" x2="1.70954" y2="107.015" gradientUnits="userSpaceOnUse">
<stop stop-color="white"/>
<stop offset="1" stop-color="#FF5E5E" stop-opacity="0.27"/>
</linearGradient>
<linearGradient id="paint40_linear_28_115" x1="137.769" y1="107.218" x2="1.70524" y2="107.489" gradientUnits="userSpaceOnUse">
<stop stop-color="white"/>
<stop offset="1" stop-color="#FF5E5E" stop-opacity="0.27"/>
</linearGradient>
<linearGradient id="paint41_linear_28_115" x1="142.364" y1="106.557" x2="5.76949" y2="106.829" gradientUnits="userSpaceOnUse">
<stop stop-color="white"/>
<stop offset="1" stop-color="#FF5E5E" stop-opacity="0.27"/>
</linearGradient>
<linearGradient id="paint42_linear_28_115" x1="138.847" y1="108.141" x2="1.69582" y2="108.415" gradientUnits="userSpaceOnUse">
<stop stop-color="white"/>
<stop offset="1" stop-color="#FF5E5E" stop-opacity="0.27"/>
</linearGradient>
<linearGradient id="paint43_linear_28_115" x1="139.423" y1="108.621" x2="1.69074" y2="108.896" gradientUnits="userSpaceOnUse">
<stop stop-color="white"/>
<stop offset="1" stop-color="#FF5E5E" stop-opacity="0.27"/>
</linearGradient>
<linearGradient id="paint44_linear_28_115" x1="140.026" y1="109.1" x2="1.68411" y2="109.376" gradientUnits="userSpaceOnUse">
<stop stop-color="white"/>
<stop offset="1" stop-color="#FF5E5E" stop-opacity="0.27"/>
</linearGradient>
<linearGradient id="paint45_linear_28_115" x1="140.656" y1="109.557" x2="1.6749" y2="109.834" gradientUnits="userSpaceOnUse">
<stop stop-color="white"/>
<stop offset="1" stop-color="#FF5E5E" stop-opacity="0.27"/>
</linearGradient>
<linearGradient id="paint46_linear_28_115" x1="141.313" y1="110.039" x2="1.66457" y2="110.318" gradientUnits="userSpaceOnUse">
<stop stop-color="white"/>
<stop offset="1" stop-color="#FF5E5E" stop-opacity="0.27"/>
</linearGradient>
<linearGradient id="paint47_linear_28_115" x1="141.997" y1="110.519" x2="1.65501" y2="110.799" gradientUnits="userSpaceOnUse">
<stop stop-color="white"/>
<stop offset="1" stop-color="#FF5E5E" stop-opacity="0.27"/>
</linearGradient>
<linearGradient id="paint48_linear_28_115" x1="142.715" y1="110.985" x2="1.64514" y2="111.267" gradientUnits="userSpaceOnUse">
<stop stop-color="white"/>
<stop offset="1" stop-color="#FF5E5E" stop-opacity="0.27"/>
</linearGradient>
<linearGradient id="paint49_linear_28_115" x1="143.466" y1="111.448" x2="1.636" y2="111.731" gradientUnits="userSpaceOnUse">
<stop stop-color="white"/>
<stop offset="1" stop-color="#FF5E5E" stop-opacity="0.27"/>
</linearGradient>
<linearGradient id="paint50_linear_28_115" x1="144.248" y1="111.914" x2="1.62627" y2="112.198" gradientUnits="userSpaceOnUse">
<stop stop-color="white"/>
<stop offset="1" stop-color="#FF5E5E" stop-opacity="0.27"/>
</linearGradient>
<linearGradient id="paint51_linear_28_115" x1="145.062" y1="112.387" x2="1.61659" y2="112.673" gradientUnits="userSpaceOnUse">
<stop stop-color="white"/>
<stop offset="1" stop-color="#FF5E5E" stop-opacity="0.27"/>
</linearGradient>
<linearGradient id="paint52_linear_28_115" x1="145.918" y1="112.859" x2="1.60681" y2="113.147" gradientUnits="userSpaceOnUse">
<stop stop-color="white"/>
<stop offset="1" stop-color="#FF5E5E" stop-opacity="0.27"/>
</linearGradient>
<linearGradient id="paint53_linear_28_115" x1="146.813" y1="113.324" x2="1.5971" y2="113.614" gradientUnits="userSpaceOnUse">
<stop stop-color="white"/>
<stop offset="1" stop-color="#FF5E5E" stop-opacity="0.27"/>
</linearGradient>
<linearGradient id="paint54_linear_28_115" x1="147.726" y1="113.791" x2="1.58744" y2="114.082" gradientUnits="userSpaceOnUse">
<stop stop-color="white"/>
<stop offset="1" stop-color="#FF5E5E" stop-opacity="0.27"/>
</linearGradient>
<linearGradient id="paint55_linear_28_115" x1="148.694" y1="114.255" x2="1.57703" y2="114.548" gradientUnits="userSpaceOnUse">
<stop stop-color="white"/>
<stop offset="1" stop-color="#FF5E5E" stop-opacity="0.27"/>
</linearGradient>
<linearGradient id="paint56_linear_28_115" x1="149.664" y1="114.716" x2="1.56375" y2="115.011" gradientUnits="userSpaceOnUse">
<stop stop-color="white"/>
<stop offset="1" stop-color="#FF5E5E" stop-opacity="0.27"/>
</linearGradient>
<linearGradient id="paint57_linear_28_115" x1="150.71" y1="115.174" x2="1.55109" y2="115.471" gradientUnits="userSpaceOnUse">
<stop stop-color="white"/>
<stop offset="1" stop-color="#FF5E5E" stop-opacity="0.27"/>
</linearGradient>
<linearGradient id="paint58_linear_28_115" x1="151.803" y1="115.629" x2="1.53767" y2="115.929" gradientUnits="userSpaceOnUse">
<stop stop-color="white"/>
<stop offset="1" stop-color="#FF5E5E" stop-opacity="0.27"/>
</linearGradient>
<linearGradient id="paint59_linear_28_115" x1="152.956" y1="116.087" x2="1.52439" y2="116.389" gradientUnits="userSpaceOnUse">
<stop stop-color="white"/>
<stop offset="1" stop-color="#FF5E5E" stop-opacity="0.27"/>
</linearGradient>
<linearGradient id="paint60_linear_28_115" x1="154.128" y1="116.542" x2="1.51174" y2="116.846" gradientUnits="userSpaceOnUse">
<stop stop-color="white"/>
<stop offset="1" stop-color="#FF5E5E" stop-opacity="0.27"/>
</linearGradient>
<linearGradient id="paint61_linear_28_115" x1="155.403" y1="116.994" x2="1.49848" y2="117.301" gradientUnits="userSpaceOnUse">
<stop stop-color="white"/>
<stop offset="1" stop-color="#FF5E5E" stop-opacity="0.27"/>
</linearGradient>
<linearGradient id="paint62_linear_28_115" x1="158.036" y1="117.89" x2="1.47233" y2="118.203" gradientUnits="userSpaceOnUse">
<stop stop-color="white"/>
<stop offset="1" stop-color="#FF5E5E" stop-opacity="0.27"/>
</linearGradient>
<linearGradient id="paint63_linear_28_115" x1="159.442" y1="118.33" x2="1.45957" y2="118.646" gradientUnits="userSpaceOnUse">
<stop stop-color="white"/>
<stop offset="1" stop-color="#FF5E5E" stop-opacity="0.27"/>
</linearGradient>
<linearGradient id="paint64_linear_28_115" x1="160.877" y1="118.779" x2="1.44741" y2="119.097" gradientUnits="userSpaceOnUse">
<stop stop-color="white"/>
<stop offset="1" stop-color="#FF5E5E" stop-opacity="0.27"/>
</linearGradient>
<linearGradient id="paint65_linear_28_115" x1="162.42" y1="119.221" x2="1.43404" y2="119.542" gradientUnits="userSpaceOnUse">
<stop stop-color="white"/>
<stop offset="1" stop-color="#FF5E5E" stop-opacity="0.27"/>
</linearGradient>
<linearGradient id="paint66_linear_28_115" x1="164.031" y1="119.65" x2="1.42077" y2="119.974" gradientUnits="userSpaceOnUse">
<stop stop-color="white"/>
<stop offset="1" stop-color="#FF5E5E" stop-opacity="0.27"/>
</linearGradient>
<linearGradient id="paint67_linear_28_115" x1="165.716" y1="120.087" x2="1.40569" y2="120.414" gradientUnits="userSpaceOnUse">
<stop stop-color="white"/>
<stop offset="1" stop-color="#FF5E5E" stop-opacity="0.27"/>
</linearGradient>
<linearGradient id="paint68_linear_28_115" x1="167.473" y1="120.52" x2="1.39035" y2="120.851" gradientUnits="userSpaceOnUse">
<stop stop-color="white"/>
<stop offset="1" stop-color="#FF5E5E" stop-opacity="0.27"/>
</linearGradient>
<linearGradient id="paint69_linear_28_115" x1="169.32" y1="120.943" x2="1.37581" y2="121.278" gradientUnits="userSpaceOnUse">
<stop stop-color="white"/>
<stop offset="1" stop-color="#FF5E5E" stop-opacity="0.27"/>
</linearGradient>
<linearGradient id="paint70_linear_28_115" x1="171.209" y1="121.377" x2="1.36071" y2="121.716" gradientUnits="userSpaceOnUse">
<stop stop-color="white"/>
<stop offset="1" stop-color="#FF5E5E" stop-opacity="0.27"/>
</linearGradient>
<linearGradient id="paint71_linear_28_115" x1="173.233" y1="121.791" x2="1.3462" y2="122.134" gradientUnits="userSpaceOnUse">
<stop stop-color="white"/>
<stop offset="1" stop-color="#FF5E5E" stop-opacity="0.27"/>
</linearGradient>
<linearGradient id="paint72_linear_28_115" x1="175.343" y1="122.215" x2="1.33167" y2="122.562" gradientUnits="userSpaceOnUse">
<stop stop-color="white"/>
<stop offset="1" stop-color="#FF5E5E" stop-opacity="0.27"/>
</linearGradient>
<linearGradient id="paint73_linear_28_115" x1="177.52" y1="122.65" x2="1.31828" y2="123.001" gradientUnits="userSpaceOnUse">
<stop stop-color="white"/>
<stop offset="1" stop-color="#FF5E5E" stop-opacity="0.27"/>
</linearGradient>
<linearGradient id="paint74_linear_28_115" x1="179.851" y1="123.049" x2="1.303" y2="123.406" gradientUnits="userSpaceOnUse">
<stop stop-color="white"/>
<stop offset="1" stop-color="#FF5E5E" stop-opacity="0.27"/>
</linearGradient>
<linearGradient id="paint75_linear_28_115" x1="182.291" y1="123.462" x2="1.2892" y2="123.823" gradientUnits="userSpaceOnUse">
<stop stop-color="white"/>
<stop offset="1" stop-color="#FF5E5E" stop-opacity="0.27"/>
</linearGradient>
<linearGradient id="paint76_linear_28_115" x1="184.825" y1="123.872" x2="1.27516" y2="124.238" gradientUnits="userSpaceOnUse">
<stop stop-color="white"/>
<stop offset="1" stop-color="#FF5E5E" stop-opacity="0.27"/>
</linearGradient>
<linearGradient id="paint77_linear_28_115" x1="187.536" y1="124.262" x2="1.26157" y2="124.634" gradientUnits="userSpaceOnUse">
<stop stop-color="white"/>
<stop offset="1" stop-color="#FF5E5E" stop-opacity="0.27"/>
</linearGradient>
<linearGradient id="paint78_linear_28_115" x1="190.374" y1="124.666" x2="1.24826" y2="125.044" gradientUnits="userSpaceOnUse">
<stop stop-color="white"/>
<stop offset="1" stop-color="#FF5E5E" stop-opacity="0.27"/>
</linearGradient>
<linearGradient id="paint79_linear_28_115" x1="193.371" y1="125.063" x2="1.23376" y2="125.447" gradientUnits="userSpaceOnUse">
<stop stop-color="white"/>
<stop offset="1" stop-color="#FF5E5E" stop-opacity="0.27"/>
</linearGradient>
<linearGradient id="paint80_linear_28_115" x1="196.524" y1="125.459" x2="1.21908" y2="125.849" gradientUnits="userSpaceOnUse">
<stop stop-color="white"/>
<stop offset="1" stop-color="#FF5E5E" stop-opacity="0.27"/>
</linearGradient>
<linearGradient id="paint81_linear_28_115" x1="199.853" y1="125.851" x2="1.20384" y2="126.248" gradientUnits="userSpaceOnUse">
<stop stop-color="white"/>
<stop offset="1" stop-color="#FF5E5E" stop-opacity="0.27"/>
</linearGradient>
<linearGradient id="paint82_linear_28_115" x1="203.364" y1="126.243" x2="1.18983" y2="126.646" gradientUnits="userSpaceOnUse">
<stop stop-color="white"/>
<stop offset="1" stop-color="#FF5E5E" stop-opacity="0.27"/>
</linearGradient>
<linearGradient id="paint83_linear_28_115" x1="207.068" y1="126.626" x2="1.17587" y2="127.036" gradientUnits="userSpaceOnUse">
<stop stop-color="white"/>
<stop offset="1" stop-color="#FF5E5E" stop-opacity="0.27"/>
</linearGradient>
<linearGradient id="paint84_linear_28_115" x1="210.994" y1="127.005" x2="1.1617" y2="127.423" gradientUnits="userSpaceOnUse">
<stop stop-color="white"/>
<stop offset="1" stop-color="#FF5E5E" stop-opacity="0.27"/>
</linearGradient>
<linearGradient id="paint85_linear_28_115" x1="215.139" y1="127.38" x2="1.14772" y2="127.807" gradientUnits="userSpaceOnUse">
<stop stop-color="white"/>
<stop offset="1" stop-color="#FF5E5E" stop-opacity="0.27"/>
</linearGradient>
<linearGradient id="paint86_linear_28_115" x1="219.537" y1="127.753" x2="1.13432" y2="128.189" gradientUnits="userSpaceOnUse">
<stop stop-color="white"/>
<stop offset="1" stop-color="#FF5E5E" stop-opacity="0.27"/>
</linearGradient>
<linearGradient id="paint87_linear_28_115" x1="224.201" y1="128.126" x2="1.12085" y2="128.571" gradientUnits="userSpaceOnUse">
<stop stop-color="white"/>
<stop offset="1" stop-color="#FF5E5E" stop-opacity="0.27"/>
</linearGradient>
<linearGradient id="paint88_linear_28_115" x1="229.148" y1="128.478" x2="1.1079" y2="128.933" gradientUnits="userSpaceOnUse">
<stop stop-color="white"/>
<stop offset="1" stop-color="#FF5E5E" stop-opacity="0.27"/>
</linearGradient>
<linearGradient id="paint89_linear_28_115" x1="234.402" y1="128.838" x2="1.09493" y2="129.303" gradientUnits="userSpaceOnUse">
<stop stop-color="white"/>
<stop offset="1" stop-color="#FF5E5E" stop-opacity="0.27"/>
</linearGradient>
<linearGradient id="paint90_linear_28_115" x1="240.017" y1="129.2" x2="1.08213" y2="129.677" gradientUnits="userSpaceOnUse">
<stop stop-color="white"/>
<stop offset="1" stop-color="#FF5E5E" stop-opacity="0.27"/>
</linearGradient>
<linearGradient id="paint91_linear_28_115" x1="245.993" y1="129.559" x2="1.0692" y2="130.047" gradientUnits="userSpaceOnUse">
<stop stop-color="white"/>
<stop offset="1" stop-color="#FF5E5E" stop-opacity="0.27"/>
</linearGradient>
<linearGradient id="paint92_linear_28_115" x1="252.365" y1="129.913" x2="1.05669" y2="130.415" gradientUnits="userSpaceOnUse">
<stop stop-color="white"/>
<stop offset="1" stop-color="#FF5E5E" stop-opacity="0.27"/>
</linearGradient>
<linearGradient id="paint93_linear_28_115" x1="259.183" y1="130.263" x2="1.04505" y2="130.778" gradientUnits="userSpaceOnUse">
<stop stop-color="white"/>
<stop offset="1" stop-color="#FF5E5E" stop-opacity="0.27"/>
</linearGradient>
</defs>
</svg>
