<svg width="600" height="600" viewBox="0 0 600 600" fill="none" xmlns="http://www.w3.org/2000/svg">
<path d="M134.08 111.421C182.58 119.06 419.398 228.142 464.523 284.104C509.648 340.066 447.823 415.037 404.83 447.193C361.837 479.349 253.821 504.932 206.564 477.04C159.307 449.147 126.796 319.635 121.289 279.84C115.781 240.045 171.388 266.338 173.52 238.268" fill="url(#paint0_linear_33_9)"/>
<path d="M216.361 111.391C264.862 119.031 501.679 228.112 546.804 284.074C591.929 340.036 530.104 415.008 487.111 447.164C444.118 479.32 336.102 504.903 288.845 477.01C241.589 449.118 209.077 319.606 203.57 279.811C198.063 240.015 253.669 266.309 255.801 238.239" fill="url(#paint1_linear_33_9)" fill-opacity="0.35"/>
<defs>
<linearGradient id="paint0_linear_33_9" x1="46.7551" y1="15.2556" x2="-28.21" y2="-337.428" gradientUnits="userSpaceOnUse">
<stop stop-color="#FF5E5E"/>
<stop offset="1" stop-color="#FFB366"/>
</linearGradient>
<linearGradient id="paint1_linear_33_9" x1="202" y1="111" x2="562.562" y2="111" gradientUnits="userSpaceOnUse">
<stop stop-color="#FF5E5E"/>
<stop offset="1" stop-color="#FFB366"/>
</linearGradient>
</defs>
</svg>
