<svg width="30" height="30" viewBox="0 0 30 30" fill="none" xmlns="http://www.w3.org/2000/svg">
<circle cx="15" cy="15" r="15" fill="white"/>
<path fill-rule="evenodd" clip-rule="evenodd" d="M11.408 8.045C12.2077 8.00818 12.4627 8 14.5 8C16.5373 8 16.7923 8.00886 17.5914 8.045C18.3905 8.08114 18.9359 8.20864 19.4132 8.39341C19.913 8.58227 20.3664 8.8775 20.7414 9.25932C21.1232 9.63364 21.4177 10.0864 21.6059 10.5868C21.7914 11.0641 21.9182 11.6095 21.955 12.4073C21.9918 13.2084 22 13.4634 22 15.5C22 17.5373 21.9911 17.7923 21.955 18.592C21.9189 19.3898 21.7914 19.9352 21.6059 20.4125C21.4177 20.913 21.1227 21.3665 20.7414 21.7414C20.3664 22.1232 19.913 22.4177 19.4132 22.6059C18.9359 22.7914 18.3905 22.9182 17.5927 22.955C16.7923 22.9918 16.5373 23 14.5 23C12.4627 23 12.2077 22.9911 11.408 22.955C10.6102 22.9189 10.0648 22.7914 9.5875 22.6059C9.08699 22.4177 8.63351 22.1227 8.25864 21.7414C7.87708 21.3668 7.58181 20.9136 7.39341 20.4132C7.20864 19.9359 7.08182 19.3905 7.045 18.5927C7.00818 17.7916 7 17.5366 7 15.5C7 13.4627 7.00886 13.2077 7.045 12.4086C7.08114 11.6095 7.20864 11.0641 7.39341 10.5868C7.58208 10.0864 7.87758 9.63317 8.25932 9.25864C8.63366 8.87716 9.08669 8.58189 9.58682 8.39341C10.0641 8.20864 10.6102 8.08182 11.408 8.045ZM17.5307 9.395C16.7398 9.35886 16.5025 9.35136 14.5 9.35136C12.4975 9.35136 12.2602 9.35886 11.4693 9.395C10.7377 9.42841 10.3409 9.55045 10.0764 9.65341C9.72659 9.78977 9.47636 9.95136 9.21386 10.2139C8.96503 10.4559 8.77353 10.7506 8.65341 11.0764C8.55045 11.3409 8.42841 11.7377 8.395 12.4693C8.35886 13.2602 8.35136 13.4975 8.35136 15.5C8.35136 17.5025 8.35886 17.7398 8.395 18.5307C8.42841 19.2623 8.55045 19.6591 8.65341 19.9236C8.77341 20.2489 8.965 20.5441 9.21386 20.7861C9.45591 21.035 9.75114 21.2266 10.0764 21.3466C10.3409 21.4495 10.7377 21.5716 11.4693 21.605C12.2602 21.6411 12.4968 21.6486 14.5 21.6486C16.5032 21.6486 16.7398 21.6411 17.5307 21.605C18.2623 21.5716 18.6591 21.4495 18.9236 21.3466C19.2734 21.2102 19.5236 21.0486 19.7861 20.7861C20.035 20.5441 20.2266 20.2489 20.3466 19.9236C20.4495 19.6591 20.5716 19.2623 20.605 18.5307C20.6411 17.7398 20.6486 17.5025 20.6486 15.5C20.6486 13.4975 20.6411 13.2602 20.605 12.4693C20.5716 11.7377 20.4495 11.3409 20.3466 11.0764C20.2102 10.7266 20.0486 10.4764 19.7861 10.2139C19.544 9.96505 19.2493 9.77355 18.9236 9.65341C18.6591 9.55045 18.2623 9.42841 17.5307 9.395ZM13.542 17.812C14.077 18.0347 14.6728 18.0648 15.2275 17.8971C15.7821 17.7294 16.2614 17.3743 16.5834 16.8924C16.9053 16.4106 17.05 15.832 16.9928 15.2553C16.9355 14.6786 16.6798 14.1398 16.2693 13.7307C16.0077 13.4692 15.6913 13.269 15.343 13.1444C14.9946 13.0199 14.623 12.9741 14.2549 13.0104C13.8867 13.0467 13.5312 13.1642 13.214 13.3544C12.8967 13.5446 12.6255 13.8028 12.42 14.1104C12.2145 14.4179 12.0797 14.7672 12.0254 15.1332C11.971 15.4991 11.9985 15.8725 12.1058 16.2265C12.2131 16.5805 12.3976 16.9063 12.6459 17.1805C12.8943 17.4547 13.2003 17.6704 13.542 17.812ZM11.7741 12.7741C12.1321 12.4161 12.557 12.1322 13.0247 11.9384C13.4925 11.7447 13.9938 11.645 14.5 11.645C15.0062 11.645 15.5075 11.7447 15.9753 11.9384C16.443 12.1322 16.8679 12.4161 17.2259 12.7741C17.5839 13.1321 17.8678 13.557 18.0616 14.0247C18.2553 14.4925 18.355 14.9938 18.355 15.5C18.355 16.0062 18.2553 16.5075 18.0616 16.9753C17.8678 17.443 17.5839 17.8679 17.2259 18.2259C16.503 18.9489 15.5224 19.355 14.5 19.355C13.4776 19.355 12.497 18.9489 11.7741 18.2259C11.0511 17.503 10.645 16.5224 10.645 15.5C10.645 14.4776 11.0511 13.497 11.7741 12.7741ZM19.21 12.2191C19.2987 12.1354 19.3697 12.0348 19.4188 11.9232C19.468 11.8115 19.4942 11.6912 19.496 11.5693C19.4977 11.4473 19.475 11.3263 19.4292 11.2133C19.3833 11.1003 19.3153 10.9976 19.2291 10.9114C19.1428 10.8252 19.0402 10.7571 18.9272 10.7113C18.8142 10.6654 18.6931 10.6427 18.5712 10.6445C18.4492 10.6463 18.3289 10.6725 18.2173 10.7216C18.1057 10.7707 18.005 10.8417 17.9214 10.9305C17.7586 11.103 17.6695 11.3321 17.673 11.5693C17.6764 11.8064 17.7722 12.0329 17.9399 12.2006C18.1076 12.3683 18.334 12.464 18.5712 12.4675C18.8083 12.4709 19.0375 12.3818 19.21 12.2191Z" fill="#002D55"/>
</svg>
