<svg width="203" height="249" viewBox="0 0 203 249" fill="none" xmlns="http://www.w3.org/2000/svg">
<path d="M186.946 4.228C187.729 4.42603 188.513 4.62406 189.321 4.8281C209.233 10.0522 228.235 18.9416 243.917 32.5234C245.519 33.8935 245.519 33.8935 247.152 35.2913C273.684 58.7569 289.283 90.7117 293.616 126.021C293.949 131 294.022 135.948 293.995 140.938C293.988 142.274 293.982 143.612 293.974 144.989C293.365 186.526 276.633 221.583 247.832 250.588C219.329 278.336 180.819 290.511 141.906 289.984C101.491 288.621 64.5355 267.782 37.2428 238.434C9.82163 206.537 -1.98942 166.657 0.271693 124.791C1.01933 118.127 2.3429 111.622 3.9082 105.107C4.30822 105.107 4.70822 105.107 5.12036 105.107C5.23912 106.52 5.35787 107.933 5.48022 109.389C8.30868 140.307 20.4766 167.075 43.9097 187.533C48.7666 191.407 53.803 195.002 58.9281 198.499C60.5562 199.614 62.1649 200.756 63.7684 201.907C80.1868 212.926 101.517 220.017 121.185 219.826C122.184 219.835 123.182 219.845 124.211 219.855C125.182 219.852 126.151 219.849 127.151 219.845C128.448 219.842 128.448 219.842 129.769 219.837C133.068 219.554 133.068 219.554 138.459 217.058C138.859 175.648 139.258 134.239 139.671 91.5745C161.092 93.2468 180.202 96.6166 195.421 113.032C207.759 128.987 209.051 147.153 207.552 166.619C204.345 184.947 194.133 201.814 179.266 212.772C170.683 218.739 161.678 223.567 151.793 226.9C150.375 227.382 148.958 227.865 147.498 228.361C124.928 235.214 98.9579 234.148 76.6382 226.9C79.7145 228.068 82.7955 229.218 85.881 230.36C86.7216 230.681 87.5624 231.003 88.4285 231.333C103.022 236.689 117.301 238.634 132.776 238.511C133.597 238.507 134.417 238.503 135.262 238.499C148.246 238.411 160.105 237.371 172.399 233.051C173.179 232.781 173.958 232.51 174.761 232.233C199.193 223.583 221.166 208.774 233.462 185.072C243.144 164.114 244.321 141.641 236.645 119.87C227.264 97.3856 207.349 82.4609 185.677 73.3031C170.066 67.1318 153.68 63.8526 137.247 60.8187C136.395 60.6535 135.543 60.4885 134.667 60.3184C116.888 56.9643 98.2812 58.1344 80.2748 58.3583C81.417 58.8926 82.5592 59.4271 83.7361 59.9777C88.7547 62.7047 91.4274 66.2539 93.1213 71.8062C93.6236 74.4296 93.7578 76.8023 93.7543 79.4734C93.7568 80.9896 93.7568 80.9896 93.7594 82.5365C93.7528 84.1838 93.7528 84.1838 93.7462 85.8642C93.7463 87.0289 93.7466 88.1936 93.7468 89.3934C93.7459 93.2409 93.7365 97.0883 93.727 100.936C93.7247 103.604 93.723 106.273 93.7218 108.941C93.7171 115.964 93.7052 122.985 93.6918 130.007C93.6795 137.173 93.6738 144.339 93.6678 151.506C93.6548 165.564 93.6341 179.624 93.6086 193.684C64.21 184.02 36.8498 160.952 22.0907 133.403C14.0803 116.434 11.8177 97.3584 17.1094 79.1184C25.9895 55.7625 42.3097 41.3318 64.2656 30.9952C100.759 14.8813 141.55 19.6681 177.879 33.7367C191.256 39.2871 203.563 46.7175 214.825 55.8977C215.456 56.4018 216.087 56.9059 216.738 57.4253C226.238 65.0516 234.274 73.0099 241.493 82.9628C241.962 83.6073 242.43 84.2518 242.914 84.9158C248.95 93.2831 254.268 101.779 258.463 111.258C253.147 91.748 245.739 74.1562 233.008 58.3583C232.128 57.2498 231.248 56.1412 230.342 54.9991C209.439 30.1386 177.12 14.2756 145.269 10.6333C138.561 10.0962 131.85 10.0269 125.125 9.99471C123.736 9.98777 122.346 9.98084 120.916 9.97369C113.903 10.0351 107.517 10.4508 100.763 12.4351C98.0477 12.9115 96.2124 12.4492 93.6086 11.6094C124.043 0.446139 155.044 -3.97837 186.946 4.228Z" fill="#15395E"/>
</svg>
